<svg width="48" height="125" viewBox="0 0 48 125" fill="none" xmlns="http://www.w3.org/2000/svg">
<path d="M38.9657 0.616864C38.5524 -0.0168017 37.5461 0.580655 37.9594 1.21432C39.1094 2.98859 40.1516 4.83527 41.104 6.71816C40.4032 7.26131 39.7563 7.84066 39.0735 8.43811C38.0672 9.28904 36.5938 9.32525 35.2461 9.34335C36.2344 7.40614 37.2586 5.48704 38.3547 3.62225C38.7321 2.97048 37.7258 2.37302 37.3485 3.0248C36.1984 4.99821 35.1203 6.98973 34.096 9.01747C32.7484 7.11647 32.0296 4.99821 31.9218 2.68081C33.6828 2.10145 35.4258 1.59452 37.1328 1.16001C37.8696 0.978959 37.5461 -0.16164 36.8274 0.0194077C22.8833 3.54983 4.66263 12.4393 0.799267 27.8464C-2.6508 41.606 5.29155 61.0867 20.3137 63.4765C20.4575 63.4946 20.6012 63.4765 20.709 63.4041C20.3317 84.5867 25.2013 105.86 35.3719 124.707C35.7312 125.377 36.7375 124.779 36.3781 124.109C26.3334 105.516 21.5177 84.5324 21.8591 63.6395C27.717 61.8652 35.0664 60.6703 39.5587 56.2527C44.0509 51.8533 46.2611 44.6114 47.3033 38.5825C49.5675 25.366 46.1893 11.7694 38.9657 0.634969V0.616864ZM42.0743 50.7127C35.4258 50.586 29.2084 48.8117 23.4763 45.4261C23.5482 44.9554 23.62 44.4847 23.6919 44.032C27.142 44.8287 30.5202 44.1588 33.9882 45.1726C37.3844 46.1684 40.6727 46.621 44.1228 46.1141C43.5478 47.7073 42.865 49.2643 42.0564 50.7308L42.0743 50.7127ZM33.7367 58.5702C29.1006 57.4477 28.0584 50.6765 22.7935 50.767C22.7575 50.767 22.7575 50.7851 22.7216 50.8032C22.8114 50.0609 22.9013 49.3005 23.0091 48.5582C26.1717 49.3548 28.3639 51.5274 31.1311 53.1568C33.2874 54.4242 35.6054 55.3113 38.0133 55.9631C36.7375 57.0131 35.3 57.8822 33.7546 58.5883L33.7367 58.5702ZM30.1428 59.9823C27.4475 58.1356 24.8779 56.0898 22.506 53.8448C22.47 53.8267 22.4521 53.8267 22.4161 53.8086C22.488 52.9577 22.5778 52.1068 22.6677 51.2558C22.7036 51.2739 22.7396 51.3102 22.7935 51.3102C27.6631 51.2377 28.8491 57.3752 32.982 58.9141C32.0476 59.3124 31.0952 59.6564 30.1249 59.9823H30.1428ZM26.1537 61.1772C24.7341 60.0185 23.3864 58.7693 22.1286 57.4296C22.2005 56.4338 22.2724 55.4199 22.3622 54.4242C24.6083 56.5243 26.9982 58.4253 29.5139 60.1815C28.3998 60.5436 27.2678 60.8695 26.1537 61.1772ZM11.7065 58.2805C14.4738 56.0355 18.4988 56.1622 21.2302 53.9715C21.1403 54.9311 21.0684 55.8906 20.9966 56.8502C19.2176 58.3167 17.2769 59.5478 15.2105 60.5436C13.9706 59.9099 12.8026 59.1495 11.7065 58.2805ZM21.6434 50.0609C19.595 52.2697 16.5222 51.3645 13.8988 51.799C11.7245 52.1611 9.78383 53.0482 7.95098 54.2612C7.89707 54.2974 7.8791 54.3517 7.86113 54.388C6.69314 52.9215 5.6689 51.3102 4.78841 49.6083C8.6338 49.3367 12.4433 49.5178 16.2886 49.4454C18.3731 49.391 20.2059 49.0108 21.913 47.9427C21.8052 48.6488 21.7333 49.3548 21.6434 50.0609ZM1.23053 36.9531C7.8791 40.5016 14.923 42.819 22.3802 43.9234C22.4521 43.9234 22.506 43.9234 22.5419 43.8872C22.488 44.195 22.4521 44.5028 22.3981 44.8105C15.6777 45.752 9.19085 42.3664 2.48836 43.8691C1.82351 41.606 1.39225 39.2886 1.23053 36.9712V36.9531ZM1.84148 28.5344C3.96183 31.2863 6.19 34.002 9.15491 35.8306C13.3058 38.3834 18.4449 39.6507 23.045 41.2801C22.9013 42.0043 22.7575 42.7285 22.6317 43.4527C22.5958 43.4346 22.5778 43.3984 22.5239 43.3803C14.9949 42.2759 7.93301 39.9404 1.21256 36.3194C1.0688 33.6399 1.26646 31.0147 1.85945 28.5344H1.84148ZM32.4249 15.2455C36.3781 14.9739 39.9899 13.4531 42.9548 10.8279C43.2603 11.5883 43.5478 12.3487 43.8173 13.1272C41.6431 14.2316 40.3493 15.843 38.3188 17.1284C36.0906 18.5406 33.1796 19.1561 30.5921 19.6087C31.1671 18.1423 31.778 16.6939 32.4249 15.2455ZM44.7158 15.8611C40.3852 20.3872 34.9586 23.284 28.8311 24.3341C29.3163 22.94 29.8374 21.5822 30.3585 20.2062C32.9281 19.7536 35.6054 19.138 37.9414 17.9431C40.1876 16.8025 41.7329 14.8291 44.015 13.6342C44.2666 14.3765 44.5002 15.1007 44.7158 15.843V15.8611ZM46.0994 21.8718C40.9423 26.7239 34.4015 29.0775 27.3936 28.6973C27.7889 27.43 28.2022 26.1808 28.6334 24.9315C34.9047 23.9358 40.4571 21.0209 44.8955 16.4766C45.3986 18.2509 45.8119 20.0614 46.1174 21.8899L46.0994 21.8718ZM46.7463 27.6835C41.2657 32.3364 32.8562 29.7293 26.3514 32.264C26.6389 31.2501 26.9264 30.2362 27.2318 29.2224C34.3117 29.6569 40.9782 27.2852 46.2252 22.4874C46.4947 24.2073 46.6744 25.9454 46.7643 27.6835H46.7463ZM29.3522 19.5725C27.7889 17.6715 26.6928 15.5714 25.8662 13.1997C25.1295 11.1176 23.7279 7.94929 24.231 5.75861C24.231 5.7224 24.231 5.7043 24.231 5.66809C25.3631 5.14305 26.4951 4.65422 27.6272 4.2016C27.8248 8.18465 28.9928 11.9504 31.1132 15.3541C30.5022 16.7482 29.9272 18.1423 29.3702 19.5544L29.3522 19.5725ZM25.3451 13.3445C26.2256 15.843 27.4295 18.1242 29.1366 20.1338C28.6334 21.4554 28.1303 22.7771 27.6631 24.1168C23.6021 19.4458 20.9426 14.0325 19.7028 7.96739C20.9966 7.2432 22.3263 6.55522 23.674 5.92155C23.2966 8.27517 24.5904 11.19 25.3451 13.3264V13.3445ZM27.4115 24.66C27.4115 24.66 27.4475 24.66 27.4475 24.6781C27.0342 25.9092 26.6389 27.1403 26.2435 28.3714C21.0145 23.3564 17.7441 17.0017 16.684 9.79597C17.5105 9.25283 18.3371 8.7459 19.1996 8.25707C20.4934 14.4127 23.2427 19.9346 27.4115 24.66ZM26.0818 28.9689C25.7584 30.019 25.4529 31.0871 25.1654 32.1372C24.7521 31.3044 24.213 30.7069 23.4404 30.0009C22.7935 29.4215 21.9849 28.987 21.3739 28.3714C20.17 27.1222 20.0801 25.4566 19.1637 24.0806C18.391 22.9219 17.1871 22.1072 16.2527 21.0933C14.2042 18.8664 12.7667 16.3318 11.7065 13.5255C13.1261 12.3125 14.6355 11.1719 16.2168 10.1219C17.3309 17.4362 20.727 23.8996 26.0818 28.9689ZM26.1717 32.9157C32.6405 30.1095 41.086 32.789 46.7822 28.3352C46.8002 28.9146 46.8182 29.512 46.8182 30.0914C41.0142 34.4365 32.7124 35.2875 25.6146 35.0702C25.7943 34.346 25.974 33.6218 26.1717 32.8976V32.9157ZM23.4583 39.1981C19.4872 38.1842 16.8098 34.6357 13.3777 32.5536C8.88537 29.8198 6.78298 26.1083 4.84232 21.4554C5.56108 20.2786 6.36969 19.1561 7.25018 18.0698C8.05879 22.1072 10.9518 24.9859 13.8988 27.7197C17.0973 30.707 20.5833 33.2416 24.3388 35.4323C24.0333 36.6815 23.7458 37.9488 23.4763 39.1981H23.4583ZM22.3263 45.3175C22.2185 45.9511 22.1106 46.6029 22.0208 47.2366C19.3254 49.1738 16.1808 48.8841 13.0362 48.8117C10.1971 48.7574 7.358 48.8479 4.53684 49.0471C3.80011 47.5263 3.17119 45.9511 2.66806 44.3217C9.28069 42.8552 15.6957 46.1322 22.3442 45.2994L22.3263 45.3175ZM44.3744 45.4804C39.6126 46.2408 36.0547 44.5571 31.5265 43.7786C28.9209 43.326 26.4412 44.0501 23.8177 43.4708C23.9255 42.8371 24.0513 42.1854 24.1771 41.5517C28.7053 42.0767 33.2335 42.3483 37.7977 42.2035C40.511 42.1129 43.1884 42.1129 45.6322 40.9542C45.2908 42.475 44.8775 43.9958 44.3564 45.4804H44.3744ZM25.4888 35.6133C32.6226 35.8306 40.8884 34.9797 46.8182 30.7251C46.8182 31.576 46.7822 32.445 46.7283 33.2959C40.6368 38.9265 32.5148 39.2886 24.6263 39.3067C24.8959 38.0756 25.1654 36.8445 25.4709 35.6133H25.4888ZM38.5704 9.50629C39.0016 9.32525 39.2891 8.96315 39.6305 8.63727C40.1876 8.09412 40.7626 7.6234 41.3735 7.17078C41.8767 8.18465 42.3259 9.23472 42.7751 10.2848C39.936 12.8557 36.5039 14.3584 32.7124 14.6661C33.4312 13.0548 34.2039 11.4616 34.9945 9.88649C36.1805 9.88649 37.5821 9.95891 38.5883 9.50629H38.5704ZM33.7726 9.43388C33.7726 9.43388 33.8265 9.47009 33.8624 9.48819C32.9999 11.2262 32.1733 12.9643 31.3827 14.7386C29.4061 11.4435 28.328 7.84066 28.1662 4.00245C29.2624 3.58604 30.3405 3.18774 31.4186 2.82564C31.5624 5.23357 32.3171 7.47856 33.7546 9.43388H33.7726ZM11.2753 13.9239C12.8206 17.8345 15.1027 20.2786 17.852 23.4288C19.02 24.7686 19.1098 26.4704 20.134 27.8645C21.5716 29.8379 24.0154 30.4535 24.9318 32.9519C24.7521 33.0425 24.788 33.2235 24.8779 33.3502C24.7341 33.8753 24.6083 34.4184 24.4646 34.9435C18.1934 31.3044 8.92131 25.185 7.68144 17.6353C7.68144 17.6353 7.68144 17.6353 7.68144 17.6172C8.79553 16.3137 9.99946 15.0826 11.2932 13.942L11.2753 13.9239ZM4.46497 22.0529C6.02828 25.8187 7.80722 29.5482 11.2573 31.92C13.6652 33.5856 16.0011 35.1607 18.2653 37.0255C19.8465 38.329 21.3739 39.2705 23.3325 39.7774C23.2607 40.1033 23.2068 40.4292 23.1349 40.7732C19.2176 39.3791 15.1566 38.148 11.3831 36.3737C7.358 34.4727 4.66263 31.3406 2.0032 27.9007C2.32664 26.6696 2.73993 25.4928 3.26104 24.3703C3.62042 23.5737 4.03371 22.8133 4.46497 22.071V22.0529ZM8.13067 54.7682C8.13067 54.7682 8.18458 54.7682 8.20254 54.7682C11.1135 52.8309 13.9886 52.2697 17.4027 52.1792C18.984 52.143 20.3676 51.9257 21.5356 50.93C21.4458 51.6722 21.3739 52.4145 21.302 53.1568C18.5887 55.782 14.2042 55.5467 11.2753 57.9546C10.1432 56.995 9.101 55.9269 8.13067 54.7682ZM15.8215 60.8695C17.6363 59.9461 19.3434 58.8598 20.9426 57.6106C20.8348 59.2038 20.763 60.797 20.727 62.3903C20.6911 62.3903 20.6551 62.354 20.6192 62.354C18.9301 62.0825 17.3309 61.5755 15.8394 60.8695H15.8215ZM22.0747 58.1718C23.1708 59.3124 24.3208 60.3625 25.5248 61.3764C24.2849 61.7204 23.063 62.0463 21.895 62.3903C21.931 60.9781 21.9849 59.5659 22.0747 58.1718ZM38.5164 55.5286C35.3359 54.7138 32.353 53.4465 29.6397 51.5636C27.4834 50.079 25.6146 48.6488 23.063 48.0332C23.1529 47.3633 23.2786 46.6753 23.3864 46.0055C29.0647 49.3186 35.2461 51.0748 41.7868 51.2558C41.3735 51.98 40.9423 52.6861 40.4571 53.356C39.8821 54.1707 39.2172 54.8768 38.5164 55.5286ZM45.776 40.3206C40.0798 43.3622 30.5561 41.8414 24.2669 41.0629C24.3388 40.6827 24.4107 40.2844 24.5005 39.9042C32.389 39.9042 40.511 39.4878 46.6744 34.1287C46.6205 34.8348 46.5486 35.5409 46.4588 36.2651C46.2971 37.6049 46.0635 38.9808 45.776 40.3387V40.3206Z" fill="#252525"/>
</svg>
