<svg width="291" height="148" viewBox="0 0 291 148" fill="none" xmlns="http://www.w3.org/2000/svg">
<path d="M272.533 115.241C272.318 111.94 266.904 110.102 267.331 107.101C267.383 106.682 267.094 106.106 266.727 105.897C260.354 102.607 253.489 102.252 246.931 104.923C246.812 104.753 246.681 104.622 246.497 104.518C237.634 99.7908 228.431 96.0863 218.824 93.3388C231.41 91.8367 243.654 89.2609 254.043 81.6186C254.147 81.566 254.174 81.4873 254.252 81.3824C260.928 85.9952 272.912 84.4678 279.248 81.8106C282.337 80.5214 285.071 78.067 285.169 74.4774C285.293 70.0231 280.943 69.8472 279.876 66.3513C278.888 63.1435 280.606 64.1492 280.811 61.424C280.9 60.3628 280.441 59.5121 279.876 58.7139C277.026 54.5399 269.204 53.7806 264.827 52.7664C264.63 52.7012 264.407 52.7147 264.224 52.7412C263.752 52.3228 263.031 52.1276 262.403 52.5741C257.915 55.8438 255.145 60.2503 252.993 65.2976C251.401 69.047 248.724 73.8332 250.984 77.8117C251.339 78.453 251.798 79.0417 252.284 79.5518C238.036 90.0173 220.326 90.9127 203.023 92.554C217.733 83.8562 220.095 56.1846 219.127 41.8547C219.046 40.5186 217.565 39.984 216.65 41.0336C204.244 55.9501 191.71 72.8317 196.606 93.2202C181.504 94.9363 167.073 98.184 155.788 109.981C154.585 111.24 156.357 113.268 157.56 112.008C172.651 96.2355 193.728 95.8452 214.357 93.7789C214.306 94.3292 214.569 94.8527 215.25 95.0349C225.473 97.7682 235.213 101.563 244.575 106.499C244.602 106.682 244.668 106.879 244.786 107.049C249.225 113.539 259.078 122.26 267.787 120.476C270.314 119.961 272.708 118.005 272.507 115.188L272.533 115.241ZM264.46 60.4568C264.46 60.4568 264.303 60.6667 264.185 60.7586C261.48 64.7064 258.893 68.4314 255.755 71.8429C256.86 67.1904 260.64 63.5551 264.434 60.4045L264.46 60.4568ZM265.866 55.6859C266.941 55.8674 268.081 56.1144 269.3 56.3874C268.685 56.6635 268.175 57.1491 267.796 57.8965C267.469 57.9626 267.141 58.0286 266.879 58.1601C267.232 57.2294 266.745 56.1953 265.866 55.6859ZM266.356 73.4358C266.356 73.4358 266.461 73.6452 266.514 73.7499C266.356 73.8288 266.212 73.8683 266.055 73.9472C266.121 73.7506 266.264 73.5801 266.369 73.3965L266.356 73.4358ZM274.226 71.8108C273.584 71.7726 272.929 71.7737 272.3 71.8272C272.601 71.4468 272.941 71.0794 273.215 70.6466C273.53 71.0129 273.885 71.3922 274.239 71.7715L274.226 71.8108ZM271.862 60.6405C271.862 60.6405 271.901 60.5225 271.914 60.4832C271.94 60.5355 272.006 60.6009 272.019 60.6926C271.98 60.6796 271.901 60.6535 271.862 60.6405ZM276.015 75.764C276.368 75.6192 276.604 75.4354 276.8 75.2386C276.696 75.5532 276.578 75.9071 276.199 76.2614C274.968 76.8138 273.672 77.1697 272.349 77.3423C272.166 77.3689 271.996 77.3561 271.812 77.3826C273.213 76.843 274.653 76.3165 276.054 75.777L276.015 75.764ZM255.294 78.2365C255.752 77.7772 256.563 76.9112 257.543 75.796C257.295 76.2812 256.969 76.7402 256.721 77.2254C256.277 78.0383 256.409 79.0861 256.974 79.7532C256.502 79.4659 256.043 79.1392 255.662 78.7075C255.531 78.5767 255.426 78.3673 255.294 78.2365ZM258.364 80.4321C259.805 80.4296 261.193 80.0603 262.528 79.5864C262.725 79.7826 262.961 79.9918 263.236 80.083C264.587 80.6177 266.369 81.0339 268.282 81.3187C265.086 81.6125 261.261 81.5667 258.364 80.4321ZM281.297 77.3399C281.597 76.6975 281.792 76.1076 281.765 75.5313C282.002 76.2645 281.885 76.8804 281.297 77.3399ZM276.974 62.3346C277.064 61.4043 277.01 60.5136 276.786 59.7411C277.875 60.9313 277.614 61.5868 276.974 62.3346ZM263.612 55.1134C263.612 55.1134 263.861 55.2833 264.071 55.3091C264.268 55.3743 264.477 55.4001 264.687 55.426C264.32 55.479 263.941 55.5714 263.587 55.8471C262.057 57.0418 260.579 58.3413 259.127 59.6931C260.617 57.8303 262.147 56.2426 263.612 55.1134ZM216.553 45.4092C216.775 52.6402 216.237 59.7938 214.337 66.845C212.176 75.0756 208.007 88.314 199 91.5261C195.288 73.6246 205.65 58.6855 216.526 45.3569L216.553 45.4092ZM263.721 117.601C262.044 117.656 258.949 115.932 257.769 115.28C254.019 113.295 250.962 110.536 248.389 107.239C252.892 105.502 258.328 104.903 262.798 106.952C265.066 108.009 264.663 109.359 266.251 111.151C266.579 111.478 266.946 111.818 267.288 112.106C270.278 114.013 269.115 115.81 263.694 117.549L263.721 117.601Z" fill="white"/>
<path d="M50.1236 46.5376C49.2256 45.5729 47.0916 46.3694 46.4675 45.3356C46.3778 45.1932 46.1434 45.0883 45.9775 45.1163C43.1816 45.706 40.9731 47.3259 39.6215 49.8025C39.5422 49.7798 39.4687 49.7725 39.3857 49.7865C35.4589 50.5604 31.685 51.7352 28.0274 53.3074C31.5341 49.6729 34.6647 45.7933 35.946 40.8173C35.9651 40.7747 35.9533 40.7439 35.9511 40.6917C39.1739 40.4338 42.4883 36.9433 43.7746 34.527C44.4034 33.3508 44.6289 31.9045 43.755 30.7716C42.671 29.3656 41.2841 30.4071 40.074 29.5968C38.9609 28.8556 39.7445 28.7333 39.1212 27.8405C38.8816 27.4902 38.5253 27.3435 38.1499 27.2394C36.2187 26.669 33.6129 28.4051 32.0063 29.1948C31.9292 29.2242 31.8639 29.2844 31.814 29.3388C31.5628 29.3287 31.2911 29.45 31.2097 29.746C30.6482 31.8858 30.9033 33.9437 31.5103 36.044C31.9636 37.6023 32.3429 39.7541 34.0428 40.4128C34.3139 40.5214 34.604 40.5874 34.8824 40.6225C33.1209 47.4422 27.8799 52.18 22.9526 57.0455C25.3019 50.6551 19.0601 41.5185 15.1513 37.3391C14.7897 36.947 14.1978 37.1552 14.1798 37.7097C14.108 45.4394 14.492 53.8078 21.1393 58.8679C16.9102 63.202 13.274 67.8398 12.7624 74.324C12.7084 75.0159 13.7661 75.1954 13.8201 74.5035C14.5047 65.8334 20.9124 60.4031 26.7596 54.5684C26.8823 54.7512 27.0954 54.8466 27.3516 54.7311C31.1957 52.9995 35.1583 51.7173 39.2915 50.8823C39.3459 50.9323 39.4157 50.9763 39.495 50.999C42.5002 51.884 47.7386 52.0936 49.9774 49.3492C50.6277 48.5535 50.8739 47.3466 50.1023 46.528L50.1236 46.5376ZM33.8305 31.6609C33.8305 31.6609 33.835 31.7652 33.8218 31.8233C33.9814 33.7233 34.1211 35.5249 34.0119 37.3685C33.1811 35.6539 33.4319 33.5796 33.8092 31.6514L33.8305 31.6609ZM33.0628 29.8339C33.4402 29.6193 33.8544 29.4083 34.2993 29.1855C34.179 29.4258 34.1439 29.7041 34.2153 30.0302C34.1309 30.1331 34.0465 30.236 33.9988 30.3425C33.873 29.9665 33.4623 29.7698 33.0628 29.8339ZM37.6854 35.1896C37.6854 35.1896 37.7706 35.2278 37.8132 35.2468C37.7846 35.3108 37.7501 35.3592 37.7215 35.4232C37.6921 35.346 37.6935 35.2572 37.6795 35.1742L37.6854 35.1896ZM39.7054 32.7053C39.4976 32.8553 39.2957 33.0206 39.1151 33.1955C39.1121 33.0024 39.1245 32.8033 39.1001 32.6006C39.2896 32.6343 39.4946 32.6621 39.6995 32.6899L39.7054 32.7053ZM36.1616 29.8529C36.1616 29.8529 36.1439 29.8067 36.138 29.7913C36.1593 29.8008 36.1961 29.8045 36.2233 29.8294C36.2078 29.8353 36.177 29.8471 36.1616 29.8529ZM41.2533 33.475C41.326 33.3413 41.3523 33.2252 41.3633 33.1151C41.4104 33.2384 41.4633 33.3772 41.4355 33.5822C41.1949 34.0626 40.8844 34.4991 40.5196 34.8856C40.4696 34.94 40.4138 34.9789 40.3639 35.0333C40.6604 34.5139 40.9723 33.9886 41.2687 33.4691L41.2533 33.475ZM35.4804 39.458C35.506 39.2009 35.5381 38.7294 35.5598 38.1381C35.6055 38.3504 35.6203 38.5744 35.6659 38.7866C35.7337 39.1494 36.0386 39.4394 36.3809 39.5031C36.1628 39.5333 35.9388 39.5481 35.7126 39.5108C35.6391 39.5035 35.5539 39.4653 35.4804 39.458ZM36.9809 39.3625C37.4251 38.9987 37.7605 38.5351 38.0533 38.0524C38.1635 38.0634 38.2891 38.0684 38.397 38.0273C38.9485 37.8522 39.6035 37.5316 40.2658 37.1376C39.3533 38.0334 38.161 38.9829 36.9809 39.3625ZM43.2808 32.6308C43.2116 32.3569 43.1233 32.1256 42.9698 31.9545C43.2276 32.1211 43.3467 32.3407 43.2808 32.6308ZM38.1663 29.0881C37.9598 28.7782 37.7187 28.5169 37.455 28.3349C38.0911 28.4278 38.1756 28.6959 38.1663 29.0881ZM32.2228 30.2251C32.2228 30.2251 32.3425 30.2148 32.4137 30.1699C32.4908 30.1405 32.562 30.0957 32.6333 30.0508C32.5334 30.1596 32.4395 30.2838 32.3999 30.4579C32.2284 31.2122 32.0995 31.9857 31.992 32.7687C31.9827 31.8183 32.0549 30.9428 32.2228 30.2251ZM15.2521 39.0849C17.1422 41.2609 18.7784 43.6045 19.9681 46.2598C21.3747 49.3446 23.4228 54.4812 21.4517 57.7418C15.7961 53.1513 15.2313 45.9295 15.2308 39.0753L15.2521 39.0849ZM47.998 49.4861C47.4944 49.9256 46.1049 50.1731 45.5761 50.2688C43.9186 50.6009 42.2799 50.5195 40.6551 50.1501C41.6076 48.4794 43.1345 46.9252 45.0307 46.4315C45.9971 46.1864 46.2126 46.7048 47.1542 46.8578C47.3379 46.8761 47.5369 46.8885 47.7147 46.8913C49.1182 46.7268 49.2119 47.5744 47.9767 49.4766L47.998 49.4861Z" fill="white"/>
<path d="M80.1623 31.5401C80.8447 29.8657 83.9837 29.8431 84.2795 28.2139C84.3249 27.9877 84.5752 27.7388 84.8026 27.6935C88.6923 27.0826 92.3318 28.0782 95.2889 30.5898C95.3799 30.5219 95.4709 30.4766 95.5846 30.454C101.021 29.5263 106.458 29.1869 111.94 29.4132C105.639 26.4717 99.7018 23.0324 95.6074 17.2851C95.5619 17.2399 95.5619 17.1946 95.5391 17.1268C91.2627 18.3712 85.2803 15.5202 82.437 13.0539C81.0494 11.8547 80.0486 10.1124 80.6172 8.23437C81.3224 5.9038 83.6198 6.55998 84.7799 4.93085C85.849 3.43747 84.7799 3.66373 85.1438 2.21561C85.2803 1.64993 85.667 1.28791 86.0992 0.971129C88.3057 -0.703263 92.5138 0.247073 94.9705 0.473342C95.0842 0.473342 95.1979 0.51859 95.2889 0.563844C95.6074 0.428082 96.0168 0.450714 96.267 0.790118C98.0413 3.25645 98.7237 6.01693 98.9739 9.00368C99.1559 11.2211 99.7246 14.1626 97.8593 15.837C97.5636 16.1085 97.2224 16.3348 96.8812 16.5158C102.5 24.39 111.576 27.8972 120.31 31.7211C114.146 24.6841 117.695 9.93139 120.674 2.66816C120.947 1.98935 121.812 1.96672 122.107 2.66816C125.997 12.5335 129.614 23.4397 123.54 33.1692C131.115 36.6538 138.076 40.8171 141.92 48.8723C142.329 49.7321 141.056 50.4788 140.646 49.619C135.505 38.8486 124.587 35.0246 114.192 30.4087C114.123 30.7029 113.896 30.9292 113.509 30.9065C107.709 30.5671 101.976 30.8613 96.2443 31.8116C96.1988 31.9021 96.1306 31.9926 96.0396 32.0605C92.6048 34.6626 85.9627 37.491 81.7318 35.0699C80.5035 34.3685 79.5936 32.943 80.185 31.5175L80.1623 31.5401ZM93.8331 4.52356C93.8331 4.52356 93.8786 4.65932 93.9241 4.7272C94.652 7.23878 95.3572 9.61461 96.4035 11.9226C96.631 9.32046 95.2889 6.78625 93.8559 4.50093L93.8331 4.52356ZM93.9241 1.80832C93.3327 1.71781 92.6958 1.64994 92.0134 1.58206C92.2863 1.83095 92.4683 2.17035 92.5366 2.62289C92.6958 2.7134 92.855 2.80392 92.9687 2.91705C92.946 2.37401 93.3782 1.92146 93.9241 1.80832ZM90.6031 10.927C90.6031 10.927 90.5121 11.0175 90.4666 11.0627C90.5348 11.1306 90.6031 11.1759 90.6713 11.2437C90.6713 11.1306 90.6258 11.0175 90.6031 10.9044V10.927ZM86.7816 8.73217C87.1228 8.82268 87.464 8.9358 87.7825 9.07156C87.6915 8.82266 87.5778 8.57378 87.5095 8.30225C87.282 8.43801 87.0318 8.57378 86.7816 8.70954V8.73217ZM89.9434 3.34695C89.9434 3.34695 89.9434 3.27907 89.9434 3.25644C89.9207 3.27907 89.8752 3.3017 89.8524 3.34695C89.8752 3.34695 89.9207 3.34695 89.9434 3.34695ZM85.1666 10.4744C85.0074 10.3387 84.9164 10.2029 84.8481 10.0671C84.8481 10.2482 84.8481 10.4518 84.9846 10.7007C85.5305 11.1985 86.1447 11.6058 86.8044 11.9226C86.8953 11.9678 86.9863 11.9904 87.0773 12.0357C86.4404 11.5153 85.7808 10.9949 85.1438 10.4744H85.1666ZM95.5391 15.3166C95.3799 14.9998 95.107 14.4115 94.7885 13.6648C94.834 13.959 94.925 14.2531 94.9705 14.5473C95.0615 15.0451 94.8112 15.5655 94.4018 15.8144C94.6975 15.7465 94.9932 15.656 95.2662 15.4976C95.3572 15.4524 95.4482 15.3618 95.5391 15.3166ZM93.5602 15.9275C92.8095 15.6786 92.1499 15.2487 91.5357 14.7736C91.3992 14.8414 91.24 14.9093 91.0808 14.9093C90.2846 14.9546 89.2838 14.8641 88.2374 14.683C89.8524 15.3845 91.8542 16.018 93.5602 15.9275ZM82.1413 10.3839C82.0958 9.99927 82.0958 9.65987 82.2095 9.36572C81.9593 9.70512 81.9138 10.0445 82.1413 10.3839ZM86.9863 3.34695C87.1001 2.84916 87.282 2.39663 87.5323 2.0346C86.7589 2.46451 86.7816 2.84916 86.9863 3.34695ZM95.1979 1.89883C95.1979 1.89883 95.0387 1.94409 94.925 1.92146C94.8112 1.92146 94.6975 1.89884 94.5838 1.87621C94.7658 1.96672 94.9477 2.07985 95.0842 2.28349C95.6756 3.16594 96.2215 4.09364 96.7447 5.04397C96.2898 3.82212 95.7666 2.73603 95.1979 1.89883ZM121.402 4.95346C120.037 8.66428 119.082 12.4656 118.855 16.4479C118.559 21.0865 118.445 28.6665 122.585 31.8795C127.612 23.236 124.792 13.7101 121.425 4.93085L121.402 4.95346ZM84.3477 34.2779C85.2121 34.5947 87.1228 34.2327 87.8507 34.0969C90.1481 33.7123 92.2181 32.8072 94.1288 31.5401C92.0816 29.8657 89.352 28.6212 86.6679 28.9154C85.3031 29.0738 85.2803 29.8431 84.143 30.4992C83.9155 30.6124 83.6653 30.7255 83.4378 30.816C81.5498 31.2912 81.8455 32.4225 84.3704 34.2553L84.3477 34.2779Z" fill="white"/>
</svg>
