<svg width="141" height="135" viewBox="0 0 141 135" fill="none" xmlns="http://www.w3.org/2000/svg">
<path d="M139.681 40.5271C139.187 40.0327 138.431 39.7709 137.835 39.4219C137.049 38.9712 136.293 38.4622 135.566 37.9097C135.508 37.866 135.435 37.837 135.377 37.8224C135.348 37.7933 135.319 37.7643 135.275 37.7497C131.335 32.9221 126.769 28.6033 121.752 24.8808C121.752 24.8808 121.723 24.8663 121.723 24.8517C117.899 22.0307 113.813 19.5588 109.523 17.4939C113.682 17.523 117.666 16.0689 121.708 14.9347C122.203 14.7893 122.101 14.1349 121.708 14.0186C121.679 13.9313 121.607 13.8441 121.49 13.7859C111.326 9.04552 100.129 7.85315 89.1945 10.3833C89.1363 10.3833 89.0927 10.4269 89.0491 10.456C83.9597 9.11823 78.6376 8.40571 73.1411 8.40571C65.4343 8.40571 58.0474 9.80166 51.2131 12.3609C47.1415 11.9537 43.0409 12.2591 39.2021 13.6987C39.7983 13.1752 40.409 12.6808 41.0343 12.1864C41.0924 12.1864 41.1651 12.1573 41.2233 12.1282C45.8038 9.65625 50.6605 7.83861 55.808 6.9516C58.4545 6.50082 61.7699 5.93372 64.5036 6.21C66.3358 6.3845 68.1098 7.73682 69.9566 7.56233C71.1344 7.446 72.3704 6.92252 71.9342 5.57019C71.2653 3.47627 68.4443 4.37782 66.932 5.07579C66.5103 5.07579 66.0886 5.1485 65.6669 5.26483C65.5797 5.29391 65.5215 5.32299 65.4779 5.38116C64.6781 5.23575 63.9511 5.29391 63.1368 5.30845C60.6066 5.33753 58.0619 5.62836 55.5609 6.05005C51.8092 6.68986 48.203 7.83861 44.7423 9.36543C47.0543 7.72228 49.4536 6.22454 51.9256 4.85768C53.3506 4.72681 55.0374 4.72681 56.2588 3.94159C57.1604 3.35994 57.8293 2.21119 57.393 1.14969C57.015 0.219057 55.9389 -0.304424 55.0228 0.189975C54.4121 0.509879 54.034 1.17877 53.6123 1.70225C52.9725 2.47293 52.2746 3.18545 51.5475 3.86888C51.4748 3.92704 51.4457 3.99975 51.4166 4.07246C51.4166 4.07246 51.4021 4.087 51.3875 4.10154C41.6886 9.43813 33.1966 16.9995 26.6676 25.9714C27.4529 21.8708 26.8421 17.7993 26.4495 13.4369C26.4059 12.8989 25.6207 12.8408 25.5189 13.2915C25.4171 13.3206 25.3153 13.3642 25.2426 13.4806C18.7863 22.5688 15.6164 33.3874 16.1399 44.5259C16.1399 44.5986 16.1689 44.6713 16.198 44.7295C12.4173 52.7998 10.2943 61.8153 10.2943 71.2961C10.2943 75.513 10.716 79.6572 11.5303 83.6851C10.4834 87.6549 10.1489 91.7409 10.9632 95.7833C10.5415 95.1144 10.1489 94.431 9.75629 93.7476C9.75629 93.6894 9.75629 93.6313 9.72721 93.5586C7.93865 88.4401 6.89169 83.1616 6.89169 77.7233C6.89169 74.6551 6.81899 70.8162 8.11315 67.9953C8.65117 66.8174 9.61088 65.7705 9.71267 64.4181C9.79992 63.2694 9.45093 61.9316 8.04044 62.1643C5.87381 62.5278 6.33913 65.4651 6.77536 67.021C6.7172 67.4136 6.70266 67.8208 6.76082 68.2424C6.76082 68.3442 6.81899 68.4315 6.87715 68.4897C6.77536 68.7659 6.67358 69.0568 6.60087 69.3912C6.03377 71.8341 5.99014 74.5388 5.94652 77.0253C5.88835 81.3149 6.45546 85.5028 7.5315 89.6179C6.26642 87.0732 5.1613 84.4704 4.21613 81.7948C4.31791 80.268 4.63782 78.4067 3.82351 77.0398C3.31457 76.1819 2.34032 75.5566 1.33698 75.8329C0.406349 76.0801 -0.218919 77.0253 0.0719032 77.9705C0.246397 78.5667 0.784419 79.0174 1.17703 79.4682C1.88954 80.268 2.5439 81.1114 3.14008 81.9984C3.1837 82.0565 3.22733 82.1147 3.28549 82.1438C3.31457 82.2165 3.3582 82.2892 3.41636 82.3328C7.16797 92.7006 13.2607 102.211 21.0548 110.019C17.0996 108.594 12.9263 108.594 8.60755 108.303C8.09861 108.274 8.0259 108.914 8.36035 109.161C8.36035 109.278 8.38943 109.379 8.49122 109.481C16.4888 117.333 26.6822 122.146 37.8352 123.382C37.8934 123.382 37.937 123.382 37.9806 123.382C42.2848 126.305 46.9816 128.719 52.0274 130.522L52.3473 129.635C52.0274 129.519 51.7075 129.388 51.3875 129.272C51.3439 129.155 51.3148 129.039 51.2712 128.923C51.3148 128.777 51.2712 128.632 51.1404 128.53C49.4245 123.179 47.5196 117.653 43.6371 113.465C39.5365 109.059 33.7201 107.024 28.1654 105.148C27.9472 105.075 27.6273 105.235 27.5837 105.482C26.7403 110.892 31.2335 115.298 34.8397 118.758C38.1697 121.957 41.8922 124.662 45.891 126.916C43.0409 125.52 40.3363 123.906 37.7771 122.117C37.8207 121.972 37.8061 121.812 37.6607 121.681C34.9124 119.209 32.0042 116.81 28.9651 114.643C23.3959 108.958 18.9608 102.225 15.9217 94.8527C16.0526 93.9802 16.2416 93.1223 16.4888 92.2644C16.5325 92.2499 16.5615 92.2208 16.6052 92.1917C17.7539 91.0575 19.368 89.7488 19.9496 88.1783C20.3422 87.1023 20.1096 85.6918 18.9317 85.2265C17.783 84.7757 16.5761 85.5319 16.0381 86.5207C15.2092 88.0184 15.3401 90.1414 15.4564 91.7845C15.4564 91.9009 15.5146 91.9881 15.5727 92.0608C15.471 92.4389 15.3692 92.817 15.2819 93.195C14.1186 90.1414 13.2025 86.9714 12.5337 83.7288C13.2316 81.1695 14.2204 78.6684 15.3837 76.2691C16.7797 75.3531 22.2035 71.0925 18.9317 69.4494C17.8121 68.8823 16.4016 69.333 15.6455 70.2782C14.584 71.6305 14.7584 74.0153 14.584 75.6148C14.584 75.6584 14.584 75.6875 14.584 75.7311C13.6388 77.6506 12.8099 79.6572 12.141 81.693C11.5594 78.3049 11.254 74.8296 11.254 71.3106C11.254 67.0646 11.6903 62.9204 12.5046 58.907C12.6209 58.8489 12.7372 58.7907 12.8536 58.7326C12.9844 58.7326 13.1153 58.6744 13.2025 58.5581C18.2192 56.0279 23.3813 53.2796 26.9003 48.7719C30.5937 44.046 31.6843 38.026 32.6877 32.2532C32.7458 31.9478 32.5568 31.657 32.2369 31.657C27.0602 31.6279 23.5995 36.3538 20.8366 40.1781C17.972 44.1333 15.7327 48.452 14.0314 53.0033C14.962 50.0079 16.1108 47.1142 17.4631 44.3223C17.623 44.3223 17.783 44.2787 17.8848 44.1187C19.8624 41.0796 21.68 37.9242 23.2941 34.6815C28.0636 28.1962 34.0691 22.6706 40.947 18.4536C41.834 18.4536 42.7065 18.4973 43.5935 18.599C43.6226 18.6427 43.6662 18.6863 43.7098 18.7299C45.0767 19.7333 46.8216 21.3473 48.6247 21.4346C49.6572 21.4782 50.7768 20.882 50.9368 19.7914C51.0967 18.6572 50.2679 17.6539 49.25 17.2758C47.5923 16.6505 45.4984 17.1304 43.8407 17.523C43.7244 17.5521 43.6662 17.6102 43.608 17.6684C43.23 17.6248 42.8519 17.5957 42.4738 17.5666C45.3239 15.938 48.3048 14.513 51.4021 13.3497C54.0486 13.6405 56.666 14.2222 59.2107 15.0074C60.3158 16.2288 65.2743 20.8675 66.4667 17.4939C66.8593 16.3888 66.3213 15.0946 65.3616 14.4548C63.8784 13.4515 61.4646 14.0186 59.7778 14.1058C59.7196 14.1058 59.6614 14.1204 59.6178 14.1495C57.5675 13.5242 55.4591 13.0007 53.3215 12.6663C59.5597 10.5578 66.2195 9.37997 73.1702 9.37997C73.6064 9.37997 74.0426 9.40905 74.4934 9.40905C74.5661 9.51084 74.6388 9.61263 74.7261 9.71441C74.7551 9.8162 74.8278 9.90345 74.9151 9.96161C78.2014 14.2949 81.6767 18.7154 86.4898 21.42C91.9428 24.4882 98.2827 24.5027 104.361 24.43C104.695 24.43 104.87 24.1392 104.812 23.8338C103.866 18.4391 97.8319 15.7199 93.3387 13.7132C89.2963 11.8956 85.0793 10.645 80.7606 9.85982C83.8288 10.2379 86.8243 10.8341 89.7325 11.6484C89.7616 11.8083 89.8488 11.9537 90.0233 12.0265C93.4696 13.466 97.0322 14.8038 100.667 15.8362C107.793 19.3843 114.133 24.2555 119.382 30.1302C119.542 30.9735 119.644 31.8315 119.702 32.7039C119.673 32.733 119.658 32.7476 119.629 32.7912C118.887 34.318 117.608 36.3247 117.811 38.0987C117.928 39.1457 118.684 40.1635 119.818 40.1781C120.996 40.1781 121.854 39.0875 122.043 38.026C122.334 36.2811 121.49 34.318 120.807 32.7476C120.763 32.6458 120.705 32.6021 120.647 32.5585C120.618 32.195 120.589 31.8315 120.545 31.4679C122.654 33.9836 124.588 36.6591 126.289 39.4801C126.478 42.1266 126.362 44.8167 126.071 47.4486C126.071 47.4486 126.056 47.4486 126.042 47.4777C125.082 48.7428 121.301 54.7337 125.082 55.0682C126.245 55.17 127.365 54.3411 127.772 53.2796C128.383 51.651 127.409 49.4117 127.045 47.8267C127.045 47.7685 127.001 47.7395 126.987 47.6958C127.234 45.5728 127.365 43.4062 127.307 41.2687C131.291 48.4084 133.908 56.406 134.781 64.9125C134.694 64.9998 134.606 65.087 134.519 65.1743C134.388 65.2179 134.272 65.3051 134.228 65.4506C130.331 69.2458 126.391 73.2737 124.311 78.3922C121.956 84.1941 122.755 90.4758 123.57 96.4959C123.599 96.7431 123.933 96.8885 124.151 96.8303C128.994 95.3326 130.855 90.0541 132.338 85.6627C133.938 80.9369 134.825 76.051 135.086 71.1216C135.086 71.1943 135.086 71.2525 135.086 71.3252C135.086 74.3497 134.868 77.3452 134.432 80.297C134.272 80.3261 134.141 80.4134 134.083 80.617C133.094 84.1941 132.294 87.8148 131.713 91.4792C131.48 92.1772 131.233 92.8606 130.971 93.544C128.339 100.378 124.515 106.616 119.774 112.026C118.946 112.288 118.088 112.506 117.23 112.666C117.186 112.637 117.143 112.607 117.084 112.578C115.528 112.04 113.667 111.197 111.995 111.401C110.846 111.546 109.683 112.418 109.857 113.698C110.017 114.934 111.282 115.632 112.417 115.632C114.118 115.632 115.877 114.614 117.288 113.785C117.39 113.727 117.433 113.654 117.477 113.567C117.841 113.494 118.204 113.422 118.553 113.334C116.314 115.748 113.885 117.988 111.282 120.023C108.694 120.532 106.033 120.75 103.401 120.794C101.903 119.922 95.5926 116.984 95.7089 120.765C95.7525 121.928 96.7413 122.946 97.8319 123.208C99.5187 123.601 101.569 122.379 103.096 121.826C103.154 121.797 103.198 121.768 103.241 121.739C105.393 121.725 107.56 121.579 109.697 121.259C103.983 125.462 97.5411 128.69 90.6195 130.726L90.8812 131.627C98.4863 129.388 105.51 125.709 111.675 120.91C115.717 120.082 119.556 118.569 122.814 116.025C122.406 116.693 121.97 117.348 121.534 118.002C121.476 118.031 121.432 118.06 121.374 118.104C117.899 121.681 114.002 124.793 109.581 127.134C107.08 128.472 104.361 129.795 101.598 130.522C99.6205 131.046 97.3957 130.362 95.4908 131.046C94.4293 131.424 93.1642 132.383 94.0221 133.59C95.2872 135.364 97.7156 133.707 98.9661 132.572C99.3587 132.442 99.7368 132.267 100.086 132.02C100.158 131.962 100.217 131.904 100.246 131.831C101.249 131.685 102.18 131.322 103.139 130.987C105.51 130.129 107.836 129.141 110.046 127.948C113.246 126.232 116.154 124.139 118.858 121.768C117.143 124.037 115.281 126.218 113.318 128.268C111.98 128.835 110.323 129.33 109.407 130.522C108.723 131.409 108.491 132.761 109.378 133.619C110.119 134.332 111.239 134.332 111.893 133.532C112.3 133.038 112.46 132.354 112.693 131.773C113.056 130.857 113.507 129.984 114.002 129.141C114.031 129.083 114.06 129.024 114.06 128.966C114.133 128.908 114.162 128.835 114.176 128.763C119.833 122.815 124.486 115.923 127.932 108.478C127.932 108.449 127.961 108.434 127.961 108.405C129.139 105.846 130.171 103.228 131.073 100.553C131.553 104.712 133.356 108.405 135.057 112.447C135.275 112.956 136.031 112.796 136.002 112.331C136.09 112.273 136.162 112.2 136.206 112.069C139.638 101.44 139.42 90.1996 135.566 79.7154C135.537 79.6427 135.508 79.5845 135.464 79.5409C135.813 76.8217 136.002 74.0734 136.002 71.2961C136.002 59.5614 132.76 48.5828 127.147 39.1747C126.827 35.0887 125.795 31.1044 123.671 27.5709C124.297 28.0799 124.908 28.5888 125.518 29.1268C125.533 29.185 125.562 29.2431 125.605 29.3013C128.964 33.5037 131.684 38.1132 133.472 43.2026C134.403 45.8491 135.682 49.2663 135.639 52.1163C135.61 53.7886 134.708 55.4753 135.406 57.1185C135.886 58.2672 136.7 59.0234 137.805 58.0346C139.289 56.6968 138.125 54.6029 137.137 53.2796C137.049 52.8579 136.904 52.4508 136.715 52.0436C136.671 51.9709 136.628 51.9128 136.569 51.8691C136.54 51.0694 136.41 50.3569 136.235 49.5426C135.624 46.6925 134.81 43.8861 133.734 41.1814C132.469 37.9824 130.811 35.0014 128.892 32.1805C130.942 34.1726 132.861 36.2811 134.665 38.4913C135.057 39.8727 135.348 41.5595 136.366 42.621C137.166 43.4498 138.503 43.8715 139.478 43.0718C140.292 42.4029 140.423 41.2832 139.667 40.5271H139.681ZM8.18585 65.9595C8.18585 65.9595 8.18585 65.9013 8.18585 65.8868C8.21494 65.8868 8.21494 65.8868 8.24402 65.8868C8.22948 65.9159 8.21494 65.945 8.20039 65.974L8.18585 65.9595ZM33.8219 120.343C33.8219 120.343 33.8219 120.343 33.8509 120.343C34.0545 120.503 34.2436 120.663 34.4471 120.823C26.275 117.421 17.7975 114.192 10.3961 109.379C14.9184 109.656 19.1062 109.975 23.1778 112.084C26.4786 115.152 30.0412 117.929 33.8364 120.343H33.8219ZM10.0617 109.685C17.972 114.861 27.1475 118.191 35.8285 121.87C36.003 122.001 36.1775 122.132 36.352 122.263C26.4641 120.867 17.3613 116.504 10.0617 109.685ZM37.0355 109.714C39.4057 110.979 41.5723 112.549 43.3463 114.57C46.6617 118.366 48.4212 123.179 49.948 127.919C49.8316 127.861 49.7299 127.803 49.6135 127.759C49.6135 127.716 49.6281 127.672 49.6135 127.614C47.6214 123.368 43.07 120.329 39.7256 117.173C36.1484 113.8 32.6877 110.324 29.4304 106.646C29.4741 106.646 29.5031 106.616 29.5613 106.616C31.5389 106.515 35.4359 108.87 37.0355 109.714ZM33.0221 115.53C31.9461 114.352 26.7403 107.823 28.9651 106.762C31.9751 110.179 35.1596 113.436 38.475 116.577C41.9213 119.863 46.8362 123.164 49.0464 127.468C45.1639 125.549 41.485 123.237 38.1551 120.445C36.352 118.918 34.6362 117.29 33.0512 115.53H33.0221ZM25.6497 112.418C25.039 112.04 24.4574 111.633 23.8321 111.284C23.7449 111.241 23.6576 111.197 23.5704 111.153C20.953 108.696 18.5101 106.064 16.2562 103.257C15.7327 101.12 15.5727 98.9242 15.7036 96.743C18.2338 102.429 21.5928 107.722 25.6497 112.418ZM14.9475 94.969C14.6421 97.1648 14.6421 99.4041 14.9911 101.614C14.1913 100.567 13.4207 99.5059 12.6936 98.4153C11.2395 94.2856 11.2104 90.0251 12.0393 85.8663C12.7809 88.9926 13.7696 92.0317 14.962 94.969H14.9475ZM18.5973 40.1054C18.5973 40.1054 18.5973 40.1635 18.5828 40.2072C18.4519 40.4398 18.321 40.6725 18.1902 40.9051C20.2695 32.2968 22.1163 23.3831 25.7225 15.3127C26.1732 19.8496 26.5077 23.9938 25.0536 28.3707C22.567 32.0932 20.4004 36.0193 18.6118 40.1199L18.5973 40.1054ZM25.3589 15.0219C21.491 23.6884 19.6297 33.271 17.3468 42.461C17.2595 42.6355 17.1577 42.8246 17.0705 42.9991C16.896 32.9802 19.7606 23.3394 25.3589 15.0219ZM31.2481 34.8996C30.2302 40.3089 28.7034 45.6892 24.7918 49.7607C21.6509 53.0324 17.623 55.2572 13.5952 57.3075C13.6242 57.1912 13.6679 57.0749 13.6969 56.9585C13.7406 56.9585 13.7842 56.9585 13.8278 56.9295C17.4195 54.5011 19.4989 50.0951 21.8836 46.5762C24.8645 42.1702 27.9618 37.866 31.3353 33.7654C31.3499 34.0708 31.3353 34.4343 31.2481 34.8996ZM25.3589 36.092C26.3041 35.1032 27.3365 34.129 28.558 33.4746C30.0266 32.6894 30.8991 32.5731 31.219 33.2274C28.5871 36.4119 26.1151 39.7128 23.7594 43.1008C20.8366 47.2887 18.0884 53.3233 13.886 56.3478C15.3837 51.5347 17.4776 46.9397 20.2404 42.7082C21.7673 40.3817 23.4395 38.0987 25.3735 36.092H25.3589ZM25.039 30.9445C25.2571 30.4355 25.5043 29.9411 25.7079 29.4322C25.8097 29.1995 25.8679 28.9669 25.9406 28.7342C27.9763 25.7097 30.2302 22.8451 32.6731 20.1404C34.7089 19.297 36.861 18.7735 39.0421 18.57C33.7782 21.9871 29.0524 26.1604 25.039 30.9445ZM40.6417 17.5375C38.4314 17.5812 36.2211 17.9302 34.1127 18.599C35.0288 17.6539 35.9594 16.7232 36.9191 15.8217C40.7725 13.7278 44.9895 13.0298 49.2209 13.2043C46.24 14.4403 43.3754 15.8799 40.6417 17.5375ZM125.896 77.1562C127.918 73.1574 131.044 69.8856 134.228 66.7593C134.228 66.8756 134.228 67.0065 134.228 67.1228C134.185 67.1228 134.156 67.1373 134.112 67.1809C131.349 70.6854 130.68 75.673 129.415 79.8608C127.961 84.6885 126.376 89.4725 124.515 94.1693C124.355 93.9221 124.21 93.6313 124.079 93.2386C122.465 88.5564 123.715 81.4167 125.882 77.1707L125.896 77.1562ZM129.619 90.0396C128.805 91.7555 126.478 96.1759 124.849 94.5619C126.42 90.6503 127.801 86.6661 129.052 82.6382C130.491 77.985 131.291 71.7323 134.257 67.7626C134.272 72.663 133.705 77.5342 132.411 82.2892C131.698 84.9211 130.797 87.5676 129.633 90.0396H129.619ZM131.233 95.4489C131.175 95.9578 131.102 96.4668 131.058 96.9757C131.029 97.252 131.058 97.4992 131.044 97.7609C130.011 101.236 128.732 104.653 127.205 107.94C125.518 109.365 123.613 110.514 121.578 111.357C125.533 106.587 128.805 101.236 131.218 95.4344L131.233 95.4489ZM113.464 119.544C115.921 117.493 118.219 115.254 120.327 112.855C122.45 112.157 124.471 111.124 126.289 109.83C125.707 111.008 125.097 112.171 124.442 113.32C121.374 116.49 117.55 118.424 113.449 119.529L113.464 119.544ZM131.989 97.8773C133.254 93.5731 134.156 89.1526 134.621 84.6885C134.679 84.4122 134.737 84.1359 134.795 83.8596C135.406 92.6715 136.308 101.716 135.304 110.47C133.53 106.355 131.858 102.443 131.989 97.8627V97.8773ZM135.726 110.615C136.817 101.222 135.726 91.5519 135.13 82.1438C135.174 81.9257 135.203 81.693 135.232 81.4749C138.387 90.9702 138.562 101.004 135.726 110.615ZM93.9931 11.9974C93.9931 11.9974 93.9785 11.9974 93.964 11.9974C93.7168 11.9101 93.455 11.8229 93.2078 11.7356C102.034 12.23 111.123 12.4627 119.702 14.5421C115.267 15.7926 111.297 16.8396 106.731 16.2288C102.616 14.4403 98.3699 13.0152 94.0076 11.9974H93.9931ZM119.92 14.1495C110.744 11.8956 101.002 11.7938 91.5938 11.2121C91.3756 11.1394 91.1575 11.0958 90.9249 11.0231C100.74 9.06006 110.744 10.1361 119.905 14.1495H119.92ZM95.4762 23.2231C92.2772 22.8451 89.209 21.9871 86.4171 20.3294C82.2584 17.8574 79.1175 14.0186 76.2238 10.1943C76.3401 10.1943 76.471 10.2234 76.5873 10.2379C76.5873 10.2815 76.5873 10.3251 76.6309 10.3542C79.9027 13.6841 85.2248 15.0655 89.4126 16.9268C94.0076 18.9626 98.5153 21.1437 102.907 23.6012C101.671 24.2555 96.7122 23.3685 95.4762 23.2231ZM103.27 23.2958C99.2279 21.0274 95.0836 18.9917 90.8522 17.0868C86.5044 15.1237 80.7752 13.6696 77.2562 10.3251C81.8512 10.8777 86.3444 11.9392 90.6631 13.6405C92.6989 14.4403 105.553 20.4894 103.27 23.3104V23.2958ZM104.405 16.8105C105.175 16.985 105.931 17.1304 106.702 17.2758C109.988 18.7154 113.173 20.3876 116.212 22.2925C117.419 24.1538 118.306 26.175 118.902 28.2834C114.671 23.7902 109.785 19.9077 104.405 16.8105ZM126.013 37.3571C124.268 34.667 122.334 32.1077 120.225 29.7085C119.789 27.5128 119.033 25.3897 117.986 23.4267C119.091 24.1538 120.182 24.9099 121.243 25.6951C124.006 29.1123 125.431 33.1402 126.013 37.3571Z" fill="#252525"/>
</svg>
