<svg width="152" height="194" viewBox="0 0 152 194" fill="none" xmlns="http://www.w3.org/2000/svg">
<path d="M44.1477 24.4049C44.1477 24.4049 44.1077 24.4836 44.086 24.5167C44.1762 24.3973 44.1727 24.3846 44.1477 24.4049Z" fill="#252525"/>
<path d="M126.602 73.8102C126.104 76.4643 120.129 77.6839 117.779 78.2182C114.791 78.8827 111.881 79.2126 109.189 77.958C114.229 74.6181 120.086 73.185 126.085 73.9351C126.685 74.0059 126.965 73.1678 126.365 73.0969C120.302 72.3367 114.358 73.6706 109.194 76.9484C111.211 73.5735 112.921 70.0221 114.788 66.4833C114.837 66.4972 114.915 66.5035 114.99 66.4971C116.878 66.2365 118.705 65.747 120.415 64.8799C121.414 64.3808 123.754 63.1814 124.172 62.1155C124.531 61.1743 123.784 60.8976 123.013 60.5319C121.927 60.0189 121.288 59.3453 120.411 58.6402C119.924 58.2526 119.706 58.1205 119.06 57.9938C118.737 57.9304 118.395 57.9675 118.057 57.9627C116.948 57.9329 116.388 57.7832 115.417 57.4163C114.872 57.2081 114.155 56.8144 113.546 56.8822C112.474 56.9923 112.126 57.8623 111.888 58.7436C111.303 60.9579 111.961 64.6108 113.934 66.1532C110.187 73.2893 107.024 80.6095 100.571 86.0994C102.572 74.4985 103.293 62.8044 103.953 51.1675C106.707 49.9119 109.71 48.5621 112.051 46.7358C113.038 45.9671 114.047 44.8792 113.656 43.6485C113.083 41.8534 110.465 42.4731 109.127 41.5915C107.525 40.5219 106.557 39.7049 104.347 40.1336C102.543 40.4806 101.32 40.1406 99.6257 39.6407C98.9275 39.4326 97.8763 38.9921 97.0731 39.2482C95.9307 39.6088 96.0412 40.1924 96.1173 41.2757C96.4216 45.323 98.3531 50.1335 102.985 51.2635C102.636 57.3255 102.273 63.3912 101.728 69.4648C100.819 65.7294 98.0306 62.6883 94.4946 60.3381C94.1383 60.0929 93.7314 60.5154 93.788 60.8409C94.6111 66.1391 95.7667 71.5935 100.988 74.5822C101.077 74.6266 101.158 74.6457 101.233 74.6393C100.782 78.7799 100.218 82.8964 99.4721 87.0207C99.2961 87.1633 99.2833 87.3438 99.3813 87.4811C98.6734 91.4045 97.8093 95.3152 96.7357 99.1867C96.3383 100.615 95.8627 102.037 95.3586 103.467C90.7773 97.1585 90.2272 89.2253 86.865 82.3863C86.954 82.3761 87.0648 82.3328 87.1511 82.2552C88.6007 80.872 91.2075 77.5845 90.2492 75.6065C89.9715 75.0268 89.5887 74.9113 88.926 75.0071C88.4557 75.0787 87.9998 75.4325 87.5295 75.504C87.1625 75.5614 86.7757 75.4879 86.4019 75.52C85.8214 75.5801 85.3287 75.7394 84.8239 76.0246C84.054 76.4625 83.5574 76.9498 82.6856 77.2925C82.0067 77.5561 81.0612 77.5097 80.417 77.8458C79.5296 78.3016 79.3588 79.2059 79.3988 80.04C79.5652 83.1159 83.151 82.4549 85.7925 82.5511C85.8211 82.5434 85.8639 82.5319 85.8924 82.5243C87.585 85.8726 88.581 89.4757 89.6736 93.0393C88.8417 92.1039 87.6321 91.5287 86.2974 91.0005C83.0265 89.6967 79.6903 88.4922 76.3867 87.238C75.9441 87.0704 75.5413 87.4509 75.7251 87.8513C78.0081 93.0036 84.3337 98.5717 91.0894 97.2384C92.0235 99.7543 93.1935 102.18 94.8888 104.396C94.9344 104.452 94.9731 104.483 95.0262 104.509C92.9321 110.167 90.3445 115.752 89.2661 121.546C88.0548 128.044 89.0384 134.512 90.6757 140.736C84.4862 131.167 79.8692 120.957 76.7505 110.06C76.7791 110.053 76.8076 110.045 76.8362 110.038C80.5156 108.07 84.284 104.894 83.1483 100.77C83.0632 100.452 82.6267 100.364 82.3536 100.601C80.2014 102.445 76.7814 104.125 75.8192 106.699C74.4838 101.715 73.3197 96.6854 72.2411 91.6328C72.3858 91.4305 72.3645 91.1228 72.0959 90.9767C71.5833 88.6068 71.0992 86.2292 70.6008 83.8555C74.9431 80.8796 75.5943 76.6308 76.3725 72.1708C76.4016 72.1084 76.4166 72.0499 76.3995 71.9864C76.4002 71.9317 76.4185 71.8859 76.4191 71.8312C76.518 71.2869 75.6215 71.3091 75.4804 71.8102C72.8655 73.9825 70.4236 76.5718 69.7124 79.5695C69.1847 76.9719 68.6427 74.3782 68.104 71.7972C68.0127 71.3993 67.9322 70.9848 67.8409 70.5868C73.0021 66.3287 77.2887 61.4327 80.7036 55.9664C80.739 55.9842 80.7567 55.9931 80.792 56.0109C83.0341 56.5003 85.3452 56.5623 87.6423 56.0013C88.7765 55.7247 91.0594 55.1675 91.5957 54.029C92.0552 53.0611 91.3161 52.7004 90.6075 52.1681C89.8037 51.5658 89.1652 51.1237 88.6813 50.2314C88.6119 50.0865 88.5425 49.9416 88.4873 49.7928C88.6381 49.6706 88.5368 49.5207 88.4022 49.475C88.3068 49.119 88.2114 48.763 88.0195 48.4465C87.7201 47.8999 87.5058 47.6712 86.9469 47.4121C86.165 47.0629 85.4268 46.9337 84.7305 46.5616C84.7963 46.4077 84.8656 46.2665 84.9171 46.1164C85.0019 45.862 84.5798 45.7707 84.495 46.0251C84.4617 46.1294 84.4074 46.2121 84.3599 46.3202C84.2436 46.2287 84.1198 46.1665 84.0001 46.0623C83.5567 45.6633 83.3913 45.2171 82.7284 45.0268C81.523 44.6957 80.4381 45.6132 79.8126 46.4758C77.8064 49.2072 78.2559 52.7115 80.1478 55.1479C76.8402 60.5582 72.6576 65.3854 67.6425 69.618C66.8373 65.8139 66.0288 61.997 65.2236 58.1929C71.3628 54.8446 74.7799 48.5874 73.925 42.3711C73.8758 42.0163 73.385 42.0116 73.1303 42.2025C70.2225 44.4805 65.4916 48.746 64.081 52.844C62.7196 46.45 61.369 40.0395 60.0075 33.6455C63.3564 30.1591 67.9454 28.2754 71.8982 25.4448C73.7313 24.1224 76.6963 22.1152 75.92 19.7886C75.621 18.9013 74.3927 17.7996 73.8987 16.8691C73.2828 15.7123 72.7977 14.9293 71.482 14.3008C68.6208 12.928 64.287 13.0809 60.7852 13.2561C60.73 13.1074 60.5091 13.1393 60.4222 13.2716C59.9702 13.2973 59.5325 13.3192 59.1233 13.3335C57.49 13.4032 56.7628 13.5436 55.3903 14.4155C53.1291 15.8526 50.8206 16.771 48.4621 18.0161C47.0949 18.7367 46.0562 19.6555 45.2026 20.8654C44.6491 21.6541 44.3009 22.5241 43.7971 23.3268C43.1194 24.3942 41.9678 25.2342 41.3193 26.2392C40.207 27.968 40.2807 29.5562 42.5006 30.4194C44.0371 31.0161 45.9666 30.5672 47.6067 30.5229C50.9013 30.4305 56.573 30.5323 58.6301 33.1289C58.7213 33.2407 58.8273 33.294 58.9517 33.3016C58.9619 33.3397 58.9722 33.3779 58.9824 33.416C58.9572 33.4364 58.9321 33.4567 58.9104 33.4898C58.64 33.7939 58.8564 34.1447 59.1508 34.2157C60.6942 41.4603 62.2268 48.7214 63.7703 55.966C63.8078 56.1059 63.8167 56.2534 63.8542 56.3932C63.9585 56.8967 64.0628 57.4002 64.1814 57.8999C61.5287 57.248 59.2474 55.8698 57.6277 53.8783C57.6243 53.8655 57.5923 53.8605 57.5889 53.8478C57.5855 53.835 57.593 53.8058 57.5896 53.7931C57.0727 51.179 58.6931 48.8916 59.2244 46.3646C59.4731 45.1806 59.6759 43.3684 58.354 42.6597C57.3151 42.0932 56.274 42.6038 55.2833 43.0737C53.6022 43.8784 51.052 44.1802 49.8083 45.59C49.2568 46.2147 49.1602 47.1672 48.5801 47.7995C47.9783 48.465 47.0698 48.8992 46.366 49.4693C45.3856 50.2634 44.1907 51.4557 44.7129 52.7193C45.041 53.5444 45.8847 53.7816 46.7793 53.9235C49.9173 54.4453 53.4408 54.237 56.658 54.3697C56.7185 54.3671 56.779 54.3646 56.8218 54.3531C58.6483 56.6026 61.1765 58.16 64.2167 58.8307C64.2806 58.8408 64.3268 58.842 64.3873 58.8394C65.3608 63.4433 66.3378 68.0598 67.3256 72.6599C67.6494 74.1538 67.9624 75.6642 68.2719 77.162C64.6642 72.1466 61.7004 66.509 55.3237 64.0615C55.2366 63.9077 55.0558 63.8607 54.8777 63.8812C54.378 63.7289 54.1283 64.3954 54.5057 64.6622C55.4054 68.5909 56.0764 72.9215 59.0922 75.9561C61.5632 78.4418 65.0163 79.6832 68.7562 79.8257C68.7848 79.818 68.799 79.8142 68.8276 79.8066C69.5605 83.3984 70.2935 86.9902 71.055 90.5743C66.9031 89.1795 62.5683 87.9018 58.4726 86.2603C58.4658 86.2349 58.4944 86.2273 58.5018 86.198C58.9049 83.9915 58.4448 81.989 57.583 79.9716C57.2957 79.2991 56.6606 76.7576 55.2635 77.3091C54.1877 77.7472 53.8507 80.0859 53.7731 80.9379C53.6407 82.2134 53.8684 83.406 54.4999 84.4496C53.5065 83.9391 52.5239 83.412 51.5849 82.8188C50.794 82.3221 50.0392 81.7885 49.2918 81.2257C49.2612 81.1113 49.1591 81.016 49.0103 80.9741C48.9783 80.969 48.9606 80.9601 48.9287 80.9551C44.6777 77.7064 41.1827 73.6827 37.7904 69.6997C37.9952 66.8105 42.1448 61.1746 39.1478 58.9526C38.344 58.3503 37.4394 58.4565 36.503 58.8436C36.2277 58.9583 36.0009 59.1962 35.7291 59.3235C35.5931 59.3872 35.4538 59.4382 35.3145 59.4891C35.2364 59.4828 35.1507 59.5058 35.1073 59.5719C34.1532 59.9502 33.1718 60.2268 32.1783 60.6293C31.7495 60.7987 31.6937 60.7046 31.0985 61.1094C30.1664 61.7407 29.3792 62.7419 28.5558 63.494C27.0851 64.8556 25.4272 65.804 23.7884 66.9381C23.1035 67.4077 22.3439 67.8838 22.6714 68.7635C23.0472 69.7666 25.1911 69.8326 26.1041 69.9286C29.7164 70.337 33.4256 70.3651 37.0927 70.35C37.1247 70.3551 37.1458 70.3767 37.1777 70.3817C40.1034 73.822 43.1215 77.2649 46.6253 80.2368C40.8637 78.7147 34.8365 78.5991 28.7327 79.853C28.3834 79.9194 28.2321 80.3824 28.5 80.5831C32.9285 83.866 44.1232 87.6252 48.7852 81.961C49.5326 82.5238 50.3017 83.0536 51.0959 83.563C57.0235 87.3027 64.5016 89.237 71.2854 91.5482C71.9767 94.756 72.6999 97.9689 73.4625 101.158C69.1162 94.5277 60.7561 91.9849 52.183 92.4152C51.731 92.4409 51.5729 92.8784 51.8184 93.1669C57.0745 99.2532 64.2064 106.118 73.9784 103.254C74.7361 106.253 75.5333 109.228 76.4161 112.18C80.3062 125.214 86.7845 136.833 94.6877 147.66C91.5865 146.134 88.431 144.69 85.2538 143.279C85.2101 143.059 85.0027 142.856 84.6785 142.902C84.6071 142.921 84.55 142.936 84.4753 142.943C84.3869 142.898 84.3019 142.867 84.2135 142.822C84.3066 142.77 84.3895 142.68 84.4159 142.55C85.6787 135.903 80.1417 131.622 76.6583 126.614C76.41 126.258 75.8106 126.419 75.7592 126.855C75.2958 131.462 75.164 136.908 78.3928 140.28C76.6128 139.517 74.8185 138.758 73.0385 137.995C73.05 137.924 73.0296 137.847 72.9772 137.766C70.5214 134.595 69.0482 131.038 68.5502 127.124C68.572 127.091 68.5937 127.058 68.6011 127.029C70.3987 126.602 71.814 125.718 73.0285 124.371C73.8572 123.468 75.4522 121.827 75.431 120.607C75.4039 119.592 74.8616 119.737 73.9921 119.575C72.3422 119.24 71.2375 117.915 69.5055 117.902C68.4458 117.886 67.385 118.266 66.3247 118.305C65.1753 118.354 64.0325 118.142 62.8797 118.179C61.8514 118.222 60.8841 118.209 60.5911 119.228C59.6904 122.317 65.383 125.466 67.583 127.111C68.0333 130.847 69.3269 134.247 71.4849 137.335C69.2412 136.382 67.0152 135.439 64.7824 134.47C60.0618 132.438 55.3554 130.401 51.354 127.399C51.3029 127.208 51.1234 127.052 50.9242 127.051C50.8678 127.011 50.8256 126.968 50.7658 126.916C50.7277 126.831 50.6501 126.77 50.5332 126.733C50.2619 126.52 49.9939 126.319 49.7334 126.089C49.4342 125.828 49.1458 125.551 48.8608 125.287C49.0525 125.317 49.2918 125.24 49.3861 125.078C49.4805 124.917 49.5287 124.754 49.6054 124.583C49.6448 124.559 49.6808 124.522 49.7025 124.489C50.0869 123.868 50.3074 123.264 50.375 122.66C51.5052 119.114 51.1324 115.44 49.2108 112.207C49.04 111.912 48.5982 111.976 48.3924 112.236C45.9086 115.354 45.1748 119.066 46.1585 122.509C43.6595 119.69 41.5551 116.575 39.5792 113.425C39.5724 113.4 39.537 113.382 39.5159 113.36C40.6663 110.518 41.5467 107.638 42.0193 104.664C42.2041 103.469 43.0977 100.982 41.6671 100.152C40.7627 99.6313 37.0499 100.504 36.1781 100.846C35.1812 101.236 34.6778 101.698 33.9087 102.367C32.2736 103.8 30.8167 104.586 28.7094 105.341C25.5983 106.461 21.1155 107.485 24.5145 110.294C28.2726 113.416 33.4223 114.652 38.6225 114.022C38.6939 114.003 38.751 113.988 38.808 113.972C41.4787 118.231 44.3919 122.424 48.1775 125.933C48.3427 126.094 48.5331 126.233 48.6984 126.393C45.3409 125.794 41.9426 125.328 38.5065 125.064C34.5408 124.764 30.3105 124.275 26.4656 125.796C26.1048 125.934 25.9392 126.401 26.3247 126.583C33.175 129.885 43.8386 134.345 50.8263 128.112C54.162 130.571 57.9383 132.448 61.873 134.173C66.5365 136.221 71.2578 138.2 75.9539 140.198C71.6197 141.891 67.0911 142.573 62.4924 143.164C62.4639 143.172 62.4496 143.176 62.4211 143.184C62.3082 143.105 62.1519 143.092 62.02 143.114C59.1441 140.887 54.1196 139.889 50.3361 140.726C49.441 140.925 49.0326 141.17 48.9197 142.005C48.8263 142.684 49.0354 143.35 48.9985 144.068C48.93 144.441 48.8002 145.498 48.7949 145.649C48.8069 146.436 48.6887 146.509 49.15 147.203C49.3527 147.503 49.6846 147.714 49.9233 147.977C50.6634 148.855 50.7945 149.801 51.0677 150.763C51.2005 151.259 51.173 151.784 51.5594 152.199C52.3076 152.993 53.4378 152.758 54.4381 152.381C58.05 151.018 61.074 147.633 62.3226 144.3C62.3871 144.256 62.4129 144.181 62.3924 144.104C62.4108 144.058 62.4182 144.029 62.4365 143.983C62.4365 143.983 62.4366 143.983 62.4508 143.98C67.356 143.333 72.1659 142.616 76.7869 140.738C76.8868 140.711 76.9302 140.645 76.9771 140.591C78.9624 141.436 80.9226 142.301 82.8828 143.165C79.2815 143.939 75.9571 145.348 72.8847 147.411C72.5477 147.638 72.5636 148.097 72.9715 148.192C76.06 148.986 79.3238 148.493 82.041 146.988C82.8558 146.661 83.6325 146.248 84.0739 145.612C84.4978 145.253 84.8972 144.86 85.2579 144.437C85.3048 144.383 85.3482 144.317 85.3597 144.246C88.7634 145.759 92.1345 147.322 95.4655 148.964C95.5362 149 95.6178 149.019 95.6925 149.013C97.9579 152.044 100.331 155.019 102.797 157.942C96.4912 155.476 90.2754 152.658 83.0407 154.201C82.6948 154.28 82.5401 154.731 82.808 154.931C85.5221 157.011 88.3593 159.208 91.8259 160.214C95.7567 161.355 100.267 160.718 104.305 159.746C105.862 161.563 107.463 163.369 109.074 165.158C104.812 164.665 100.497 165.004 96.2261 166.189C95.7979 166.304 95.7602 166.791 96.0852 166.976C100.164 169.467 106.078 168.305 110.742 166.987C112.898 169.325 115.083 171.656 117.307 173.963C117.694 174.377 118.38 173.743 117.994 173.329C115.893 171.139 113.806 168.946 111.745 166.732C111.865 166.782 112.004 166.785 112.161 166.689C116.584 163.841 119.686 158.922 116.869 154.458C116.68 154.154 116.256 154.227 116.05 154.486C113.294 157.787 110.635 161.334 110.874 165.425C110.732 165.409 110.601 165.376 110.456 165.347C108.64 163.367 106.839 161.383 105.088 159.359C105.25 159.165 105.254 158.892 104.963 158.779C104.779 158.719 104.606 158.643 104.421 158.583C103.93 158.006 103.439 157.429 102.948 156.852C102.973 156.832 102.988 156.828 103.009 156.795C106.206 152.627 109.425 148.426 112.208 144.029C117.875 142.742 122.655 139.689 125.923 135.216C126.18 134.861 125.775 134.548 125.408 134.605C121.774 135.143 118.037 136.267 115.397 138.459C115.976 137.309 116.537 136.151 117.045 134.965C117.492 133.892 117.903 132.8 118.272 131.721C118.307 131.738 118.342 131.756 118.389 131.757C118.378 132.005 118.606 132.285 118.959 132.231C122.875 131.604 126.218 129.578 128.48 126.546C128.74 126.204 128.342 125.861 127.964 125.935C124.785 126.514 121.5 127.272 119.315 129.506C119.473 128.782 119.531 128.086 119.486 127.403C119.785 126.178 120.041 124.965 120.262 123.734C123.606 123.028 126.598 121.409 128.85 118.966C129.809 117.919 132.602 114.813 131.184 113.517C131.082 113.421 130.883 113.366 130.73 113.42C126.68 114.805 123.277 117.175 120.807 120.29C121.225 117.112 121.473 113.925 121.635 110.761C121.692 110.746 121.763 110.727 121.834 110.708C124.017 109.605 126.021 108.237 127.709 106.544C128.422 105.836 129.711 104.768 129.19 103.736C128.599 102.559 126.657 102.902 125.494 102.845C122.441 102.696 119.416 101.967 116.46 101.383C116.137 101.319 115.889 101.536 115.84 101.808C115.311 105.601 117.9 108.355 120.675 110.718C120.47 114.466 120.177 118.224 119.589 121.965C119.386 122.292 119.165 122.61 118.98 122.946C118.816 123.249 119.041 123.516 119.317 123.578C119.218 124.122 119.123 124.679 119.01 125.227C117.59 121.356 113.311 118.347 110.04 115.844C109.73 115.6 109.262 115.793 109.225 116.171C108.529 122.476 112.435 126.607 117.403 130.25C117.499 130.32 117.594 130.335 117.701 130.334C117.243 131.819 116.749 133.287 116.13 134.747C112.892 142.469 107.585 149.382 102.366 156.164C100.212 153.606 98.1265 151.018 96.1271 148.351C96.1271 148.351 96.1271 148.351 96.1237 148.338C96.299 148.25 96.422 148.081 96.3498 147.869C96.3157 147.742 96.2925 147.598 96.2584 147.471C98.8466 143.943 102.319 140.233 104.058 136.333C105.702 132.649 104.747 128.286 104.229 124.582C104.176 124.215 103.558 124.19 103.365 124.5C99.4916 130.88 93.8174 139.731 95.1992 147.114C94.5237 146.192 93.8338 145.273 93.1834 144.33C92.816 143.815 92.4738 143.28 92.1207 142.761C92.1893 142.675 92.2191 142.558 92.1708 142.434C89.9262 134.628 88.5547 126.37 91.034 118.211C91.6926 116.045 92.4396 113.924 93.2186 111.807C93.3172 111.89 93.4518 111.935 93.634 111.873C96.5045 110.94 99.791 108.82 101.597 106.196C102.159 105.61 102.547 104.947 102.627 104.217C102.907 103.379 103.027 102.515 102.931 101.642C102.902 101.363 102.48 101.272 102.24 101.405C99.7879 102.757 96.7502 104.892 94.875 107.371C96.2227 103.78 97.5031 100.167 98.4645 96.4478C98.4931 96.4401 98.5285 96.4579 98.557 96.4503C105.646 95.5047 110.096 90.5921 114.047 85.5273C114.275 85.4661 114.49 85.4087 114.718 85.3475C115.281 85.2238 115.126 84.5296 114.617 84.516C114.511 84.2312 114.003 84.1082 113.743 84.4504C113.664 84.5535 113.574 84.6731 113.48 84.7799C107.655 86.2181 102.649 89.3444 99.0651 93.7796C99.5491 91.6468 99.9868 89.5127 100.375 87.3647C103.71 84.7405 106.211 81.6858 108.313 78.3973C108.344 78.4571 108.4 78.4964 108.474 78.5447C111.596 80.1474 115.087 79.7026 118.568 78.8789C121.172 78.263 127.031 76.952 127.592 73.9672C127.691 73.4229 126.779 73.2175 126.681 73.7618L126.602 73.8102ZM88.0112 76.2743C88.797 76.2954 89.1015 75.2054 89.28 76.9563C89.44 78.4668 87.562 80.5916 86.4934 81.6274C86.4274 81.4952 86.307 81.4457 86.1969 81.4343C86.7396 79.7491 87.0302 78.0361 87.0399 76.3029C87.3533 76.2734 87.67 76.2567 88.0255 76.2704L88.0112 76.2743ZM86.5873 76.3833C86.576 77.9397 86.3269 79.4645 85.8785 80.9882C85.1764 79.9091 84.6244 78.7624 84.2477 77.528C84.2409 77.5025 84.2266 77.5064 84.2055 77.4848C84.3421 77.3664 84.4963 77.2569 84.6397 77.164C85.3028 76.7274 85.9172 76.5083 86.573 76.3871L86.5873 76.3833ZM83.1266 78.1963C83.4018 78.0817 83.6206 77.9277 83.8502 77.7571C84.2303 79.0043 84.8 80.1598 85.5198 81.2478C85.022 80.9315 84.5134 80.6318 84.0157 80.3155C83.3343 79.8848 81.9364 79.2919 81.7293 78.4617C82.0867 78.3114 82.6978 78.3657 83.1089 78.1874L83.1266 78.1963ZM81.3535 78.6578C81.5598 79.2566 82.1602 79.6135 82.7355 79.9908C83.6073 80.5611 84.4899 81.115 85.3834 81.6523C84.5229 81.6376 83.6195 81.6344 82.7922 81.5154C81.0846 81.2507 78.9019 79.9551 81.3712 78.6667L81.3535 78.6578ZM77.0414 88.4252C78.9498 89.1539 80.8725 89.8787 82.781 90.6074C85.1817 91.5175 88.68 92.2426 89.5863 94.7115C89.6897 94.9835 89.995 95.038 90.2485 94.9565C90.4099 95.4447 90.5679 95.9201 90.7401 96.3918C84.9978 97.4535 79.5 92.8628 77.0556 88.4214L77.0414 88.4252ZM86.9722 55.2134C84.9721 55.6267 83.0844 55.5465 81.1402 55.1409C81.1762 55.104 81.2088 55.0544 81.2094 54.9997C81.1998 54.9069 81.2256 54.8318 81.2303 54.7352C81.2948 54.6906 81.3485 54.6626 81.4131 54.6181C81.3581 54.7554 81.5159 54.9448 81.7232 54.862C83.0313 54.3207 84.5756 54.2612 85.9695 53.9831C87.2636 53.7318 88.5372 53.4041 89.7972 53.0257C89.8685 53.0065 89.9045 52.9696 89.9228 52.9238C91.061 54.4312 88.2343 54.957 86.9757 55.2261L86.9722 55.2134ZM89.663 52.6392C88.2175 53.0674 86.755 53.432 85.2686 53.7076C84.0282 53.931 82.7966 54.0157 81.621 54.4806C83.7137 53.1568 85.7432 51.7681 87.7168 50.2854C87.8925 50.7698 88.0539 51.258 88.4185 51.7054C88.7552 52.1057 89.3039 52.3266 89.6773 52.6353L89.663 52.6392ZM84.2696 47.6389C85.5772 48.3514 86.3121 47.5549 87.2948 49.2811C87.4098 49.482 87.4962 49.6905 87.5827 49.8989C85.5445 51.4262 83.4539 52.8721 81.2932 54.2278C81.5323 51.7518 83.0917 49.8078 84.2275 47.5957C84.2451 47.6046 84.2662 47.6262 84.2839 47.6351L84.2696 47.6389ZM79.4211 50.7232C79.4022 49.9106 79.6351 47.3546 80.5979 46.8377C81.5019 46.7862 82.4093 46.7475 83.3133 46.696C83.4358 46.8676 83.5691 47.0227 83.7024 47.1777C83.7732 47.2133 83.8187 47.2692 83.8786 47.3213C83.2309 48.5577 82.3751 49.6455 81.7091 50.9277C81.1124 52.0687 80.8494 53.2566 80.8067 54.4671C79.9624 53.3716 79.458 52.1168 79.4353 50.7194L79.4211 50.7232ZM60.1856 20.6661C60.6172 18.452 60.9768 16.3116 60.8319 14.1157C63.2068 13.9018 65.641 14.0808 67.9563 14.387C67.342 17.9173 64.8444 20.6987 62.9085 23.8065C61.397 26.2146 60.4701 28.8067 59.6282 31.4306C59.2616 27.836 59.4701 24.3326 60.1856 20.6661ZM65.7668 28.137C63.5748 29.4329 61.5596 30.8177 59.8002 32.5292C61.9084 29.893 64.0594 27.2454 66.6681 24.993C68.9678 23.0141 71.6007 21.4229 73.8405 19.392C73.9499 19.458 74.0451 19.5279 74.069 19.6169C75.1619 23.7527 68.9759 26.2415 65.7668 28.137ZM73.3474 18.979C73.3644 19.0426 73.4243 19.0947 73.4841 19.1468C70.9604 21.431 67.9592 23.189 65.4742 25.5037C63.4783 27.3602 61.7681 29.4264 60.0789 31.5142C61.2587 27.9822 62.7303 24.74 64.97 21.5099C66.5442 19.2213 67.9464 17.0332 68.4002 14.4452C71.2438 14.896 72.3874 16.5382 73.344 18.9663L73.3474 18.979ZM60.4119 14.1465C60.6322 17.4805 59.5623 20.7377 59.16 24.0887C58.9828 25.5397 58.9232 26.9728 58.9561 28.4085C58.6768 27.3659 58.2119 26.3731 57.4486 25.3512C55.439 22.6466 53.4112 20.2738 52.0247 17.2114C53.1296 16.711 54.2128 16.2436 55.1579 15.7178C56.7833 14.819 58.5707 14.3537 60.4119 14.1465ZM51.6136 17.3897C52.6393 19.6767 53.9165 21.76 55.5151 23.7299C57.2504 25.8676 58.3208 27.693 58.7485 30.0312C58.0041 28.9088 56.8297 28.0652 55.3971 27.3998C51.7894 25.6957 48.4594 24.5712 45.6579 21.7654C45.7631 21.5873 45.8683 21.4092 45.9879 21.2273C47.1926 19.5009 49.4037 18.3906 51.6278 17.3859L51.6136 17.3897ZM54.0883 30.1079C52.7219 29.8609 51.3331 29.7016 49.9397 29.6389C48.5924 29.5775 46.1023 30.2174 44.973 29.7706C43.9783 29.3694 42.7151 26.71 43.1182 25.7026C43.0415 25.8731 44.0391 24.5156 44.1437 24.3922C44.6218 23.6645 44.9972 22.8963 45.4222 22.1419C46.9798 23.6732 48.7037 24.9691 50.7659 25.9291C53.7759 27.3437 57.8317 28.151 58.9076 31.3103C58.9261 31.5506 58.9229 31.824 58.9305 32.0809C57.6716 30.8648 56.019 30.4627 54.106 30.1168L54.0883 30.1079ZM56.512 53.4822C56.512 53.4822 56.5052 53.4568 56.4909 53.4606C56.5195 53.453 56.5269 53.4237 56.5378 53.4072C56.5446 53.4326 56.5514 53.4581 56.5582 53.4835C56.5582 53.4835 56.544 53.4873 56.5297 53.4911L56.512 53.4822ZM58.3558 45.5208C58.4697 46.1171 57.9884 47.1182 57.7856 47.7312C57.2435 49.3618 56.6001 50.8423 56.5032 52.4217C55.8918 50.8822 55.4264 49.0311 55.4811 47.4085C55.5211 46.1305 55.8154 45.0024 55.6562 43.7232C56.6957 43.0359 57.7538 42.5889 58.3416 45.5246L58.3558 45.5208ZM54.2273 44.5558C54.5304 44.4882 54.8816 44.2578 55.2438 44.0109C55.4025 45.6308 54.9535 47.2092 55.1761 48.8392C55.3558 50.1946 55.6815 51.5245 56.1751 52.7958C54.3663 50.5551 51.5961 49.0081 50.4287 46.364C51.3586 45.3245 52.8578 44.8682 54.2164 44.5723L54.2273 44.5558ZM49.1854 48.3459C49.6752 47.8331 49.8135 47.2647 50.1435 46.7265C51.4461 49.3617 54.2659 50.9227 56.0272 53.2715C53.012 52.2943 50.0437 51.2637 47.4203 49.6365C47.991 49.1974 48.6923 48.846 49.182 48.3332L49.1854 48.3459ZM46.9387 50.0653C46.9387 50.0653 47.0392 49.9839 47.0895 49.9432C49.5504 51.4776 52.3304 52.4906 55.1505 53.4246L50.8953 53.243C49.2102 53.1767 44.0348 53.2144 46.9563 50.0742L46.9387 50.0653ZM38.9864 60.5765C40.0024 61.2854 37.7952 65.3788 37.4314 66.362C37.1084 67.2117 36.8894 67.9926 36.8049 68.8192C36.1358 66.1505 35.716 63.4423 35.5138 60.6894C36.5597 60.3683 38.1785 60.0162 39.0041 60.5854L38.9864 60.5765ZM32.427 61.5574C32.9625 61.3866 33.5295 61.5617 34.1404 61.3299C34.4333 61.2242 34.6785 60.9404 34.9748 60.8474C35.0034 60.8398 35.0462 60.8283 35.0747 60.8206C35.2817 63.4769 35.6776 66.0961 36.3121 68.6923C34.0706 66.9492 31.9045 65.1449 30.3383 62.8392C30.9708 62.2882 31.6523 61.8058 32.4304 61.5701L32.427 61.5574ZM30.015 63.1166C31.5709 65.3842 33.7084 67.1961 35.9431 68.9138C34.421 68.5995 32.8955 68.2724 31.3734 67.958C30.4013 67.7552 26.7195 67.2019 26.519 66.111C26.9668 65.8411 27.4003 65.5751 27.7379 65.2938C28.4777 64.6868 29.2167 63.8483 30.015 63.1166ZM24.5994 68.1379C24.5649 67.4386 25.3041 66.8862 26.1249 66.3529C26.4993 67.1792 28.2546 67.6218 29.0167 67.84C31.4662 68.5327 34.0576 68.9558 36.5661 69.4691C33.8126 69.5256 24.6616 69.7973 24.5851 68.1417L24.5994 68.1379ZM36.566 83.341C35.186 83.0431 33.829 82.6027 32.58 82.0517C31.9361 81.7609 31.3105 81.4243 30.7101 81.0674C29.686 80.4424 29.8422 80.1689 31.1786 80.2469C33.2811 79.302 37.2951 79.7254 39.5267 79.8905C42.4266 80.0946 45.1724 80.6943 47.8619 81.5407C45.4133 84.3907 39.7836 84.0459 36.5517 83.3449L36.566 83.341ZM55.4902 84.3205C55.5854 84.3904 55.6948 84.4565 55.7975 84.4971C55.8145 84.5607 55.7996 84.6192 55.8024 84.6866C55.6935 84.5658 55.5704 84.4489 55.4759 84.3244L55.4902 84.3205ZM57.54 85.1203C57.54 85.1203 57.54 85.1203 57.5258 85.1241C57.5618 85.0872 57.5801 85.0414 57.6127 84.9918C57.6229 85.03 57.6046 85.0758 57.6005 85.1177C57.5862 85.1216 57.5686 85.1127 57.54 85.1203ZM56.698 81.1217C56.6124 81.1446 56.5268 81.1676 56.4514 81.2286C56.3253 80.7582 56.185 80.2917 56.0447 79.8251C56.0345 79.7869 56.0528 79.7411 56.0568 79.6992C56.0826 79.6241 56.1227 79.5453 56.1451 79.4575C56.305 79.7689 56.4364 80.088 56.5141 80.4351C56.5584 80.6004 56.6265 80.8547 56.698 81.1217ZM57.2329 85.2299C57.2329 85.2299 57.2186 85.2337 57.2043 85.2375C57.2043 85.2375 57.2043 85.2375 57.2186 85.2337L57.2329 85.2299ZM57.133 85.2566C57.133 85.2566 57.1615 85.249 57.1758 85.2452C57.1758 85.2452 57.1472 85.2528 57.133 85.2566ZM74.1759 121.175C74.1721 121.503 73.4337 122.287 73.2313 122.559C72.017 124.192 70.5999 125.526 68.5659 126.098C68.5802 126.094 68.5944 126.091 68.6053 126.074C69.9451 124.053 71.2741 122.048 72.6139 120.026C72.8437 120.142 73.0878 120.253 73.3319 120.365C73.7739 120.587 74.1992 120.405 74.1902 121.171L74.1759 121.175ZM72.2284 119.843C70.9537 121.766 69.6682 123.704 68.3936 125.627C68.2243 123.396 68.4248 121.176 68.9916 118.953C70.1608 119.035 71.199 119.37 72.225 119.831L72.2284 119.843ZM68.0067 118.931C68.2025 118.919 68.3765 118.94 68.5614 118.945C68.0054 121.152 67.8015 123.36 67.9531 125.581C67.0886 124.695 66.235 123.793 65.7218 122.677C65.1909 121.552 65.0494 120.282 64.8325 119.072C64.861 119.065 64.8964 119.083 64.9249 119.075C65.9914 119.116 66.9674 118.991 68.0176 118.914L68.0067 118.931ZM62.3399 119.018C62.6281 119.009 62.9163 119 63.2045 118.991C63.5715 118.933 63.9835 118.987 64.3777 119.031C64.6355 120.392 64.7819 121.852 65.4216 123.098C66.0164 124.233 66.9408 125.171 67.8617 126.096C67.9039 126.139 67.9535 126.153 67.9963 126.142C67.9997 126.154 68.0065 126.18 68.0099 126.193C67.978 126.188 67.9283 126.174 67.8855 126.185C66.0943 124.866 63.9122 123.516 62.6482 121.824C61.7743 121.132 61.6752 120.191 62.3542 119.014L62.3399 119.018ZM37.563 101.334C37.9911 101.219 40.2346 100.686 40.6657 100.925C42.2527 101.767 40.7166 106.253 40.4108 107.452C39.9362 109.391 39.2631 111.275 38.5084 113.14C38.4656 113.151 38.4337 113.146 38.3875 113.145C38.3521 113.127 38.3276 113.093 38.2923 113.075C38.3779 113.052 38.4567 113.004 38.458 112.894C38.6003 108.973 38.2077 105.167 37.2741 101.397C37.374 101.371 37.4454 101.351 37.5596 101.321L37.563 101.334ZM33.8551 103.594C35.095 102.513 34.9003 102.129 36.8671 101.534C37.7694 105.244 38.1694 109.02 38.0386 112.871C35.2103 110.821 33.2938 108.064 31.467 105.243C31.592 105.195 31.7028 105.152 31.8244 105.092C32.6758 104.673 33.1867 104.182 33.8694 103.591L33.8551 103.594ZM31.0416 105.425C32.914 108.302 34.8761 111.115 37.7608 113.204C37.2089 113.256 36.6644 113.28 36.1132 113.277C34.383 112.814 32.7168 111.449 31.4962 110.604C29.7744 109.43 28.1497 108.162 26.5719 106.84C27.931 106.204 29.6199 105.942 31.0382 105.412L31.0416 105.425ZM27.4379 111.214C26.6288 110.763 25.2247 110.09 24.7464 109.333C23.9571 108.1 24.6926 108.162 25.5221 107.49C25.7232 107.327 25.9563 107.169 26.1819 107.04C26.1887 107.066 26.1955 107.091 26.2023 107.117C28.3364 108.916 30.5751 110.592 32.9687 112.103C33.597 112.507 34.2145 112.928 34.8401 113.264C32.2026 113.126 29.6601 112.486 27.4236 111.218L27.4379 111.214ZM49.7667 116.337C49.683 116.196 49.585 116.059 49.4871 115.921C49.4794 115.664 49.4609 115.424 49.4533 115.167C49.5874 115.554 49.693 115.948 49.7667 116.337ZM47.6054 121.058C47.3962 120.106 47.1937 119.179 47.1761 118.257C47.4837 119.919 47.7771 121.585 48.0847 123.247C48.0881 123.259 48.1058 123.268 48.1126 123.294C48.1126 123.294 48.0949 123.285 48.0772 123.276C47.8344 123.055 47.6797 121.393 47.6088 121.071L47.6054 121.058ZM48.315 116.685C48.3136 116.508 48.2978 116.335 48.2998 116.171C48.3012 116.348 48.317 116.521 48.315 116.685ZM48.438 119.827C48.438 119.827 48.542 119.758 48.578 119.721C48.5611 119.944 48.5619 120.175 48.5451 120.398C48.5083 120.203 48.4748 120.022 48.4414 119.84L48.438 119.827ZM48.5079 115.407C48.4291 115.455 48.3789 115.496 48.3388 115.575C48.3665 115.336 48.4085 115.093 48.479 114.842C48.4839 115.032 48.5031 115.217 48.5079 115.407ZM27.6839 126.233C31.1424 125.211 34.9077 125.619 38.3935 125.898C42.313 126.197 46.1653 126.759 49.9729 127.496C49.994 127.518 50.0117 127.527 50.047 127.545C43.7365 133.051 34.1317 129.288 27.6839 126.233ZM51.4364 141.521C54.8347 141.074 58.8272 141.816 61.3468 143.798C61.2966 143.839 61.2572 143.863 61.2069 143.904C61.1362 143.869 61.0403 143.853 60.954 143.931C60.846 144.042 60.7346 144.14 60.6123 144.254C57.1814 144.751 53.4577 144.441 50.1472 144.074C50.1525 143.923 50.1545 143.759 50.1455 143.611C50.0305 142.211 49.5163 141.777 51.4364 141.521ZM50.2783 147.132C49.8081 146.291 50.0359 145.371 50.1318 144.473C53.2683 144.818 56.7079 145.096 59.9594 144.729C57.2803 146.319 54.2152 147.154 51.1475 147.921C51.1046 147.933 51.0829 147.966 51.0578 147.986C50.7762 147.735 50.4838 147.5 50.2817 147.145L50.2783 147.132ZM51.3462 148.263C54.068 147.575 56.762 146.839 59.2095 145.584C57.1749 147.41 54.954 149.054 52.4704 150.347C52.297 150.27 52.1236 150.194 51.9645 150.114C52.0659 150.264 51.8905 149.153 51.8701 149.077C51.7747 148.721 51.5713 148.475 51.3604 148.259L51.3462 148.263ZM55.9717 150.512C55.5627 150.813 55.1184 151.095 54.6604 151.327C54.0872 151.072 53.4964 150.808 52.9232 150.552C55.826 148.998 58.3751 146.979 60.699 144.749C60.7778 144.7 60.8532 144.639 60.9178 144.595C61.0034 144.572 61.1067 144.558 61.1957 144.548C60.1715 146.948 58.3056 148.947 55.9894 150.521L55.9717 150.512ZM82.4653 141.778C76.3029 139.559 76.0801 133.419 76.5274 128.066C79.8376 132.371 84.5452 136.411 83.4267 142.284C83.4118 142.342 83.4112 142.397 83.4248 142.448C83.1807 142.336 82.9366 142.224 82.6782 142.116C82.7013 141.974 82.6352 141.842 82.4476 141.769L82.4653 141.778ZM80.2333 146.464C80.2959 146.584 80.4197 146.646 80.5977 146.625C80.3123 146.702 80.0411 146.775 79.8094 146.823C79.6524 146.865 79.367 146.942 79.089 146.989C79.4716 146.818 79.8718 146.656 80.2476 146.46L80.2333 146.464ZM77.4006 145.997C77.0615 146.101 76.7258 146.218 76.3901 146.336C76.9303 146.068 77.4882 145.81 78.0386 145.581C77.813 145.709 77.6051 145.847 77.4006 145.997ZM81.1618 146.447C81.1618 146.447 81.2189 146.432 81.2617 146.42C81.2617 146.42 81.2474 146.424 81.2332 146.428C81.2046 146.436 81.1903 146.439 81.1618 146.447ZM83.0009 144.006C82.3723 144.229 81.758 144.448 81.1328 144.683C80.6591 144.742 80.1459 144.825 79.6464 144.959C80.7358 144.572 81.8599 144.257 83.0009 144.006ZM97.5036 166.732C101.641 165.733 105.776 165.524 109.888 166.139C109.93 166.183 109.976 166.239 110.018 166.282C106.032 167.391 101.173 168.325 97.5036 166.732ZM116.262 155.506C118.139 159.255 115.602 163.205 112.042 165.671C112.006 165.654 111.971 165.636 111.939 165.631C111.875 165.621 111.811 165.61 111.747 165.6C111.383 161.842 113.769 158.531 116.266 155.519L116.262 155.506ZM88.3584 157.777C87.8885 157.508 84.1203 155.547 84.2164 154.936C84.6355 152.275 98.847 157.474 103.217 159.111C99.5541 159.942 95.5366 160.419 92.0313 159.382C90.7341 158.994 89.5211 158.406 88.3693 157.761L88.3584 157.777ZM126.867 126.978C126.669 127.209 126.453 127.43 126.233 127.639C126.23 127.626 126.223 127.6 126.22 127.588C126.414 127.399 126.591 127.202 126.767 127.005C126.796 126.997 126.824 126.99 126.853 126.982L126.867 126.978ZM121.248 130.555C122.787 130.075 124.168 129.35 125.357 128.364C125.45 128.312 125.543 128.26 125.622 128.211C124.059 129.57 122.18 130.551 120.075 131.087C120.458 130.917 120.851 130.73 121.23 130.546L121.248 130.555ZM118.884 129.894C118.79 130.001 118.699 130.121 118.623 130.236C118.657 130.132 118.686 130.015 118.72 129.911C118.784 129.921 118.826 129.909 118.887 129.907L118.884 129.894ZM124.039 118.02C124.689 117.478 129.311 113.95 130.07 114.497C131.268 115.375 127.365 119.132 126.704 119.691C124.868 121.232 122.701 122.221 120.326 122.776C120.361 122.562 120.399 122.361 120.419 122.152C121.404 120.634 122.573 119.231 124.021 118.011L124.039 118.02ZM118.997 102.801C120.161 103.035 121.321 103.255 122.497 103.417C121.781 105.257 121.318 107.126 121.096 109.038C120.067 107.08 119.609 104.913 118.997 102.801ZM127.492 105.39C127.376 105.871 126.175 106.697 125.801 107.015C124.493 108.128 123.056 109.045 121.525 109.837C121.521 109.824 121.518 109.811 121.5 109.802C123.07 107.842 124.485 105.814 125.787 103.707C126.782 103.713 127.869 103.831 127.492 105.39ZM125.292 103.69C124.136 105.54 122.888 107.332 121.534 109.071C121.755 107.159 122.222 105.303 122.94 103.475C123.637 103.561 124.333 103.647 125.018 103.695C125.111 103.698 125.203 103.7 125.296 103.703L125.292 103.69ZM116.684 102.331C117.283 102.457 117.897 102.578 118.511 102.7C119.205 105.062 119.688 107.494 120.94 109.653C120.897 109.664 120.872 109.685 120.847 109.705C118.551 107.704 116.53 105.411 116.698 102.327L116.684 102.331ZM110.026 117.047C113.513 119.669 118.051 123.018 118.445 127.286C118.262 128.03 118.075 128.762 117.86 129.501C113.435 126.23 109.83 122.536 110.026 117.047ZM124.364 135.62C121.538 139.117 117.729 141.568 113.239 142.853C114.871 138.382 119.638 136.478 124.364 135.62ZM101.904 138.055C100.071 140.863 97.9655 143.566 95.9525 146.272C95.1368 139.745 99.8532 131.886 103.4 126.058C103.964 130.158 104.403 134.197 101.904 138.055ZM79.4337 106.316C79.4337 106.316 79.4827 106.385 79.5324 106.399C79.4175 106.484 79.2884 106.573 79.1702 106.646C79.264 106.539 79.3434 106.436 79.4337 106.316ZM77.8641 108.222C77.9578 108.115 78.0373 108.012 78.131 107.905C78.288 107.863 78.4518 107.847 78.6088 107.805C78.0673 108.181 77.5047 108.537 76.9496 108.862C77.0114 108.751 77.0738 108.584 77.1546 108.372C77.3667 108.478 77.7195 108.425 77.8818 108.231L77.8641 108.222ZM80.2453 106.262C80.5504 106.031 80.82 105.781 81.0686 105.51C80.8554 105.799 80.6068 106.07 80.3405 106.332C80.316 106.298 80.2664 106.284 80.2276 106.254L80.2453 106.262ZM76.4277 109.084C76.4277 109.084 76.4631 109.102 76.4916 109.094C76.4773 109.098 76.4488 109.106 76.4379 109.122C76.4345 109.11 76.4311 109.097 76.4277 109.084ZM79.358 103.693C79.3003 103.763 79.2425 103.833 79.1705 103.907C79.0985 103.981 79.0088 104.046 78.9368 104.119C78.3621 104.6 77.8934 105.135 77.4744 105.683C76.9934 106.057 76.785 106.536 76.6439 107.037C76.6039 107.116 76.5604 107.182 76.5204 107.261C76.8145 105.846 77.9944 104.713 79.3546 103.68L79.358 103.693ZM75.1917 73.0731C74.5727 76.7001 73.8129 80.2013 70.4506 82.7238C70.5192 82.6373 70.5633 82.5165 70.5292 82.3893C69.8186 78.7098 72.3343 75.5965 75.1917 73.0731ZM68.0728 48.2179C69.5134 46.4011 71.1757 44.7838 73.0072 43.2847C73.4226 48.7739 70.2823 54.1803 64.9722 57.1974C64.9586 57.1466 64.9415 57.083 64.9279 57.0322C64.9754 56.924 64.9876 56.7981 64.9249 56.6786C64.8589 56.5464 64.8072 56.4104 64.7697 56.2706C64.709 55.987 64.6484 55.7035 64.5877 55.42C64.3577 52.9062 66.5454 50.167 68.0728 48.2179ZM55.5256 65.043C61.6332 67.6852 64.4014 73.6206 68.043 78.477C68.1621 78.6358 68.3429 78.6828 68.5176 78.6496C68.538 78.7259 68.5584 78.8022 68.5755 78.8657C59.5927 78.452 57.1775 71.8361 55.5398 65.0392L55.5256 65.043ZM53.0345 93.1954C61.3345 93.0018 69.2624 95.7013 73.1017 102.494C64.3401 104.733 57.8953 98.7199 53.0345 93.1954ZM101.239 104.861C101.293 104.779 101.333 104.7 101.388 104.617C101.289 104.821 101.177 105.028 101.061 105.223C101.122 105.111 101.181 104.986 101.239 104.861ZM95.8716 109.72C96.3861 109.528 96.859 109.237 97.3114 108.871C97.3216 108.909 97.357 108.927 97.3924 108.945C96.736 109.407 96.0627 109.805 95.39 110.149C95.5483 109.997 95.7099 109.859 95.8682 109.707L95.8716 109.72ZM94.8923 108.919C94.8923 108.919 94.8129 109.022 94.7803 109.072C94.8237 109.006 94.8529 108.944 94.8964 108.877C94.8998 108.89 94.9032 108.903 94.8923 108.919ZM94.1579 110.574C94.1579 110.574 94.2103 110.656 94.2633 110.682C94.2062 110.698 94.1526 110.726 94.0989 110.754C94.1138 110.695 94.143 110.633 94.1722 110.57L94.1579 110.574ZM110.754 43.0363C111.323 43.5649 110.808 46.2648 110.365 46.7242C109.828 47.2904 108.732 47.7069 108.012 48.1041C106.666 48.8463 105.274 49.5326 103.872 50.1808C103.869 50.1681 103.848 50.1465 103.83 50.1376C105.33 47.5146 107.339 45.1366 108.786 42.4869C108.878 42.5441 108.952 42.5924 109.072 42.6419C109.458 42.8247 110.571 42.8673 110.757 43.049L110.754 43.0363ZM105.687 41.0826C107.397 41.1832 107.526 41.6663 108.422 42.271C106.968 44.9499 104.93 47.3355 103.423 49.9878C103.347 48.6183 103.01 47.305 103.066 45.9138C103.131 44.2747 103.559 42.6747 104.104 41.1116C104.503 41.0592 104.912 41.0449 105.69 41.0953L105.687 41.0826ZM100.735 41.1557C101.522 41.4083 102.083 41.4486 102.946 41.2993C103.224 41.252 103.441 41.2074 103.648 41.1793C103.187 42.5427 102.822 43.9214 102.696 45.3317C102.559 46.9352 102.94 48.4139 103.007 49.9766C100.369 47.4402 99.9338 44.273 99.8942 40.6998C100.184 40.8674 100.452 41.0682 100.75 41.1519L100.735 41.1557ZM97.3234 42.7513C96.9403 42.0636 97.1214 41.4836 97.881 41.0075C98.187 40.0943 98.6443 39.9173 99.2748 40.4433C99.3387 40.4534 99.3917 40.4801 99.4556 40.4902C99.4763 44.1639 99.9032 47.4698 102.515 50.0812C99.5269 48.9197 97.4917 45.6631 97.3342 42.7347L97.3234 42.7513ZM94.9415 61.9489C95.2244 63.2903 95.6005 64.5795 96.0621 65.8457C95.9731 65.8559 95.8909 65.8916 95.8086 65.9272C95.4292 64.6253 95.1605 63.2802 94.9415 61.9489ZM99.2301 69.8479C99.2757 69.9038 99.3104 69.9763 99.356 70.0322C99.3377 70.078 99.3193 70.1238 99.2976 70.1568C99.2704 70.0551 99.2574 69.9496 99.2444 69.8441L99.2301 69.8479ZM98.0344 65.3853C98.0344 65.3853 98.0208 65.3345 98.0139 65.3091C98.4691 65.9229 98.8739 66.5776 99.1578 67.2373C98.7917 66.6132 98.4399 65.9853 98.031 65.3726L98.0344 65.3853ZM96.7329 63.5538C96.6384 63.4293 96.5581 63.3009 96.4635 63.1763C96.39 63.0734 96.2874 63.0327 96.1881 63.0048C96.1506 62.865 96.1132 62.7251 96.0757 62.5853C96.3328 62.8026 96.5756 63.0237 96.8218 63.2575C96.7498 63.3313 96.7131 63.4228 96.7152 63.5449L96.7329 63.5538ZM100.825 73.345C100.896 73.3259 100.975 73.2775 101.036 73.2203C101.028 73.3042 101.017 73.3754 101.009 73.4593C100.952 73.42 100.896 73.3806 100.825 73.345ZM112.542 85.9034C109.022 90.3486 104.995 94.6162 98.7773 95.56C102.08 90.8733 106.835 87.5551 112.542 85.9034ZM123.078 61.9726C123.067 62.616 120.327 63.9225 119.608 64.265C118.224 64.922 116.754 65.3159 115.225 65.5483C115.236 65.5318 115.244 65.5025 115.255 65.486C115.306 65.3906 115.314 65.3067 115.293 65.2304C117.496 63.6318 120.584 63.2814 122.192 61.0652C122.681 61.2887 123.058 61.5555 123.049 61.9802L123.078 61.9726ZM120.749 60.4164C121.01 60.5917 121.417 60.7415 121.81 60.8951C120.303 62.9204 117.456 63.3699 115.345 64.7395C116.523 62.8568 117.765 60.9842 118.706 59.0151C118.823 59.0519 118.951 59.0722 119.075 59.1344C119.863 59.509 120.053 59.9896 120.738 60.4329L120.749 60.4164ZM118.302 58.878C117.365 60.8598 116.109 62.7362 114.93 64.619C114.275 62.5734 114.851 60.4978 115.615 58.4398C115.753 58.4982 115.874 58.5477 115.99 58.5845C116.788 58.8205 117.546 58.7399 118.302 58.878ZM112.942 58.3386C113.539 57.429 114.406 57.8646 115.23 58.257C114.414 60.465 113.768 62.7365 114.571 64.9333C114.521 64.974 114.485 65.0109 114.456 65.0733C114.412 65.1394 114.386 65.2145 114.343 65.2806C112.902 63.8408 111.899 59.9262 112.945 58.3513L112.942 58.3386Z" fill="#252525"/>
</svg>
