<svg width="47" height="170" viewBox="0 0 47 170" fill="none" xmlns="http://www.w3.org/2000/svg">
<path d="M46.4999 79.7086C46.4636 79.1197 45.7549 78.9811 45.3914 79.4315C39.0676 87.365 30.0179 96.2165 26.2744 106.177C26.7832 87.9193 26.5834 69.5926 25.0206 51.3872C25.1841 51.3526 25.3658 51.318 25.5294 51.266C30.1087 49.6377 28.7277 43.1247 27.3648 38.9674C33.3615 36.8368 38.9585 32.9567 42.9019 28.1238C45.8094 24.5382 41.7207 19.792 38.8132 17.0898C39.9035 14.9765 40.3578 12.8632 38.686 10.8539C37.323 9.22559 32.0713 3.45738 30.4177 7.14695C30.345 7.00838 30.2178 6.90445 30.0724 6.85248C29.7816 3.68256 27.4556 1.93304 24.3845 0.737828C22.4583 -0.00701609 19.6961 -0.83847 19.3145 1.81179C19.26 2.15823 19.3145 2.57396 19.4054 3.00701C18.5331 3.42273 17.6609 3.83846 16.7704 4.25419C16.4797 4.029 15.9345 4.04632 15.7891 4.49669C14.9714 6.83516 14.0628 9.26023 13.2996 11.72C7.82977 11.2523 -1.07454 16.241 0.106641 22.2344C1.85116 31.1552 10.919 35.1739 18.2424 39.1406C18.515 39.2965 18.7875 39.1926 18.9511 39.0194C18.9147 39.1579 18.8784 39.2619 18.8602 39.4004C18.733 39.4871 18.6422 39.6256 18.6422 39.8335C18.8239 43.0554 18.097 46.7969 20.3867 49.4991C21.2589 50.5211 22.5128 51.3006 23.8575 51.4219C24.6753 60.8797 25.1296 70.3721 25.2931 79.8645C23.0761 69.7312 13.8629 63.0622 5.03127 57.5019C4.39525 57.1035 3.79557 58.0735 4.43159 58.4719C4.75869 58.6798 5.10396 58.905 5.43106 59.1128C7.42999 64.1016 9.48343 69.1596 12.7726 73.5247C15.989 77.8032 20.423 80.8519 24.8933 83.8486C25.0206 83.9352 25.1841 83.9352 25.3295 83.9006C25.4022 92.4576 25.2931 101.015 25.0206 109.554C25.0206 110.005 24.9842 110.455 24.966 110.905C24.7843 111.858 24.6571 112.828 24.6026 113.798C24.6026 114.023 24.6935 114.162 24.8388 114.249C24.1483 132.662 22.8036 151.266 18.842 169.298C18.6785 170.008 19.8233 170.303 19.9869 169.592C23.7303 152.513 25.1478 134.931 25.8928 117.488C25.9292 117.471 25.9655 117.453 26.0018 117.419C36.4871 106.973 47.3359 95.1079 46.4999 79.7086ZM24.5299 81.9951C23.5304 82.3589 19.6961 78.8426 19.0965 78.3575C16.9158 76.5907 15.0077 74.616 13.3541 72.3815C10.6283 68.6746 8.81106 64.4307 7.12106 60.2214C10.5738 62.456 13.9538 64.8118 16.8613 67.6872C17.7699 68.588 27.074 81.0771 24.5117 81.9951H24.5299ZM22.0585 47.663C22.0585 47.663 22.004 47.663 21.9676 47.663C21.8768 47.663 21.8041 47.3859 21.7314 47.0221C21.8223 47.2473 21.9495 47.4552 22.0585 47.6803V47.663ZM19.5326 37.6856C19.5326 37.6856 19.5326 37.6163 19.5144 37.5816C19.5508 37.5816 19.5871 37.547 19.6416 37.5297C19.6053 37.5816 19.5871 37.6336 19.5508 37.6856H19.5326ZM38.7586 30.6009C35.3059 33.8401 31.5262 36.2652 27.0013 37.8761C26.8741 37.5124 26.7469 37.1832 26.6379 36.8888C26.7651 36.6809 26.7469 36.3864 26.5652 36.1786C26.9468 35.6069 27.3102 35.0526 27.6373 34.4637C27.6918 34.4464 27.7282 34.429 27.7645 34.3771C29.927 30.93 33.1253 28.5569 36.4508 26.2011C38.3589 24.85 40.1579 23.4989 41.0302 21.3856C41.4663 22.0438 41.8479 22.7367 42.1205 23.4642C43.3562 26.7901 41.012 28.5049 38.7586 30.6009ZM40.6485 20.8486C39.5037 24.1398 35.8511 25.872 33.1616 27.9333C31.5625 29.1632 30.1087 30.4796 28.8549 31.9866C29.2728 31.0339 29.6181 30.0639 29.9088 29.0766C30.1632 29.2151 30.5267 29.2151 30.7448 28.9033C33.198 25.3523 36.0328 21.836 38.2135 18.1118C39.0857 18.9432 39.9217 19.8613 40.6304 20.8486H40.6485ZM36.3599 18.7527C34.3792 21.6628 32.3621 24.5382 30.345 27.431C30.981 24.7287 31.2536 21.9399 31.2717 19.1338C33.3434 16.4488 34.997 13.5561 36.2327 10.4208C38.0681 13.1404 38.2135 15.9985 36.3599 18.7527ZM31.1627 8.74057C31.6715 5.48405 35.0697 8.94844 35.8693 9.90114C34.7426 12.8978 33.198 15.6694 31.2899 18.2503C31.2899 15.219 31.0173 12.153 30.6721 9.12166C30.9083 9.12166 31.1264 9.01773 31.1627 8.72325V8.74057ZM28.9275 7.3375C28.9275 7.61465 29.1274 7.78787 29.3455 7.85715C29.7998 11.8239 30.1996 15.8426 30.0906 19.8093C30.0542 19.8613 30.0179 19.9132 29.9634 19.9652C29.8362 20.1211 29.927 20.3116 30.0724 20.3809C29.8725 25.8374 28.6731 31.1379 25.3295 35.9187C25.0387 35.9187 24.7298 35.9014 24.4209 35.9014C24.5117 35.8148 24.5844 35.6935 24.6026 35.5376C24.6753 34.7755 24.6935 33.996 24.7298 33.2338C24.7843 33.1992 24.8388 33.1645 24.857 33.0952C27.8009 23.1351 26.9468 12.9325 25.6929 2.78182C27.4556 4.44473 28.9094 6.81784 28.9275 7.3375ZM20.6774 2.67789C21.6951 0.391389 23.4578 0.893726 25.1114 2.22752C26.3108 11.7546 27.1649 21.3336 24.8933 30.7395C25.0387 25.9759 24.7843 21.2124 24.0574 16.4835C23.585 13.3655 22.9308 10.2649 22.0767 7.21624C21.8768 6.50604 20.3503 3.40541 20.6593 2.67789H20.6774ZM20.7319 6.74855C21.5315 9.53738 22.1857 12.3609 22.6764 15.219C23.8212 21.9399 24.0029 28.7301 23.4396 35.5203C23.4396 35.6935 23.4759 35.8148 23.585 35.9014C23.058 35.9361 22.5492 36.0227 22.0585 36.1439C21.1681 25.6988 20.5684 15.167 17.8244 4.99903C18.4604 4.68724 19.1146 4.39276 19.7507 4.08097C20.0959 5.051 20.5502 6.03835 20.7501 6.74855H20.7319ZM16.7523 5.22422C16.9158 5.31083 17.0975 5.32815 17.2974 5.22422C20.0232 15.3749 20.6229 25.872 21.4952 36.2652C20.9137 36.4557 20.3867 36.7675 19.9505 37.1659C20.0051 37.0273 19.9869 36.8888 19.896 36.7329C17.0612 31.9693 13.2087 27.0499 12.9361 21.4029C12.6635 15.8599 14.8987 10.4035 16.7341 5.22422H16.7523ZM12.9543 12.8286C12.0275 16.1544 11.446 19.5322 11.9003 22.9273C12.5545 27.7428 15.6438 32.0559 18.206 36.2132C16.1526 34.3424 13.5358 33.0779 11.6459 30.93C7.88429 26.6515 4.77686 21.836 4.2317 16.1717C6.52138 14.1797 10.0286 12.7073 12.9543 12.8286ZM18.8239 38.1533C13.554 35.2951 7.79343 32.9913 4.35891 28.0372C1.8875 24.4689 -0.329488 20.9699 3.46847 16.8819C3.55934 16.7953 3.6502 16.7087 3.74106 16.6221C4.2317 20.762 5.97622 24.3823 8.46579 27.8294C9.59246 29.371 10.81 30.93 12.1547 32.3158C14.1718 34.3944 17.2247 35.5723 19.0056 37.8068C19.1146 37.9281 19.26 37.9281 19.3872 37.8761C19.2782 38.0667 19.151 38.2399 19.0783 38.4477C19.0419 38.3438 18.9693 38.2399 18.8239 38.1533ZM26.1472 110.94C28.2188 99.8887 38.2317 89.9459 45.3369 81.3196C45.3369 95.2464 35.6149 106.159 25.9655 115.842C26.0382 114.214 26.0927 112.586 26.1472 110.957V110.94Z" fill="#252525"/>
</svg>
