<svg width="94" height="187" viewBox="0 0 94 187" fill="none" xmlns="http://www.w3.org/2000/svg">
<path d="M93.5965 139.631C93.0513 138.286 90.5435 138.268 90.3073 136.96C90.271 136.778 90.0711 136.578 89.8893 136.542C86.7819 136.051 83.8744 136.851 81.512 138.868C81.4393 138.813 81.3666 138.777 81.2758 138.759C76.9327 138.014 72.5895 137.741 68.2101 137.923C73.2437 135.561 77.9866 132.798 81.2576 128.183C81.294 128.146 81.294 128.11 81.3121 128.055C84.7285 129.055 89.5077 126.765 91.7792 124.785C92.8877 123.821 93.6873 122.422 93.233 120.914C92.6697 119.042 90.8343 119.569 89.9075 118.261C89.0534 117.061 89.9075 117.243 89.6168 116.08C89.5077 115.626 89.1988 115.335 88.8535 115.081C87.0908 113.736 83.729 114.499 81.7664 114.681C81.6756 114.681 81.5847 114.717 81.512 114.754C81.2576 114.644 80.9305 114.663 80.7306 114.935C79.3132 116.916 78.768 119.133 78.5681 121.532C78.4228 123.313 77.9685 125.675 79.4586 127.02C79.6948 127.238 79.9674 127.419 80.24 127.565C75.7515 133.889 68.5008 136.705 61.5227 139.776C66.4474 134.125 63.6125 122.277 61.232 116.444C61.0139 115.898 60.3234 115.88 60.0871 116.444C56.9797 124.367 54.0904 133.125 58.9423 140.939C52.891 143.738 47.3304 147.082 44.2593 153.551C43.9322 154.241 44.9498 154.841 45.2769 154.151C49.3838 145.501 58.1064 142.43 66.411 138.722C66.4655 138.959 66.6473 139.14 66.9562 139.122C71.5901 138.85 76.1694 139.086 80.7488 139.849C80.7851 139.922 80.8397 139.995 80.9123 140.049C83.6563 142.139 88.9626 144.41 92.3426 142.466C93.3239 141.903 94.0508 140.758 93.5783 139.613L93.5965 139.631ZM82.675 117.934C82.675 117.934 82.6387 118.043 82.6023 118.097C82.0208 120.114 81.4575 122.022 80.6216 123.876C80.4399 121.786 81.512 119.751 82.6569 117.915L82.675 117.934ZM82.6023 115.753C83.0748 115.68 83.5836 115.626 84.1288 115.571C83.9107 115.771 83.7654 116.044 83.7108 116.407C83.5836 116.48 83.4564 116.553 83.3656 116.643C83.3838 116.207 83.0385 115.844 82.6023 115.753ZM85.2555 123.076C85.2555 123.076 85.3282 123.149 85.3645 123.185C85.31 123.24 85.2555 123.276 85.201 123.331C85.201 123.24 85.2373 123.149 85.2555 123.058V123.076ZM88.3084 121.314C88.0358 121.386 87.7632 121.477 87.5088 121.586C87.5815 121.386 87.6724 121.186 87.7269 120.968C87.9086 121.077 88.1085 121.186 88.3084 121.295V121.314ZM85.7825 116.989C85.7825 116.989 85.7825 116.934 85.7825 116.916C85.8006 116.934 85.837 116.952 85.8551 116.989C85.837 116.989 85.8006 116.989 85.7825 116.989ZM89.5986 122.713C89.7258 122.604 89.7985 122.495 89.853 122.386C89.853 122.531 89.853 122.695 89.744 122.895C89.3078 123.294 88.8172 123.621 88.2902 123.876C88.2175 123.912 88.1448 123.93 88.0721 123.967C88.581 123.549 89.108 123.131 89.6168 122.713H89.5986ZM81.3121 126.602C81.4393 126.347 81.6574 125.875 81.9118 125.275C81.8755 125.511 81.8028 125.748 81.7664 125.984C81.6937 126.384 81.8936 126.802 82.2207 127.001C81.9845 126.947 81.7483 126.874 81.5302 126.747C81.4575 126.711 81.3848 126.638 81.3121 126.602ZM82.8931 127.092C83.4928 126.892 84.0198 126.547 84.5104 126.166C84.6194 126.22 84.7467 126.275 84.8739 126.275C85.5099 126.311 86.3094 126.238 87.1454 126.093C85.8551 126.656 84.256 127.165 82.8931 127.092ZM92.0155 122.64C92.0518 122.331 92.0518 122.059 91.961 121.822C92.1609 122.095 92.1972 122.368 92.0155 122.64ZM88.1448 116.989C88.054 116.589 87.9086 116.225 87.7087 115.935C88.3266 116.28 88.3084 116.589 88.1448 116.989ZM81.5847 115.826C81.5847 115.826 81.7119 115.862 81.8028 115.844C81.8936 115.844 81.9845 115.826 82.0754 115.807C81.93 115.88 81.7846 115.971 81.6756 116.135C81.2031 116.843 80.767 117.588 80.349 118.352C80.7124 117.37 81.1304 116.498 81.5847 115.826ZM60.6505 118.279C61.7408 121.259 62.504 124.312 62.6858 127.51C62.922 131.236 63.0129 137.323 59.7055 139.904C55.6895 132.962 57.9428 125.311 60.6323 118.261L60.6505 118.279ZM90.2528 141.83C89.5622 142.084 88.0358 141.794 87.4543 141.685C85.6189 141.376 83.9653 140.649 82.4388 139.631C84.0743 138.286 86.2549 137.287 88.3992 137.523C89.4896 137.65 89.5077 138.268 90.4163 138.795C90.5981 138.886 90.798 138.977 90.9797 139.05C92.488 139.431 92.2517 140.34 90.2346 141.812L90.2528 141.83Z" fill="#252525"/>
<path d="M44.3863 163.964C44.459 153.115 43.1688 142.23 41.3334 131.327C41.4243 131.254 41.4788 131.163 41.5151 131.018C43.2778 122.113 48.2206 113.464 52.2548 105.377C53.5632 102.76 54.9806 100.18 56.5798 97.7629C56.6161 97.7992 56.6343 97.8356 56.6888 97.8538C64.7209 102.179 74.1885 101.688 81.6936 96.5272C82.3114 96.0911 81.7299 95.0734 81.0939 95.5096C73.8978 100.452 64.9753 100.979 57.2703 96.8361H57.234C57.5247 96.4182 57.8155 96.0184 58.1244 95.6186C65.3932 92.3113 73.2981 92.1841 80.7305 95.237C81.4392 95.5277 81.7299 94.3829 81.0394 94.0921C74.0613 91.2209 66.6471 91.1119 59.7235 93.656C61.9042 91.1846 64.4119 89.004 67.4467 87.3866C68.3916 87.8046 69.6455 87.4957 70.6086 87.2594C72.3713 86.8233 74.2794 86.1691 75.4424 84.6972C76.0784 83.8976 76.2601 82.9708 76.5872 82.0077C77.0779 80.5903 77.8593 79.4454 78.459 78.0825C79.0768 76.6833 79.4584 74.8661 78.3136 73.594C77.514 72.7218 76.4055 72.5764 75.406 73.0125C75.3697 72.6309 74.9699 72.2675 74.5338 72.5219C70.6995 74.7389 67.8283 78.3006 66.7198 82.6255C66.429 83.734 65.9384 85.4422 66.5381 86.5507C63.8304 88.0408 61.5044 89.9671 59.4691 92.1477C59.8144 86.1328 57.0704 80.5358 52.0731 77.0467C51.7823 76.8468 51.2554 77.0467 51.2008 77.392C50.5103 82.5529 46.7123 96.4908 55.9801 96.2909C56.0346 96.2909 56.0891 96.2728 56.1255 96.2546C54.5082 98.5625 53.0907 101.016 51.8005 103.542C47.7663 111.392 43.0052 119.915 40.8246 128.619C38.2442 113.863 34.8096 99.0894 32.5563 84.4064C32.5926 84.3701 32.6472 84.3156 32.6653 84.2429C37.9534 72.5037 46.8577 63.3086 55.9256 54.4043C58.3425 57.9297 62.1586 60.5283 66.5381 60.6555C70.5359 60.7645 74.3521 58.8201 75.6059 54.9131C75.8422 54.1863 74.6973 53.8773 74.4611 54.6042C71.7353 63.0361 61.6498 59.2744 57.3248 54.2408C57.4339 54.2408 57.5611 54.2408 57.6701 54.1863C63.6487 50.9516 70.4996 51.0607 76.3692 54.4407C77.0234 54.8223 77.623 53.8046 76.9688 53.423C70.754 49.8431 63.5033 49.7341 57.1976 53.0959C57.3248 52.8597 57.2703 52.6053 57.1068 52.4236C59.3238 50.2793 61.359 48.0259 63.049 45.4273C70.0271 45.9361 76.46 40.9025 77.6049 33.9971C77.7321 33.252 76.5872 32.9249 76.46 33.6882C75.4424 39.8667 69.9908 44.3552 63.8123 44.2825C63.8304 44.2461 63.8668 44.2098 63.8849 44.1734C65.048 42.1382 66.0656 39.903 67.7193 38.1948C69.9726 35.8688 72.9165 35.1238 75.9512 34.415C76.6963 34.2515 76.3873 33.1067 75.6423 33.2702C71.3355 34.2515 67.901 35.5599 65.3387 39.3397C63.9576 41.3931 62.9582 43.6646 61.5407 45.7181C59.8507 48.1713 57.7246 50.2611 55.5621 52.2964C55.3441 52.3509 55.1442 52.5144 55.0897 52.7507C54.8353 52.9869 54.5627 53.2413 54.3083 53.4775C54.1992 53.5866 54.1629 53.6956 54.1447 53.8046C54.1992 50.7517 53.1089 47.8987 51.3462 45.3183C50.6012 44.228 48.7476 40.7389 47.1121 42.3381C45.3313 44.1008 45.8764 48.353 46.6033 50.3883C47.5664 53.1141 49.5108 55.3129 52.1276 56.5305C44.3863 64.2718 37.063 72.4492 32.2837 82.4075C30.0667 67.0884 29.2672 51.8784 32.2292 36.8864C32.4291 37.0318 32.7017 37.05 32.9016 36.7956C37.8444 30.8533 43.8593 26.1467 50.8192 22.7667C51.5098 22.4396 50.9101 21.422 50.2196 21.7491C48.6386 22.5123 47.1303 23.3482 45.6402 24.2569C47.7845 18.3328 50.2741 12.336 55.5621 8.53801C55.653 8.46532 55.7075 8.39263 55.762 8.30177C60.4686 9.73737 64.2847 4.52198 61.9587 0.287888C61.7588 -0.0573819 61.3954 -0.0573819 61.141 0.106167C61.1046 0.106167 61.0864 0.106167 61.0501 0.106167C59.56 0.469608 58.1244 0.942082 56.7433 1.5781C55.5985 2.10509 54.0902 2.72295 53.3451 3.81327C52.3093 5.30338 53.2725 6.95704 54.6354 7.81113C48.9839 12.0634 46.4034 18.6235 44.0956 25.1109C44.0774 25.1655 44.0956 25.22 44.0774 25.2745C39.7888 28.0912 35.9363 31.4712 32.5563 35.4145C33.901 29.1815 35.8636 22.9848 38.7166 16.8608C40.2794 16.6973 41.8422 15.1708 42.4964 14.0078C44.2955 10.8459 43.0234 7.19328 41.8059 4.06768C41.6423 3.63155 41.1335 3.57703 40.8428 3.7951C40.7337 3.7951 40.6065 3.7951 40.4793 3.88596C38.1715 5.46693 36.5905 7.81113 36.0998 10.5733C35.8091 12.1724 35.6455 15.6615 37.3537 16.6064C37.4082 16.6428 37.4628 16.6428 37.5173 16.6609C36.0817 19.8047 34.8641 22.9485 33.8283 26.1104C33.2832 23.4936 31.7022 21.2585 29.3035 19.9501C30.4847 18.042 29.6488 13.3354 29.2126 11.7363C28.304 8.44715 26.0507 5.8122 22.7252 4.88542C21.9983 4.68553 21.6712 5.8122 22.4163 6.03026C25.342 6.84801 27.3046 9.17403 28.086 12.0634C28.6493 14.1168 29.5397 19.6593 26.2688 19.1505C23.761 18.7689 22.1982 15.08 21.7621 12.972C21.2351 10.3734 21.5804 7.62941 21.8711 5.0308C21.962 4.26757 20.7808 4.28574 20.6899 5.0308C20.2356 9.1922 19.7995 13.8261 22.3799 17.4423C23.3976 18.8779 26.3596 21.5674 28.4494 20.677C28.4858 20.8042 28.5584 20.9132 28.7038 20.9859C30.939 22.2034 32.4836 24.3477 32.7925 26.8918C32.8289 27.2552 33.1378 27.437 33.4286 27.4551C30.1939 37.9949 29.0673 48.6256 29.2308 59.3471C25.451 57.0029 22.6707 53.8773 20.5082 50.3156C23.4157 49.298 25.3783 46.9901 26.3051 44.0644C26.9593 42.0291 27.0502 39.8485 27.0502 37.7405C27.0502 36.5775 27.2682 35.3055 26.4505 34.415C26.3051 34.2515 26.0689 34.2151 25.869 34.2697C21.5258 35.3782 18.2367 40.321 17.7279 44.864C16.2741 41.4295 15.1656 37.8132 14.1298 34.2333C14.2752 34.1425 14.3842 33.9971 14.3842 33.7608C14.4387 30.817 14.4933 27.6732 13.1849 24.9656C11.8038 22.1307 9.15067 20.4225 6.55206 18.8234C6.22496 18.6235 5.78883 18.8234 5.6798 19.1687C3.73539 25.5834 7.0427 32.4161 13.1485 35.0329C14.5478 39.8667 16.1287 44.7186 18.4548 49.0799C18.4002 49.0799 18.3276 49.0617 18.2549 49.0799C11.9492 49.8613 5.98872 46.7539 2.93582 41.2659C7.67873 41.7747 11.9855 43.5919 15.6744 46.6812C16.2559 47.1718 17.0919 46.3359 16.5104 45.8453C12.2944 42.3199 7.35163 40.3391 1.86366 39.9757C1.37302 39.9394 1.17312 40.4845 1.35485 40.8661C4.35324 47.3354 11.1859 51.1333 18.2549 50.2611C18.582 50.2247 18.7637 49.9703 18.8 49.6978C21.1806 53.9682 24.3062 57.7298 28.7583 60.4556C28.9401 60.5647 29.1218 60.5647 29.2671 60.492C29.5761 73.7576 31.7749 87.1141 34.3735 100.525C34.0282 99.9799 33.7193 99.3984 33.3559 98.8532C33.4104 98.5261 33.2287 98.1627 32.8289 98.1263C29.9032 93.9649 26.4687 90.2397 22.9069 86.6052C23.016 86.5689 23.0886 86.5144 23.1613 86.4235C23.2704 86.7324 23.6338 86.9868 24.0154 86.8233C26.6504 85.6421 28.2132 83.1162 28.3949 80.245C28.5039 78.5914 28.1223 76.9195 27.5226 75.3749C27.2319 74.6298 26.614 72.4492 25.6691 72.1221C23.9791 71.5588 22.5617 74.5026 22.071 75.6838C20.7444 78.9003 21.3078 82.4257 22.0528 85.7148C18.6183 82.2076 15.1656 78.7186 12.0582 74.9388C13.2757 74.5208 14.2025 73.5395 14.5478 71.6678C14.7295 70.6683 15.42 68.5967 14.6931 67.6518C14.4751 67.361 14.1298 67.2883 13.8391 67.1611C13.0213 66.8158 12.2399 66.7795 11.4403 66.2889C11.1314 66.1071 10.8407 65.8346 10.5499 65.6347C7.42432 63.6357 3.48098 64.1264 0.682479 66.4524C0.42807 66.6523 0.446242 66.9249 0.591618 67.1248C-0.753115 71.0136 3.86259 73.3578 6.89733 74.4481C8.27841 74.9388 9.65948 75.2295 10.8952 75.1568C10.8952 75.284 10.9315 75.3931 11.0224 75.5021C14.0935 79.2819 17.5462 82.7346 20.9443 86.2236C14.1843 85.4059 7.51518 84.8607 0.882371 86.7506C0.373553 86.896 0.319037 87.5502 0.736995 87.8228C7.35163 92.1114 15.5654 92.2022 22.2709 88.059C22.3799 87.9863 22.4345 87.8955 22.489 87.8046C25.6327 91.0392 28.6493 94.3647 31.3024 97.9991C29.7396 97.9264 28.1768 97.8537 26.614 97.7811C26.4868 97.7265 26.3414 97.7084 26.1961 97.7629C23.1977 97.6175 20.1811 97.4721 17.1827 97.4176C14.1662 97.3449 11.6766 97.4903 9.27787 99.4347C8.89626 99.7436 9.16884 100.271 9.53228 100.416C15.3655 102.833 21.8893 103.596 26.6867 98.8532C28.5403 98.9986 30.3756 99.144 32.1929 99.2348C33.1196 100.58 33.9919 101.979 34.7733 103.433C34.8278 103.523 34.9005 103.596 34.9732 103.651C38.8438 123.404 43.2233 143.211 43.187 162.892C37.4628 158.548 32.211 154.06 28.4858 147.772C28.4858 147.609 28.3949 147.445 28.2313 147.318C28.2313 147.318 28.2132 147.318 28.195 147.3C27.5771 146.228 26.9956 145.156 26.396 144.065C29.7396 142.557 33.1196 140.813 35.2276 137.687C37.5354 134.252 36.6814 130.527 36.8449 126.638C36.8449 126.22 36.3179 125.857 35.9545 126.129C30.6846 130.164 25.4147 134.816 25.2693 141.921C23.0341 137.578 21.017 133.126 19.109 128.674C19.0363 128.51 18.9272 128.419 18.8 128.383C18.9272 128.147 18.9272 127.838 18.6728 127.656C19.5451 124.767 20.3628 121.877 21.1079 118.952C21.5622 117.171 22.8161 114.281 21.6712 112.464C20.8171 111.138 19.218 110.974 17.8006 111.101C15.8016 111.283 14.9839 112.428 13.2939 112.918C11.8583 113.318 8.75088 111.937 7.58787 113.373C6.66109 114.499 7.75142 116.426 8.16937 117.498C9.98658 122.004 13.2212 125.639 17.2918 128.183C17.2736 128.256 17.2554 128.31 17.2191 128.383C17.0555 128.91 17.6189 129.219 18.0186 129.073C18.0186 129.146 18.0186 129.219 18.0732 129.291C20.3992 134.725 22.8161 140.358 25.7418 145.61C23.2158 143.902 20.5809 142.357 17.8187 141.049C16.9283 140.631 16.0015 140.267 15.0566 139.922C12.8941 133.416 7.55152 128.801 0.736995 127.765C0.264521 127.692 -0.0625763 128.019 0.010112 128.492C0.864199 133.653 2.37248 136.651 7.42432 138.45C9.82303 139.304 12.1491 140.177 14.4024 141.103C18.8546 142.957 23.0886 145.119 27.1774 148.081C27.777 149.063 28.3949 150.044 29.0309 150.989C30.412 153.006 31.993 154.841 33.7011 156.531C30.8118 156.168 27.9951 155.605 25.1966 154.823C25.1966 154.823 25.1966 154.805 25.1784 154.787C24.6878 154.351 24.1608 153.969 23.652 153.587C23.5611 153.424 23.4157 153.297 23.234 153.26C17.528 149.063 10.7316 147.118 3.55367 147.718C3.11754 147.754 2.80861 148.19 3.04485 148.608C6.02507 154.042 15.4019 156.459 21.5622 154.914C21.5622 154.914 21.5985 154.932 21.6167 154.95C26.0325 156.441 30.5392 157.422 35.1731 157.894C37.699 160.22 40.4248 162.328 43.187 164.4C43.0961 171.414 42.4237 178.411 40.9518 185.37C40.7882 186.116 41.9331 186.424 42.0966 185.679C43.6049 178.592 44.2591 171.487 44.3318 164.345C44.3863 164.2 44.3863 164.055 44.3318 163.909L44.3863 163.964ZM70.8994 82.2439C71.0266 81.8987 71.1356 81.4989 71.2628 81.0628C71.7898 80.2632 72.3713 79.5 73.0073 78.8094C72.9528 78.9911 72.8983 79.1729 72.8438 79.3364C72.4803 80.3177 72.1532 81.3717 71.6263 82.2803C71.3537 82.7346 71.0447 83.2252 70.6268 83.5887C70.5723 83.6432 70.4269 83.734 70.2633 83.8431C70.5178 83.3888 70.6995 82.8254 70.8994 82.2621V82.2439ZM75.2607 77.7736C75.1153 78.8094 74.8972 80.0633 74.8064 80.2995C74.5156 81.1718 74.1158 81.9168 73.5525 82.5165C74.2794 81.0082 74.661 79.3364 75.2607 77.7554V77.7736ZM68.7551 86.26C69.6092 86.2055 70.5541 85.7875 71.2628 85.2968C71.4627 85.4422 71.6989 85.5149 72.0079 85.4422C72.2441 85.3877 72.4622 85.2969 72.6802 85.206C71.3718 86.0782 69.8636 86.6416 68.7551 86.26ZM77.0779 78.2097C77.2232 77.392 77.3505 76.4652 77.096 75.6838C77.1506 75.593 77.1869 75.5021 77.1869 75.3931C77.8593 76.2472 77.8229 77.1921 77.0597 78.1916L77.0779 78.2097ZM74.7882 73.7576C74.8609 74.1029 75.2425 74.4118 75.6423 74.1574C75.7695 74.23 75.8785 74.3027 76.0057 74.3936C75.9512 74.3936 75.8785 74.3936 75.824 74.4299C75.7695 74.4481 75.715 74.4845 75.6605 74.5208C75.5332 74.5208 75.406 74.5026 75.2788 74.5208C75.0971 74.2119 74.7518 74.012 74.3521 74.0302C74.4974 73.9393 74.6428 73.8303 74.7882 73.7394V73.7576ZM52.2003 78.6277C56.7433 82.1894 58.9603 87.6592 58.1971 93.4379C58.1971 93.4743 58.1971 93.4924 58.1971 93.5288C57.9063 93.8922 57.6338 94.2557 57.343 94.6191C57.0886 94.7463 56.816 94.8372 56.5616 94.9644C56.4344 95.0189 56.3617 95.1098 56.3254 95.2006C56.2345 95.1279 56.1255 95.0916 55.9801 95.0916C48.6386 95.237 51.328 83.7159 52.1821 78.6095L52.2003 78.6277ZM56.8342 53.5502C56.8342 53.5502 56.8342 53.5502 56.8524 53.5321C56.8524 53.5502 56.8524 53.5684 56.8524 53.5866C56.8524 53.5866 56.8524 53.5684 56.8342 53.5502ZM54.381 54.3135C54.381 54.3135 54.2174 54.477 54.1447 54.5497C54.1447 54.3498 54.1447 54.1499 54.1629 53.95C54.1811 54.0954 54.2719 54.2226 54.381 54.3135ZM47.3484 45.0821C47.6391 43.6646 47.5664 42.8287 48.7476 43.8827C49.6017 44.6278 50.2559 45.7362 50.8556 46.6812C52.5456 49.3888 53.436 52.3327 52.8545 55.5128C52.8545 55.5492 52.8545 55.5673 52.8545 55.6037C52.8363 55.6037 52.8182 55.5673 52.8 55.5673C48.8748 53.7865 46.4761 49.3888 47.3484 45.1002V45.0821ZM61.1955 1.37821C61.3409 1.72348 61.4317 2.08692 61.4862 2.43219C61.4499 2.3595 61.3954 2.30499 61.3409 2.25047C61.2318 2.08692 61.0683 1.94155 60.8139 1.9052C59.9598 1.74165 59.3056 2.05058 58.6877 2.61391C58.6514 2.54122 58.5787 2.48671 58.4697 2.50488C58.0517 2.5594 57.6519 2.65026 57.2521 2.77746C58.5242 2.19596 59.8326 1.72348 61.1773 1.39638L61.1955 1.37821ZM57.6883 3.64972C57.6883 3.64972 57.6519 3.68607 57.6338 3.70424C57.6338 3.70424 57.6338 3.70424 57.6338 3.68607C57.6519 3.68607 57.6701 3.66789 57.6883 3.64972ZM55.6712 5.86671C55.6712 5.86671 55.8347 5.83037 55.9256 5.8122C55.9256 5.84854 55.9256 5.88489 55.9256 5.9394C55.9256 6.01209 55.9256 6.06661 55.9256 6.1393C55.9256 6.15747 55.9256 6.19381 55.9256 6.21198C55.9256 6.24833 55.9619 6.2665 55.9801 6.30284C55.9801 6.33919 55.9983 6.37553 56.0164 6.3937C55.6348 6.52091 55.5258 6.33919 55.6712 5.86671ZM55.9983 4.03133C56.2345 3.83144 56.5434 3.5952 56.8524 3.48617C56.1436 3.9223 55.4895 4.46746 55.017 5.158C54.9625 5.23069 54.9625 5.30338 54.9079 5.39424C54.8898 5.39424 54.8534 5.39424 54.8353 5.41241C55.0715 4.84908 55.7075 4.26757 55.9801 4.03133H55.9983ZM56.1618 7.22962C55.9801 7.1751 55.7802 7.10242 55.5985 7.01155C55.9619 7.01155 56.3072 6.99338 56.6525 6.88435C57.5611 7.30231 58.5969 7.08424 59.3964 6.46639C59.6509 6.2665 59.8689 6.03026 60.0506 5.79403C60.2687 5.79403 60.4868 5.73951 60.6867 5.53962C60.832 5.39424 60.9411 5.24886 61.0501 5.08531C60.196 6.75715 58.3243 7.86564 56.1618 7.24779V7.22962ZM54.9261 3.90413C54.9261 3.90413 54.8353 3.97682 54.7989 3.99499C54.8353 3.95865 54.8716 3.9223 54.9261 3.90413ZM40.9518 5.04897C41.6787 6.95704 42.3874 8.95597 42.2057 11.0276C42.0603 12.554 39.28 18.042 37.4446 14.4621C35.8454 11.3365 38.4986 6.86618 40.97 5.06714L40.9518 5.04897ZM20.6172 40.321C21.435 39.1034 24.5606 34.9239 25.9235 36.7411C26.7412 37.8314 25.5782 42.7742 25.2511 43.7918C24.4334 46.2996 22.7797 48.353 20.2538 49.2435C20.1629 49.2798 20.0903 49.3343 20.0176 49.3888C19.6723 48.771 19.3452 48.1531 19.0181 47.5171C19.0181 47.4808 19.0181 47.4262 19.0181 47.3899C18.5456 44.8095 19.1998 42.4834 20.6172 40.3391V40.321ZM6.69744 20.2953C9.13249 21.8218 11.4949 23.4936 12.5307 26.3285C13.3484 28.5455 13.3302 30.9623 13.2757 33.2884C13.094 33.3429 12.9486 33.4701 12.8941 33.6518C8.024 31.1986 5.46173 25.6016 6.67926 20.2953H6.69744ZM22.5253 79.1183C22.6343 77.8826 23.5429 73.5395 25.1784 73.9756C26.8684 74.4299 27.3591 78.8094 27.2682 80.2995C27.1047 82.7709 25.7236 84.8425 23.4703 85.8602C23.4157 85.8784 23.3794 85.9147 23.3431 85.951C22.8161 83.7159 22.3254 81.4262 22.5253 79.1183ZM4.09883 69.6689C2.97216 68.4695 4.13517 67.9789 5.38905 67.7608C4.73485 68.2333 4.31689 68.9783 4.22603 69.7597C4.18969 69.7234 4.13517 69.7052 4.09883 69.6507V69.6689ZM7.56969 69.9414C7.49701 69.4508 7.53335 69.16 7.64238 69.0874C7.87862 69.1419 8.09668 69.2691 8.24206 69.4871C8.8054 70.4139 8.36927 70.7047 7.73324 70.7592C7.62421 70.5229 7.55152 70.2504 7.56969 69.9233V69.9414ZM11.0042 69.3418C11.0042 69.3418 11.0951 69.3599 11.1496 69.3781C11.0587 69.4508 10.9497 69.5235 10.8588 69.6143C10.8588 69.5053 10.8952 69.3963 10.8952 69.2691C10.9315 69.2873 10.9679 69.3236 11.0042 69.3418ZM8.95077 73.9211C6.29765 73.3033 0.300865 71.0681 1.84549 67.2883C1.86366 67.2338 1.86366 67.1975 1.86366 67.1429C4.117 65.4529 7.16991 65.0713 9.67766 66.5251C9.82303 66.5978 9.95024 66.7068 10.0774 66.7977C10.0048 66.8704 9.96841 66.9794 9.91389 67.0703C9.31421 66.5433 8.64185 66.3979 8.00583 66.5433C8.00583 66.089 7.71507 65.671 7.13356 65.7437C5.44356 65.9254 2.15442 66.0163 1.75463 68.1242C1.33667 70.2685 3.37195 71.686 5.20732 72.2493C5.71614 72.6127 6.37034 72.7763 7.0427 72.7763C7.56969 73.2669 8.22389 73.6486 9.00529 73.7576C10.1138 73.9211 11.0587 73.5577 11.7311 72.9217C12.6942 72.4855 13.3302 71.0136 13.4211 70.105C13.4756 69.6325 13.4029 69.0328 13.2212 68.4513C13.8754 69.051 13.7119 70.5593 13.4393 71.4134C12.6942 73.8121 11.0951 74.4299 8.95077 73.9211ZM16.9465 101.306C15.7835 101.234 12.8578 101.034 12.0037 100.18C10.7498 99.9072 11.0587 99.6164 12.9123 99.3075C13.8391 98.7442 14.8204 98.5079 15.8925 98.6351C18.9091 98.4353 22.0347 98.5806 25.1421 98.8169C22.8342 100.707 20.0721 101.506 16.9647 101.306H16.9465ZM2.68141 87.6229C8.75088 86.2055 14.8749 86.7324 21.0352 87.4775C15.2383 90.7485 8.4783 90.7848 2.68141 87.6229ZM9.91389 115.662C10.2046 115.662 10.5136 115.662 10.8043 115.662C10.6044 115.899 10.4409 116.189 10.35 116.516C10.2046 116.226 10.0593 115.935 9.91389 115.644V115.662ZM14.2388 121.387C14.2388 121.387 14.2388 121.368 14.2388 121.35C14.3115 121.314 14.3842 121.278 14.4569 121.223C15.3837 120.478 16.0924 119.678 16.6194 118.606C16.9101 118.007 17.0737 116.625 17.419 115.462C17.637 115.426 17.8551 115.353 18.055 115.299C17.7097 117.28 16.9283 119.115 16.0015 120.896C15.7471 120.769 15.4564 120.732 15.1656 120.878C14.8749 121.023 14.5478 121.187 14.257 121.405L14.2388 121.387ZM17.7461 122.713C17.4916 123.513 17.2372 124.312 16.9828 125.112C16.7284 124.712 16.5649 124.276 16.474 123.822C16.9283 123.476 17.3463 123.095 17.7642 122.713H17.7461ZM19.4179 117.316C19.6723 116.444 19.854 115.553 19.9449 114.627C20.0357 114.754 20.1084 114.863 20.1993 114.99C19.9994 115.808 19.7268 116.571 19.4179 117.316ZM14.1662 114.536C14.1662 114.645 14.1662 114.754 14.2207 114.863C13.9481 114.954 13.73 115.154 13.6573 115.462C13.5483 115.971 13.4756 116.48 13.3848 116.971C13.3666 116.625 13.3484 116.298 13.3848 115.953C13.3848 115.862 13.3666 115.79 13.3484 115.717C13.6573 115.444 13.7664 114.972 13.6028 114.608C13.7664 114.608 13.9481 114.608 14.0935 114.572C14.1298 114.572 14.148 114.536 14.1843 114.536H14.1662ZM26.5232 142.139C26.5959 135.797 31.0844 131.545 35.7182 127.91C35.7182 131.309 36.1907 134.507 33.9919 137.505C31.993 140.249 28.9219 141.739 25.9053 143.102C25.8326 142.957 25.7599 142.811 25.6691 142.648C26.0143 142.793 26.505 142.612 26.505 142.121L26.5232 142.139ZM6.53389 136.815C4.55313 135.833 0.973232 132.817 1.55474 130C1.88184 128.401 3.82625 129.655 5.17098 130.273C9.22335 132.108 12.1672 135.397 13.7482 139.486C11.295 138.668 8.8054 137.941 6.53389 136.815ZM4.69851 148.899C10.9134 148.59 16.8193 150.226 21.8711 153.697C16.7284 155.241 7.96948 153.224 4.69851 148.899Z" fill="#252525"/>
</svg>
