<svg width="455" height="46" viewBox="0 0 455 46" fill="none" xmlns="http://www.w3.org/2000/svg">
<path d="M243.666 9.16674C275.082 26.3827 311.569 31.7744 346.615 24.3275C353.768 22.8061 360.868 20.8843 367.995 18.9892C368.075 19.176 368.262 19.3362 368.529 19.3896C377.364 21.5516 390.389 26.8632 386.439 38.5006C386.118 39.4082 387.613 40.0754 388.013 39.1679C388.04 39.0879 388.067 39.0345 388.093 38.9544C392.738 28.8117 387.319 18.9625 377.257 16.587C386.519 14.2915 395.834 12.3697 405.363 11.8359C415.559 11.2754 426.316 12.343 435.631 16.8272C439.768 18.8291 443.585 21.6317 446.601 25.1015C448.79 27.6372 450.605 30.5466 451.486 33.7763C451.939 35.1375 452.153 36.5522 452.153 38.0202C452.366 44.266 450.098 43.1183 445.347 34.5503C446.121 33.7496 444.92 32.5218 444.119 33.3225C436.405 41.1164 449.591 50.4584 453.221 42.798C455.81 37.3262 452.447 29.7726 449.163 25.4752C444.679 19.5497 438.247 15.5727 431.28 13.2239C417.214 8.44609 402.373 9.59382 388.013 12.4498C387.907 12.2897 387.773 12.1295 387.506 12.0761C370.504 7.16489 352.754 5.5901 335.164 7.69872C327.157 8.65961 319.256 10.3679 311.569 12.8235C301.96 15.893 292.885 21.0711 282.582 21.2847C282.395 21.2847 282.262 21.338 282.155 21.4181C277.297 21.1512 273.801 17.708 272.813 12.69C272.466 10.9017 272.359 9.3002 272.786 7.83217C276.016 5.00288 278.952 5.77693 282.822 7.27165C284.13 7.77879 285.305 8.39269 286.746 8.23254C288.588 8.0457 290.083 6.8179 290.216 4.89612C290.75 -2.20381 280.874 0.251808 277.271 1.23939C273.801 2.17359 271.906 4.25552 271.158 6.89797C270.918 7.13819 270.891 7.40511 270.945 7.67203C270.571 9.64719 270.731 11.916 271.372 14.2648C272.039 16.6937 273.24 18.6689 274.868 20.1369C264.352 17.0941 254.156 12.9569 244.494 7.64533C243.506 7.1115 242.625 8.60622 243.613 9.14005L243.666 9.16674ZM280.5 2.20028C281.114 2.04013 283.97 1.13262 284.29 1.5063C284.104 2.92095 283.89 4.3356 283.703 5.77694C283.276 5.5634 282.849 5.34987 282.422 5.10965C281.248 4.9495 280.18 4.14875 278.899 4.0153C277.538 3.88184 276.283 4.06868 275.082 4.49574C276.71 3.10779 278.285 2.73411 280.5 2.20028ZM313.544 25.9824C304.069 25.8756 294.673 24.7812 285.492 22.8328C286.613 22.726 287.734 22.5392 288.828 22.3256C303.268 22.4057 317.388 19.5497 331.588 17.0674C340.343 15.546 349.151 14.2381 358.039 13.9979C366.66 13.7577 375.228 14.2915 383.823 13.3306C380.913 13.9712 378.031 14.6652 375.202 15.3859C354.756 20.5106 334.844 26.2493 313.544 25.9824ZM387.987 29.9594C387.827 29.5857 387.693 29.2387 387.506 28.8917C387.613 28.865 387.693 28.8383 387.8 28.785C387.88 29.1853 387.933 29.559 387.987 29.9594ZM379.846 21.2313C380.887 21.8185 381.794 22.5392 382.488 23.5001C379.899 21.6583 376.83 20.217 373.787 19.1494C375.709 19.3629 378.111 20.4039 379.873 21.2313L379.846 21.2313ZM383.903 13.3306C384.09 13.3039 384.17 13.1705 384.223 13.0103C384.383 13.0637 384.57 13.0904 384.73 13.1438C384.463 13.1972 384.17 13.2772 383.903 13.3306ZM330.654 10.0743C348.056 7.29835 365.753 8.31263 382.782 12.6366C367.221 14.2114 351.74 12.9569 336.179 15.4926C321.578 17.8682 307.085 21.0978 292.298 21.4982C296.675 20.2971 300.919 18.5354 305.27 16.8806C313.491 13.7577 321.979 11.4622 330.654 10.101L330.654 10.0743Z" fill="#545454"/>
<path d="M9.84924 33.2958C9.0752 32.495 7.84737 33.7228 8.62143 34.5236C3.87035 43.0915 1.60156 44.2392 1.81509 37.9934C1.94856 36.8724 2.08203 35.7514 2.2155 34.6303C2.88278 31.6142 4.40418 28.9717 6.24588 26.5428C9.20864 22.6192 13.0789 19.4963 17.4296 17.2542C26.9051 12.3697 38.0888 11.2219 48.5785 11.8091C58.1073 12.343 67.4493 14.2648 76.6846 16.5602C66.5952 18.9358 61.2036 28.7849 65.8479 38.9277C65.8746 39.0077 65.9012 39.0611 65.9279 39.1412C66.355 40.022 67.823 39.4081 67.5027 38.4739C63.5791 26.8631 76.6045 21.5248 85.4127 19.3628C85.6796 19.3094 85.8398 19.1493 85.9465 18.9625C93.0731 20.8575 100.173 22.7793 107.326 24.3007C142.372 31.7477 178.886 26.3827 210.275 9.14001C211.263 8.60619 210.382 7.11147 209.394 7.6453C199.705 12.9569 189.483 17.1741 178.913 20.217C180.568 18.7489 181.822 16.7471 182.516 14.2648C183.157 11.8892 183.344 9.64715 182.943 7.6453C183.023 7.40507 182.97 7.13815 182.756 6.89793C182.009 4.22879 180.114 2.17355 176.644 1.21266C173.041 0.225075 163.165 -2.20385 163.699 4.86938C163.859 6.81786 165.327 7.99228 167.169 8.20581C168.316 8.33927 169.384 7.9389 170.425 7.51184C174.482 5.91035 177.658 4.62916 181.262 7.91221C181.448 9.08663 181.368 10.3411 181.208 11.5956C180.488 17.0407 177.018 21.0978 171.733 21.3914C171.599 21.3113 171.466 21.2579 171.279 21.2579C161.35 21.0711 152.675 16.2132 143.44 13.1704C135.406 10.528 127.105 8.68626 118.724 7.67198C101.134 5.53666 83.3841 7.13815 66.3817 12.0494C66.1682 12.1028 66.0347 12.2362 65.9279 12.3964C54.1303 10.0208 42.1459 8.84639 30.3216 11.1686C17.3228 13.7042 0.133562 22.5658 0.000107446 37.9934C-0.10666 52.4068 18.8176 42.4242 9.76918 33.2958L9.84924 33.2958ZM175.683 3.93518C174.455 3.98856 173.361 4.33555 172.24 4.78931C170.291 5.59005 170.425 6.63102 169.998 3.61488C169.037 1.6931 169.357 1.02582 170.932 1.66641C171.813 1.74649 172.667 1.90663 173.494 2.17355C174.909 2.52054 176.617 2.76076 177.952 3.37466C178.859 3.80172 179.553 4.33556 180.087 4.97615C178.753 4.28217 177.311 3.8818 175.71 3.93518L175.683 3.93518ZM66.1949 28.7582C66.1949 28.7582 66.3817 28.8383 66.4885 28.865C66.3016 29.212 66.1682 29.559 66.008 29.9059C66.0614 29.5056 66.1148 29.1319 66.1949 28.7582ZM74.2023 21.1778C75.9639 20.3504 78.3128 19.3361 80.2079 19.1226C77.1651 20.1903 74.0955 21.6049 71.5064 23.4733C72.2004 22.4857 73.1346 21.7651 74.2023 21.1778ZM86.9341 17.4677C81.5157 16.0531 75.9906 14.5851 70.4121 13.3306C78.4996 14.1847 86.5871 13.7843 94.7013 13.9445C104.017 14.1313 113.225 15.4392 122.38 17.0407C136.58 19.523 150.7 22.3523 165.14 22.2989C166.234 22.5124 167.329 22.6993 168.45 22.806C161.83 24.194 155.131 25.1816 148.351 25.6353C127.211 27.05 107.22 22.806 86.9074 17.4677L86.9341 17.4677ZM123.315 10.0475C131.989 11.4355 140.477 13.7309 148.698 16.8271C153.075 18.482 157.293 20.217 161.67 21.4448C146.883 21.0444 132.416 17.8147 117.789 15.4392C102.228 12.9302 86.7473 14.158 71.1862 12.5832C88.2153 8.25919 105.912 7.2716 123.315 10.0208L123.315 10.0475ZM69.7448 12.9836C69.7448 12.9836 69.8249 13.1704 69.9317 13.2238C69.7181 13.1704 69.5313 13.1437 69.3178 13.0903C69.4512 13.0636 69.6114 13.0103 69.7448 12.9836Z" fill="#545454"/>
</svg>
