<svg width="211" height="177" viewBox="0 0 211 177" fill="none" xmlns="http://www.w3.org/2000/svg">
<path d="M103.523 5.0254C114.192 5.01179 124.874 7.07941 134.751 11.133C144.627 15.1866 153.684 21.199 161.266 28.7077C168.833 36.2164 174.926 45.2214 179.038 55.0562C183.163 64.891 185.294 75.5419 185.308 86.1928C185.322 96.8574 183.245 107.522 179.147 117.384C175.063 127.246 169.011 136.305 161.443 143.868C153.875 151.431 144.805 157.512 134.901 161.62C124.997 165.742 114.274 167.864 103.523 167.891C92.786 167.877 82.049 165.742 72.1452 161.62C62.2414 157.512 53.1709 151.431 45.6031 143.868C38.0352 136.305 31.97 127.259 27.8992 117.384C23.8011 107.522 21.7247 96.8574 21.7383 86.1928C21.7657 75.5283 23.883 64.8774 28.0085 55.0562C32.1202 45.2214 38.1991 36.2164 45.7806 28.7077C53.3485 21.199 62.419 15.1866 72.2955 11.133C82.1719 7.0658 92.8544 4.99819 103.523 5.0254ZM103.523 5.0254C92.8544 5.0526 82.1856 7.16102 72.3501 11.2554C62.501 15.3363 53.4851 21.3759 45.9719 28.8982C38.4587 36.4205 32.4344 45.4119 28.3773 55.2194C24.3065 65.0134 22.2438 75.6235 22.2574 86.22C22.2848 96.8165 24.3885 107.399 28.5002 117.166C32.5847 126.933 38.6363 135.884 46.1631 143.351C53.69 150.819 62.6922 156.791 72.514 160.817C82.3222 164.857 92.9363 166.898 103.537 166.898C114.137 166.911 124.751 164.857 134.56 160.831C144.381 156.805 153.384 150.833 160.91 143.365C168.437 135.897 174.475 126.947 178.573 117.18C182.671 107.413 184.789 96.8301 184.816 86.2336C184.83 75.6371 182.767 65.0406 178.696 55.233C174.639 45.4255 168.629 36.4341 161.102 28.9118C153.575 21.3895 144.573 15.3499 134.723 11.269C124.888 7.17463 114.219 5.0662 103.55 5.039L103.523 5.0254Z" fill="#545454"/>
<path d="M113.113 170.897C67.9789 170.897 31.2461 134.333 31.2461 89.3759C31.2461 44.4189 67.9652 7.86836 113.113 7.86836C158.26 7.86836 194.98 44.4325 194.98 89.3895C194.98 134.346 158.26 170.911 113.113 170.911V170.897ZM113.113 8.5349C68.3477 8.5349 31.9291 44.7997 31.9291 89.3759C31.9291 133.952 68.3477 170.217 113.113 170.217C157.878 170.217 194.297 133.952 194.297 89.3759C194.297 44.7997 157.878 8.5485 113.113 8.5485V8.5349Z" fill="#545454"/>
<path d="M25.8371 113.67C26.2742 113.779 26.5064 113.289 26.3289 113.004C26.3972 112.936 26.4381 112.841 26.4381 112.718C26.4518 106.747 24.8945 100.435 22.8728 94.8441C20.3183 87.7571 14.5263 82.5337 11.4254 75.7323C11.48 75.2698 10.7287 75.1066 10.5511 75.5963C7.91464 82.8601 6.37102 92.7221 9.308 100.136C11.9854 106.91 18.8839 111.997 25.8234 113.684L25.8371 113.67ZM25.5502 112.677C25.5502 112.677 25.4273 112.65 25.3726 112.623C25.4409 112.65 25.4956 112.637 25.5502 112.609C25.5502 112.637 25.5502 112.65 25.5502 112.677ZM25.5502 112.256C22.5039 110.895 20.6051 107.658 18.8156 104.869C19.2801 102.462 20.4959 100.027 21.7116 97.932C22.0805 97.279 22.299 96.7077 22.3947 96.1228C24.1705 101.21 25.4819 106.91 25.5502 112.256ZM18.7883 89.4847C17.8867 91.0082 16.9851 92.5317 16.0699 94.0416C15.4552 95.0618 14.6765 96.1092 14.376 97.2654C14.3214 97.1702 14.2667 97.0614 14.2257 96.9662C11.3161 90.7633 10.8926 84.2204 10.8653 77.4871C10.9336 77.2966 10.9882 77.1062 11.0565 76.9158C12.3953 79.6091 14.1028 82.0848 15.8377 84.5333C14.335 86.2336 13.652 88.4781 12.1357 90.1648C11.9581 90.3552 12.245 90.6545 12.4226 90.4505C13.9252 88.7773 14.6082 86.5601 16.0836 84.8734C18.3648 88.07 20.6188 91.2666 21.9985 94.9802C22.0941 96.6669 21.1789 97.7415 20.3866 99.3874C19.6489 100.925 18.8976 102.666 18.5151 104.38C18.4741 104.312 18.4195 104.23 18.3785 104.162C17.0125 102.094 15.7284 99.9588 14.6219 97.7415C14.6492 97.7143 14.6765 97.7007 14.6902 97.6463C14.9497 96.2316 16.0289 94.9122 16.7529 93.7015C17.5452 92.3548 18.3512 91.0218 19.1435 89.6751C19.2801 89.4439 18.9249 89.2398 18.7883 89.4711V89.4847ZM10.4691 78.7929C10.5511 85.1454 11.1112 91.2938 13.8842 97.1838C15.1547 99.8907 16.7393 102.448 18.4058 104.937C18.3922 105.046 18.3512 105.141 18.3375 105.25C18.2965 105.495 18.6381 105.59 18.7064 105.386C18.9249 105.713 19.1435 106.039 19.3621 106.352C21.0423 108.801 22.5586 111.358 25.359 112.609C19.2801 110.909 13.2559 106.529 10.5648 100.693C12.3133 101.414 14.1028 101.945 15.9606 102.298C16.2202 102.353 16.3294 101.958 16.0699 101.904C14.1984 101.55 12.3816 101.006 10.6194 100.285C10.5238 100.244 10.4555 100.285 10.4145 100.353C10.114 99.6595 9.84076 98.9522 9.64951 98.2312C7.96928 92.1372 8.66596 84.9958 10.4691 78.7929Z" fill="#545454"/>
<path d="M27.626 118.472C25.7272 117.574 23.4869 117.098 21.4652 116.54C21.1374 116.445 20.8232 116.758 20.9188 117.085C22.0936 121.111 26.1234 122.58 29.9893 122.73C30.1942 122.73 30.3171 122.621 30.3854 122.485C30.5357 122.362 30.6313 122.145 30.5357 121.927C30.2762 121.342 29.9756 120.785 29.6205 120.268C29.7434 120.363 29.9073 120.39 30.0849 120.295C34.1967 118.05 33.2678 111.467 31.7105 107.957C31.5466 107.603 30.9865 107.726 30.9045 108.066C30.3854 110.079 29.3609 111.929 28.9648 113.97C28.6233 115.711 28.7462 117.493 28.7599 119.247C28.432 118.948 28.0768 118.676 27.6397 118.486L27.626 118.472Z" fill="#545454"/>
<path d="M44.5515 142.073C44.6744 141.91 44.7154 141.678 44.5515 141.488C44.5105 141.447 44.4695 141.406 44.4285 141.365C44.4285 141.311 44.4012 141.257 44.3466 141.216C44.2919 141.189 44.251 141.161 44.1963 141.134C39.4288 136.128 33.1314 133.258 26.6017 131.177C18.4055 128.565 9.96338 126.811 1.43929 125.736C1.16608 125.695 0.906536 126.049 1.01582 126.294C3.99378 133.734 9.88141 139.339 17.5449 141.855C22.326 143.433 27.4623 144.168 32.4894 144.399C36.4372 144.589 41.0544 144.943 44.3876 142.467C44.5378 142.358 44.5788 142.209 44.5651 142.073H44.5515ZM41.7101 139.978C39.5518 139.257 37.2432 139.053 34.9209 138.699C32.9128 138.4 30.9184 138.046 28.9377 137.638C28.9377 137.611 28.9377 137.584 28.9103 137.57C27.1755 136.074 26.11 134.088 25.8094 131.857C31.5741 133.666 37.1749 136.02 41.7101 139.978ZM19.9901 141.651C21.7523 140.658 23.6101 139.692 25.5362 139.135C27.2711 138.631 29.0743 138.958 30.8091 138.441C31.2053 138.509 31.5878 138.591 31.9839 138.659C33.8827 138.985 35.9181 139.162 37.8989 139.475C36.3962 140.114 34.9072 140.767 33.4183 141.42C32.2298 141.95 30.9731 142.372 30.1125 143.365C26.6974 143.079 23.2959 142.535 19.9764 141.651H19.9901ZM25.3723 131.735C25.6318 133.952 26.6017 135.952 28.2137 137.502C26.711 137.189 25.2084 136.836 23.7194 136.441C23.173 136.292 22.6266 136.128 22.0938 135.979C22.0938 135.952 22.0938 135.924 22.0938 135.897C21.0829 134.074 20.3863 132.156 19.9628 130.143C22.3397 130.796 24.1975 131.367 24.8395 131.558C25.0171 131.612 25.2084 131.68 25.386 131.735H25.3723ZM17.2307 134.387C15.5915 132.782 14.5123 130.823 14.0069 128.606C15.9193 129.069 17.8318 129.558 19.4983 130.021C19.9081 132.061 20.6048 133.993 21.5884 135.829C20.113 135.394 18.665 134.918 17.2307 134.387ZM13.5561 128.497C13.9932 130.606 14.9767 132.483 16.3974 134.074C11.8348 132.32 7.47718 130.075 3.48835 127.205C5.25054 126.783 9.37598 127.518 13.5561 128.497ZM5.7833 132.877C5.34616 132.333 2.38186 128.783 2.60042 127.831C2.64141 127.64 2.79167 127.491 3.01024 127.382C7.31326 130.51 12.0398 132.932 17.0121 134.755C17.0121 134.755 17.0395 134.782 17.0395 134.795C17.0941 134.85 17.1624 134.85 17.2307 134.836C18.6104 135.339 20.0038 135.816 21.4244 136.224C22.3397 136.496 23.2686 136.754 24.1975 136.985C20.8097 137.053 17.4903 138.522 14.321 139.597C12.4222 138.672 10.6191 137.543 8.96617 136.142C7.80503 135.163 6.73952 134.061 5.7833 132.877ZM14.8538 139.856C18.0776 138.74 21.4927 137.244 24.9352 137.393C25.0581 137.393 25.1128 137.312 25.1264 137.217C26.6837 137.597 28.2546 137.951 29.8392 138.25C28.1454 138.55 26.4241 138.373 24.7303 138.985C22.8861 139.652 21.1239 140.549 19.4164 141.515C17.8318 141.066 16.3155 140.522 14.8538 139.856ZM32.4757 143.542C31.8746 143.515 31.2872 143.46 30.6862 143.419C31.6424 142.522 33.0358 142.059 34.2106 141.542C35.6313 140.917 37.0519 140.304 38.4863 139.692C38.5273 139.679 38.5409 139.638 38.5682 139.611C39.9343 139.856 41.2593 140.209 42.5024 140.753C42.8986 141.134 43.2947 141.501 43.6772 141.91C40.508 144.072 36.164 143.732 32.4757 143.569V143.542Z" fill="#545454"/>
<path d="M39.2512 132.156C40.7265 135.231 43.5405 137.38 46.901 138.019C47.2562 138.087 47.5021 137.788 47.4201 137.489C47.6387 137.353 47.7616 137.04 47.543 136.795C45.453 134.333 42.8029 132.564 39.743 131.517C39.3468 131.381 39.0873 131.844 39.2375 132.17L39.2512 132.156Z" fill="#545454"/>
<path d="M51.4508 133.87C50.8088 137.203 50.3033 140.549 51.7513 143.746C51.9426 144.168 52.4753 143.95 52.5436 143.583C52.6666 143.651 52.7895 143.705 52.9534 143.76C53.0217 143.773 53.0764 143.773 53.1447 143.76C53.1447 143.828 53.131 143.896 53.1037 143.977C52.9944 144.535 53.8414 144.766 53.9643 144.208C54.7156 140.576 54.1419 136.985 52.2704 133.761C52.0928 133.449 51.5327 133.489 51.4644 133.87H51.4508Z" fill="#545454"/>
<path d="M40.3852 126.307C40.3579 126.688 40.754 126.906 41.0273 126.797C41.1775 126.811 41.3278 126.756 41.4371 126.606C41.56 126.43 41.683 126.266 41.8059 126.103C41.9015 126.076 41.9971 126.022 42.0518 125.913C42.0928 125.831 42.1201 125.763 42.1474 125.681C42.4889 125.273 42.8304 124.865 43.09 124.321C43.5134 123.423 43.8276 122.458 44.1008 121.505C44.538 119.982 45.0024 117.642 43.9916 116.241C43.9096 116.119 43.773 116.01 43.6091 116.024C42.325 116.16 41.3688 118.54 40.836 119.519C39.7295 121.587 39.6202 123.573 39.8525 125.886C39.8798 126.185 40.153 126.321 40.3852 126.307Z" fill="#545454"/>
<path d="M39.3057 94.6265C38.0899 96.8709 37.6938 99.197 37.5299 101.7C37.4069 103.495 37.3796 105.318 36.8059 107.046C36.2185 108.828 35.1256 110.433 34.4836 112.215C34.2924 112.745 35.153 112.977 35.3442 112.446C35.6447 111.616 35.9862 110.855 36.3551 110.093C36.437 110.12 36.519 110.134 36.6283 110.106C42.8574 108.27 47.6932 105.822 50.6575 99.7819C53.3486 94.3 54.018 88.2196 52.9524 82.248C52.9115 81.9895 52.5153 81.8263 52.2967 81.9895C47.5703 85.499 42.1744 89.3622 39.3194 94.6401L39.3057 94.6265ZM38.1582 105.141C38.5134 102.951 38.2812 100.693 38.773 98.5169C39.1691 96.7077 39.9751 95.0482 40.9996 93.5383C40.7127 96.8845 41.1362 100.19 41.6416 103.523C41.6416 103.523 41.6416 103.523 41.6416 103.536C40.3302 105.359 38.8413 107.046 37.0108 108.651C37.5025 107.549 37.9397 106.42 38.1446 105.141H38.1582ZM37.3113 108.964C39.2238 107.372 41.0679 105.726 42.4613 103.631C43.0623 102.72 43.6087 101.768 44.1415 100.802C46.0813 100.802 47.9391 100.394 49.6876 99.6187C47.0102 104.679 42.8438 107.209 37.3113 108.964ZM52.5153 85.7439C52.7066 86.8321 52.5973 88.07 52.529 89.1582C52.3377 92.1508 51.682 95.0618 50.5346 97.8231C50.357 98.2448 50.1794 98.6529 49.9881 99.0474C48.2123 99.9179 46.3408 100.353 44.3737 100.394C44.7016 99.7955 45.0294 99.197 45.3436 98.5985C45.4529 98.5849 45.5485 98.4896 45.5075 98.3536C45.5075 98.34 45.5075 98.3264 45.5075 98.3128C45.849 97.6735 46.2042 97.0342 46.5594 96.4084C48.8816 92.382 51.0946 88.4236 51.7093 83.7851C52.0782 83.8531 52.2967 84.4244 52.5153 85.7575V85.7439ZM51.2722 83.8667C50.6029 88.7637 48.062 92.9125 45.6305 97.1566C45.5349 97.3334 45.4256 97.4966 45.3299 97.6735C44.6196 94.9665 44.3464 92.2324 44.5376 89.4438C46.1086 87.9475 47.8025 86.5737 49.4007 85.295C50.2613 84.6013 50.8487 84.0844 51.2722 83.8667ZM44.1142 89.8519C43.9639 92.6813 44.2644 95.4426 45.0294 98.1768C44.0185 99.9043 43.035 101.523 41.9695 103.047C41.4641 99.6323 41.0542 96.2588 41.4777 92.8309C42.27 91.7699 43.1579 90.7905 44.1142 89.8383V89.8519Z" fill="#545454"/>
<path d="M21.1511 67.5707C21.0965 67.4755 21.0145 67.421 20.9189 67.3802C20.6594 66.9858 20.3588 66.5913 20.0037 66.1968C19.7305 65.8975 19.2797 66.156 19.2523 66.5097C19.1021 68.4549 18.9518 70.4409 19.3616 72.3588C19.8397 74.5625 21.7112 76.2764 21.9571 78.4937C22.0117 79.0514 22.9133 79.065 22.845 78.4937C22.7631 77.7999 22.5445 77.215 22.2713 76.6573C22.3259 76.6029 22.3806 76.5621 22.3942 76.4669C23.0363 73.6919 22.6128 70.0464 21.1648 67.5571L21.1511 67.5707Z" fill="#545454"/>
<path d="M22.3397 86.5193C22.2987 86.6145 22.2441 86.6961 22.2168 86.7913C22.1348 86.9818 22.2304 87.145 22.3807 87.2402C22.3397 87.2538 22.2987 87.281 22.2577 87.3082C21.725 87.4987 21.9572 88.3556 22.49 88.1652C23.1457 87.9203 23.7058 87.5667 24.2112 87.1858C24.3341 87.1722 24.4434 87.1042 24.5117 86.9954C24.5254 86.9682 24.539 86.9545 24.5527 86.9273C26.4515 85.2406 27.2165 82.5745 27.8039 80.0444C27.8858 79.7043 27.4897 79.3098 27.1482 79.5411C24.7849 81.187 23.0501 83.3634 21.9436 86.0024C21.807 86.3152 22.0802 86.5329 22.3534 86.5329L22.3397 86.5193ZM23.7058 86.3832C23.7058 86.3832 23.7467 86.4104 23.7604 86.4104C23.6648 86.4921 23.5691 86.5737 23.4599 86.6553C23.5418 86.5601 23.6238 86.4785 23.7058 86.3832Z" fill="#545454"/>
<path d="M22.9408 63.9116C22.9134 64.374 22.8861 64.8365 22.8451 65.299C22.8178 65.6663 23.173 65.7887 23.4462 65.6935C23.5555 66.2104 23.6511 66.7409 23.6921 67.2986C23.7331 67.8563 24.621 67.8699 24.58 67.2986C24.498 66.1288 24.2112 65.027 23.8287 63.9796C24.4571 54.308 24.8122 44.5685 21.9026 35.1962C21.7796 34.7881 21.1649 34.7745 21.042 35.1962C19.43 40.8413 18.4602 46.8537 18.8153 52.7301C19.0612 56.9061 21.6294 60.198 22.9408 63.9116ZM21.4791 36.9646C23.7194 45.1942 23.5555 53.6823 23.05 62.1432C21.766 59.4226 20.1131 56.8517 19.7716 53.7639C19.1568 48.214 20.0584 42.3648 21.4928 36.9646H21.4791Z" fill="#545454"/>
<path d="M70.4664 160.586C70.6987 160.396 70.7123 159.92 70.3435 159.784C59.8387 155.73 48.7737 153.866 37.5176 154.234C37.1351 154.234 36.9302 154.71 37.2034 154.982C40.7004 158.505 46.9296 158.886 51.5741 159.661C57.7486 160.695 63.9778 161.239 70.2342 161.375C70.6987 161.375 70.7806 160.804 70.4801 160.586H70.4664ZM38.6924 155.104C49.3065 154.9 59.743 156.709 69.6741 160.477C64.1144 160.328 58.5682 159.879 53.0631 159.022C48.7191 158.342 42.3943 157.947 38.6924 155.104Z" fill="#545454"/>
<path d="M48.2266 148.629C47.3387 148.507 46.4234 148.507 45.4945 148.616C45.2623 148.643 45.1257 148.806 45.0847 148.983C45.0711 148.983 45.0437 148.983 45.0301 148.983C44.6886 148.942 44.511 149.377 44.6612 149.649C44.5656 149.84 44.6066 150.098 44.8115 150.234C48.0354 152.316 51.8193 152.329 55.5486 152.207C56.1223 152.193 56.1223 151.309 55.5486 151.323C55.33 151.323 55.1114 151.323 54.8929 151.336C54.9748 151.146 54.9065 150.901 54.7153 150.778C53.6225 150.112 52.4613 149.636 51.2865 149.337C50.3303 148.915 49.3058 148.724 48.2403 148.643L48.2266 148.629Z" fill="#545454"/>
<path d="M63.1436 147.541C64.7282 149.717 66.6543 151.676 68.0204 153.934C68.2526 154.614 68.5531 155.281 68.922 155.934C68.922 156.07 68.8946 156.206 68.881 156.328C68.8537 156.614 69.0722 156.75 69.2908 156.75C69.4547 157.281 69.5777 157.825 69.646 158.396C69.7143 158.954 70.6022 158.954 70.5339 158.396C70.4109 157.43 70.1514 156.532 69.8099 155.662C70.3426 149.636 70.8071 143.46 69.4684 137.502C68.034 131.136 63.5807 126.13 61.9415 119.859C61.8459 119.506 61.2995 119.411 61.1355 119.751C58.1576 125.586 57.3653 132.238 58.9635 138.604C59.7695 141.814 61.1765 144.848 63.13 147.514L63.1436 147.541ZM61.5317 143.12C60.4798 140.876 59.7695 138.509 59.387 136.115C61.3131 138.155 63.2939 140.114 65.3839 141.991C65.4795 142.073 65.6298 142.046 65.6981 141.937C66.2855 144.494 66.7226 147.051 67.1051 149.677C67.1871 150.262 67.2691 150.819 67.3783 151.377C65.3839 148.67 62.966 146.167 61.5454 143.134L61.5317 143.12ZM69.0859 154.043C68.758 153.417 68.3755 152.819 67.9794 152.234C67.6379 150.738 67.474 149.187 67.2281 147.582C67.1188 146.874 66.9685 146.181 66.8456 145.487C66.8729 145.473 66.8866 145.473 66.9139 145.446C67.8018 143.868 68.5122 142.222 69.1132 140.522C69.7143 144.984 69.4684 149.554 69.0859 154.043ZM68.9903 139.706C68.9903 139.706 68.9766 139.706 68.9766 139.733C68.3892 141.515 67.6379 143.229 66.7363 144.875C66.4904 143.596 66.2035 142.318 65.8894 141.053C66.3811 138.618 66.8729 136.183 67.3647 133.761C67.7472 134.686 68.1023 135.639 68.3619 136.618C68.6351 137.638 68.8263 138.672 68.9903 139.706ZM67.1871 133.367C67.1051 133.367 67.0095 133.394 66.9822 133.503C66.6817 134.986 66.3811 136.482 66.0806 137.965C65.9577 138.604 65.8211 139.243 65.6981 139.883C65.6845 139.978 65.6708 140.06 65.6571 140.141C65.6161 139.978 65.5752 139.801 65.5342 139.638C63.9223 133.612 61.9552 127.708 61.3131 121.478C61.3541 121.383 61.4087 121.288 61.4497 121.193C62.8294 125.491 65.4249 129.232 67.2008 133.367H67.1871ZM60.9853 122.254C61.7093 128.239 63.5807 133.938 65.138 139.747C65.2473 140.168 65.3429 140.604 65.4522 141.025C65.3566 141.134 65.22 141.161 64.9741 141.08C64.4687 140.916 63.7993 139.992 63.4168 139.624C62.9797 139.203 62.5426 138.781 62.1054 138.346C61.1492 137.393 60.2066 136.414 59.2777 135.421C58.704 130.987 59.2777 126.443 60.9853 122.24V122.254Z" fill="#545454"/>
<path d="M32.134 89.8383C34.224 85.9479 37.2293 82.8465 39.5789 79.1738C41.7509 75.7595 42.2836 71.3794 43.2399 67.5299C43.3355 67.1354 42.7891 66.7409 42.5022 67.0946C37.6664 73.1206 30.0303 80.5885 31.3826 88.9677C31.3963 89.063 31.4373 89.131 31.4919 89.1718C31.4509 89.2398 31.41 89.3078 31.369 89.3758C31.0958 89.8791 31.8608 90.328 32.134 89.8247V89.8383ZM41.9421 69.1758C41.0679 72.9709 40.2619 76.8613 37.885 80.0036C35.8769 82.6697 33.8825 85.1862 32.1749 88.0292C31.5193 81.0918 37.5571 74.4264 41.9421 69.1758Z" fill="#545454"/>
<path d="M31.8062 94.4633C31.8062 94.7761 32.175 94.9938 32.4619 94.8442C33.6913 94.2048 34.9754 93.5111 35.795 92.3549C36.6829 91.1034 37.0791 89.4439 37.5162 88.002C37.6118 87.6891 37.2977 87.3491 36.9698 87.4579C34.0465 88.4373 31.8881 90.8858 31.3827 93.9328C31.3281 94.2456 31.574 94.4497 31.8062 94.4769V94.4633ZM33.7869 92.9806C33.7869 92.9806 33.7869 93.0214 33.7869 93.035C33.746 93.0622 33.705 93.0894 33.664 93.1166C33.705 93.0758 33.746 93.0214 33.7869 92.9806Z" fill="#545454"/>
<path d="M36.3549 60.6333C36.2183 60.8917 36.3549 61.123 36.5461 61.2318C36.4232 61.3134 36.3002 61.3678 36.1773 61.463C35.7402 61.8303 36.3685 62.4424 36.8057 62.0888C37.8165 61.259 39.3192 60.9869 40.5213 60.4972C41.5595 60.0755 42.5977 59.5995 43.5676 59.0281C45.1112 58.1168 46.3133 56.9741 46.969 55.2874C47.1193 54.8929 46.6275 54.6345 46.3133 54.7841C44.3189 55.7363 42.0786 55.2738 40.1798 56.5252C38.6088 57.559 37.2291 58.9601 36.3549 60.6061V60.6333ZM38.8957 59.7491C38.8957 59.7491 38.8957 59.7491 38.8957 59.7627C38.8957 59.7627 38.8684 59.7627 38.8547 59.7899C38.8547 59.7899 38.8684 59.7627 38.882 59.7491H38.8957Z" fill="#545454"/>
<path d="M32.1342 69.3254C32.1615 69.5023 32.3255 69.6111 32.5031 69.6383C32.544 69.7063 32.5714 69.7743 32.6123 69.8423C32.667 69.9239 32.7353 69.9784 32.8172 70.0056C32.8172 70.0056 32.8172 70.0192 32.8172 70.0328C32.9402 70.3592 33.4456 70.5089 33.6232 70.1416C33.7461 69.8831 33.8418 69.6383 33.9101 69.3934C34.1423 69.3934 34.3882 69.2574 34.4155 68.9718C34.757 65.9656 33.2817 63.109 30.6589 61.6127C30.3857 61.4631 29.9622 61.6535 29.9895 61.9936C30.1944 64.4012 30.8911 66.6729 32.0113 68.7813L32.1069 69.339L32.1342 69.3254Z" fill="#545454"/>
<path d="M30.5773 50.5401C30.386 50.8529 30.5773 51.3562 31.0417 51.2202C34.7164 50.064 38.4593 48.282 39.6341 44.3236C39.6341 44.2964 39.6341 44.2692 39.6341 44.242C39.7024 44.1876 39.7707 44.1332 39.839 44.0652C40.1669 43.7795 39.8254 43.181 39.4019 43.3306C37.5714 43.9428 35.9048 44.8133 34.4022 45.9016C32.5854 46.6905 31.1647 48.01 30.3451 49.8599C30.3041 49.9416 30.3041 50.0504 30.3177 50.1456C30.2904 50.3224 30.4134 50.4721 30.5909 50.5537L30.5773 50.5401ZM33.405 49.3975C33.405 49.3975 33.405 49.3975 33.4186 49.3975C33.405 49.3975 33.3777 49.4111 33.364 49.4247C33.3777 49.4247 33.3913 49.3975 33.405 49.3975Z" fill="#545454"/>
<path d="M96.6248 168.489C96.5838 168.394 96.5018 168.312 96.3652 168.272C85.4916 164.749 73.1426 163.864 63.3344 170.666C63.0612 170.856 63.0339 171.251 63.3344 171.427C66.4217 173.277 69.7411 174.651 73.1426 175.454C73.1972 175.563 73.3338 175.617 73.4568 175.535C81.7213 177.426 90.341 175.903 96.7341 169.169C96.9526 168.938 96.8433 168.639 96.6384 168.489H96.6248ZM86.8849 171.033C89.4258 171.305 91.8163 171.319 94.1523 170.339C90.6689 173.277 86.5024 175.114 81.8306 175.495C83.5245 174.107 85.2047 172.706 86.8986 171.319C87.0079 171.223 86.9669 171.115 86.8849 171.033ZM95.6412 168.965C95.532 169.074 95.4227 169.183 95.3134 169.292C91.106 171.781 86.6937 170.394 82.0628 170.026C82.0628 169.972 82.0355 169.904 81.9808 169.863C80.3689 168.857 78.839 167.755 77.3773 166.558C77.8964 166.503 78.4155 166.462 78.9482 166.435C84.6446 166.177 90.259 167.251 95.6549 168.965H95.6412ZM66.4626 169.727C67.815 168.993 69.222 168.394 70.6837 167.918C72.6645 167.265 74.7135 166.843 76.7762 166.612C78.2516 167.836 79.7952 168.965 81.4208 169.986C81.1885 169.986 80.9563 169.958 80.7241 169.958C75.5741 169.822 70.3012 170.775 65.1786 171.4C64.4682 170.462 65.2195 170.407 66.4626 169.741V169.727ZM65.5337 171.754C69.8777 171.223 74.3174 170.489 78.716 170.407C77.0221 171.876 75.3419 173.345 73.648 174.828C72.3229 174.515 71.0252 174.121 69.7548 173.645C68.8942 173.318 66.49 172.584 65.5337 171.768V171.754ZM74.1398 174.937C75.861 173.427 77.5959 171.931 79.3171 170.421C79.3171 170.421 79.3171 170.421 79.3171 170.407C80.847 170.407 82.3633 170.475 83.8796 170.666C84.8359 170.788 85.7511 170.911 86.6527 171.019C86.639 171.019 86.6117 171.019 86.5981 171.033C84.7812 172.529 82.9644 174.026 81.1476 175.522C78.798 175.644 76.4211 175.44 74.1261 174.937H74.1398Z" fill="#545454"/>
<path d="M67.5699 164.817C71.1353 165.674 74.7143 165.905 78.0747 164.381C78.1021 164.381 78.1157 164.381 78.143 164.381C78.2933 164.381 78.4026 164.3 78.4709 164.204C78.5255 164.177 78.5802 164.164 78.6485 164.123C78.6758 164.109 78.7031 164.082 78.7304 164.055C78.7714 164.055 78.8124 164.055 78.8534 164.082C79.4135 164.191 79.6457 163.347 79.0856 163.225C75.1924 162.422 71.3402 162.654 67.5836 163.946C67.1874 164.082 67.1328 164.694 67.5836 164.803L67.5699 164.817Z" fill="#545454"/>
<path d="M81.6657 164.327C81.8297 164.476 82.0209 164.463 82.1712 164.395C82.2121 164.408 82.2531 164.436 82.3078 164.449C82.4034 164.558 82.4854 164.667 82.581 164.762C82.7449 164.925 82.9361 164.925 83.1001 164.83C83.305 164.817 83.5235 164.68 83.5372 164.408C83.6465 162.912 83.7148 161.389 83.346 159.947C83.346 159.906 83.346 159.865 83.346 159.824C83.2913 159.552 83.182 159.294 83.0591 159.049C83.0318 158.995 83.0181 158.94 83.0044 158.886C82.2395 157.185 80.8051 155.934 79.4254 154.75C79.1932 154.546 78.7561 154.587 78.6878 154.941C78.3599 156.696 78.0184 158.532 78.5785 160.273C79.1112 161.96 80.4226 163.171 81.6931 164.327H81.6657Z" fill="#545454"/>
<path d="M190.733 61.8032C190.296 61.7079 190.064 62.1976 190.241 62.4833C190.173 62.5513 190.132 62.6465 190.132 62.7689C190.2 68.7405 191.853 75.025 193.957 80.5885C196.621 87.6347 202.481 92.7765 205.691 99.5371C205.65 99.986 206.388 100.163 206.565 99.6595C209.092 92.3413 210.486 82.4793 207.44 75.1066C204.653 68.3733 197.7 63.3811 190.719 61.7896L190.733 61.8032ZM191.02 62.7961C191.02 62.7961 191.143 62.8234 191.211 62.8506C191.143 62.8234 191.074 62.8506 191.033 62.8642C191.033 62.837 191.033 62.8234 191.033 62.7961H191.02ZM191.033 63.2178C194.134 64.5509 196.047 67.7339 197.877 70.5089C197.44 73.039 196.17 75.4875 194.954 77.7047C194.653 78.2624 194.503 78.7793 194.421 79.2963C192.563 74.236 191.17 68.5637 191.033 63.2178ZM198.137 85.8936C198.97 84.4517 199.803 83.0098 200.623 81.5679C201.279 80.4389 202.085 79.3099 202.426 78.0312C202.481 78.14 202.535 78.2352 202.59 78.3305C205.595 84.5061 206.115 91.0218 206.251 97.7551C206.196 97.9456 206.128 98.1496 206.074 98.3401C204.694 95.6603 202.959 93.2118 201.183 90.7906C202.658 89.063 203.3 86.8186 204.803 85.1046C204.981 84.9006 204.68 84.6149 204.516 84.819C203.041 86.5193 202.385 88.7365 200.937 90.4641C198.615 87.3083 196.32 84.1524 194.886 80.4661C194.776 78.7793 195.692 77.6367 196.429 75.9908C197.14 74.3993 197.85 72.7125 198.219 70.985C198.26 71.053 198.314 71.1346 198.369 71.2026C199.762 73.2566 201.087 75.3651 202.221 77.5687C202.194 77.5959 202.167 77.6095 202.153 77.6639C201.839 79.1738 200.76 80.5885 199.995 81.9216C199.271 83.1866 198.547 84.4517 197.823 85.7167C197.686 85.948 198.041 86.152 198.178 85.9208L198.137 85.8936ZM206.62 96.4493C206.442 90.1104 205.787 83.962 202.932 78.1264C201.607 75.4331 199.995 72.903 198.287 70.4273C198.301 70.3049 198.342 70.1824 198.355 70.06C198.383 69.8288 198.082 69.8152 197.987 69.992C197.754 69.6655 197.536 69.3391 197.304 69.0126C195.596 66.5913 194.025 64.0476 191.211 62.8506C197.317 64.4557 203.41 68.7405 206.183 74.5489C204.421 73.8552 202.631 73.3519 200.773 73.0254C200.514 72.9846 200.404 73.3791 200.664 73.4199C202.549 73.7463 204.366 74.2632 206.142 74.957C206.237 74.9978 206.306 74.957 206.347 74.889C206.661 75.5691 206.934 76.2764 207.153 76.9974C208.929 83.0642 208.327 90.2328 206.634 96.4493H206.62Z" fill="#545454"/>
<path d="M195.596 58.3209C194.366 54.3081 190.309 52.8934 186.443 52.8118C186.238 52.8118 186.115 52.9206 186.061 53.0566C185.897 53.179 185.801 53.3967 185.91 53.6279C186.184 54.2128 186.498 54.7705 186.853 55.2738C186.73 55.1786 186.566 55.1514 186.402 55.2466C182.318 57.5455 183.342 64.1156 184.954 67.5979C185.118 67.9516 185.678 67.8428 185.76 67.4891C186.252 65.4759 187.235 63.5987 187.618 61.5583C187.946 59.8171 187.782 58.0352 187.741 56.2668C188.069 56.5525 188.438 56.8245 188.861 57.015C190.774 57.8856 193.027 58.3208 195.049 58.865C195.363 58.9466 195.691 58.6473 195.596 58.3209Z" fill="#545454"/>
<path d="M195.446 33.7815C190.815 31.7819 185.829 30.4761 180.843 29.7279C177.196 29.1702 173.275 28.5037 169.915 30.4081C169.751 30.5033 169.696 30.6393 169.71 30.7753C169.56 30.8978 169.492 31.0882 169.642 31.2922C169.683 31.3467 169.724 31.4011 169.765 31.4555C169.765 31.5099 169.765 31.5643 169.819 31.6187C169.874 31.6595 169.929 31.7003 169.983 31.7411C174.095 37.2774 179.928 40.8822 186.144 43.7523C193.944 47.3571 202.113 50.132 210.432 52.2404C210.76 52.3221 211.06 52.0228 210.978 51.6963C208.82 43.5075 203.205 37.1686 195.419 33.7952L195.446 33.7815ZM204.353 41.0454C205.582 42.3921 206.661 43.8748 207.563 45.4527C208 46.228 210.404 50.1864 209.885 50.9346C209.858 50.9618 209.817 50.9754 209.776 51.0026C205.733 47.0986 201.129 43.9564 196.17 41.3855C196.157 41.3719 196.143 41.3447 196.129 41.3311C196.075 41.263 196.006 41.263 195.952 41.2766C194.654 40.6101 193.343 39.9844 192.004 39.3995C191.075 38.9914 190.132 38.6377 189.19 38.2704C192.591 38.6649 196.102 37.5903 199.408 36.9102C201.211 38.0664 202.891 39.4131 204.353 41.0318V41.0454ZM195.911 41.7391C197.29 43.4667 198.096 45.4799 198.356 47.6699C196.594 47.0578 194.832 46.4049 193.097 45.7247C192.933 43.6707 192.496 41.6847 191.744 39.7531C193.165 40.3653 194.545 41.0454 195.911 41.7391ZM198.889 36.6109C195.569 37.3183 192.018 38.3929 188.643 37.808C188.52 37.7807 188.425 37.876 188.398 37.9712C186.881 37.3999 185.365 36.8558 183.821 36.3525C185.57 36.2572 187.277 36.6381 189.04 36.23C190.938 35.7947 192.769 35.1282 194.572 34.3937C194.722 34.4617 194.873 34.5025 195.023 34.5705C196.375 35.1554 197.646 35.8492 198.875 36.5973L198.889 36.6109ZM194.026 34.1896C192.373 34.8562 190.679 35.4683 188.93 35.8492C186.881 36.2981 184.941 35.7403 182.906 36.0396C182.879 36.0396 182.865 36.026 182.838 36.0124C180.679 35.3323 178.262 34.8562 175.939 34.1624C177.688 33.6591 179.423 33.1422 181.158 32.6117C182.264 32.2716 183.33 31.9996 184.204 31.2378C187.551 31.9316 190.856 32.8974 194.026 34.176V34.1896ZM183.07 31.0066C183.261 31.0474 183.466 31.0882 183.657 31.129C182.551 31.9452 181.007 32.2444 179.737 32.6253C178.316 33.047 176.895 33.4687 175.475 33.8768C175.406 33.8904 175.366 33.9312 175.352 33.9856C174.027 33.5639 172.756 33.047 171.609 32.3669C171.254 31.9452 170.899 31.5099 170.571 31.061C174.259 29.1294 179.204 30.2584 183.07 31.0066ZM172.265 33.1694C173.986 33.9992 175.857 34.4617 177.797 34.9922C180.119 35.6179 182.414 36.3117 184.696 37.0734C184.696 37.1006 184.696 37.1278 184.723 37.155C186.253 38.8554 187.059 40.9366 187.072 43.181C181.581 40.6781 176.281 37.6583 172.265 33.1558V33.1694ZM187.469 43.3715C187.496 41.127 186.758 39.0322 185.351 37.291C186.458 37.6719 187.564 38.0664 188.643 38.4881C189.518 38.8282 190.378 39.1818 191.239 39.5491C191.239 39.5763 191.239 39.5899 191.239 39.6035C192.018 41.5215 192.468 43.4939 192.646 45.5479C191.102 44.9358 189.559 44.3101 188.042 43.6299C187.851 43.5483 187.66 43.4531 187.469 43.3715ZM198.766 47.8332C198.561 45.7519 197.837 43.8476 196.648 42.1336C201.211 44.5549 205.446 47.4931 209.23 51.0842C207.126 51.0026 200.692 48.4997 199.736 48.1732C199.408 48.0644 199.094 47.942 198.766 47.8196V47.8332Z" fill="#545454"/>
<path d="M168.561 36.0668C168.206 35.9988 167.96 36.3116 168.042 36.6109C167.837 36.7469 167.714 37.0598 167.919 37.3046C170.05 39.7259 172.714 41.4671 175.787 42.4601C176.183 42.5825 176.457 42.1336 176.293 41.8071C174.776 38.7601 171.921 36.6381 168.561 36.0668Z" fill="#545454"/>
<path d="M162.032 29.6463C161.937 29.5783 161.841 29.5239 161.732 29.4831C161.65 29.4423 161.568 29.4287 161.486 29.4287C161.513 29.3471 161.527 29.2519 161.554 29.1702C161.732 28.6261 160.871 28.3949 160.693 28.939C159.519 32.4893 159.724 36.0804 161.199 39.5083C161.363 39.8756 161.909 39.726 162.005 39.3995C163.029 36.2028 163.917 32.9654 162.865 29.6599C162.729 29.211 162.114 29.2927 162.005 29.6599L162.032 29.6463Z" fill="#545454"/>
<path d="M175.57 47.874C175.392 47.8196 175.201 47.8604 175.078 48.0508C174.969 48.2276 174.846 48.4045 174.709 48.5541C174.614 48.5813 174.532 48.6357 174.477 48.7445C174.45 48.8126 174.422 48.867 174.395 48.935C174.081 49.3159 173.767 49.6831 173.535 50.1592C173.084 51.0978 172.756 52.1724 172.483 53.179C172.073 54.7025 171.636 57.0558 172.66 58.4433C172.742 58.5657 172.879 58.6881 173.043 58.6609C174.34 58.5113 175.242 56.1308 175.761 55.1242C176.84 53.043 176.922 51.0434 176.663 48.7445C176.635 48.4453 176.362 48.3093 176.13 48.3365C176.13 48.3093 176.13 48.2821 176.13 48.2548C176.171 47.9012 175.829 47.7651 175.556 47.8604L175.57 47.874Z" fill="#545454"/>
<path d="M177.536 81.051C178.71 78.7929 179.079 76.4669 179.216 73.9504C179.312 72.1548 179.312 70.3321 179.858 68.5909C180.418 66.7954 181.497 65.1766 182.098 63.3947C182.276 62.8506 181.429 62.6193 181.238 63.1634C180.951 63.9932 180.609 64.7685 180.268 65.5303C180.186 65.5031 180.104 65.4895 179.995 65.5303C173.793 67.4619 168.998 69.9784 166.116 76.0588C163.506 81.5815 162.933 87.6755 164.08 93.6335C164.135 93.892 164.517 94.0688 164.736 93.892C169.408 90.3281 174.749 86.3697 177.522 81.051H177.536ZM171.744 77.5687C172.727 75.8276 173.683 74.1952 174.735 72.6581C175.295 76.0588 175.746 79.4323 175.377 82.8602C174.612 83.9212 173.724 84.9278 172.782 85.88C172.891 83.0506 172.55 80.2892 171.73 77.5687H171.744ZM178.533 70.5089C178.219 72.6989 178.465 74.957 178.027 77.147C177.659 78.9698 176.88 80.6293 175.869 82.1664C176.115 78.8202 175.637 75.5283 175.077 72.1956C175.077 72.1956 175.077 72.1956 175.077 72.182C176.361 70.3457 177.823 68.6317 179.626 66.9994C179.148 68.1012 178.724 69.2438 178.547 70.5089H178.533ZM179.325 66.6729C177.426 68.2917 175.623 69.9648 174.257 72.0868C173.67 73.0118 173.137 73.964 172.618 74.9434C170.664 74.9706 168.807 75.4195 167.058 76.222C169.654 71.1346 173.752 68.5365 179.325 66.6865V66.6729ZM164.476 90.124C164.381 88.995 164.353 87.8524 164.408 86.7097C164.545 83.9076 165.091 81.119 166.075 78.4937C166.293 77.8952 166.539 77.3239 166.799 76.7797C168.561 75.882 170.432 75.4059 172.399 75.3515C172.085 75.95 171.771 76.5621 171.457 77.1606C171.348 77.1742 171.252 77.2694 171.293 77.4055C171.293 77.4191 171.293 77.4327 171.293 77.4463C170.951 78.0856 170.624 78.7385 170.268 79.3643C167.987 83.4587 165.801 87.4851 165.296 92.178C164.422 92.5181 164.148 91.838 164.476 90.1104V90.124ZM166.17 91.6883C166.02 91.7972 165.883 91.8924 165.747 91.974C166.348 87.077 168.807 82.8874 171.184 78.6161C171.279 78.4393 171.375 78.276 171.47 78.0992C172.222 80.7925 172.536 83.5267 172.386 86.3153C170.842 87.8388 169.162 89.2262 167.591 90.5321C167.126 90.9266 166.648 91.3074 166.157 91.7019L166.17 91.6883Z" fill="#545454"/>
<path d="M195.718 106.502C195.773 106.597 195.855 106.651 195.95 106.679C196.21 107.073 196.524 107.454 196.893 107.848C197.166 108.148 197.63 107.903 197.644 107.535C197.767 105.59 197.89 103.591 197.453 101.686C196.947 99.4827 195.035 97.8095 194.762 95.5923C194.693 95.0346 193.806 95.0346 193.874 95.5923C193.956 96.2996 194.188 96.8709 194.475 97.4287C194.42 97.4831 194.366 97.5239 194.352 97.6191C193.751 100.408 194.215 104.053 195.704 106.515L195.718 106.502Z" fill="#545454"/>
<path d="M194.626 88.8997C194.667 88.8045 194.708 88.7229 194.749 88.6277C194.83 88.4373 194.735 88.274 194.585 88.1788C194.626 88.1652 194.667 88.138 194.708 88.1108C195.24 87.9067 195.008 87.0498 194.475 87.2538C193.82 87.5123 193.273 87.8659 192.781 88.2604C192.658 88.274 192.549 88.3284 192.481 88.4645C192.467 88.4917 192.454 88.5189 192.44 88.5461C190.568 90.26 189.844 92.9398 189.298 95.4699C189.23 95.8099 189.612 96.218 189.954 95.9732C192.29 94.2864 193.997 92.0964 195.063 89.4303C195.186 89.1038 194.926 88.8997 194.653 88.8997H194.626ZM193.26 89.063C193.26 89.063 193.219 89.0358 193.205 89.0358C193.301 88.9542 193.396 88.8589 193.505 88.7773C193.423 88.8725 193.341 88.9678 193.26 89.063Z" fill="#545454"/>
<path d="M193.547 111.018C193.574 110.555 193.588 110.093 193.615 109.63C193.629 109.263 193.274 109.141 193.014 109.236C192.891 108.719 192.796 108.188 192.755 107.644C192.7 107.087 191.812 107.073 191.867 107.644C191.962 108.814 192.263 109.889 192.673 110.923C192.195 120.608 191.976 130.361 195.036 139.706C195.172 140.114 195.774 140.141 195.896 139.706C197.413 134.034 198.301 128.021 197.864 122.131C197.549 117.955 194.94 114.704 193.561 111.004L193.547 111.018ZM195.405 137.938C193.028 129.708 193.069 121.193 193.465 112.705C194.681 115.139 196.211 117.452 196.743 120.2C197.823 125.886 196.825 132.306 195.418 137.938H195.405Z" fill="#545454"/>
<path d="M146.336 15.9484C156.896 19.8388 167.988 21.5527 179.244 21.0086C179.613 20.995 179.845 20.5325 179.558 20.2605C175.993 16.7918 169.791 16.5061 165.133 15.7852C158.945 14.8466 152.716 14.3841 146.459 14.3433C145.995 14.3433 145.913 14.9282 146.213 15.1458C145.981 15.3363 145.967 15.7988 146.35 15.9484H146.336ZM178.069 20.1516C167.455 20.5053 156.991 18.8594 147.006 15.2411C152.374 15.2955 157.729 15.6491 163.043 16.3701C167.523 16.9822 174.19 17.2679 178.069 20.1516Z" fill="#545454"/>
<path d="M160.83 23.2258C160.762 23.4163 160.816 23.6611 161.008 23.7699C162.114 24.4229 163.275 24.8854 164.477 25.1574C165.447 25.5655 166.458 25.7423 167.524 25.8104C168.425 25.9192 169.327 25.9056 170.256 25.7967C170.488 25.7695 170.611 25.6063 170.666 25.4295C170.679 25.4295 170.707 25.4295 170.72 25.4295C171.116 25.4703 171.226 25.0758 171.075 24.7901C171.198 24.5997 171.157 24.3141 170.939 24.178C167.674 22.1512 163.904 22.192 160.174 22.3553C159.601 22.3825 159.601 23.2666 160.174 23.2394C160.393 23.2394 160.625 23.2258 160.844 23.2122L160.83 23.2258Z" fill="#545454"/>
<path d="M153.563 27.8644C151.91 25.6743 149.956 23.7291 148.577 21.4439C148.344 20.8318 148.071 20.2468 147.73 19.6619C147.73 19.5259 147.743 19.3899 147.757 19.2674C147.771 18.9954 147.579 18.8458 147.361 18.8458C147.183 18.2881 147.019 17.7031 146.937 17.091C146.855 16.5333 145.995 16.7645 146.077 17.3223C146.213 18.2608 146.473 19.145 146.814 19.9884C146.377 26.0008 146.008 32.1628 147.429 38.08C148.959 44.4325 153.494 49.3703 155.229 55.6003C155.325 55.9404 155.871 56.0628 156.035 55.7091C159 49.6695 159.655 42.8001 157.797 36.3253C156.923 33.2782 155.475 30.4217 153.563 27.878V27.8644ZM155.53 32.8022C156.513 34.897 157.196 37.1006 157.579 39.3451C155.625 37.3319 153.604 35.3867 151.486 33.5367C151.391 33.4551 151.213 33.4687 151.158 33.6047C150.598 31.3875 150.134 29.1566 149.792 26.885C149.656 26.0008 149.519 25.1302 149.355 24.2732C151.473 27.0754 154.054 29.6599 155.53 32.8022ZM147.579 21.6071C147.935 22.2464 148.331 22.8586 148.754 23.4707C149.109 24.9398 149.287 26.4633 149.547 28.014C149.656 28.7077 149.779 29.4015 149.915 30.0816C149.915 30.0816 149.902 30.0816 149.888 30.0952C149.027 31.6867 148.331 33.3463 147.757 35.0466C147.101 30.6121 147.265 26.0688 147.579 21.5935V21.6071ZM147.894 35.8628C147.894 35.8628 147.907 35.8628 147.907 35.8356C148.454 34.0536 149.178 32.3533 150.052 30.6937C150.325 31.9724 150.626 33.251 150.967 34.5161C150.516 36.9374 150.066 39.3587 149.615 41.7936C149.219 40.8686 148.85 39.93 148.577 38.9506C148.29 37.9304 148.071 36.8966 147.894 35.8628ZM149.779 42.1744C149.861 42.1744 149.956 42.1472 149.97 42.0384C150.243 40.5421 150.53 39.0594 150.803 37.5631C150.926 36.9238 151.036 36.2844 151.158 35.6451C151.172 35.5635 151.186 35.4819 151.199 35.3867C151.268 35.6315 151.322 35.8628 151.391 36.1076C153.071 42.0248 155.093 47.8332 155.83 53.968C155.789 54.0632 155.748 54.1584 155.694 54.2536C154.246 49.9824 151.596 46.2688 149.765 42.1744H149.779ZM156.144 53.1926C155.339 47.3027 153.426 41.6983 151.8 35.9988C151.664 35.4955 151.527 34.9922 151.391 34.4889C151.473 34.3801 151.623 34.3393 151.869 34.4209C152.374 34.5841 153.057 35.4955 153.453 35.8492C153.904 36.2572 154.341 36.6789 154.778 37.1006C155.762 38.0528 156.732 39.0186 157.674 40.0116C158.303 44.4325 157.77 48.9894 156.144 53.1926Z" fill="#545454"/>
<path d="M184.79 85.7167C182.755 89.6479 179.804 92.7766 177.509 96.4901C175.392 99.9316 174.927 104.325 174.026 108.188C173.93 108.583 174.477 108.991 174.763 108.624C179.476 102.557 187.03 94.9258 185.555 86.5873C185.541 86.4921 185.5 86.4241 185.446 86.3833C185.487 86.3153 185.528 86.2472 185.569 86.1792C185.828 85.6759 185.063 85.227 184.804 85.7303L184.79 85.7167ZM175.282 106.543C176.047 102.911 176.744 99.061 178.875 96.0276C180.911 93.1574 183.014 90.5185 184.763 87.5123C185.528 94.4633 179.599 101.183 175.282 106.543Z" fill="#545454"/>
<path d="M185.036 81.0918C185.036 80.7789 184.681 80.5613 184.381 80.7245C183.151 81.3911 181.894 82.0984 181.075 83.2546C180.2 84.5197 179.832 86.1792 179.422 87.6347C179.34 87.9476 179.64 88.2877 179.968 88.1788C182.878 87.1586 184.995 84.6829 185.46 81.6359C185.501 81.3231 185.268 81.119 185.023 81.0918H185.036ZM183.083 82.6153C183.083 82.6153 183.083 82.5745 183.083 82.5609C183.124 82.5337 183.165 82.5065 183.206 82.4793C183.165 82.5201 183.124 82.5745 183.083 82.6153Z" fill="#545454"/>
<path d="M180.46 115.003C180.597 114.745 180.46 114.5 180.256 114.391C180.365 114.31 180.501 114.255 180.611 114.16C181.048 113.793 180.419 113.167 179.982 113.534C178.958 114.391 177.455 114.691 176.239 115.207C175.174 115.67 174.108 116.16 173.125 116.785C171.663 117.71 170.516 118.853 169.915 120.472C169.764 120.866 170.256 121.125 170.57 120.975C172.551 119.996 174.805 120.417 176.676 119.139C178.22 118.091 179.586 116.663 180.447 115.003H180.46ZM177.933 115.928C177.933 115.928 177.933 115.915 177.933 115.901C177.947 115.901 177.961 115.888 177.988 115.874C177.988 115.888 177.961 115.901 177.947 115.928H177.933Z" fill="#545454"/>
<path d="M184.366 105.631C184.298 105.427 184.106 105.332 183.929 105.332C183.874 105.264 183.819 105.182 183.751 105.114C183.683 105.046 183.615 105.005 183.546 104.992C183.546 104.992 183.546 104.965 183.533 104.951C183.341 104.611 182.836 104.706 182.727 105.06C182.645 105.318 182.604 105.563 182.563 105.808C182.344 105.808 182.112 105.944 182.126 106.23C182.262 109.304 184.188 111.902 187.084 112.977C187.412 113.099 187.713 112.732 187.631 112.432C187.043 110.106 185.978 107.998 184.543 106.107C184.489 105.958 184.434 105.794 184.38 105.645L184.366 105.631Z" fill="#545454"/>
<path d="M187.058 123.954C187.277 123.641 187.086 123.138 186.635 123.274C182.905 124.321 179.163 125.994 177.851 129.926C177.851 129.953 177.851 129.98 177.851 130.007C177.783 130.062 177.715 130.116 177.646 130.17C177.305 130.456 177.674 131.027 178.083 130.905C179.859 130.374 181.498 129.585 182.974 128.593C184.9 127.885 186.416 126.525 187.318 124.634C187.359 124.552 187.372 124.457 187.359 124.362C187.386 124.172 187.249 124.022 187.072 123.954H187.058ZM184.231 125.015C184.231 125.015 184.258 125.015 184.272 125.001C184.272 125.001 184.258 125.015 184.244 125.029L184.231 125.015Z" fill="#545454"/>
<path d="M152.36 4.61732C149.246 2.82176 145.899 1.4887 142.484 0.726944C142.429 0.618122 142.293 0.550108 142.17 0.65893C133.878 -1.10942 125.286 0.536506 119.002 7.36507C118.783 7.59632 118.892 7.89558 119.097 8.04521C119.152 8.14043 119.234 8.22204 119.357 8.26285C130.285 11.6227 142.648 12.3301 152.36 5.39268C152.62 5.20224 152.675 4.80776 152.36 4.63092V4.61732ZM150.011 4.33166C145.721 4.93018 141.336 5.70554 136.992 5.85517C138.7 4.31806 140.394 2.79456 142.101 1.25745C144.984 1.81516 147.771 2.78095 149.943 4.27725C149.97 4.29086 149.984 4.30446 150.011 4.33166ZM141.582 1.17583C139.848 2.74015 138.113 4.29086 136.378 5.85517C136.378 5.85517 136.378 5.85517 136.378 5.86877C134.848 5.89598 133.331 5.85517 131.815 5.67833C130.859 5.56951 129.944 5.46069 129.028 5.36547C129.042 5.36547 129.056 5.36547 129.069 5.35187C130.873 3.82836 132.662 2.29126 134.465 0.767752C136.651 0.618122 139.124 0.754149 141.582 1.17583ZM128.796 5.35187C126.255 5.12062 123.865 5.14783 121.543 6.15443C124.971 3.16183 129.138 1.29826 133.755 0.835765C132.102 2.25045 130.435 3.65153 128.783 5.06621C128.673 5.16143 128.714 5.28385 128.796 5.35187ZM120.081 7.54191C120.19 7.43308 120.299 7.32426 120.409 7.21544C124.575 4.67173 129.015 5.9912 133.646 6.27685C133.646 6.33126 133.673 6.39928 133.741 6.44009C135.367 7.41948 136.911 8.5077 138.399 9.67753C138.058 9.71834 137.73 9.75915 137.389 9.78635C131.528 10.2488 125.695 9.21504 120.095 7.54191H120.081ZM149.71 6.07281C148.385 6.86177 147.006 7.5147 145.558 8.04521C143.44 8.83416 141.214 9.32386 138.973 9.60952C137.484 8.41248 135.913 7.31066 134.288 6.30406C134.52 6.30406 134.752 6.31766 134.984 6.33126C140.134 6.38567 145.38 5.36547 150.489 4.67173C151.281 5.27025 150.953 5.33827 149.71 6.08642V6.07281Z" fill="#545454"/>
<path d="M150.408 11.133C146.829 10.3305 143.236 10.1536 139.903 11.718H139.834C139.684 11.7316 139.589 11.7996 139.507 11.8948C139.452 11.922 139.397 11.9492 139.329 11.9764C139.288 11.99 139.274 12.0172 139.247 12.0444C139.206 12.0444 139.165 12.0444 139.138 12.0308C138.578 11.922 138.345 12.779 138.905 12.8878C142.812 13.6359 146.651 13.3503 150.394 11.99C150.776 11.854 150.858 11.2419 150.394 11.133H150.408Z" fill="#545454"/>
<path d="M136.869 11.5003C136.705 11.3507 136.514 11.3643 136.35 11.4459C136.309 11.4323 136.268 11.4051 136.214 11.3915C136.118 11.2963 136.036 11.1874 135.94 11.0786C135.776 10.9154 135.572 10.929 135.421 11.0106C135.216 11.0106 134.998 11.1602 134.984 11.4323C134.902 12.9286 134.848 14.4521 135.244 15.894C135.244 15.9348 135.244 15.9756 135.244 16.0164C135.312 16.2884 135.408 16.5333 135.544 16.7917C135.572 16.8462 135.585 16.9006 135.613 16.955C136.405 18.6417 137.853 19.866 139.26 21.0358C139.492 21.2262 139.943 21.199 139.998 20.8454C140.298 19.0906 140.612 17.2406 140.038 15.5131C139.478 13.8264 138.153 12.6429 136.856 11.5003H136.869Z" fill="#545454"/>
</svg>
