<svg width="155" height="59" viewBox="0 0 155 59" fill="none" xmlns="http://www.w3.org/2000/svg">
<path d="M154.235 11.1047C155.021 11.6127 154.28 12.8496 153.494 12.3416C151.294 10.928 149.004 9.64694 146.669 8.47633C145.996 9.33772 145.278 10.1329 144.537 10.9722C143.482 12.209 143.437 14.0202 143.414 15.6767C145.816 14.4619 148.196 13.203 150.508 11.8556C151.317 11.3918 152.057 12.6287 151.249 13.0925C148.802 14.5061 146.333 15.8313 143.818 17.0903C146.176 18.7468 148.802 19.6303 151.676 19.7628C152.394 17.5983 153.023 15.4558 153.562 13.3576C153.786 12.452 155.2 12.8496 154.976 13.733C150.598 30.8726 139.575 53.2689 120.47 58.0176C103.409 62.2583 79.2525 52.4958 76.2891 34.031C76.2666 33.8543 76.2891 33.6776 76.3789 33.5451C50.1125 34.009 23.7339 28.0234 0.363573 15.5221C-0.467072 15.0804 0.273778 13.8435 1.10442 14.2852C24.1605 26.6319 50.1799 32.5512 76.087 32.1316C78.2871 24.9312 79.7688 15.8976 85.2466 10.3758C90.7019 4.85405 99.6819 2.13735 107.158 0.856298C123.546 -1.92667 140.406 2.22569 154.213 11.1047L154.235 11.1047ZM92.1163 7.28363C92.2734 15.4558 94.4735 23.098 98.6716 30.1437C99.2553 30.0554 99.839 29.967 100.4 29.8787C99.4125 25.638 100.243 21.4856 98.9859 17.2228C97.7512 13.0483 97.1899 9.00642 97.8185 4.76571C95.8429 5.47249 93.9122 6.3118 92.0938 7.30572L92.1163 7.28363ZM82.373 17.532C83.7649 23.2305 92.1612 24.5115 92.0489 30.983C92.0489 31.0272 92.0265 31.0272 92.004 31.0714C92.9245 30.9609 93.8673 30.8505 94.7878 30.718C93.8 26.8307 91.106 24.136 89.0855 20.7346C87.514 18.0842 86.414 15.235 85.6058 12.2753C84.3037 13.8435 83.2261 15.6104 82.3506 17.5099L82.373 17.532ZM80.6219 21.9494C82.9118 25.2625 85.4486 28.4209 88.2324 31.3364C88.2549 31.3806 88.2549 31.4027 88.2773 31.4469C89.3325 31.3585 90.3876 31.2481 91.4428 31.1376C91.4203 31.0935 91.3754 31.0493 91.3754 30.983C91.4652 24.9974 83.8547 23.5397 81.9465 18.4597C81.4526 19.6082 81.026 20.7788 80.6219 21.9715L80.6219 21.9494ZM79.1402 26.8527C80.577 28.5976 82.1261 30.2542 83.7874 31.8002C85.0221 31.7119 86.2793 31.6236 87.514 31.5131C84.9098 28.7522 82.5526 25.8147 80.375 22.7225C79.926 24.0919 79.5219 25.4834 79.1402 26.8527V26.8527ZM82.7322 44.6107C85.516 41.2093 85.3588 36.2618 88.0753 32.9046C86.8854 33.015 85.6956 33.1034 84.5057 33.1917C82.6873 35.3784 81.1607 37.7637 79.926 40.3038C80.7117 41.8278 81.6546 43.2634 82.7322 44.6107V44.6107ZM92.9245 32.3966C90.1856 34.9145 91.3081 38.6914 90.7693 41.9161C90.3203 44.5886 89.2202 46.974 87.7161 49.2269C87.6712 49.2932 87.6038 49.3153 87.5589 49.3374C89.3774 50.773 91.3754 52.032 93.4857 53.1142C93.8225 48.3876 93.598 43.7052 93.6878 38.9785C93.7551 36.4164 94.2265 34.1636 95.5511 32.0653C94.6755 32.1978 93.8 32.2862 92.9245 32.3966V32.3966ZM109.178 57.4875C104.778 49.3153 101.904 40.6572 100.535 31.491C100.535 31.4027 100.535 31.3364 100.58 31.2922C100.198 31.3585 99.8166 31.4027 99.4349 31.4689C98.2675 39.7295 102.466 47.7029 100.602 55.9414C103.409 56.7586 106.282 57.2887 109.156 57.4875L109.178 57.4875ZM119.617 56.7365C116.205 54.1302 112.838 51.3915 110.57 47.7471C107.405 42.645 105.833 36.3281 103.813 30.6738C102.915 30.8505 102.017 31.0272 101.119 31.1818C101.141 31.226 101.186 31.2481 101.208 31.3143C102.578 40.5688 105.474 49.249 109.964 57.5096C113.287 57.6863 116.542 57.4433 119.617 56.7144L119.617 56.7365ZM136.096 19.1444C136.432 14.2852 138.318 9.84572 141.573 6.20136C140.63 5.82588 139.688 5.47249 138.722 5.14118C137.353 7.81372 135.355 9.40398 133.761 11.8998C132.01 14.6386 131.246 18.2167 130.685 21.3972C132.504 20.6905 134.3 19.9395 136.096 19.1444V19.1444ZM135.332 4.03683C129.72 9.35981 126.128 16.0301 124.826 23.5618C126.554 22.9654 128.238 22.3249 129.944 21.6844C130.506 18.5259 131.269 15.235 132.751 12.3636C134.165 9.60276 136.612 7.70328 138.094 4.89823C137.173 4.58901 136.275 4.30188 135.355 4.03683L135.332 4.03683ZM127.879 2.33613C121.862 8.67511 118.944 16.7148 119.415 25.3287C120.987 24.8428 122.536 24.3348 124.085 23.8047C125.32 16.0964 128.934 9.27146 134.569 3.81596C132.369 3.19752 130.124 2.68952 127.856 2.31404L127.879 2.33613ZM120.673 1.54099C114.903 8.27754 118.136 18.6143 114.993 26.6098C116.25 26.2564 117.507 25.903 118.764 25.5275C118.225 16.8252 121.166 8.63094 127.116 2.18152C124.983 1.85021 122.828 1.62934 120.673 1.51891L120.673 1.54099ZM130.73 22.9213C133.087 24.8428 135.691 26.1901 138.632 27.2061C141.214 28.1117 145.143 29.8345 147.859 29.2161C147.904 29.2161 147.927 29.2161 147.972 29.2161C148.623 27.8246 149.229 26.4331 149.79 25.0416C144.851 24.7987 140.181 23.363 135.961 20.7567C134.232 21.5077 132.504 22.2145 130.753 22.8992L130.73 22.9213ZM138.453 27.8467C135.355 26.7644 132.526 25.2846 130.034 23.1863C128.395 23.8047 126.756 24.4232 125.095 24.9974C130.887 29.9891 137.6 33.258 145.12 34.782C146.018 33.1917 146.872 31.5573 147.657 29.9008C144.739 30.3646 141.124 28.7743 138.475 27.8467L138.453 27.8467ZM124.422 25.3067C124.422 25.3067 124.422 25.2625 124.399 25.2625C122.873 25.7705 121.346 26.2564 119.819 26.7423C126.038 33.1696 133.918 37.1895 142.853 38.4926C143.526 37.4766 144.155 36.4606 144.761 35.4004C137.128 33.8102 130.281 30.4308 124.422 25.3067ZM119.079 26.9411C117.776 27.3387 116.452 27.7141 115.15 28.0675C116.183 28.5755 116.923 29.2381 117.799 30.1879C118.517 30.983 119.056 31.9769 119.819 32.7279C121.368 34.2077 123.434 34.3182 125.14 35.4446C126.577 36.3944 127.587 37.8742 128.844 39.0227C131.606 41.5406 134.749 43.3076 138.228 44.6107C139.732 42.8659 141.147 41.0105 142.449 39.0669C133.379 37.6975 125.365 33.523 119.079 26.9411V26.9411ZM114.184 26.8307C117.664 18.8793 114.342 8.49841 119.864 1.49682C119.146 1.47473 118.405 1.45265 117.687 1.45265C112.299 8.58676 111.244 18.791 111.513 27.5154C112.411 27.2945 113.309 27.0736 114.207 26.8307L114.184 26.8307ZM106.394 30.1658C107.652 35.047 112.052 38.338 114.633 42.5566C118.023 48.0784 122.626 50.6626 128.395 53.048C129.855 52.1645 131.246 51.1706 132.593 50.0883C127.587 49.0944 124.018 45.5384 120.628 41.9161C116.923 37.9846 113.78 33.6997 111.064 29.0835C109.515 29.459 107.943 29.8124 106.394 30.1437L106.394 30.1658ZM98.8063 31.5573C98.0206 31.6898 97.2124 31.8223 96.4266 31.9328C94.0245 35.2458 94.3837 39.1111 94.4735 42.9763C94.5408 46.466 94.4286 49.9558 94.1816 53.4235C96.0674 54.329 98.0206 55.1021 100.041 55.7205C101.86 47.5925 97.7961 39.7074 98.8288 31.5352L98.8063 31.5573ZM98.6043 4.45648C97.6614 10.3096 99.7492 14.6828 100.715 20.2487C101.276 23.4513 100.378 26.4994 101.096 29.7241C101.882 29.5915 102.69 29.4369 103.476 29.2823C102.825 23.7164 102.488 18.1505 102.668 12.5403C102.78 9.2052 102.78 5.91423 104.217 2.91039C102.331 3.33005 100.445 3.83805 98.6043 4.47857L98.6043 4.45648ZM110.839 27.67C110.57 18.9014 111.625 8.74137 116.901 1.45265C115.846 1.45265 114.768 1.49682 113.713 1.56308C106.731 9.05059 106.282 19.0339 106.26 28.7301C107.786 28.3988 109.313 28.0675 110.839 27.6921L110.839 27.67ZM143.212 11.5906C143.437 11.0605 143.886 10.7071 144.29 10.2875C144.963 9.60277 145.547 8.89598 146.108 8.14502C144.851 7.52658 143.549 6.97441 142.247 6.42223C139.059 9.91199 137.196 14.1306 136.814 18.791C138.812 17.9075 140.788 16.9578 142.741 15.9859C142.741 14.5282 142.651 12.8054 143.212 11.5685L143.212 11.5906ZM143.302 17.4878C143.302 17.4878 143.257 17.4216 143.235 17.3774C141.079 18.4376 138.924 19.4536 136.724 20.4254C140.81 22.855 145.278 24.1802 150.037 24.379C150.553 23.0317 151.047 21.7065 151.496 20.3812C148.51 20.2045 145.727 19.2769 143.302 17.5099L143.302 17.4878ZM137.734 45.1408C132.885 43.2413 129.855 40.4363 125.948 37.057C124.287 35.6213 122.177 35.5109 120.448 34.2519C118.001 32.4849 117.238 29.4811 114.14 28.3547C114.027 28.5755 113.803 28.5314 113.646 28.4209C112.995 28.5976 112.321 28.7522 111.67 28.9289C116.183 36.6373 123.771 48.0342 133.132 49.5582C133.132 49.5582 133.132 49.5582 133.155 49.5582C134.771 48.1888 136.298 46.709 137.712 45.1187L137.734 45.1408ZM127.654 53.5118C122.985 51.5902 118.36 49.4036 115.419 45.1629C113.354 42.2032 111.401 39.3319 109.088 36.549C107.472 34.6053 106.305 32.7279 105.676 30.3204C105.272 30.4088 104.868 30.475 104.441 30.5634C106.17 35.3783 107.696 40.37 109.897 45.0083C112.254 49.9558 116.138 53.2689 120.403 56.5377C121.93 56.1402 123.389 55.6322 124.781 54.9916C125.769 54.5499 126.712 54.0419 127.632 53.5118L127.654 53.5118ZM87.0875 49.0061C87.0875 49.0061 87.0875 48.9398 87.0875 48.9177C89.4896 45.3396 90.1856 41.8057 90.2978 37.6091C90.3427 35.6655 90.6121 33.9648 91.8469 32.5291C90.9264 32.6396 90.006 32.7279 89.0855 32.8163C85.8303 36.1514 86.1221 41.5406 83.1363 45.1408C84.3261 46.5323 85.6507 47.8134 87.0875 49.0061V49.0061ZM79.5219 39.5528C80.6668 37.322 82.0138 35.2237 83.5629 33.258C81.5873 33.3905 79.6117 33.4789 77.6361 33.523C77.6361 33.5672 77.681 33.6114 77.681 33.6556C78.0177 35.7317 78.6463 37.6975 79.5219 39.5307L79.5219 39.5528ZM82.8669 31.8665C81.4526 30.5192 80.1505 29.1056 78.8933 27.6258C78.4667 29.1498 78.0626 30.6517 77.6361 32.0874C79.3872 32.0432 81.1383 31.9769 82.8669 31.8665V31.8665ZM86.1446 11.6569C87.1548 15.5663 88.7263 19.2327 91.0611 22.5679C92.902 25.2183 94.6755 27.5154 95.4388 30.6517C96.2695 30.5413 97.1226 30.3867 97.9532 30.2542C93.8449 23.2746 91.6673 15.6767 91.4428 7.63702C90.5448 8.14502 89.6692 8.67511 88.8386 9.27146C87.8283 9.97825 86.9528 10.7955 86.1446 11.6569V11.6569ZM105.002 2.7337C101.231 9.73529 103.117 21.4414 104.082 29.1719C104.553 29.0835 105.047 28.9952 105.519 28.8848C105.519 19.1885 106.035 9.2052 112.68 1.62934C111.805 1.69561 110.929 1.78395 110.031 1.89439C108.37 2.09317 106.664 2.3803 104.98 2.7337L105.002 2.7337Z" fill="#333333"/>
</svg>
