<?xml version="1.0" encoding="UTF-8"?>
<svg id="Calque_2" data-name="Calque 2" xmlns="http://www.w3.org/2000/svg" viewBox="0 0 55.28 65.84">
  <g id="Objects">
    <g>
      <path d="M24.46,14.24c-.07-.21-.13-.43-.2-.64-.21-.69-1.65-.14-1.91,.24-2.46,3.62-1.9,7.66-.79,11.7,1.36,4.98,3.2,9.89,5.21,14.64,3.96,9.37,9.21,18.04,16.16,25.49,.47,.5,2.35-.22,1.83-.77-6.55-7.02-11.59-15.11-15.44-23.89-1.78-4.06-3.31-8.23-4.68-12.45-1.52-4.7-3.52-10.18-.45-14.68l-1.91,.24c.07,.21,.13,.43,.2,.64,.21,.69,2.18,.14,1.98-.53h0Z"/>
      <path d="M23.56,31.63c-2.83,2.26-9.87-11.28-10.31-12.46-2.22-5.95-1.85-15.11,5.78-17.15,5.82-1.55,9.58,.36,11.24,5.71,.95,3.08,1.48,6.8,.85,9.97-1.04,5.28-4.99,11.34-8.74,15.11-.81,.81,1.12,.79,1.58,.32,6.4-6.45,10.93-15.45,8.65-24.64-.92-3.68-2.44-7.11-6.39-8.17-3.15-.84-6.76,.13-9.57,1.62-8.41,4.45-7.7,14.26-3.6,21.58,1.9,3.38,7.21,12.33,12.08,8.44,.88-.7-1.08-.72-1.58-.32h0Z"/>
      <path d="M36.18,54.67c-.51-3.91-.67-8.47-.38-12.4,.43-5.82,6.9-17.68,14.55-9.73,2.75,2.86,3.71,8.91,2.34,12.51-2.19,5.78-10.19,7.62-15.65,7.86-.73,.03-2.09,1.18-.77,1.12,5.51-.24,12.9-1.72,16.6-6.21,4-4.85,2.91-14.26-2.63-17.67-4.36-2.68-9.69-.56-12.75,3.07-4.84,5.75-4.21,15-3.29,21.97,.09,.66,2.07,.21,1.98-.53h0Z"/>
      <path d="M36.99,54.07c4.77-5.78,8.19-10.9,9.2-18.56-.37,.22-.75,.45-1.12,.67,.08-.01,.16-.03,.24-.04,.93-.17,1.63-1.34,.27-1.09-.08,.01-.16,.03-.24,.04-.33,.06-1.07,.24-1.12,.67-.49,3.67-1.48,7.32-3.24,10.58-1.57,2.91-3.74,5.17-5.83,7.69-.55,.66,1.43,.54,1.84,.04h0Z"/>
      <path d="M35.23,53.37c-5.58-6.65-12.58-11.66-21.63-11.91-6.15-.18-12.77,3.07-13.55,9.76-.87,7.4,8.73,10.82,14.62,10.65,6.79-.2,14.95-2.7,20.1-7.28-.59,.03-1.19,.07-1.78,.1,.01,.17,.03,.34,.04,.5,.05,.64,2.03,.23,1.98-.53-.01-.17-.03-.34-.04-.5-.05-.67-1.54-.11-1.78,.1-3.98,3.54-10.5,5.67-15.58,6.27-5.76,.68-15.65-1.53-15.55-9.02,.12-9.38,11.04-9.86,17.72-7.56,5.81,2,9.75,5.58,13.62,10.19,.44,.52,2.33-.18,1.83-.77h0Z"/>
      <path d="M11.15,51.66c4.99,1.47,9.57,1.51,14.71,1.25,2.08-.1,6.55,.95,8.21-.89,.56-.63-1.41-.52-1.84-.04-.18,.2-7.54-.07-8.64-.02-3.83,.19-7.54-.29-11.22-1.38-.63-.19-2.32,.75-1.21,1.07h0Z"/>
    </g>
  </g>
</svg>