<svg width="85" height="32" viewBox="0 0 85 32" fill="none" xmlns="http://www.w3.org/2000/svg">
<path d="M83.7553 25.9771C84.1777 25.7016 83.7794 25.0307 83.357 25.3063C82.1741 26.073 80.943 26.7678 79.6877 27.4027C79.3256 26.9355 78.9394 26.5042 78.5411 26.049C77.9738 25.3781 77.9497 24.3958 77.9376 23.4974C79.2291 24.1562 80.5085 24.8391 81.7517 25.5698C82.1862 25.8214 82.5845 25.1505 82.15 24.899C80.8344 24.1323 79.5067 23.4135 78.1549 22.7307C79.4222 21.8322 80.8344 21.3531 82.3793 21.2812C82.7655 22.4552 83.1035 23.6172 83.3932 24.7552C83.5139 25.2464 84.2743 25.0307 84.1536 24.5516C81.7999 15.2555 75.8737 3.10842 65.6022 0.532844C56.4292 -1.7672 43.442 3.5277 41.8488 13.5425C41.8367 13.6383 41.8488 13.7342 41.8971 13.806C27.7754 13.5545 13.5933 16.8009 1.02865 23.5812C0.582061 23.8208 0.980368 24.4917 1.42695 24.2521C13.8227 17.5556 27.8116 14.3451 41.7402 14.5727C42.923 18.478 43.7196 23.3776 46.6647 26.3724C49.5976 29.3673 54.4256 30.8408 58.4448 31.5356C67.2558 33.045 76.3202 30.7928 83.7432 25.9771L83.7553 25.9771ZM50.358 28.0496C50.4425 23.6172 51.6254 19.4723 53.8824 15.6509C54.1962 15.6988 54.5101 15.7467 54.8118 15.7946C54.2807 18.0947 54.7273 20.3468 54.0514 22.6588C53.3876 24.9229 53.0858 27.1152 53.4238 29.4152C52.3616 29.0319 51.3236 28.5766 50.346 28.0376L50.358 28.0496ZM45.1197 22.4911C45.8681 19.4004 50.3822 18.7056 50.3218 15.1956C50.3218 15.1717 50.3098 15.1717 50.2977 15.1477C50.7926 15.2076 51.2995 15.2675 51.7944 15.3394C51.2633 17.4478 49.8149 18.9093 48.7286 20.7541C47.8837 22.1916 47.2923 23.737 46.8578 25.3422C46.1577 24.4917 45.5784 23.5333 45.1077 22.5031L45.1197 22.4911ZM44.1783 20.0952C45.4094 18.2983 46.7733 16.5853 48.27 15.004C48.282 14.98 48.282 14.968 48.2941 14.9441C48.8614 14.992 49.4287 15.0519 49.9959 15.1118C49.9839 15.1357 49.9597 15.1597 49.9597 15.1956C50.008 18.4421 45.9163 19.2327 44.8904 21.988C44.6249 21.365 44.3955 20.7301 44.1783 20.0832L44.1783 20.0952ZM43.3817 17.4358C44.1542 16.4894 44.987 15.591 45.8801 14.7524C46.544 14.8003 47.2199 14.8482 47.8837 14.9081C46.4836 16.4056 45.2163 17.9988 44.0455 19.6759C43.8041 18.9332 43.5869 18.1785 43.3817 17.4358ZM45.3129 7.80435C46.8095 9.64918 46.725 12.3326 48.1855 14.1534C47.5458 14.0935 46.9061 14.0456 46.2664 13.9977C45.2887 12.8117 44.468 11.518 43.8041 10.1403C44.2266 9.31375 44.7335 8.53509 45.3129 7.80435ZM50.7926 14.429C49.32 13.0633 49.9235 11.0148 49.6339 9.26583C49.3925 7.81633 48.801 6.52255 47.9924 5.30065C47.9682 5.26471 47.932 5.25273 47.9079 5.24075C48.8855 4.46209 49.9597 3.77926 51.0943 3.19227C51.2753 5.75587 51.1547 8.2955 51.2029 10.8591C51.2391 12.2487 51.4926 13.4706 52.2047 14.6087C51.734 14.5368 51.2633 14.4889 50.7926 14.429ZM59.5311 0.82035C57.1654 5.25273 55.6205 9.94866 54.8842 14.9201C54.8842 14.968 54.8842 15.004 54.9084 15.0279C54.7032 14.992 54.498 14.968 54.2928 14.9321C53.6652 10.4518 55.9222 6.12723 54.9204 1.65891C56.4292 1.21567 57.9741 0.928164 59.519 0.82035L59.5311 0.82035ZM65.1436 1.22765C63.309 2.64122 61.4985 4.12667 60.2794 6.10327C58.5776 8.87051 57.7327 12.2966 56.6464 15.3634C56.1636 15.2675 55.6808 15.1717 55.198 15.0878C55.2101 15.0639 55.2343 15.0519 55.2463 15.016C55.9826 9.99658 57.5396 5.28867 59.9536 0.80837C61.7399 0.712535 63.49 0.844309 65.1436 1.23963L65.1436 1.22765ZM74.0028 21.6166C74.1839 24.2521 75.1978 26.6599 76.9479 28.6365C76.4409 28.8402 75.934 29.0319 75.415 29.2116C74.6787 27.762 73.6045 26.8995 72.7476 25.5459C71.8061 24.0604 71.3958 22.1197 71.094 20.3947C72.0717 20.7781 73.0373 21.1853 74.0028 21.6166ZM73.5925 29.8105C70.575 26.9235 68.6438 23.3057 67.9438 19.2207C68.8732 19.5442 69.7784 19.8916 70.6957 20.239C70.9975 21.952 71.4078 23.737 72.2044 25.2943C72.9648 26.7917 74.2804 27.8219 75.0771 29.3433C74.5822 29.511 74.0994 29.6668 73.6045 29.8105L73.5925 29.8105ZM69.5853 30.7329C66.3506 27.2949 64.7815 22.9343 65.035 18.2624C65.8798 18.5259 66.7127 18.8014 67.5455 19.089C68.2093 23.2698 70.1526 26.9714 73.1821 29.9303C71.9992 30.2657 70.7923 30.5413 69.5732 30.7449L69.5853 30.7329ZM65.7109 31.1642C62.6089 27.5105 64.347 21.9041 62.6572 17.5676C63.3331 17.7592 64.009 17.9509 64.6849 18.1546C64.3953 22.8744 65.9764 27.3188 69.1749 30.8168C68.0283 30.9965 66.8696 31.1163 65.7109 31.1762L65.7109 31.1642ZM71.1181 19.5681C72.3855 18.5259 73.7856 17.7952 75.3667 17.2441C76.7548 16.753 78.867 15.8186 80.3274 16.154C80.3516 16.154 80.3636 16.154 80.3878 16.154C80.7378 16.9087 81.0637 17.6634 81.3654 18.4181C78.7101 18.5499 76.1995 19.3285 73.9304 20.7421C73.001 20.3348 72.0717 19.9515 71.1302 19.5801L71.1181 19.5681ZM75.2702 16.8967C73.6045 17.4837 72.0837 18.2863 70.744 19.4244C69.8629 19.089 68.9818 18.7535 68.0886 18.4421C71.2026 15.7347 74.8115 13.9618 78.8549 13.1352C79.3377 13.9977 79.7964 14.8842 80.2188 15.7826C78.6497 15.5311 76.7065 16.3936 75.2822 16.8967L75.2702 16.8967ZM67.7265 18.2744C67.7265 18.2744 67.7265 18.2983 67.7145 18.2983C66.8937 18.0228 66.073 17.7592 65.2522 17.4957C68.5956 14.0097 72.8321 11.8294 77.6359 11.1226C77.998 11.6737 78.3359 12.2248 78.6618 12.7998C74.558 13.6623 70.8768 15.4951 67.7265 18.2744ZM64.8539 17.3879C64.1539 17.1722 63.4417 16.9686 62.7417 16.7769C63.2969 16.5014 63.6952 16.142 64.1659 15.6269C64.5522 15.1956 64.8418 14.6566 65.2522 14.2493C66.085 13.4466 67.1955 13.3868 68.1128 12.7758C68.8852 12.2607 69.4284 11.4581 70.1043 10.8351C71.5889 9.46949 73.2786 8.51113 75.1495 7.80435C75.9582 8.75072 76.7185 9.75699 77.4186 10.8112C72.5424 11.5539 68.2335 13.818 64.8539 17.3879ZM62.2227 17.4478C64.0935 21.7604 62.3072 27.3907 65.2764 31.1882C64.8901 31.2001 64.4918 31.2121 64.1056 31.2121C61.2088 27.3428 60.6415 21.8083 60.7864 17.0764C61.2692 17.1962 61.752 17.316 62.2348 17.4478L62.2227 17.4478ZM58.0345 15.6389C58.7104 12.9914 61.0761 11.2065 62.4641 8.91843C64.2866 5.92358 66.7609 4.52199 69.8629 3.22821C70.6474 3.70739 71.3958 4.24646 72.1199 4.83345C69.4284 5.37253 67.5093 7.30121 65.6867 9.26583C63.6952 11.3982 62.0054 13.7222 60.545 16.2259C59.7122 16.0222 58.8673 15.8306 58.0345 15.6509L58.0345 15.6389ZM53.9549 14.8842C53.5324 14.8123 53.0979 14.7404 52.6754 14.6805C51.384 12.8836 51.5771 10.7872 51.6254 8.69082C51.6616 6.79808 51.6012 4.90533 51.4685 3.02456C52.4823 2.53341 53.5324 2.11413 54.6187 1.7787C55.5963 6.18713 53.4117 10.4638 53.9669 14.8962L53.9549 14.8842ZM53.8462 29.5829C53.3393 26.4084 54.4618 24.0364 54.9808 21.0176C55.2825 19.2806 54.7997 17.6275 55.186 15.8785C55.6084 15.9503 56.0429 16.0342 56.4654 16.1181C56.1153 19.1369 55.9343 22.1557 56.0309 25.1985C56.0912 27.0073 56.0912 28.7923 56.8637 30.4215C55.8498 30.1939 54.8359 29.9183 53.8462 29.5709L53.8462 29.5829ZM60.4243 16.9926C60.2794 21.7484 60.8467 27.2589 63.6831 31.2121C63.1159 31.2121 62.5365 31.1882 61.9692 31.1522C58.2155 27.0912 57.9741 21.6765 57.962 16.4175C58.7828 16.5972 59.6035 16.7769 60.4243 16.9806L60.4243 16.9926ZM77.829 25.7136C77.9497 26.0011 78.1911 26.1927 78.4083 26.4204C78.7704 26.7917 79.0842 27.1751 79.386 27.5824C78.7101 27.9178 78.01 28.2173 77.31 28.5168C75.5961 26.624 74.5943 24.3359 74.3891 21.8083C75.4633 22.2875 76.5254 22.8026 77.5755 23.3297C77.5755 24.1203 77.5272 25.0547 77.829 25.7255L77.829 25.7136ZM77.8773 22.5151C77.8773 22.5151 77.8531 22.551 77.841 22.575C76.6823 22 75.5236 21.4489 74.3408 20.9218C76.5375 19.6041 78.9394 18.8853 81.4982 18.7775C81.7758 19.5082 82.0413 20.227 82.2827 20.9458C80.6775 21.0416 79.1808 21.5447 77.8773 22.5031L77.8773 22.5151ZM74.8839 7.51684C72.2769 8.54707 70.6474 10.0685 68.5473 11.9013C67.6541 12.68 66.5195 12.7399 65.5902 13.4227C64.2746 14.381 63.8642 16.0102 62.1985 16.6212C62.1382 16.5014 62.0175 16.5254 61.933 16.5853C61.583 16.4894 61.2209 16.4056 60.8709 16.3097C63.2969 12.1289 67.3765 5.94754 72.4096 5.12096C72.4096 5.12096 72.4096 5.12096 72.4217 5.12096C73.2907 5.86368 74.1115 6.6663 74.8719 7.52882L74.8839 7.51684ZM69.4646 2.97664C66.9541 4.01885 64.4677 5.20481 62.8865 7.50486C61.7761 9.1101 60.726 10.6674 59.4828 12.1768C58.6138 13.231 57.9862 14.2493 57.6482 15.555C57.431 15.5071 57.2137 15.4712 56.9844 15.4233C57.9138 12.8117 58.7345 10.1044 59.9173 7.58872C61.1847 4.90533 63.2728 3.10842 65.566 1.33546C66.3868 1.55109 67.1713 1.82662 67.9196 2.17402C68.4507 2.41361 68.9577 2.68914 69.4525 2.97664L69.4646 2.97664ZM47.6544 5.42044C47.6544 5.42044 47.6544 5.45638 47.6544 5.46836C48.9459 7.40903 49.32 9.32573 49.3804 11.6018C49.4045 12.656 49.5494 13.5784 50.2132 14.3571C49.7183 14.2972 49.2235 14.2493 48.7286 14.2014C46.9785 12.3925 47.1354 9.46948 45.5301 7.51684C46.1698 6.76214 46.8819 6.06733 47.6544 5.42044ZM43.5869 10.5476C44.2024 11.7576 44.9266 12.8956 45.7594 13.9618C44.6973 13.8899 43.6351 13.842 42.573 13.818C42.573 13.7941 42.5971 13.7701 42.5971 13.7461C42.7782 12.6201 43.1161 11.5539 43.5869 10.5596L43.5869 10.5476ZM45.3853 14.7165C44.6249 15.4472 43.9248 16.2139 43.2489 17.0165C43.0196 16.1899 42.8023 15.3753 42.573 14.5967C43.5144 14.6206 44.4559 14.6566 45.3853 14.7165ZM47.1475 25.6776C47.6906 23.5573 48.5355 21.5687 49.7908 19.7598C50.7805 18.3223 51.734 17.0764 52.1444 15.3753C52.591 15.4352 53.0496 15.5191 53.4962 15.591C51.2874 19.3765 50.1166 23.4974 49.9959 27.8579C49.5132 27.5824 49.0424 27.2948 48.5958 26.9714C48.0527 26.5881 47.582 26.1448 47.1475 25.6776ZM57.2861 30.5173C55.2584 26.7198 56.2723 20.3707 56.7913 16.178C57.0447 16.2259 57.3103 16.2738 57.5637 16.3337C57.5637 21.5927 57.8413 27.0073 61.414 31.1163C60.9433 31.0803 60.4726 31.0324 59.9898 30.9725C59.0966 30.8647 58.1793 30.709 57.2741 30.5173L57.2861 30.5173Z" fill="#333333"/>
</svg>
