<?xml version="1.0" encoding="UTF-8"?>
<svg id="Calque_2" data-name="Calque 2" xmlns="http://www.w3.org/2000/svg" viewBox="0 0 89.89 126.43">
  <g id="Objects">
    <g>
      <path d="M42.07,32.01c-3.23,7.02-2.31,16.73-2.33,24.31-.02,8.11,.18,16.15,.97,24.24,.81,8.36,1.32,16.78,2.65,25.08,1.06,6.62,2.58,14.82,6.17,20.57,.35,.56,1.74-.03,1.91-.51,.03-.08,.06-.16,.08-.24,.23-.66-1.75-.42-1.98,.25-.03,.08-.06,.16-.08,.24,.64-.17,1.27-.34,1.9-.51-1.84-2.95-2.83-7.05-3.87-10.39-1.17-3.78-1.84-7.75-2.41-11.65-1.13-7.75-1.63-15.58-2.39-23.37-.84-8.59-1.02-17.13-.96-25.75,.05-7.11-.71-15.93,2.33-22.51,.27-.59-1.68-.39-1.98,.25h0Z"/>
      <path d="M41.06,61.85c-2.52-4.81-5.16-9.52-7.64-14.36-2.66-5.2-3.21-9.75-3.59-15.52-.17-2.64-.37-5.24-.34-7.9,.05-4.12,1.85-6.25,4.28-9.33,3.41-4.31,5.33-9.41,8.06-14.13-.61,.12-1.22,.24-1.84,.37,2.65,4.26,4.97,8.47,8.08,12.46,4.5,5.77,5.83,11.34,5.17,18.55-.5,5.53-2.68,10.49-4.37,15.69-1.8,5.54-4.63,11.41-8.77,15.64,.59-.03,1.19-.07,1.78-.1-.02-.08-.04-.17-.06-.25-.17-.68-2.15-.17-1.98,.53,.02,.08,.04,.17,.06,.25,.16,.63,1.5,.19,1.78-.1,3.59-3.66,6.56-8.65,8.35-13.45,2.19-5.85,4.6-12.18,5.19-18.45,.58-6.16,.04-11.19-3.4-16.42-3.33-5.07-6.79-9.99-9.99-15.13-.31-.5-1.61-.03-1.84,.37-2.99,5.16-5.18,10.49-8.94,15.18-3.6,4.48-3.76,7.97-3.47,13.59,.31,6.01,.43,11.77,3.14,17.26,2.65,5.36,5.6,10.48,8.37,15.77,.35,.67,2.27,.03,1.98-.53h0Z"/>
      <path d="M40.83,69.4c-5.03,0-10.04,.88-15.05,.8-4.21-.07-10.88-1.1-14.7-3.06-4.6-2.36-5.84-6.32-6.37-11.03-.23-2.05-.66-4.07-1.25-6.05-.56-1.86-2.19-3.78,.03-4.5,1.21-.4,3.36-.12,4.71-.23,2.39-.2,4.74-.62,7.12-.84,4.72-.43,8.69,3.67,11.37,7.26,2.67,3.59,4.73,7.55,7.6,11,1.81,2.18,3.91,5.96,6.49,7.3,.57,.3,2.38-.53,1.57-.96-2.09-1.09-3.63-4.16-5.08-5.88-1.7-2.03-3.34-3.98-4.81-6.21-3.04-4.6-6.2-10.1-11.17-12.97-3.18-1.84-7.93-.34-11.32-.04-2.86,.26-7.36-.3-9.78,1.68-.12,.1-.23,.26-.2,.43,.37,1.93,1.34,3.81,1.85,5.72,.66,2.46,.63,4.9,1.01,7.38,.57,3.75,3.26,7.22,6.65,8.87,9.73,4.75,20.28,2.44,30.55,2.43,.74,0,2.1-1.12,.77-1.12h0Z"/>
      <path d="M42.55,72.86c3.63-2.51,6.23-5.97,8.42-9.75,2.44-4.22,3.88-9.21,8.13-12.13,6.09-4.18,14.01-2.36,20.63-1.02,1.87,.38,4.7,.21,6.43,.94,1.61,.67,.9-.02,.1,1.48-1.86,3.48-2.55,7.21-5.05,10.39-4.43,5.64-10.4,6.62-17.19,7.11-7.79,.56-15.43,.97-22.96,2.94-1.18,.31-.93,1.3,.26,.99,10.2-2.67,20.96-1.43,31.19-3.96,4.48-1.11,7.63-3.05,10.43-6.77,2.83-3.76,3.32-8.88,6.74-12.03,.13-.12,.33-.39,.13-.55-1-.79-2.23-.71-3.49-.88-2.81-.39-5.53-.79-8.31-1.4-5.36-1.19-10.93-1.38-16.21,.32-11.18,3.58-11.38,17.45-20.47,23.73-1.1,.76,.6,1.02,1.23,.59h0Z"/>
      <path d="M40.59,72.45c-5.74,1.8-11.37,2.66-17.26,3.81-4.1,.8-8.24,1.58-11.28,4.63-2.99,3-4.87,7.42-5.62,11.51-.43,2.32-2.92,8.02-.21,9.54,1.97,1.1,5.55,.46,7.71,.24,3.98-.4,7.86-1.25,11.17-3.54,4.53-3.12,6.42-6.74,9.46-11.13,2.92-4.21,5.28-9.37,6.85-14.26-.37,.22-.75,.45-1.12,.67,.1-.02,.2-.04,.3-.06,.93-.17,1.63-1.34,.27-1.09-.1,.02-.2,.04-.3,.06-.4,.07-.98,.23-1.12,.67-1.22,3.79-3.17,7.31-4.88,10.91-1.34,2.81-3.52,6.44-5.4,8.95-3.07,4.1-7.94,6.56-12.87,7.4-2.64,.45-8.52,1.83-9.11-1.88-.4-2.47,.93-6.43,1.6-8.88,1.44-5.28,4.67-9.82,9.95-11.61,3.95-1.34,8.23-1.58,12.32-2.22,3.41-.53,6.53-1.7,9.82-2.73,1.16-.36,.92-1.36-.26-.99h0Z"/>
      <path d="M41.15,73.79c2.74,1.73,6.54,1.68,9.62,2.55,4.23,1.19,9.08,2.06,13.12,3.72,4.05,1.66,6.07,5.1,8.14,8.73,.96,1.68,1.95,3.51,2.36,5.41,.23,1.09,1.05,4.87,.54,5.74-.83,1.39-7.22,.44-9.12,.44-2.32,0-5.59,.54-7.77-.39-2.05-.87-3.92-3.43-5.13-5.24-2.3-3.45-4.79-7.09-6.62-10.82-1.45-2.96-1.95-6.19-2.93-9.32-.37,.27-.75,.54-1.12,.81,.11-.02,.22-.04,.33-.06,.93-.18,1.63-1.36,.27-1.09-.11,.02-.22,.04-.33,.06-.28,.05-1.28,.31-1.12,.81,1.23,3.89,1.86,7.48,3.88,11.08,2.4,4.29,5.15,9.46,8.73,12.86,3.43,3.26,7.49,2.43,11.94,2.43,2.78,0,6.12,.72,8.79,.41,.54-.06,1.34-.16,1.76-.54,1.41-1.27,.22-6.15-.11-7.69-.76-3.56-3.47-8.28-5.87-11.05-2.83-3.27-6.42-3.92-10.39-4.94-2.98-.77-5.88-1.83-8.86-2.62-2.71-.72-6.1-.69-8.52-2.22-.54-.34-2.37,.45-1.57,.96h0Z"/>
      <path d="M41.71,74.6c1.86,.36,3.14,2.99,4.55,4.16,1.91,1.58,4.09,2.88,6.1,4.33,2.01,1.44,3.97,2.86,6.05,4.21,1.42,.92,3.93,1.94,5.01,3.2,.44,.52,2.34-.19,1.83-.77-1.12-1.31-3.71-2.4-5.04-3.29-2.09-1.39-4.15-2.79-6.19-4.27-2.62-1.9-5.55-3.5-7.75-5.92-1.15-1.27-1.63-2.38-3.36-2.72-.63-.12-2.32,.86-1.21,1.07h0Z"/>
      <path d="M37.57,74.42c-2.18,4.45-8.26,9.32-12.47,11.74-2.14,1.23-6.46,2.27-7.38,4.83-.24,.66,1.74,.41,1.98-.25,.54-1.51,4.16-2.73,5.4-3.37,1.69-.87,3.13-1.9,4.61-3.1,3.26-2.63,7.81-5.95,9.7-9.81,.41-.84-1.55-.62-1.84-.04h0Z"/>
      <path d="M16.01,58.03c1.15,1.85,3.09,2.78,4.95,3.83,2.88,1.63,5.75,3.28,8.63,4.9,5.14,2.9,10.62,3.63,16.45,4.14,.76,.07,2.1-1,.77-1.12-6.17-.54-11.7-1.68-17.09-4.82-3.52-2.05-9.66-4.16-11.86-7.7-.34-.55-2.27,.08-1.83,.77h0Z"/>
      <path d="M44.73,72.22c.46-.89,2.68-1.23,3.53-1.66,2.54-1.26,4.86-3.1,7.34-4.51,5.94-3.38,12.46-7.91,19.43-8.61,.96-.1,1.64-1.23,.27-1.09-6.72,.68-13.06,4.6-18.8,7.89-3.41,1.96-6.69,4.36-10.23,6.02-1.02,.48-2.8,.81-3.38,1.92-.43,.83,1.54,.62,1.84,.04h0Z"/>
    </g>
  </g>
</svg>