<svg width="235" height="48" viewBox="0 0 235 48" fill="none" xmlns="http://www.w3.org/2000/svg">
<path d="M234.226 32.6037C225.479 28.909 216.657 26.094 207.785 24.0078C204.694 20.288 201.15 17.1211 197.204 14.5323C193.434 5.48412 180.691 -0.623433 171.265 0.080318C170.235 0.15572 170.21 1.78943 171.265 1.71403C178.956 1.13594 190.091 5.83599 194.539 12.9238C192.529 11.7927 190.443 10.8125 188.256 9.9831C187.276 9.60609 186.848 11.1895 187.829 11.5665C189.739 12.2954 191.599 13.15 193.358 14.1051C185.516 14.4067 174.759 10.6617 173.377 2.31724C173.201 1.28675 171.617 1.71403 171.793 2.74452C173.452 12.7227 187.05 16.7441 195.746 15.4874C199.189 17.6741 202.306 20.3383 205.096 23.4046C189.588 20.0618 173.879 18.9811 157.944 19.7853C158.045 19.2575 157.643 18.6292 156.964 18.8302C155.657 19.2324 154.375 19.6597 153.094 20.0869C145.654 20.6399 138.164 21.5447 130.624 22.8265C125.245 23.7314 119.841 24.7367 114.412 25.7421C110.542 24.2592 106.646 22.9271 102.7 21.7709C100.363 17.9003 95.6876 16.2163 91.6159 14.7083C85.433 12.4462 78.9987 11.5414 72.4387 11.6671C71.9109 11.6671 71.6595 12.0943 71.6595 12.4965C71.4333 12.7227 71.3077 13.0746 71.5087 13.4516C76.9628 23.9073 90.5854 26.3202 101.117 23.5554C101.393 23.48 101.544 23.3292 101.619 23.1282C101.644 23.1282 101.695 23.1282 101.72 23.1533C101.871 23.279 102.072 23.3292 102.248 23.3292C105.289 24.2089 108.28 25.2394 111.246 26.3202C83.3217 31.4224 54.8701 35.9716 27.5243 27.6774C22.0451 17.649 11.7402 13.8286 1.33472 10.7371C0.932574 10.6114 0.429895 10.8879 0.329359 11.3152C-2.73698 24.5608 16.3648 30.0149 26.1922 28.9844C31.9227 30.7689 37.7036 32.0507 43.5346 32.8299C39.6389 33.2571 35.8436 34.1368 32.1741 35.3935C32.0484 35.2427 31.8473 35.1171 31.596 35.1171C21.1151 34.6144 11.2626 37.3288 2.39034 42.9337C1.86253 43.2605 1.86253 44.0145 2.39034 44.3412C13.575 51.4793 26.5692 47.7594 33.4559 36.7759C33.4559 36.7508 33.4559 36.7256 33.4811 36.6754C38.5581 35.0165 43.8865 34.1117 49.4411 34.1117C49.8684 34.1117 50.0946 33.8604 50.1951 33.5336C73.1424 35.293 96.6427 30.7437 119.339 26.5464C128.688 24.8121 138.063 23.1784 147.489 22.0977C143.166 23.656 138.918 25.3651 134.721 27.2501C133.489 27.8031 132.232 28.3812 131.026 28.9844C130.85 28.7079 130.548 28.532 130.171 28.6576C125.572 30.0651 120.872 31.548 116.926 34.3379C112.904 37.1529 110.667 41.0235 108.707 45.422C108.456 45.9749 108.732 46.6535 109.411 46.6535C118.937 46.6033 131.126 40.546 132.484 30.1405C132.785 29.9646 133.087 29.7887 133.414 29.6379C140.275 26.3956 147.363 23.7314 154.576 21.3688C161.438 20.7907 168.325 20.5394 175.237 20.8158C185.868 21.2431 196.399 22.7763 206.704 25.2645C206.93 25.4908 207.182 25.5159 207.408 25.4405C216.28 27.6271 224.977 30.4924 233.422 34.0614C234.377 34.4636 235.206 33.0561 234.251 32.6539L234.226 32.6037ZM73.243 13.3259C77.9933 13.3008 82.6431 13.7783 87.2426 15.0602C91.2138 16.1661 96.8689 17.7746 100.036 21.0672C96.4165 20.0869 92.7721 19.2073 89.0774 18.4784C88.0469 18.2773 87.6196 19.8607 88.6501 20.0618C92.0935 20.7153 95.4614 21.5447 98.8293 22.4244C89.5046 24.2592 78.2698 21.9971 73.2681 13.3259H73.243ZM4.45133 43.6123C11.9664 39.1385 20.0595 36.801 28.7307 36.7005C26.0414 37.8315 23.4275 39.1636 20.8889 40.7471C20.0093 41.3 20.8135 42.7075 21.7184 42.1546C24.7093 40.2947 27.7756 38.7866 30.9425 37.555C24.5585 46.176 14.0022 48.9407 4.45133 43.6123ZM13.6755 26.0186C10.8102 24.9881 7.79415 23.4046 5.50696 21.3436C3.87325 19.8607 -0.902205 13.4264 3.37057 13.0494C4.92887 12.8986 7.66848 14.4067 9.10111 14.9345C11.4637 15.8142 13.7258 16.8195 15.8873 18.1014C19.7076 20.3383 22.7237 23.2538 25.0612 26.9234C23.0505 26.2448 21.0397 25.5159 19.029 24.7116C18.0488 24.3095 17.6215 25.8929 18.6017 26.295C19.6825 26.7474 20.7633 27.0993 21.844 27.5015C19.0793 27.4261 16.3146 26.9988 13.6504 26.0437L13.6755 26.0186ZM110.718 44.9193C112.628 40.8979 114.89 37.4796 118.811 34.9914C121.349 33.3577 124.19 32.2518 127.08 31.2967C126.904 31.4224 126.728 31.5229 126.577 31.6486C123.712 33.8855 121.701 36.7256 118.484 38.5855C117.579 39.1134 118.409 40.5209 119.314 39.993C123.536 37.5299 126.628 33.8604 130.674 31.171C128.789 39.5155 118.735 44.3915 110.718 44.9193Z" fill="white" fill-opacity="0.8"/>
</svg>
