<svg width="73" height="170" viewBox="0 0 73 170" fill="none" xmlns="http://www.w3.org/2000/svg">
<path d="M71.8048 115.933C60.1113 118.375 49.5775 124.379 41.5272 133.221C41.4044 133.357 41.3907 133.507 41.4316 133.63C41.1724 133.821 41.2406 134.326 41.6363 134.421C41.6636 134.558 41.7591 134.667 41.9365 134.708C41.9638 134.708 41.9911 134.722 42.032 134.735C37.3928 137.464 33.2857 140.043 30.9525 144.669C31.0753 141.38 31.1572 138.092 31.2117 134.803C33.8861 131.201 35.3052 126.739 37.0107 122.646C39.5077 116.656 42.646 110.912 47.9265 106.941C48.1721 106.764 48.1448 106.463 48.022 106.272C48.022 106.272 48.0493 106.272 48.063 106.245C48.1312 106.19 48.1858 106.136 48.2404 106.095C48.2949 106.095 48.3495 106.095 48.4177 106.081C53.7119 104.389 59.5245 102.452 62.8402 97.6489C66.5106 92.3138 64.4639 85.8053 64.1774 79.8425C64.1774 79.6515 64.0682 79.5424 63.9318 79.4741C63.7407 79.324 63.4269 79.2831 63.2495 79.556C63.1677 79.6788 63.0722 79.8016 62.9903 79.9108C62.772 79.6515 62.3081 79.6379 62.2398 80.0472C62.1716 80.4429 62.0897 80.8523 62.0215 81.2479C60.3569 83.4311 58.5012 85.4505 56.3862 87.238C54.2167 89.08 51.8698 90.5673 50.1506 92.9005C47.3671 96.6801 46.4256 101.333 47.1215 105.918C47.1488 106.122 47.2852 106.218 47.4353 106.231C42.6733 109.82 39.7533 114.568 37.2427 119.903C35.196 124.283 33.8725 129.141 31.2254 133.234C31.3482 120.436 30.7888 107.664 28.8785 94.9609C28.7011 93.8284 28.5237 92.6822 28.3327 91.5497C28.5374 91.3723 28.6056 91.0039 28.2918 90.8265C28.2645 90.8129 28.2372 90.7992 28.2099 90.772C28.0871 90.0488 27.9643 89.3393 27.8415 88.6161C28.9467 85.4096 31.894 82.5169 34.5411 79.8698C34.5547 79.8698 34.5683 79.8698 34.582 79.8698C37.7476 78.5463 40.7494 76.9226 43.5875 74.985C43.6148 74.9714 43.6284 74.9441 43.6421 74.9304C43.7103 74.9441 43.7649 74.9577 43.8468 74.9304C48.4177 74.0845 52.7977 72.6927 57.0139 70.7415C57.3687 70.5778 57.2459 70.032 56.9047 69.9365C53.6846 68.995 48.9772 67.7943 45.7434 69.3088C43.7649 70.223 42.7552 72.1606 43.3692 74.1527C43.301 74.1527 43.2191 74.1663 43.1372 74.2209C40.9268 75.7355 38.6072 77.0454 36.1921 78.1779C36.6696 77.673 37.1063 77.1818 37.502 76.7043C40.2582 73.3613 42.5505 69.7727 43.9968 65.6793C49.4138 62.9504 49.1273 56.3463 48.1448 51.0795C48.063 50.6019 47.449 50.7111 47.3125 51.0795C47.2579 51.1068 47.217 51.1477 47.1761 51.2023C44.8838 54.1223 43.0144 57.5607 41.7318 61.0538C40.9677 63.1278 40.9131 64.8879 42.8916 66.0614C41.0087 71.0144 37.8158 75.1215 34.2955 79.0375C34.1727 79.0921 34.1044 79.1876 34.0635 79.2968C33.9816 79.3786 33.9134 79.4741 33.8315 79.556C33.0947 78.3826 32.8082 77.1136 32.9446 75.7355C34.391 75.4217 35.3188 73.4295 35.7554 72.2288C36.5741 69.9501 36.4513 67.5077 35.5644 65.27C35.3597 64.7515 34.5001 64.9698 34.7048 65.5019C35.2369 66.8391 35.5098 68.2172 35.4007 69.6636C35.3461 70.3458 35.2096 71.0417 34.9913 71.683C34.5274 73.1157 34.4592 73.525 32.9856 73.6751C31.2936 73.8525 31.8531 73.4432 32.1396 72.2697C32.317 71.5466 32.5353 70.8234 32.7536 70.1002C33.2585 68.4629 33.8725 66.8664 34.5547 65.2973C34.773 64.7788 34.0226 64.3285 33.7906 64.847C33.2039 66.2115 29.0422 74.9032 32.0577 75.7218C31.894 77.2637 32.2487 78.7646 33.1084 80.0745C33.1493 80.1291 33.1902 80.17 33.2312 80.211C33.1902 80.2519 33.1629 80.2928 33.122 80.3338C31.1572 82.4623 28.8649 84.55 27.555 87.1015C25.8221 77.4684 23.7344 67.8898 22.3836 58.1884C22.0561 55.8688 21.8105 53.5628 21.5786 51.2432C21.6332 51.2023 21.6877 51.1341 21.715 51.0522C23.5434 46.1128 26.7636 41.9921 31.0617 39.0039C37.4474 36.5342 44.8019 33.355 49.3046 28.0336C53.0296 23.6263 54.3532 17.8273 53.3844 12.2193C53.5072 12.1375 53.63 12.042 53.7528 11.9601C54.2304 11.6599 53.7937 10.8822 53.3025 11.196C53.248 11.2369 53.1934 11.2642 53.1388 11.3051C52.8659 11.0595 52.3201 11.3051 52.4156 11.7554C52.1837 11.8919 51.9654 12.0556 51.7607 12.2466C46.7531 15.7124 42.4004 19.9695 38.2797 24.445C34.7594 28.2792 29.9291 32.4954 30.202 38.1579C30.202 38.2671 30.2566 38.349 30.3112 38.4172C30.2976 38.4308 30.2839 38.4581 30.2703 38.4854C26.3406 41.2962 23.3251 45.0485 21.4148 49.4967C20.8145 42.497 20.6644 35.4563 20.9509 28.4429C22.4791 25.482 24.635 23.0123 27.323 21.0884C28.6465 22.4256 30.8024 20.8155 31.8394 19.8877C33.8042 18.1548 35.0186 15.7397 36.1784 13.4337C36.2603 13.2836 36.233 13.1335 36.1784 13.0244C36.3285 12.9561 36.4786 12.8743 36.6423 12.8061C37.1608 12.5741 36.7106 11.81 36.1921 12.042C33.5041 13.229 30.5295 14.6617 28.3873 16.7221C27.555 17.5271 26.5453 19.028 26.8864 20.2834C24.5395 21.948 22.5883 24.022 21.0737 26.4508C21.2102 23.9129 21.3739 21.3886 21.6195 18.8507C25.3718 16.7357 22.5474 2.21776 22.2062 0.321142C22.1107 -0.238291 21.2511 -0.0063308 21.3466 0.553103C21.3466 0.580392 21.3466 0.594037 21.3466 0.621326C18.3038 2.70897 16.2299 5.80632 15.6568 9.49039C15.1929 12.4922 15.6704 16.9813 18.7268 18.5778C19.4909 18.9735 20.1459 19.1372 20.6917 19.1099C20.4051 22.1527 20.1868 25.1955 20.064 28.2382C20.0367 28.3201 20.0367 28.3883 20.064 28.4565C20.0504 28.8113 20.0504 29.1524 20.0367 29.5072C20.0094 29.4799 19.9685 29.4663 19.9412 29.4526C19.0816 26.7646 16.6938 24.3495 14.8244 22.2891C12.6822 19.9422 10.2944 17.9501 7.34714 16.6948C6.92416 16.5174 6.55575 16.8858 6.74678 17.2952C9.16189 23.0123 13.2007 28.8522 19.6137 30.2577C19.7911 30.2986 19.9276 30.2304 20.0231 30.1348C19.7365 39.1131 20.1595 48.1049 21.3466 57.0422C22.752 67.6578 25.0853 78.1097 26.941 88.6434C26.8182 89.0391 26.7226 89.4484 26.6544 89.8714C21.0464 86.3784 16.1207 81.6846 14.2787 75.2033C14.3332 75.1624 14.3878 75.1215 14.4287 75.0396C17.5807 69.2952 19.9139 63.3051 18.3175 56.7284C17.99 55.3503 17.567 53.9995 17.1168 52.6623C17.1168 52.594 17.1168 52.5258 17.0622 52.4849C15.302 47.4227 12.7095 42.6743 9.48936 38.3626C9.23011 38.0215 8.7389 38.1852 8.65704 38.4854C5.72342 39.8908 4.80923 42.879 4.08606 45.8536C2.89897 50.7929 1.53449 55.8142 0.715811 60.8355C-0.471279 67.9989 7.23799 72.9929 13.3235 74.9577C15.1383 82.0257 20.487 87.1152 26.5589 90.8265C26.5998 91.0721 26.8318 91.1677 27.0638 91.1267C27.1866 91.195 27.3094 91.2768 27.4458 91.345C27.514 91.768 27.5959 92.191 27.6641 92.6276C29.1241 101.633 29.8882 110.693 30.202 119.767C29.4379 116.56 28.3464 113.518 25.904 111.089C25.1262 110.311 24.3075 109.574 23.4615 108.865C23.6799 108.81 23.8709 108.619 23.8027 108.333C23.5025 107.187 23.2159 106.04 22.9158 104.894C26.9 104.594 23.5025 97.5124 21.9879 94.9336C22.0016 94.9063 22.0152 94.879 22.0289 94.8517C22.2608 94.4697 21.8515 94.1286 21.524 94.2104C21.1965 93.8147 20.487 94.2377 20.8008 94.7016C20.8554 94.7835 20.91 94.879 20.9646 94.9609C19.6001 97.6898 18.1128 104.185 22.0152 104.853C22.0152 104.881 22.0152 104.908 22.0152 104.949C22.3154 106.109 22.6019 107.255 22.9021 108.415C20.5689 106.504 18.0173 104.785 15.5067 103.148C15.6977 102.916 15.5749 102.493 15.2474 102.425C15.3566 102.302 15.3839 102.138 15.2474 101.961C13.3781 99.5182 12.6959 96.3936 10.0352 94.5788C7.63368 92.9415 4.63184 92.5185 1.82103 92.1501C1.73917 92.0955 1.67094 92.0273 1.58907 91.9727C1.12515 91.6316 0.688522 92.3957 1.1388 92.7368C4.38624 95.1656 6.33743 98.3994 9.16189 101.183C10.6082 102.616 12.3138 103.475 14.2514 103.393C17.7581 105.699 21.2648 108.128 24.3894 110.912C25.0307 111.485 25.5765 112.099 26.0677 112.726C24.9215 112.331 23.5298 112.194 22.7111 111.976C17.9627 110.666 13.228 109.37 8.47965 108.06C8.19312 107.978 7.92022 108.196 7.92022 108.483C7.82471 117.161 21.4831 115.032 27.1183 114.718C27.1866 114.909 27.3776 115.019 27.555 115.019C28.7421 117.338 29.3561 119.917 29.8882 122.632C29.9291 122.864 30.0929 122.946 30.2703 122.946C30.3658 126.821 30.3794 130.696 30.3248 134.572C30.2976 134.612 30.2703 134.653 30.243 134.694C30.0792 134.899 30.1611 135.104 30.3248 135.213C30.2703 139.183 30.1475 143.154 29.9837 147.138C29.9564 147.234 29.9155 147.329 29.8882 147.425C29.8473 147.575 29.8882 147.698 29.9564 147.793C29.8609 149.949 29.7654 152.119 29.6563 154.274C28.0462 150.536 23.6253 147.357 20.5552 145.296C20.5825 145.201 20.5552 145.092 20.487 144.982C20.4051 144.86 20.296 144.764 20.2141 144.641C20.3642 132.893 12.0409 126.289 2.66701 120.927C2.66701 120.804 2.66701 120.681 2.65336 120.572C2.65336 120.545 2.65336 120.531 2.63972 120.517C2.65336 120.463 2.68065 120.408 2.69429 120.354C2.88532 119.822 2.03935 119.59 1.83468 120.122C-0.484924 126.48 -1.07165 133.794 2.85803 139.688C6.65126 145.378 13.2826 146.811 19.7365 146.265C19.9003 146.251 20.0094 146.156 20.0777 146.047C23.8027 148.557 29.9428 152.965 29.3561 157.822C29.3424 157.959 29.3834 158.068 29.4516 158.136C29.2333 161.943 29.0013 165.763 28.7557 169.57C28.7148 170.143 29.6017 170.143 29.6426 169.57C30.1202 162.161 30.5704 154.725 30.8843 147.288C32.8628 141.244 37.6111 138.419 42.878 135.336C43.0008 135.267 43.069 135.158 43.0826 135.049C46.5211 135.977 50.3007 137.314 53.7938 136.918C57.1503 136.55 61.0527 135.117 63.9864 133.439C69.9627 130.014 71.2999 123.301 72.1459 116.97C72.1732 116.915 72.1732 116.861 72.1732 116.792C72.5825 116.588 72.3506 115.878 71.8321 115.974L71.8048 115.933ZM48.7725 97.4306C51.2968 97.7853 53.9848 97.9354 55.9769 96.1616C55.3083 97.185 54.5988 98.1674 53.8347 99.1225C53.8074 99.0816 53.7528 99.0543 53.6846 99.0679C51.8289 99.259 49.9732 99.4364 48.1175 99.6274C48.2813 98.8769 48.4996 98.1401 48.7725 97.4306ZM50.3962 94.2377C52.5521 95.0973 54.8171 95.1928 57.0139 94.497C56.7819 94.8927 56.55 95.2747 56.3044 95.6568C56.2362 95.5476 56.1134 95.493 56.0042 95.6022C54.1076 97.567 51.4196 97.3896 48.9226 97.0349C49.3183 96.0661 49.8095 95.1246 50.3962 94.2377ZM53.5345 99.4909C52.9614 100.2 52.3747 100.883 51.7607 101.551C50.4917 102.111 49.1545 102.343 47.7628 102.247C47.8037 101.497 47.8856 100.76 48.022 100.05C49.8641 99.8593 51.6925 99.682 53.5345 99.4909ZM47.8856 105.222C47.7764 104.348 47.7355 103.502 47.7491 102.657C48.8953 102.738 50.0005 102.602 51.0785 102.261C50.0687 103.298 49.0045 104.28 47.8856 105.222ZM63.3314 80.8522C63.7544 85.9827 65.3372 91.7134 62.5809 96.3799C59.852 100.992 54.7625 103.052 49.8777 104.676C56.6046 98.5495 61.1346 90.4854 62.8402 81.5208C63.0039 81.3025 63.1813 81.0842 63.3451 80.8659L63.3314 80.8522ZM61.5849 83.0763C61.08 85.1913 60.4251 87.2653 59.6064 89.2438C58.6786 88.657 58.1873 87.661 58.2965 86.5557C58.2965 86.5285 58.2829 86.5148 58.2692 86.4875C59.429 85.3959 60.5342 84.2771 61.5712 83.0627L61.5849 83.0763ZM57.9008 86.8559C57.8872 87.9884 58.4466 89.0391 59.4427 89.6395C59.1834 90.2398 58.9242 90.8265 58.6376 91.4133C57.546 90.7583 56.5909 89.9396 55.8268 88.9299C55.7722 88.8617 55.704 88.8481 55.6358 88.8617C56.4135 88.2068 57.1776 87.5518 57.9145 86.8696L57.9008 86.8559ZM55.4448 88.9981C55.4448 88.9981 55.4448 89.08 55.472 89.1209C56.3044 90.1989 57.3004 91.0858 58.4602 91.7817C58.2829 92.1364 58.1191 92.4776 57.9417 92.8187C57.9145 92.7777 57.8599 92.7368 57.7917 92.7368C56.0315 92.7641 54.4351 92.1637 53.1252 91.0039C53.5345 90.6219 53.9575 90.2398 54.4078 89.8714C54.7762 89.5849 55.1036 89.2847 55.4584 88.9845L55.4448 88.9981ZM52.7977 91.2905C54.1758 92.5185 55.895 93.1734 57.7507 93.1461C57.6006 93.4054 57.4642 93.6783 57.3141 93.9375C55.1036 94.7562 52.7977 94.7426 50.6145 93.883C51.2422 92.9688 51.979 92.1091 52.7977 91.2905ZM50.4644 69.609C52.1427 69.7318 53.7801 70.0183 55.4038 70.4277C51.788 71.9968 48.063 73.1703 44.1879 73.9207C42.6597 69.9774 48.1858 69.4453 50.4781 69.609H50.4644ZM47.4353 52.2529C48.2131 57.0013 48.3359 62.9231 43.1372 65.1062C40.3128 62.7184 45.4705 54.9 47.4353 52.2529ZM45.2658 30.4896C44.8565 28.9068 44.9656 27.4195 45.3477 25.9869C45.566 27.2012 46.0436 28.3747 46.7121 29.3162C46.2482 29.7392 45.7707 30.1485 45.2658 30.5305C45.2658 30.5169 45.2658 30.5033 45.2658 30.476V30.4896ZM47.1761 28.9068C47.1761 28.9068 47.0669 29.0023 47.0123 29.0433C46.2346 27.9517 45.7297 26.4508 45.6206 25.0181C45.9617 24.0493 46.412 23.1078 46.9032 22.18C46.9987 24.0357 47.8174 25.7549 48.4996 27.4878C48.0903 27.979 47.6536 28.4565 47.1897 28.9068H47.1761ZM48.7998 27.1603C48.0493 25.3046 47.1897 23.4353 47.3262 21.4022C47.5718 20.952 47.8174 20.5017 48.063 20.065C48.1175 19.9559 48.1858 19.8467 48.2404 19.7239C48.2676 21.8389 48.7861 23.8446 49.8368 25.7003C49.5093 26.2052 49.1818 26.6964 48.7998 27.1739V27.1603ZM51.3923 22.7531C50.3826 20.7746 49.8504 18.6596 49.8095 16.4356C50.0687 15.9171 50.3416 15.3986 50.6418 14.9073C50.7919 16.8449 51.2968 18.7142 52.1564 20.488C51.9517 21.2658 51.6925 22.0299 51.3923 22.7667V22.7531ZM49.4547 17.1724C49.6048 19.3146 50.1643 21.3613 51.1876 23.2716C50.8738 23.9674 50.519 24.6497 50.1097 25.3046C49.0454 23.3671 48.5405 21.2794 48.636 19.0553C48.636 19.028 48.6224 19.0008 48.6088 18.9871C48.8817 18.4277 49.1545 17.8 49.4547 17.1724ZM52.3201 19.8058C51.5424 18.0593 51.1057 16.2309 51.0239 14.3206C51.3104 13.8976 51.6242 13.5019 51.9517 13.1608C52.1427 13.0244 52.3474 12.8879 52.5384 12.7515C52.9068 15.1257 52.825 17.5271 52.3065 19.8058H52.3201ZM40.4902 23.2988C43.3555 20.2561 46.371 17.3907 49.6458 14.8391C48.5951 16.6402 47.7901 18.7279 46.9714 20.2015C46.4392 21.1703 45.9207 22.139 45.4705 23.1078C45.3886 23.1078 45.2931 23.1351 45.2794 23.2443C45.2522 23.3671 45.2522 23.5035 45.2385 23.6263C44.2834 25.8641 43.7376 28.17 44.4062 30.7216C44.4471 30.858 44.529 30.9535 44.6245 30.9945C40.8995 33.7643 36.424 35.852 32.1669 37.5712C32.0441 37.4211 31.8394 37.3529 31.6347 37.4893C31.4301 37.6122 31.2527 37.7622 31.048 37.885C30.9389 32.0588 36.7651 27.2285 40.4765 23.3125L40.4902 23.2988ZM27.8552 19.069C27.8961 18.6869 28.0462 18.3458 28.3191 18.0729C28.5647 17.7045 28.8512 17.4043 29.1923 17.1178C29.9291 16.4765 30.7478 15.9307 31.5802 15.4122C32.7263 14.689 33.9134 14.0614 35.1278 13.4746C34.5547 14.6208 33.968 15.767 33.2448 16.8176C32.7536 17.5408 32.2215 18.2367 31.5938 18.837C31.239 19.1781 30.857 19.5193 30.4476 19.8058C29.6835 20.3379 29.6017 20.3925 28.6056 20.0241C28.4965 20.0241 28.4146 20.0105 28.3191 19.9968C28.2781 19.7239 28.0052 19.492 27.7187 19.6557C27.6778 19.5056 27.7187 19.3146 27.8688 19.069H27.8552ZM18.2356 17.0632C16.0388 15.3167 16.1343 11.0595 16.7074 8.63077C17.4033 5.7108 19.0816 3.30933 21.4831 1.56281C21.947 4.33269 22.329 7.11621 22.5474 9.92702C22.6702 11.5507 23.598 21.334 18.222 17.0632H18.2356ZM8.00209 17.9638C10.117 19.0553 11.9454 20.5153 13.6101 22.2482C15.4385 24.1585 17.8263 26.5599 18.8496 29.0842C13.651 27.5014 10.2262 22.7803 8.00209 17.9638ZM17.6898 64.3694C15.0564 64.233 12.7777 62.541 11.9045 60.0441C11.8908 60.0031 11.8499 59.9758 11.8226 59.9485C11.7135 59.2527 11.6043 58.5431 11.4951 57.8473C12.614 59.0071 13.8284 60.085 15.1929 60.9583C16.0388 61.504 17.0212 62.0498 17.9764 61.6541C17.9764 62.541 17.8809 63.4416 17.7035 64.3694H17.6898ZM17.608 64.7651C17.5807 64.8743 17.567 64.9698 17.5534 65.079C17.4169 65.6247 17.2396 66.1705 17.0758 66.7027C15.2338 66.4161 13.651 65.3655 12.6686 63.7691C12.6004 63.6599 12.4912 63.6599 12.3957 63.7008C12.2592 62.8958 12.1501 62.0771 12.0273 61.2721C13.1598 63.3051 15.2474 64.6287 17.6216 64.7788L17.608 64.7651ZM16.953 67.0984C16.7074 67.8352 16.4482 68.5584 16.148 69.2815C14.9472 69.2815 13.8557 68.7085 13.1871 67.6987C13.1461 67.6442 13.0916 67.6169 13.037 67.6032C12.846 66.4707 12.6413 65.3519 12.4639 64.2193C13.5009 65.7748 15.0973 66.7982 16.9394 67.0984H16.953ZM15.9979 69.6772C15.4385 71.0144 14.8108 72.3107 14.1286 73.5796C13.7874 71.8195 13.4736 70.0593 13.1734 68.2855C13.883 69.1314 14.8927 69.6227 15.9979 69.6772ZM17.9764 61.1902C16.0388 62.2272 12.6276 58.5022 11.5088 57.3015C11.4815 57.2605 11.4406 57.2605 11.3996 57.2605C11.2768 56.3736 11.1677 55.5004 11.0585 54.6135C12.9551 56.0462 15.111 56.9604 17.4852 57.2878C17.7717 58.5977 17.9491 59.894 17.9764 61.2039V61.1902ZM16.0661 52.4303C14.1286 52.4849 12.2729 52.021 10.6082 50.9567C10.4991 50.0971 10.3763 49.2511 10.2808 48.3915C11.5224 49.7559 13.3235 50.3973 15.1656 50.1107C15.4794 50.8748 15.7796 51.6526 16.0661 52.4303ZM16.2026 52.8397C16.4072 53.4537 16.6119 54.054 16.8029 54.6817C17.0212 55.4049 17.2123 56.128 17.376 56.8512C15.0155 56.4964 12.8596 55.5686 10.9903 54.0813C10.8811 53.2081 10.772 52.3348 10.6628 51.4615C12.3684 52.4712 14.2377 52.9352 16.2026 52.8397ZM13.228 45.9764C12.0955 46.0446 11.0449 45.608 10.3353 44.6938C10.1716 44.4891 9.88506 44.7756 10.0488 44.9803C10.8538 46.0173 12.1364 46.5494 13.4463 46.3857C14.0058 47.4773 14.5243 48.5961 15.0018 49.7287C13.1734 49.9879 11.3723 49.2511 10.2671 47.7638C10.2535 47.7365 10.2262 47.7365 10.1989 47.7229C9.91235 45.1031 9.6531 42.4697 9.43478 39.8362C10.8402 41.8011 12.1091 43.8478 13.228 45.9764ZM1.54814 64.3831C0.934127 62.2409 1.7801 59.7712 2.25766 57.6835C2.99448 54.4224 3.74494 51.1614 4.48175 47.9003C5.16399 44.8848 5.73707 41.2962 8.53423 39.5633C9.51665 51.0795 11.1131 62.5138 13.2962 73.8662C13.2553 73.8934 13.228 73.9207 13.2007 73.9617C10.2535 72.9656 7.53817 71.492 5.21857 69.3498C3.77223 68.0262 2.09393 66.307 1.54814 64.3831ZM20.8281 102.82C20.6098 102.397 20.487 101.961 20.4461 101.497C20.3233 100.828 20.3233 100.16 20.3642 99.4909C20.4597 98.1538 20.8418 96.9394 21.4285 95.7659C21.947 96.6392 22.4246 97.5261 22.8066 98.4812C23.0386 99.0816 23.2432 99.682 23.4206 100.296C23.5298 100.705 23.6389 101.115 23.7208 101.538C24.1301 102.425 23.8027 102.943 22.7384 103.107C21.9333 104.048 21.292 103.953 20.8281 102.82ZM6.88322 96.9939C5.73707 95.5885 4.48175 94.3332 3.11728 93.1734C5.36866 93.5009 7.67462 94.0058 9.54394 95.2884C12.0273 97.0076 12.6686 100.05 14.4287 102.343C14.456 102.384 14.4833 102.397 14.5243 102.425C14.5106 102.425 14.4833 102.425 14.4697 102.425C14.1831 102.234 13.8966 102.056 13.6237 101.865C13.2553 101.62 12.9005 102.029 12.9961 102.37C10.3217 101.838 8.58881 99.0407 6.91051 96.9667L6.88322 96.9939ZM9.78955 110.543C9.08002 109.11 9.40749 108.797 10.7993 109.588C11.6589 109.82 12.5185 110.066 13.3918 110.298C14.688 110.652 15.9842 111.007 17.2668 111.362C18.3994 111.676 24.1847 112.767 26.2724 113.859C21.4421 114.241 10.1034 115.455 9.78955 110.543ZM10.7856 137.764C10.3626 137.464 9.92599 137.137 9.47572 136.809C9.47572 136.809 9.48936 136.809 9.50301 136.809C11.577 135.186 13.0916 133.071 14.0467 130.642C14.9063 131.624 15.6841 132.648 16.3663 133.739C15.9842 135.95 14.7699 137.86 12.9005 139.129C12.1774 138.692 11.4678 138.256 10.7856 137.778V137.764ZM16.6665 134.285C17.185 135.186 17.6489 136.127 18.031 137.123C18.031 138.624 17.3487 140.002 16.1207 140.875C16.0661 140.916 16.0525 140.957 16.0388 141.012C15.1383 140.439 14.2104 139.893 13.2689 139.347C15.0018 138.119 16.1889 136.345 16.6528 134.285H16.6665ZM18.3584 138.119C18.8906 139.797 19.2044 141.599 19.2726 143.563C18.3994 142.663 17.4033 141.912 16.3527 141.23C17.4169 140.466 18.1128 139.361 18.3584 138.119ZM13.7465 130.314C12.8187 132.77 11.3041 134.885 9.21647 136.523C9.18918 136.536 9.18918 136.564 9.18918 136.591C8.35685 135.95 7.53817 135.254 6.76042 134.49C9.2574 133.166 10.9493 130.806 11.4133 128.022C12.2456 128.759 13.0233 129.523 13.7465 130.314ZM6.97874 124.952C6.1737 126.33 4.72736 127.162 3.13093 127.162C3.0627 127.162 3.02177 127.19 2.98083 127.231C2.88532 126.453 2.8171 125.675 2.78981 124.87C3.66307 124.652 4.38624 124.147 4.8638 123.342C4.87745 123.315 4.8638 123.301 4.8638 123.274C6.31014 124.161 7.70191 125.102 9.02544 126.098C7.98844 128.363 6.25557 129.85 4.14063 131.147C3.92232 130.737 3.71765 130.314 3.56756 129.878C3.30831 129.141 3.13093 128.35 3.00812 127.517C3.03541 127.544 3.0627 127.558 3.11728 127.558C4.8638 127.558 6.43295 126.658 7.31985 125.143C7.4563 124.911 7.10154 124.706 6.96509 124.938L6.97874 124.952ZM9.36656 126.344C9.95328 126.794 10.5127 127.244 11.0585 127.708C10.6765 130.519 8.97086 132.88 6.46024 134.176C5.64155 133.343 4.93203 132.443 4.37259 131.488C6.5421 130.151 8.28863 128.622 9.36656 126.344ZM4.57727 123.083C4.57727 123.083 4.52269 123.096 4.50904 123.124C4.11335 123.792 3.49933 124.242 2.77616 124.447C2.74887 123.601 2.72158 122.769 2.69429 121.964C3.32195 122.332 3.94961 122.701 4.57727 123.083ZM3.04906 138.31C0.265536 133.507 0.429272 127.94 1.87561 122.769C2.14851 127.285 2.47598 131.283 5.94174 134.817C7.81106 136.727 9.96693 138.365 12.2456 139.77C14.7835 141.326 17.4306 142.581 19.3272 144.928C19.3272 144.955 19.3272 144.969 19.3272 144.996C19.259 145.105 19.2453 145.242 19.2863 145.378C12.8733 145.842 6.48753 144.259 3.04906 138.324V138.31ZM61.1346 125.634C62.1443 123.847 62.5946 121.841 62.4309 119.74C63.6452 119.248 64.8733 118.798 66.1286 118.389C66.2787 119.494 66.2514 120.586 66.0331 121.664C64.4639 123.055 62.8266 124.379 61.1346 125.634ZM46.3574 133.303C45.7979 132.279 45.7024 131.106 46.1664 130.028C46.18 129.987 46.1664 129.932 46.1664 129.891C46.9305 129.209 47.7082 128.541 48.4996 127.899C48.2676 129.523 48.254 131.147 48.486 132.784C47.7901 133.002 47.0805 133.18 46.3574 133.316V133.303ZM48.8817 132.648C48.6497 130.928 48.6906 129.236 48.9772 127.531C50.096 126.644 51.2558 125.812 52.4429 125.02C51.5424 127.108 51.133 129.318 50.8056 131.57C50.7783 131.747 50.942 131.829 51.0648 131.815C50.3553 132.129 49.6185 132.416 48.8817 132.648ZM51.1876 131.679C51.5424 129.25 51.9654 126.849 53.0433 124.624C53.7938 124.133 54.5579 123.669 55.322 123.219C53.9166 125.075 54.1076 128.09 53.9166 130.26C53.9166 130.314 53.9302 130.342 53.9575 130.369C53.0296 130.887 52.0882 131.365 51.1194 131.802C51.1467 131.774 51.174 131.747 51.1876 131.692V131.679ZM56.6046 122.564C56.6046 122.564 56.6728 122.496 56.6864 122.441C57.4915 122.005 58.3102 121.582 59.1288 121.186C57.7916 123.588 57.7916 126.849 55.6221 128.636C55.5403 128.568 55.3902 128.541 55.322 128.677C55.2401 128.8 55.1719 128.936 55.09 129.059C55.0627 129.086 55.0354 129.114 55.0354 129.141C54.858 129.427 54.6807 129.714 54.5169 130.001C54.5169 130.014 54.5169 130.041 54.5169 130.055C54.4623 130.082 54.3941 130.123 54.3395 130.151C54.5442 127.695 54.2167 123.997 56.6046 122.578V122.564ZM55.4311 129.277C58.3374 127.367 57.9281 123.478 59.8111 120.859C60.5342 120.517 61.2711 120.204 62.0215 119.89C62.1716 122.182 61.5849 124.365 60.2613 126.262C59.6883 126.671 59.1152 127.108 58.5285 127.504C57.4369 128.24 56.3453 128.95 55.2264 129.618C55.2947 129.509 55.3629 129.387 55.4311 129.277ZM66.5106 118.252C67.916 117.802 69.3351 117.42 70.7814 117.079C69.4033 118.512 67.9843 119.89 66.5106 121.213C66.6471 120.231 66.6607 119.248 66.5106 118.252ZM45.6479 130.355C45.3613 131.379 45.4432 132.416 45.9207 133.371C44.7882 133.562 43.6148 133.63 42.4004 133.589C43.4374 132.457 44.5153 131.392 45.6342 130.355H45.6479ZM62.5809 133.112C59.7701 134.517 55.8268 136.018 52.6612 136.072C50.0005 136.113 47.0942 135.213 44.3789 134.449C49.3729 134.108 53.6846 131.706 57.9827 128.923C60.7798 127.108 63.4133 125.088 65.9239 122.933C66.0194 122.96 66.1286 122.933 66.1695 122.796C66.1695 122.755 66.1832 122.728 66.1968 122.687C67.8887 121.213 69.5125 119.658 71.0816 118.034C70.1811 124.12 68.5846 130.11 62.5809 133.112Z" fill="#545454"/>
</svg>
