<svg width="93" height="115" viewBox="0 0 93 115" fill="none" xmlns="http://www.w3.org/2000/svg">
<path d="M57.813 53.6126C57.7897 53.2164 57.3353 53.1232 57.1023 53.4261C53.0478 58.7622 47.2457 64.7158 44.8456 71.4151C45.1718 59.1351 45.0437 46.8085 44.0417 34.5634C44.1466 34.5401 44.2631 34.5168 44.3679 34.4818C47.3039 33.3867 46.4185 29.0059 45.5447 26.2097C49.3895 24.7767 52.9779 22.1669 55.5062 18.9163C57.3703 16.5046 54.7489 13.3122 52.8847 11.4947C53.5838 10.0733 53.875 8.65187 52.8032 7.30037C51.9293 6.20519 48.5622 2.32545 47.502 4.80709C47.4554 4.71388 47.3739 4.64398 47.2806 4.60902C47.0942 2.47691 45.6029 1.30018 43.6339 0.496268C42.3989 -0.00471907 40.628 -0.563961 40.3833 1.21862C40.3484 1.45164 40.3833 1.73126 40.4416 2.02253C39.8823 2.30215 39.3231 2.58177 38.7522 2.86139C38.5658 2.70993 38.2163 2.72158 38.1231 3.02451C37.5988 4.59737 37.0162 6.22849 36.5269 7.88292C33.02 7.56834 27.3111 10.9238 28.0684 14.955C29.1869 20.9552 35.0006 23.6582 39.6959 26.3262C39.8707 26.4311 40.0455 26.3612 40.1503 26.2447C40.127 26.3379 40.1037 26.4078 40.0921 26.501C40.0105 26.5592 39.9523 26.6525 39.9523 26.7923C40.0688 28.9593 39.6027 31.4759 41.0707 33.2934C41.63 33.9809 42.4339 34.5051 43.2961 34.5867C43.8203 40.9481 44.1116 47.3327 44.2165 53.7174C42.7951 46.9017 36.8881 42.4161 31.2258 38.6761C30.818 38.4082 30.4335 39.0606 30.8413 39.3286C31.051 39.4684 31.2724 39.6199 31.4821 39.7597C32.7637 43.1151 34.0802 46.5172 36.189 49.4532C38.2512 52.331 41.094 54.3815 43.9602 56.3971C44.0417 56.4554 44.1466 56.4554 44.2398 56.4321C44.2864 62.1876 44.2165 67.9431 44.0417 73.687C44.0417 73.9899 44.0184 74.2928 44.0068 74.5958C43.8902 75.2366 43.8087 75.889 43.7737 76.5415C43.7737 76.6929 43.832 76.7861 43.9252 76.8444C43.4825 89.2292 42.6203 101.742 40.0804 113.871C39.9756 114.349 40.7096 114.547 40.8144 114.069C43.2145 102.581 44.1233 90.7555 44.601 79.0231C44.6243 79.0114 44.6476 78.9998 44.6709 78.9765C51.3934 71.951 58.349 63.9702 57.813 53.6126ZM43.7271 55.1505C43.0863 55.3951 40.628 53.03 40.2435 52.7038C38.8454 51.5154 37.6221 50.1872 36.5619 48.6842C34.8142 46.191 33.6491 43.3365 32.5656 40.5053C34.7793 42.0083 36.9463 43.5928 38.8105 45.5269C39.393 46.1327 45.3583 54.533 43.7155 55.1505H43.7271ZM42.1426 32.0585C42.1426 32.0585 42.1077 32.0585 42.0844 32.0585C42.0261 32.0585 41.9795 31.872 41.9329 31.6274C41.9912 31.7788 42.0727 31.9186 42.1426 32.0701V32.0585ZM40.5231 25.3476C40.5231 25.3476 40.5231 25.301 40.5115 25.2777C40.5348 25.2777 40.5581 25.2544 40.5931 25.2427C40.5698 25.2777 40.5581 25.3126 40.5348 25.3476H40.5231ZM52.8498 20.5824C50.6361 22.7611 48.2127 24.3922 45.3117 25.4757C45.2301 25.2311 45.1485 25.0097 45.0786 24.8116C45.1602 24.6718 45.1485 24.4737 45.032 24.3339C45.2767 23.9495 45.5097 23.5766 45.7194 23.1805C45.7544 23.1688 45.7777 23.1572 45.801 23.1222C47.1874 20.8037 49.238 19.2076 51.3701 17.623C52.5934 16.7143 53.7469 15.8055 54.3061 14.3841C54.5857 14.8268 54.8304 15.2929 55.0052 15.7822C55.7974 18.0192 54.2945 19.1726 52.8498 20.5824ZM54.0615 14.0229C53.3274 16.2366 50.9856 17.4017 49.2613 18.7881C48.236 19.6153 47.3039 20.5008 46.5 21.5144C46.768 20.8736 46.9894 20.2212 47.1758 19.5571C47.3389 19.6503 47.5719 19.6503 47.7117 19.4406C49.2846 17.0521 51.1021 14.687 52.5002 12.1821C53.0595 12.7413 53.5954 13.3588 54.0498 14.0229H54.0615ZM51.3118 12.6132C50.0419 14.5705 48.7487 16.5046 47.4554 18.4503C47.8632 16.6327 48.038 14.7569 48.0496 12.8695C49.3778 11.0636 50.438 9.11791 51.2303 7.0091C52.407 8.83829 52.5002 10.7607 51.3118 12.6132ZM47.9797 5.87897C48.3059 3.68861 50.4846 6.01878 50.9973 6.65957C50.2749 8.67517 49.2846 10.5393 48.0613 12.2753C48.0613 10.2364 47.8865 8.17419 47.6651 6.13529C47.8166 6.13529 47.9564 6.06538 47.9797 5.86732V5.87897ZM46.5466 4.93525C46.5466 5.12166 46.6748 5.23817 46.8146 5.28477C47.1059 7.95282 47.3622 10.6558 47.2923 13.3239C47.269 13.3588 47.2457 13.3938 47.2107 13.4287C47.1292 13.5336 47.1874 13.6617 47.2806 13.7083C47.1525 17.3784 46.3835 20.9435 44.2398 24.1592C44.0534 24.1592 43.8553 24.1475 43.6572 24.1475C43.7155 24.0893 43.7621 24.0077 43.7737 23.9029C43.8203 23.3902 43.832 22.8659 43.8553 22.3533C43.8902 22.33 43.9252 22.3067 43.9369 22.2601C45.8243 15.5608 45.2767 8.69848 44.4728 1.87107C45.6029 2.98955 46.535 4.58572 46.5466 4.93525ZM41.2572 1.80116C41.9096 0.263251 43.0397 0.601126 44.1 1.49824C44.8689 7.90622 45.4165 14.3491 43.9602 20.6756C44.0534 17.4716 43.8902 14.2676 43.4242 11.0869C43.1213 8.98975 42.7019 6.90424 42.1543 4.85369C42.0261 4.37601 41.0474 2.2905 41.2455 1.80116H41.2572ZM41.2921 4.53912C41.8047 6.41491 42.2242 8.314 42.5387 10.2364C43.2727 14.7569 43.3893 19.3241 43.0281 23.8912C43.0281 24.0077 43.0514 24.0893 43.1213 24.1475C42.7834 24.1708 42.4572 24.2291 42.1426 24.3106C41.5717 17.2852 41.1872 10.2014 39.428 3.36238C39.8357 3.15267 40.2552 2.9546 40.663 2.74488C40.8843 3.39733 41.1756 4.06143 41.3038 4.53912H41.2921ZM38.7406 3.51384C38.8454 3.5721 38.9619 3.58375 39.0901 3.51384C40.8377 10.3412 41.2222 17.4017 41.7814 24.3922C41.4086 24.5203 41.0707 24.7301 40.7911 24.998C40.8261 24.9048 40.8144 24.8116 40.7562 24.7068C38.9386 21.5028 36.4686 18.1939 36.2939 14.3957C36.1191 10.6675 37.5522 6.99745 38.7289 3.51384H38.7406ZM36.3055 8.62857C35.7113 10.8655 35.3385 13.1375 35.6298 15.421C36.0492 18.66 38.0299 21.561 39.6726 24.3572C38.3561 23.0989 36.6784 22.2484 35.4667 20.8037C33.0549 17.926 31.0626 14.687 30.7131 10.8772C32.1811 9.53734 34.4297 8.54702 36.3055 8.62857ZM40.0688 25.6621C36.69 23.7397 32.9967 22.1902 30.7947 18.858C29.2102 16.458 27.7888 14.1045 30.2238 11.3549C30.282 11.2966 30.3403 11.2384 30.3985 11.1801C30.7131 13.9647 31.8316 16.3997 33.4278 18.7182C34.1501 19.7551 34.9307 20.8037 35.7929 21.7358C37.0861 23.1339 39.0435 23.9262 40.1853 25.4291C40.2552 25.5107 40.3484 25.5107 40.4299 25.4757C40.36 25.6039 40.2785 25.7204 40.2319 25.8602C40.2086 25.7903 40.162 25.7204 40.0688 25.6621ZM44.7641 74.6191C46.0923 67.1858 52.5119 60.4982 57.0674 54.6961C57.0674 64.0634 50.8342 71.4034 44.6476 77.9163C44.6942 76.8211 44.7291 75.7259 44.7641 74.6307V74.6191Z" fill="white"/>
<path d="M57.813 53.6126C57.7897 53.2164 57.3353 53.1232 57.1023 53.4261C53.0478 58.7622 47.2457 64.7158 44.8456 71.4151C45.1718 59.1351 45.0437 46.8085 44.0417 34.5634C44.1466 34.5401 44.2631 34.5168 44.3679 34.4818C47.3039 33.3867 46.4185 29.0059 45.5447 26.2097C49.3895 24.7767 52.9779 22.1669 55.5062 18.9163C57.3703 16.5046 54.7489 13.3122 52.8847 11.4947C53.5838 10.0733 53.875 8.65187 52.8032 7.30037C51.9293 6.20519 48.5622 2.32545 47.502 4.80709C47.4554 4.71388 47.3739 4.64398 47.2806 4.60902C47.0942 2.47691 45.6029 1.30018 43.6339 0.496268C42.3989 -0.00471907 40.628 -0.563961 40.3833 1.21862C40.3484 1.45164 40.3833 1.73126 40.4416 2.02253C39.8823 2.30215 39.3231 2.58177 38.7522 2.86139C38.5658 2.70993 38.2163 2.72158 38.1231 3.02451C37.5988 4.59737 37.0162 6.22849 36.5269 7.88292C33.02 7.56834 27.3111 10.9238 28.0684 14.955C29.1869 20.9552 35.0006 23.6582 39.6959 26.3262C39.8707 26.4311 40.0455 26.3612 40.1503 26.2447C40.127 26.3379 40.1037 26.4078 40.0921 26.501C40.0105 26.5592 39.9523 26.6525 39.9523 26.7923C40.0688 28.9593 39.6027 31.4759 41.0707 33.2934C41.63 33.9809 42.4339 34.5051 43.2961 34.5867C43.8203 40.9481 44.1116 47.3327 44.2165 53.7174C42.7951 46.9017 36.8881 42.4161 31.2258 38.6761C30.818 38.4082 30.4335 39.0606 30.8413 39.3286C31.051 39.4684 31.2724 39.6199 31.4821 39.7597C32.7637 43.1151 34.0802 46.5172 36.189 49.4532C38.2512 52.331 41.094 54.3815 43.9602 56.3971C44.0417 56.4554 44.1466 56.4554 44.2398 56.4321C44.2864 62.1876 44.2165 67.9431 44.0417 73.687C44.0417 73.9899 44.0184 74.2928 44.0068 74.5958C43.8902 75.2366 43.8087 75.889 43.7737 76.5415C43.7737 76.6929 43.832 76.7861 43.9252 76.8444C43.4825 89.2292 42.6203 101.742 40.0804 113.871C39.9756 114.349 40.7096 114.547 40.8144 114.069C43.2145 102.581 44.1233 90.7555 44.601 79.0231C44.6243 79.0114 44.6476 78.9998 44.6709 78.9765C51.3934 71.951 58.349 63.9702 57.813 53.6126ZM43.7271 55.1505C43.0863 55.3951 40.628 53.03 40.2435 52.7038C38.8454 51.5154 37.6221 50.1872 36.5619 48.6842C34.8142 46.191 33.6491 43.3365 32.5656 40.5053C34.7793 42.0083 36.9463 43.5928 38.8105 45.5269C39.393 46.1327 45.3583 54.533 43.7155 55.1505H43.7271ZM42.1426 32.0585C42.1426 32.0585 42.1077 32.0585 42.0844 32.0585C42.0261 32.0585 41.9795 31.872 41.9329 31.6274C41.9912 31.7788 42.0727 31.9186 42.1426 32.0701V32.0585ZM40.5231 25.3476C40.5231 25.3476 40.5231 25.301 40.5115 25.2777C40.5348 25.2777 40.5581 25.2544 40.5931 25.2427C40.5698 25.2777 40.5581 25.3126 40.5348 25.3476H40.5231ZM52.8498 20.5824C50.6361 22.7611 48.2127 24.3922 45.3117 25.4757C45.2301 25.2311 45.1485 25.0097 45.0786 24.8116C45.1602 24.6718 45.1485 24.4737 45.032 24.3339C45.2767 23.9495 45.5097 23.5766 45.7194 23.1805C45.7544 23.1688 45.7777 23.1572 45.801 23.1222C47.1874 20.8037 49.238 19.2076 51.3701 17.623C52.5934 16.7143 53.7469 15.8055 54.3061 14.3841C54.5857 14.8268 54.8304 15.2929 55.0052 15.7822C55.7974 18.0192 54.2945 19.1726 52.8498 20.5824ZM54.0615 14.0229C53.3274 16.2366 50.9856 17.4017 49.2613 18.7881C48.236 19.6153 47.3039 20.5008 46.5 21.5144C46.768 20.8736 46.9894 20.2212 47.1758 19.5571C47.3389 19.6503 47.5719 19.6503 47.7117 19.4406C49.2846 17.0521 51.1021 14.687 52.5002 12.1821C53.0595 12.7413 53.5954 13.3588 54.0498 14.0229H54.0615ZM51.3118 12.6132C50.0419 14.5705 48.7487 16.5046 47.4554 18.4503C47.8632 16.6327 48.038 14.7569 48.0496 12.8695C49.3778 11.0636 50.438 9.11791 51.2303 7.0091C52.407 8.83829 52.5002 10.7607 51.3118 12.6132ZM47.9797 5.87897C48.3059 3.68861 50.4846 6.01878 50.9973 6.65957C50.2749 8.67517 49.2846 10.5393 48.0613 12.2753C48.0613 10.2364 47.8865 8.17419 47.6651 6.13529C47.8166 6.13529 47.9564 6.06538 47.9797 5.86732V5.87897ZM46.5466 4.93525C46.5466 5.12166 46.6748 5.23817 46.8146 5.28477C47.1059 7.95282 47.3622 10.6558 47.2923 13.3239C47.269 13.3588 47.2457 13.3938 47.2107 13.4287C47.1292 13.5336 47.1874 13.6617 47.2806 13.7083C47.1525 17.3784 46.3835 20.9435 44.2398 24.1592C44.0534 24.1592 43.8553 24.1475 43.6572 24.1475C43.7155 24.0893 43.7621 24.0077 43.7737 23.9029C43.8203 23.3902 43.832 22.8659 43.8553 22.3533C43.8902 22.33 43.9252 22.3067 43.9369 22.2601C45.8243 15.5608 45.2767 8.69848 44.4728 1.87107C45.6029 2.98955 46.535 4.58572 46.5466 4.93525ZM41.2572 1.80116C41.9096 0.263251 43.0397 0.601126 44.1 1.49824C44.8689 7.90622 45.4165 14.3491 43.9602 20.6756C44.0534 17.4716 43.8902 14.2676 43.4242 11.0869C43.1213 8.98975 42.7019 6.90424 42.1543 4.85369C42.0261 4.37601 41.0474 2.2905 41.2455 1.80116H41.2572ZM41.2921 4.53912C41.8047 6.41491 42.2242 8.314 42.5387 10.2364C43.2727 14.7569 43.3893 19.3241 43.0281 23.8912C43.0281 24.0077 43.0514 24.0893 43.1213 24.1475C42.7834 24.1708 42.4572 24.2291 42.1426 24.3106C41.5717 17.2852 41.1872 10.2014 39.428 3.36238C39.8357 3.15267 40.2552 2.9546 40.663 2.74488C40.8843 3.39733 41.1756 4.06143 41.3038 4.53912H41.2921ZM38.7406 3.51384C38.8454 3.5721 38.9619 3.58375 39.0901 3.51384C40.8377 10.3412 41.2222 17.4017 41.7814 24.3922C41.4086 24.5203 41.0707 24.7301 40.7911 24.998C40.8261 24.9048 40.8144 24.8116 40.7562 24.7068C38.9386 21.5028 36.4686 18.1939 36.2939 14.3957C36.1191 10.6675 37.5522 6.99745 38.7289 3.51384H38.7406ZM36.3055 8.62857C35.7113 10.8655 35.3385 13.1375 35.6298 15.421C36.0492 18.66 38.0299 21.561 39.6726 24.3572C38.3561 23.0989 36.6784 22.2484 35.4667 20.8037C33.0549 17.926 31.0626 14.687 30.7131 10.8772C32.1811 9.53734 34.4297 8.54702 36.3055 8.62857ZM40.0688 25.6621C36.69 23.7397 32.9967 22.1902 30.7947 18.858C29.2102 16.458 27.7888 14.1045 30.2238 11.3549C30.282 11.2966 30.3403 11.2384 30.3985 11.1801C30.7131 13.9647 31.8316 16.3997 33.4278 18.7182C34.1501 19.7551 34.9307 20.8037 35.7929 21.7358C37.0861 23.1339 39.0435 23.9262 40.1853 25.4291C40.2552 25.5107 40.3484 25.5107 40.4299 25.4757C40.36 25.6039 40.2785 25.7204 40.2319 25.8602C40.2086 25.7903 40.162 25.7204 40.0688 25.6621ZM44.7641 74.6191C46.0923 67.1858 52.5119 60.4982 57.0674 54.6961C57.0674 64.0634 50.8342 71.4034 44.6476 77.9163C44.6942 76.8211 44.7291 75.7259 44.7641 74.6307V74.6191Z" fill="white"/>
<path d="M57.813 53.6126C57.7897 53.2164 57.3353 53.1232 57.1023 53.4261C53.0478 58.7622 47.2457 64.7158 44.8456 71.4151C45.1718 59.1351 45.0437 46.8085 44.0417 34.5634C44.1466 34.5401 44.2631 34.5168 44.3679 34.4818C47.3039 33.3867 46.4185 29.0059 45.5447 26.2097C49.3895 24.7767 52.9779 22.1669 55.5062 18.9163C57.3703 16.5046 54.7489 13.3122 52.8847 11.4947C53.5838 10.0733 53.875 8.65187 52.8032 7.30037C51.9293 6.20519 48.5622 2.32545 47.502 4.80709C47.4554 4.71388 47.3739 4.64398 47.2806 4.60902C47.0942 2.47691 45.6029 1.30018 43.6339 0.496268C42.3989 -0.00471907 40.628 -0.563961 40.3833 1.21862C40.3484 1.45164 40.3833 1.73126 40.4416 2.02253C39.8823 2.30215 39.3231 2.58177 38.7522 2.86139C38.5658 2.70993 38.2163 2.72158 38.1231 3.02451C37.5988 4.59737 37.0162 6.22849 36.5269 7.88292C33.02 7.56834 27.3111 10.9238 28.0684 14.955C29.1869 20.9552 35.0006 23.6582 39.6959 26.3262C39.8707 26.4311 40.0455 26.3612 40.1503 26.2447C40.127 26.3379 40.1037 26.4078 40.0921 26.501C40.0105 26.5592 39.9523 26.6525 39.9523 26.7923C40.0688 28.9593 39.6027 31.4759 41.0707 33.2934C41.63 33.9809 42.4339 34.5051 43.2961 34.5867C43.8203 40.9481 44.1116 47.3327 44.2165 53.7174C42.7951 46.9017 36.8881 42.4161 31.2258 38.6761C30.818 38.4082 30.4335 39.0606 30.8413 39.3286C31.051 39.4684 31.2724 39.6199 31.4821 39.7597C32.7637 43.1151 34.0802 46.5172 36.189 49.4532C38.2512 52.331 41.094 54.3815 43.9602 56.3971C44.0417 56.4554 44.1466 56.4554 44.2398 56.4321C44.2864 62.1876 44.2165 67.9431 44.0417 73.687C44.0417 73.9899 44.0184 74.2928 44.0068 74.5958C43.8902 75.2366 43.8087 75.889 43.7737 76.5415C43.7737 76.6929 43.832 76.7861 43.9252 76.8444C43.4825 89.2292 42.6203 101.742 40.0804 113.871C39.9756 114.349 40.7096 114.547 40.8144 114.069C43.2145 102.581 44.1233 90.7555 44.601 79.0231C44.6243 79.0114 44.6476 78.9998 44.6709 78.9765C51.3934 71.951 58.349 63.9702 57.813 53.6126ZM43.7271 55.1505C43.0863 55.3951 40.628 53.03 40.2435 52.7038C38.8454 51.5154 37.6221 50.1872 36.5619 48.6842C34.8142 46.191 33.6491 43.3365 32.5656 40.5053C34.7793 42.0083 36.9463 43.5928 38.8105 45.5269C39.393 46.1327 45.3583 54.533 43.7155 55.1505H43.7271ZM42.1426 32.0585C42.1426 32.0585 42.1077 32.0585 42.0844 32.0585C42.0261 32.0585 41.9795 31.872 41.9329 31.6274C41.9912 31.7788 42.0727 31.9186 42.1426 32.0701V32.0585ZM40.5231 25.3476C40.5231 25.3476 40.5231 25.301 40.5115 25.2777C40.5348 25.2777 40.5581 25.2544 40.5931 25.2427C40.5698 25.2777 40.5581 25.3126 40.5348 25.3476H40.5231ZM52.8498 20.5824C50.6361 22.7611 48.2127 24.3922 45.3117 25.4757C45.2301 25.2311 45.1485 25.0097 45.0786 24.8116C45.1602 24.6718 45.1485 24.4737 45.032 24.3339C45.2767 23.9495 45.5097 23.5766 45.7194 23.1805C45.7544 23.1688 45.7777 23.1572 45.801 23.1222C47.1874 20.8037 49.238 19.2076 51.3701 17.623C52.5934 16.7143 53.7469 15.8055 54.3061 14.3841C54.5857 14.8268 54.8304 15.2929 55.0052 15.7822C55.7974 18.0192 54.2945 19.1726 52.8498 20.5824ZM54.0615 14.0229C53.3274 16.2366 50.9856 17.4017 49.2613 18.7881C48.236 19.6153 47.3039 20.5008 46.5 21.5144C46.768 20.8736 46.9894 20.2212 47.1758 19.5571C47.3389 19.6503 47.5719 19.6503 47.7117 19.4406C49.2846 17.0521 51.1021 14.687 52.5002 12.1821C53.0595 12.7413 53.5954 13.3588 54.0498 14.0229H54.0615ZM51.3118 12.6132C50.0419 14.5705 48.7487 16.5046 47.4554 18.4503C47.8632 16.6327 48.038 14.7569 48.0496 12.8695C49.3778 11.0636 50.438 9.11791 51.2303 7.0091C52.407 8.83829 52.5002 10.7607 51.3118 12.6132ZM47.9797 5.87897C48.3059 3.68861 50.4846 6.01878 50.9973 6.65957C50.2749 8.67517 49.2846 10.5393 48.0613 12.2753C48.0613 10.2364 47.8865 8.17419 47.6651 6.13529C47.8166 6.13529 47.9564 6.06538 47.9797 5.86732V5.87897ZM46.5466 4.93525C46.5466 5.12166 46.6748 5.23817 46.8146 5.28477C47.1059 7.95282 47.3622 10.6558 47.2923 13.3239C47.269 13.3588 47.2457 13.3938 47.2107 13.4287C47.1292 13.5336 47.1874 13.6617 47.2806 13.7083C47.1525 17.3784 46.3835 20.9435 44.2398 24.1592C44.0534 24.1592 43.8553 24.1475 43.6572 24.1475C43.7155 24.0893 43.7621 24.0077 43.7737 23.9029C43.8203 23.3902 43.832 22.8659 43.8553 22.3533C43.8902 22.33 43.9252 22.3067 43.9369 22.2601C45.8243 15.5608 45.2767 8.69848 44.4728 1.87107C45.6029 2.98955 46.535 4.58572 46.5466 4.93525ZM41.2572 1.80116C41.9096 0.263251 43.0397 0.601126 44.1 1.49824C44.8689 7.90622 45.4165 14.3491 43.9602 20.6756C44.0534 17.4716 43.8902 14.2676 43.4242 11.0869C43.1213 8.98975 42.7019 6.90424 42.1543 4.85369C42.0261 4.37601 41.0474 2.2905 41.2455 1.80116H41.2572ZM41.2921 4.53912C41.8047 6.41491 42.2242 8.314 42.5387 10.2364C43.2727 14.7569 43.3893 19.3241 43.0281 23.8912C43.0281 24.0077 43.0514 24.0893 43.1213 24.1475C42.7834 24.1708 42.4572 24.2291 42.1426 24.3106C41.5717 17.2852 41.1872 10.2014 39.428 3.36238C39.8357 3.15267 40.2552 2.9546 40.663 2.74488C40.8843 3.39733 41.1756 4.06143 41.3038 4.53912H41.2921ZM38.7406 3.51384C38.8454 3.5721 38.9619 3.58375 39.0901 3.51384C40.8377 10.3412 41.2222 17.4017 41.7814 24.3922C41.4086 24.5203 41.0707 24.7301 40.7911 24.998C40.8261 24.9048 40.8144 24.8116 40.7562 24.7068C38.9386 21.5028 36.4686 18.1939 36.2939 14.3957C36.1191 10.6675 37.5522 6.99745 38.7289 3.51384H38.7406ZM36.3055 8.62857C35.7113 10.8655 35.3385 13.1375 35.6298 15.421C36.0492 18.66 38.0299 21.561 39.6726 24.3572C38.3561 23.0989 36.6784 22.2484 35.4667 20.8037C33.0549 17.926 31.0626 14.687 30.7131 10.8772C32.1811 9.53734 34.4297 8.54702 36.3055 8.62857ZM40.0688 25.6621C36.69 23.7397 32.9967 22.1902 30.7947 18.858C29.2102 16.458 27.7888 14.1045 30.2238 11.3549C30.282 11.2966 30.3403 11.2384 30.3985 11.1801C30.7131 13.9647 31.8316 16.3997 33.4278 18.7182C34.1501 19.7551 34.9307 20.8037 35.7929 21.7358C37.0861 23.1339 39.0435 23.9262 40.1853 25.4291C40.2552 25.5107 40.3484 25.5107 40.4299 25.4757C40.36 25.6039 40.2785 25.7204 40.2319 25.8602C40.2086 25.7903 40.162 25.7204 40.0688 25.6621ZM44.7641 74.6191C46.0923 67.1858 52.5119 60.4982 57.0674 54.6961C57.0674 64.0634 50.8342 71.4034 44.6476 77.9163C44.6942 76.8211 44.7291 75.7259 44.7641 74.6307V74.6191Z" fill="white"/>
<path d="M57.813 53.6126C57.7897 53.2164 57.3353 53.1232 57.1023 53.4261C53.0478 58.7622 47.2457 64.7158 44.8456 71.4151C45.1718 59.1351 45.0437 46.8085 44.0417 34.5634C44.1466 34.5401 44.2631 34.5168 44.3679 34.4818C47.3039 33.3867 46.4185 29.0059 45.5447 26.2097C49.3895 24.7767 52.9779 22.1669 55.5062 18.9163C57.3703 16.5046 54.7489 13.3122 52.8847 11.4947C53.5838 10.0733 53.875 8.65187 52.8032 7.30037C51.9293 6.20519 48.5622 2.32545 47.502 4.80709C47.4554 4.71388 47.3739 4.64398 47.2806 4.60902C47.0942 2.47691 45.6029 1.30018 43.6339 0.496268C42.3989 -0.00471907 40.628 -0.563961 40.3833 1.21862C40.3484 1.45164 40.3833 1.73126 40.4416 2.02253C39.8823 2.30215 39.3231 2.58177 38.7522 2.86139C38.5658 2.70993 38.2163 2.72158 38.1231 3.02451C37.5988 4.59737 37.0162 6.22849 36.5269 7.88292C33.02 7.56834 27.3111 10.9238 28.0684 14.955C29.1869 20.9552 35.0006 23.6582 39.6959 26.3262C39.8707 26.4311 40.0455 26.3612 40.1503 26.2447C40.127 26.3379 40.1037 26.4078 40.0921 26.501C40.0105 26.5592 39.9523 26.6525 39.9523 26.7923C40.0688 28.9593 39.6027 31.4759 41.0707 33.2934C41.63 33.9809 42.4339 34.5051 43.2961 34.5867C43.8203 40.9481 44.1116 47.3327 44.2165 53.7174C42.7951 46.9017 36.8881 42.4161 31.2258 38.6761C30.818 38.4082 30.4335 39.0606 30.8413 39.3286C31.051 39.4684 31.2724 39.6199 31.4821 39.7597C32.7637 43.1151 34.0802 46.5172 36.189 49.4532C38.2512 52.331 41.094 54.3815 43.9602 56.3971C44.0417 56.4554 44.1466 56.4554 44.2398 56.4321C44.2864 62.1876 44.2165 67.9431 44.0417 73.687C44.0417 73.9899 44.0184 74.2928 44.0068 74.5958C43.8902 75.2366 43.8087 75.889 43.7737 76.5415C43.7737 76.6929 43.832 76.7861 43.9252 76.8444C43.4825 89.2292 42.6203 101.742 40.0804 113.871C39.9756 114.349 40.7096 114.547 40.8144 114.069C43.2145 102.581 44.1233 90.7555 44.601 79.0231C44.6243 79.0114 44.6476 78.9998 44.6709 78.9765C51.3934 71.951 58.349 63.9702 57.813 53.6126ZM43.7271 55.1505C43.0863 55.3951 40.628 53.03 40.2435 52.7038C38.8454 51.5154 37.6221 50.1872 36.5619 48.6842C34.8142 46.191 33.6491 43.3365 32.5656 40.5053C34.7793 42.0083 36.9463 43.5928 38.8105 45.5269C39.393 46.1327 45.3583 54.533 43.7155 55.1505H43.7271ZM42.1426 32.0585C42.1426 32.0585 42.1077 32.0585 42.0844 32.0585C42.0261 32.0585 41.9795 31.872 41.9329 31.6274C41.9912 31.7788 42.0727 31.9186 42.1426 32.0701V32.0585ZM40.5231 25.3476C40.5231 25.3476 40.5231 25.301 40.5115 25.2777C40.5348 25.2777 40.5581 25.2544 40.5931 25.2427C40.5698 25.2777 40.5581 25.3126 40.5348 25.3476H40.5231ZM52.8498 20.5824C50.6361 22.7611 48.2127 24.3922 45.3117 25.4757C45.2301 25.2311 45.1485 25.0097 45.0786 24.8116C45.1602 24.6718 45.1485 24.4737 45.032 24.3339C45.2767 23.9495 45.5097 23.5766 45.7194 23.1805C45.7544 23.1688 45.7777 23.1572 45.801 23.1222C47.1874 20.8037 49.238 19.2076 51.3701 17.623C52.5934 16.7143 53.7469 15.8055 54.3061 14.3841C54.5857 14.8268 54.8304 15.2929 55.0052 15.7822C55.7974 18.0192 54.2945 19.1726 52.8498 20.5824ZM54.0615 14.0229C53.3274 16.2366 50.9856 17.4017 49.2613 18.7881C48.236 19.6153 47.3039 20.5008 46.5 21.5144C46.768 20.8736 46.9894 20.2212 47.1758 19.5571C47.3389 19.6503 47.5719 19.6503 47.7117 19.4406C49.2846 17.0521 51.1021 14.687 52.5002 12.1821C53.0595 12.7413 53.5954 13.3588 54.0498 14.0229H54.0615ZM51.3118 12.6132C50.0419 14.5705 48.7487 16.5046 47.4554 18.4503C47.8632 16.6327 48.038 14.7569 48.0496 12.8695C49.3778 11.0636 50.438 9.11791 51.2303 7.0091C52.407 8.83829 52.5002 10.7607 51.3118 12.6132ZM47.9797 5.87897C48.3059 3.68861 50.4846 6.01878 50.9973 6.65957C50.2749 8.67517 49.2846 10.5393 48.0613 12.2753C48.0613 10.2364 47.8865 8.17419 47.6651 6.13529C47.8166 6.13529 47.9564 6.06538 47.9797 5.86732V5.87897ZM46.5466 4.93525C46.5466 5.12166 46.6748 5.23817 46.8146 5.28477C47.1059 7.95282 47.3622 10.6558 47.2923 13.3239C47.269 13.3588 47.2457 13.3938 47.2107 13.4287C47.1292 13.5336 47.1874 13.6617 47.2806 13.7083C47.1525 17.3784 46.3835 20.9435 44.2398 24.1592C44.0534 24.1592 43.8553 24.1475 43.6572 24.1475C43.7155 24.0893 43.7621 24.0077 43.7737 23.9029C43.8203 23.3902 43.832 22.8659 43.8553 22.3533C43.8902 22.33 43.9252 22.3067 43.9369 22.2601C45.8243 15.5608 45.2767 8.69848 44.4728 1.87107C45.6029 2.98955 46.535 4.58572 46.5466 4.93525ZM41.2572 1.80116C41.9096 0.263251 43.0397 0.601126 44.1 1.49824C44.8689 7.90622 45.4165 14.3491 43.9602 20.6756C44.0534 17.4716 43.8902 14.2676 43.4242 11.0869C43.1213 8.98975 42.7019 6.90424 42.1543 4.85369C42.0261 4.37601 41.0474 2.2905 41.2455 1.80116H41.2572ZM41.2921 4.53912C41.8047 6.41491 42.2242 8.314 42.5387 10.2364C43.2727 14.7569 43.3893 19.3241 43.0281 23.8912C43.0281 24.0077 43.0514 24.0893 43.1213 24.1475C42.7834 24.1708 42.4572 24.2291 42.1426 24.3106C41.5717 17.2852 41.1872 10.2014 39.428 3.36238C39.8357 3.15267 40.2552 2.9546 40.663 2.74488C40.8843 3.39733 41.1756 4.06143 41.3038 4.53912H41.2921ZM38.7406 3.51384C38.8454 3.5721 38.9619 3.58375 39.0901 3.51384C40.8377 10.3412 41.2222 17.4017 41.7814 24.3922C41.4086 24.5203 41.0707 24.7301 40.7911 24.998C40.8261 24.9048 40.8144 24.8116 40.7562 24.7068C38.9386 21.5028 36.4686 18.1939 36.2939 14.3957C36.1191 10.6675 37.5522 6.99745 38.7289 3.51384H38.7406ZM36.3055 8.62857C35.7113 10.8655 35.3385 13.1375 35.6298 15.421C36.0492 18.66 38.0299 21.561 39.6726 24.3572C38.3561 23.0989 36.6784 22.2484 35.4667 20.8037C33.0549 17.926 31.0626 14.687 30.7131 10.8772C32.1811 9.53734 34.4297 8.54702 36.3055 8.62857ZM40.0688 25.6621C36.69 23.7397 32.9967 22.1902 30.7947 18.858C29.2102 16.458 27.7888 14.1045 30.2238 11.3549C30.282 11.2966 30.3403 11.2384 30.3985 11.1801C30.7131 13.9647 31.8316 16.3997 33.4278 18.7182C34.1501 19.7551 34.9307 20.8037 35.7929 21.7358C37.0861 23.1339 39.0435 23.9262 40.1853 25.4291C40.2552 25.5107 40.3484 25.5107 40.4299 25.4757C40.36 25.6039 40.2785 25.7204 40.2319 25.8602C40.2086 25.7903 40.162 25.7204 40.0688 25.6621ZM44.7641 74.6191C46.0923 67.1858 52.5119 60.4982 57.0674 54.6961C57.0674 64.0634 50.8342 71.4034 44.6476 77.9163C44.6942 76.8211 44.7291 75.7259 44.7641 74.6307V74.6191Z" fill="white"/>
<path d="M18.9473 75.7465C18.9325 75.4947 18.6438 75.4355 18.4957 75.628C15.9189 79.0193 12.2314 82.803 10.706 87.0606C10.9134 79.2562 10.8319 71.4222 10.1951 63.64C10.2618 63.6252 10.3358 63.6103 10.4025 63.5881C12.2684 62.8921 11.7057 60.108 11.1503 58.3309C13.5938 57.4201 15.8744 55.7615 17.4812 53.6956C18.666 52.1629 16.9999 50.134 15.8152 48.9789C16.2595 48.0755 16.4446 47.1722 15.7634 46.3133C15.208 45.6172 13.0681 43.1515 12.3943 44.7287C12.3647 44.6694 12.3128 44.625 12.2536 44.6028C12.1351 43.2478 11.1873 42.4999 9.93597 41.989C9.15108 41.6706 8.02559 41.3152 7.87009 42.4481C7.84788 42.5962 7.87009 42.7739 7.90712 42.959C7.5517 43.1367 7.19628 43.3144 6.83345 43.4921C6.71498 43.3959 6.49284 43.4033 6.4336 43.5958C6.1004 44.5954 5.73017 45.632 5.41918 46.6835C3.1904 46.4836 -0.437844 48.6161 0.0434531 51.1781C0.754293 54.9914 4.44918 56.7093 7.43322 58.4049C7.54429 58.4716 7.65536 58.4271 7.722 58.3531C7.70719 58.4123 7.69238 58.4568 7.68498 58.516C7.63315 58.553 7.59612 58.6123 7.59612 58.7011C7.67017 60.0784 7.37399 61.6778 8.30696 62.8329C8.66238 63.2697 9.1733 63.6029 9.72124 63.6548C10.0544 67.6977 10.2396 71.7554 10.3062 75.8131C9.40284 71.4814 5.64872 68.6307 2.05009 66.2538C1.79093 66.0835 1.54658 66.4981 1.80574 66.6684C1.93903 66.7573 2.07971 66.8536 2.21299 66.9424C3.0275 69.0749 3.86422 71.2371 5.20444 73.103C6.51505 74.9319 8.32177 76.2352 10.1433 77.5161C10.1951 77.5532 10.2618 77.5532 10.321 77.5384C10.3506 81.1962 10.3062 84.8541 10.1951 88.5045C10.1951 88.6971 10.1803 88.8896 10.1729 89.0821C10.0989 89.4893 10.047 89.904 10.0248 90.3187C10.0248 90.4149 10.0618 90.4742 10.1211 90.5112C9.83971 98.3822 9.29177 106.335 7.67757 114.043C7.61093 114.347 8.07742 114.472 8.14406 114.169C9.6694 106.868 10.247 99.3522 10.5505 91.8958C10.5654 91.8884 10.5802 91.881 10.595 91.8662C14.8674 87.4013 19.288 82.3291 18.9473 75.7465ZM9.99521 76.7239C9.58795 76.8794 8.02559 75.3762 7.78124 75.1689C6.89269 74.4136 6.11521 73.5695 5.44139 72.6143C4.3307 71.0297 3.59025 69.2156 2.90162 67.4163C4.30849 68.3715 5.68574 69.3785 6.87047 70.6077C7.2407 70.9927 11.0318 76.3314 9.9878 76.7239H9.99521ZM8.98818 62.048C8.98818 62.048 8.96597 62.048 8.95116 62.048C8.91414 62.048 8.88452 61.9295 8.8549 61.774C8.89192 61.8703 8.94376 61.9591 8.98818 62.0554V62.048ZM7.95895 57.7829C7.95895 57.7829 7.95895 57.7533 7.95154 57.7385C7.96635 57.7385 7.98116 57.7237 8.00338 57.7163C7.98857 57.7385 7.98116 57.7607 7.96635 57.7829H7.95895ZM15.793 54.7545C14.3861 56.1391 12.846 57.1758 11.0022 57.8644C10.9504 57.7089 10.8986 57.5682 10.8541 57.4423C10.906 57.3535 10.8986 57.2276 10.8245 57.1387C10.98 56.8944 11.1281 56.6575 11.2614 56.4057C11.2836 56.3983 11.2984 56.3909 11.3132 56.3687C12.1944 54.8952 13.4976 53.8807 14.8526 52.8737C15.6301 52.2962 16.3631 51.7186 16.7186 50.8152C16.8963 51.0966 17.0518 51.3928 17.1628 51.7038C17.6663 53.1255 16.7112 53.8585 15.793 54.7545ZM16.5631 50.5857C16.0966 51.9926 14.6083 52.733 13.5124 53.6142C12.8608 54.1399 12.2684 54.7026 11.7575 55.3468C11.9278 54.9396 12.0685 54.5249 12.187 54.1029C12.2906 54.1621 12.4387 54.1621 12.5276 54.0288C13.5272 52.5109 14.6823 51.0078 15.5709 49.4158C15.9263 49.7712 16.2669 50.1636 16.5557 50.5857H16.5631ZM14.8156 49.6897C14.0085 50.9337 13.1866 52.1629 12.3647 53.3994C12.6238 52.2443 12.7349 51.0522 12.7423 49.8526C13.5864 48.7049 14.2602 47.4684 14.7638 46.1281C15.5116 47.2907 15.5709 48.5124 14.8156 49.6897ZM12.6979 45.4099C12.9052 44.0178 14.2899 45.4988 14.6157 45.906C14.1566 47.187 13.5272 48.3717 12.7497 49.475C12.7497 48.1792 12.6386 46.8686 12.498 45.5728C12.5942 45.5728 12.6831 45.5284 12.6979 45.4025V45.4099ZM11.7871 44.8101C11.7871 44.9286 11.8686 45.0026 11.9574 45.0323C12.1425 46.7279 12.3054 48.4458 12.261 50.1414C12.2462 50.1636 12.2314 50.1859 12.2092 50.2081C12.1573 50.2747 12.1944 50.3562 12.2536 50.3858C12.1722 52.7182 11.6834 54.984 10.321 57.0277C10.2025 57.0277 10.0767 57.0203 9.95078 57.0203C9.9878 56.9833 10.0174 56.9314 10.0248 56.8648C10.0544 56.539 10.0618 56.2058 10.0767 55.88C10.0989 55.8652 10.1211 55.8504 10.1285 55.8207C11.328 51.5631 10.98 47.2018 10.4691 42.8627C11.1873 43.5736 11.7797 44.588 11.7871 44.8101ZM8.42544 42.8183C8.84009 41.8409 9.55834 42.0556 10.2322 42.6258C10.7209 46.6983 11.0689 50.793 10.1433 54.8137C10.2025 52.7775 10.0989 50.7412 9.80269 48.7197C9.61017 47.3869 9.3436 46.0615 8.99559 44.7583C8.91414 44.4547 8.29215 43.1293 8.41803 42.8183H8.42544ZM8.44765 44.5584C8.77345 45.7505 9.04002 46.9575 9.23994 48.1792C9.70643 51.0522 9.78047 53.9548 9.55093 56.8574C9.55093 56.9314 9.56574 56.9833 9.61017 57.0203C9.39544 57.0351 9.18811 57.0721 8.98818 57.1239C8.62536 52.659 8.38101 48.157 7.26292 43.8105C7.52208 43.6772 7.78864 43.5513 8.0478 43.4181C8.18849 43.8327 8.3736 44.2548 8.45505 44.5584H8.44765ZM6.82605 43.9068C6.89269 43.9438 6.96673 43.9512 7.04818 43.9068C8.15887 48.2459 8.40322 52.733 8.75864 57.1758C8.5217 57.2572 8.30696 57.3905 8.12925 57.5608C8.15147 57.5016 8.14406 57.4423 8.10704 57.3757C6.95192 55.3394 5.38215 53.2365 5.27109 50.8226C5.16002 48.4532 6.07078 46.1207 6.81864 43.9068H6.82605ZM5.27849 47.1574C4.90086 48.5791 4.66391 50.0229 4.84902 51.4742C5.11559 53.5327 6.37437 55.3765 7.41841 57.1536C6.5817 56.3539 5.51544 55.8133 4.74536 54.8952C3.21261 53.0662 1.94643 51.0078 1.72429 48.5865C2.65727 47.7349 4.08635 47.1055 5.27849 47.1574ZM7.67017 57.9829C5.52284 56.7611 3.17559 55.7763 1.77612 53.6586C0.769102 52.1333 -0.134257 50.6375 1.4133 48.89C1.45032 48.853 1.48735 48.816 1.52437 48.779C1.72429 50.5487 2.43513 52.0962 3.44956 53.5697C3.90864 54.2287 4.40475 54.8952 4.95269 55.4875C5.7746 56.3761 7.01857 56.8796 7.74421 57.8348C7.78864 57.8866 7.84788 57.8866 7.89971 57.8644C7.85528 57.9458 7.80345 58.0199 7.77383 58.1087C7.75902 58.0643 7.7294 58.0199 7.67017 57.9829ZM10.6542 89.0969C11.4983 84.3728 15.5783 80.1226 18.4734 76.4351C18.4734 82.3884 14.512 87.0532 10.5802 91.1924C10.6098 90.4964 10.632 89.8003 10.6542 89.1043V89.0969Z" fill="white"/>
<path d="M18.9473 75.7465C18.9325 75.4947 18.6438 75.4355 18.4957 75.628C15.9189 79.0193 12.2314 82.803 10.706 87.0606C10.9134 79.2562 10.8319 71.4222 10.1951 63.64C10.2618 63.6252 10.3358 63.6103 10.4025 63.5881C12.2684 62.8921 11.7057 60.108 11.1503 58.3309C13.5938 57.4201 15.8744 55.7615 17.4812 53.6956C18.666 52.1629 16.9999 50.134 15.8152 48.9789C16.2595 48.0755 16.4446 47.1722 15.7634 46.3133C15.208 45.6172 13.0681 43.1515 12.3943 44.7287C12.3647 44.6694 12.3128 44.625 12.2536 44.6028C12.1351 43.2478 11.1873 42.4999 9.93597 41.989C9.15108 41.6706 8.02559 41.3152 7.87009 42.4481C7.84788 42.5962 7.87009 42.7739 7.90712 42.959C7.5517 43.1367 7.19628 43.3144 6.83345 43.4921C6.71498 43.3959 6.49284 43.4033 6.4336 43.5958C6.1004 44.5954 5.73017 45.632 5.41918 46.6835C3.1904 46.4836 -0.437844 48.6161 0.0434531 51.1781C0.754293 54.9914 4.44918 56.7093 7.43322 58.4049C7.54429 58.4716 7.65536 58.4271 7.722 58.3531C7.70719 58.4123 7.69238 58.4568 7.68498 58.516C7.63315 58.553 7.59612 58.6123 7.59612 58.7011C7.67017 60.0784 7.37399 61.6778 8.30696 62.8329C8.66238 63.2697 9.1733 63.6029 9.72124 63.6548C10.0544 67.6977 10.2396 71.7554 10.3062 75.8131C9.40284 71.4814 5.64872 68.6307 2.05009 66.2538C1.79093 66.0835 1.54658 66.4981 1.80574 66.6684C1.93903 66.7573 2.07971 66.8536 2.21299 66.9424C3.0275 69.0749 3.86422 71.2371 5.20444 73.103C6.51505 74.9319 8.32177 76.2352 10.1433 77.5161C10.1951 77.5532 10.2618 77.5532 10.321 77.5384C10.3506 81.1962 10.3062 84.8541 10.1951 88.5045C10.1951 88.6971 10.1803 88.8896 10.1729 89.0821C10.0989 89.4893 10.047 89.904 10.0248 90.3187C10.0248 90.4149 10.0618 90.4742 10.1211 90.5112C9.83971 98.3822 9.29177 106.335 7.67757 114.043C7.61093 114.347 8.07742 114.472 8.14406 114.169C9.6694 106.868 10.247 99.3522 10.5505 91.8958C10.5654 91.8884 10.5802 91.881 10.595 91.8662C14.8674 87.4013 19.288 82.3291 18.9473 75.7465ZM9.99521 76.7239C9.58795 76.8794 8.02559 75.3762 7.78124 75.1689C6.89269 74.4136 6.11521 73.5695 5.44139 72.6143C4.3307 71.0297 3.59025 69.2156 2.90162 67.4163C4.30849 68.3715 5.68574 69.3785 6.87047 70.6077C7.2407 70.9927 11.0318 76.3314 9.9878 76.7239H9.99521ZM8.98818 62.048C8.98818 62.048 8.96597 62.048 8.95116 62.048C8.91414 62.048 8.88452 61.9295 8.8549 61.774C8.89192 61.8703 8.94376 61.9591 8.98818 62.0554V62.048ZM7.95895 57.7829C7.95895 57.7829 7.95895 57.7533 7.95154 57.7385C7.96635 57.7385 7.98116 57.7237 8.00338 57.7163C7.98857 57.7385 7.98116 57.7607 7.96635 57.7829H7.95895ZM15.793 54.7545C14.3861 56.1391 12.846 57.1758 11.0022 57.8644C10.9504 57.7089 10.8986 57.5682 10.8541 57.4423C10.906 57.3535 10.8986 57.2276 10.8245 57.1387C10.98 56.8944 11.1281 56.6575 11.2614 56.4057C11.2836 56.3983 11.2984 56.3909 11.3132 56.3687C12.1944 54.8952 13.4976 53.8807 14.8526 52.8737C15.6301 52.2962 16.3631 51.7186 16.7186 50.8152C16.8963 51.0966 17.0518 51.3928 17.1628 51.7038C17.6663 53.1255 16.7112 53.8585 15.793 54.7545ZM16.5631 50.5857C16.0966 51.9926 14.6083 52.733 13.5124 53.6142C12.8608 54.1399 12.2684 54.7026 11.7575 55.3468C11.9278 54.9396 12.0685 54.5249 12.187 54.1029C12.2906 54.1621 12.4387 54.1621 12.5276 54.0288C13.5272 52.5109 14.6823 51.0078 15.5709 49.4158C15.9263 49.7712 16.2669 50.1636 16.5557 50.5857H16.5631ZM14.8156 49.6897C14.0085 50.9337 13.1866 52.1629 12.3647 53.3994C12.6238 52.2443 12.7349 51.0522 12.7423 49.8526C13.5864 48.7049 14.2602 47.4684 14.7638 46.1281C15.5116 47.2907 15.5709 48.5124 14.8156 49.6897ZM12.6979 45.4099C12.9052 44.0178 14.2899 45.4988 14.6157 45.906C14.1566 47.187 13.5272 48.3717 12.7497 49.475C12.7497 48.1792 12.6386 46.8686 12.498 45.5728C12.5942 45.5728 12.6831 45.5284 12.6979 45.4025V45.4099ZM11.7871 44.8101C11.7871 44.9286 11.8686 45.0026 11.9574 45.0323C12.1425 46.7279 12.3054 48.4458 12.261 50.1414C12.2462 50.1636 12.2314 50.1859 12.2092 50.2081C12.1573 50.2747 12.1944 50.3562 12.2536 50.3858C12.1722 52.7182 11.6834 54.984 10.321 57.0277C10.2025 57.0277 10.0767 57.0203 9.95078 57.0203C9.9878 56.9833 10.0174 56.9314 10.0248 56.8648C10.0544 56.539 10.0618 56.2058 10.0767 55.88C10.0989 55.8652 10.1211 55.8504 10.1285 55.8207C11.328 51.5631 10.98 47.2018 10.4691 42.8627C11.1873 43.5736 11.7797 44.588 11.7871 44.8101ZM8.42544 42.8183C8.84009 41.8409 9.55834 42.0556 10.2322 42.6258C10.7209 46.6983 11.0689 50.793 10.1433 54.8137C10.2025 52.7775 10.0989 50.7412 9.80269 48.7197C9.61017 47.3869 9.3436 46.0615 8.99559 44.7583C8.91414 44.4547 8.29215 43.1293 8.41803 42.8183H8.42544ZM8.44765 44.5584C8.77345 45.7505 9.04002 46.9575 9.23994 48.1792C9.70643 51.0522 9.78047 53.9548 9.55093 56.8574C9.55093 56.9314 9.56574 56.9833 9.61017 57.0203C9.39544 57.0351 9.18811 57.0721 8.98818 57.1239C8.62536 52.659 8.38101 48.157 7.26292 43.8105C7.52208 43.6772 7.78864 43.5513 8.0478 43.4181C8.18849 43.8327 8.3736 44.2548 8.45505 44.5584H8.44765ZM6.82605 43.9068C6.89269 43.9438 6.96673 43.9512 7.04818 43.9068C8.15887 48.2459 8.40322 52.733 8.75864 57.1758C8.5217 57.2572 8.30696 57.3905 8.12925 57.5608C8.15147 57.5016 8.14406 57.4423 8.10704 57.3757C6.95192 55.3394 5.38215 53.2365 5.27109 50.8226C5.16002 48.4532 6.07078 46.1207 6.81864 43.9068H6.82605ZM5.27849 47.1574C4.90086 48.5791 4.66391 50.0229 4.84902 51.4742C5.11559 53.5327 6.37437 55.3765 7.41841 57.1536C6.5817 56.3539 5.51544 55.8133 4.74536 54.8952C3.21261 53.0662 1.94643 51.0078 1.72429 48.5865C2.65727 47.7349 4.08635 47.1055 5.27849 47.1574ZM7.67017 57.9829C5.52284 56.7611 3.17559 55.7763 1.77612 53.6586C0.769102 52.1333 -0.134257 50.6375 1.4133 48.89C1.45032 48.853 1.48735 48.816 1.52437 48.779C1.72429 50.5487 2.43513 52.0962 3.44956 53.5697C3.90864 54.2287 4.40475 54.8952 4.95269 55.4875C5.7746 56.3761 7.01857 56.8796 7.74421 57.8348C7.78864 57.8866 7.84788 57.8866 7.89971 57.8644C7.85528 57.9458 7.80345 58.0199 7.77383 58.1087C7.75902 58.0643 7.7294 58.0199 7.67017 57.9829ZM10.6542 89.0969C11.4983 84.3728 15.5783 80.1226 18.4734 76.4351C18.4734 82.3884 14.512 87.0532 10.5802 91.1924C10.6098 90.4964 10.632 89.8003 10.6542 89.1043V89.0969Z" fill="white"/>
<path d="M18.9473 75.7465C18.9325 75.4947 18.6438 75.4355 18.4957 75.628C15.9189 79.0193 12.2314 82.803 10.706 87.0606C10.9134 79.2562 10.8319 71.4222 10.1951 63.64C10.2618 63.6252 10.3358 63.6103 10.4025 63.5881C12.2684 62.8921 11.7057 60.108 11.1503 58.3309C13.5938 57.4201 15.8744 55.7615 17.4812 53.6956C18.666 52.1629 16.9999 50.134 15.8152 48.9789C16.2595 48.0755 16.4446 47.1722 15.7634 46.3133C15.208 45.6172 13.0681 43.1515 12.3943 44.7287C12.3647 44.6694 12.3128 44.625 12.2536 44.6028C12.1351 43.2478 11.1873 42.4999 9.93597 41.989C9.15108 41.6706 8.02559 41.3152 7.87009 42.4481C7.84788 42.5962 7.87009 42.7739 7.90712 42.959C7.5517 43.1367 7.19628 43.3144 6.83345 43.4921C6.71498 43.3959 6.49284 43.4033 6.4336 43.5958C6.1004 44.5954 5.73017 45.632 5.41918 46.6835C3.1904 46.4836 -0.437844 48.6161 0.0434531 51.1781C0.754293 54.9914 4.44918 56.7093 7.43322 58.4049C7.54429 58.4716 7.65536 58.4271 7.722 58.3531C7.70719 58.4123 7.69238 58.4568 7.68498 58.516C7.63315 58.553 7.59612 58.6123 7.59612 58.7011C7.67017 60.0784 7.37399 61.6778 8.30696 62.8329C8.66238 63.2697 9.1733 63.6029 9.72124 63.6548C10.0544 67.6977 10.2396 71.7554 10.3062 75.8131C9.40284 71.4814 5.64872 68.6307 2.05009 66.2538C1.79093 66.0835 1.54658 66.4981 1.80574 66.6684C1.93903 66.7573 2.07971 66.8536 2.21299 66.9424C3.0275 69.0749 3.86422 71.2371 5.20444 73.103C6.51505 74.9319 8.32177 76.2352 10.1433 77.5161C10.1951 77.5532 10.2618 77.5532 10.321 77.5384C10.3506 81.1962 10.3062 84.8541 10.1951 88.5045C10.1951 88.6971 10.1803 88.8896 10.1729 89.0821C10.0989 89.4893 10.047 89.904 10.0248 90.3187C10.0248 90.4149 10.0618 90.4742 10.1211 90.5112C9.83971 98.3822 9.29177 106.335 7.67757 114.043C7.61093 114.347 8.07742 114.472 8.14406 114.169C9.6694 106.868 10.247 99.3522 10.5505 91.8958C10.5654 91.8884 10.5802 91.881 10.595 91.8662C14.8674 87.4013 19.288 82.3291 18.9473 75.7465ZM9.99521 76.7239C9.58795 76.8794 8.02559 75.3762 7.78124 75.1689C6.89269 74.4136 6.11521 73.5695 5.44139 72.6143C4.3307 71.0297 3.59025 69.2156 2.90162 67.4163C4.30849 68.3715 5.68574 69.3785 6.87047 70.6077C7.2407 70.9927 11.0318 76.3314 9.9878 76.7239H9.99521ZM8.98818 62.048C8.98818 62.048 8.96597 62.048 8.95116 62.048C8.91414 62.048 8.88452 61.9295 8.8549 61.774C8.89192 61.8703 8.94376 61.9591 8.98818 62.0554V62.048ZM7.95895 57.7829C7.95895 57.7829 7.95895 57.7533 7.95154 57.7385C7.96635 57.7385 7.98116 57.7237 8.00338 57.7163C7.98857 57.7385 7.98116 57.7607 7.96635 57.7829H7.95895ZM15.793 54.7545C14.3861 56.1391 12.846 57.1758 11.0022 57.8644C10.9504 57.7089 10.8986 57.5682 10.8541 57.4423C10.906 57.3535 10.8986 57.2276 10.8245 57.1387C10.98 56.8944 11.1281 56.6575 11.2614 56.4057C11.2836 56.3983 11.2984 56.3909 11.3132 56.3687C12.1944 54.8952 13.4976 53.8807 14.8526 52.8737C15.6301 52.2962 16.3631 51.7186 16.7186 50.8152C16.8963 51.0966 17.0518 51.3928 17.1628 51.7038C17.6663 53.1255 16.7112 53.8585 15.793 54.7545ZM16.5631 50.5857C16.0966 51.9926 14.6083 52.733 13.5124 53.6142C12.8608 54.1399 12.2684 54.7026 11.7575 55.3468C11.9278 54.9396 12.0685 54.5249 12.187 54.1029C12.2906 54.1621 12.4387 54.1621 12.5276 54.0288C13.5272 52.5109 14.6823 51.0078 15.5709 49.4158C15.9263 49.7712 16.2669 50.1636 16.5557 50.5857H16.5631ZM14.8156 49.6897C14.0085 50.9337 13.1866 52.1629 12.3647 53.3994C12.6238 52.2443 12.7349 51.0522 12.7423 49.8526C13.5864 48.7049 14.2602 47.4684 14.7638 46.1281C15.5116 47.2907 15.5709 48.5124 14.8156 49.6897ZM12.6979 45.4099C12.9052 44.0178 14.2899 45.4988 14.6157 45.906C14.1566 47.187 13.5272 48.3717 12.7497 49.475C12.7497 48.1792 12.6386 46.8686 12.498 45.5728C12.5942 45.5728 12.6831 45.5284 12.6979 45.4025V45.4099ZM11.7871 44.8101C11.7871 44.9286 11.8686 45.0026 11.9574 45.0323C12.1425 46.7279 12.3054 48.4458 12.261 50.1414C12.2462 50.1636 12.2314 50.1859 12.2092 50.2081C12.1573 50.2747 12.1944 50.3562 12.2536 50.3858C12.1722 52.7182 11.6834 54.984 10.321 57.0277C10.2025 57.0277 10.0767 57.0203 9.95078 57.0203C9.9878 56.9833 10.0174 56.9314 10.0248 56.8648C10.0544 56.539 10.0618 56.2058 10.0767 55.88C10.0989 55.8652 10.1211 55.8504 10.1285 55.8207C11.328 51.5631 10.98 47.2018 10.4691 42.8627C11.1873 43.5736 11.7797 44.588 11.7871 44.8101ZM8.42544 42.8183C8.84009 41.8409 9.55834 42.0556 10.2322 42.6258C10.7209 46.6983 11.0689 50.793 10.1433 54.8137C10.2025 52.7775 10.0989 50.7412 9.80269 48.7197C9.61017 47.3869 9.3436 46.0615 8.99559 44.7583C8.91414 44.4547 8.29215 43.1293 8.41803 42.8183H8.42544ZM8.44765 44.5584C8.77345 45.7505 9.04002 46.9575 9.23994 48.1792C9.70643 51.0522 9.78047 53.9548 9.55093 56.8574C9.55093 56.9314 9.56574 56.9833 9.61017 57.0203C9.39544 57.0351 9.18811 57.0721 8.98818 57.1239C8.62536 52.659 8.38101 48.157 7.26292 43.8105C7.52208 43.6772 7.78864 43.5513 8.0478 43.4181C8.18849 43.8327 8.3736 44.2548 8.45505 44.5584H8.44765ZM6.82605 43.9068C6.89269 43.9438 6.96673 43.9512 7.04818 43.9068C8.15887 48.2459 8.40322 52.733 8.75864 57.1758C8.5217 57.2572 8.30696 57.3905 8.12925 57.5608C8.15147 57.5016 8.14406 57.4423 8.10704 57.3757C6.95192 55.3394 5.38215 53.2365 5.27109 50.8226C5.16002 48.4532 6.07078 46.1207 6.81864 43.9068H6.82605ZM5.27849 47.1574C4.90086 48.5791 4.66391 50.0229 4.84902 51.4742C5.11559 53.5327 6.37437 55.3765 7.41841 57.1536C6.5817 56.3539 5.51544 55.8133 4.74536 54.8952C3.21261 53.0662 1.94643 51.0078 1.72429 48.5865C2.65727 47.7349 4.08635 47.1055 5.27849 47.1574ZM7.67017 57.9829C5.52284 56.7611 3.17559 55.7763 1.77612 53.6586C0.769102 52.1333 -0.134257 50.6375 1.4133 48.89C1.45032 48.853 1.48735 48.816 1.52437 48.779C1.72429 50.5487 2.43513 52.0962 3.44956 53.5697C3.90864 54.2287 4.40475 54.8952 4.95269 55.4875C5.7746 56.3761 7.01857 56.8796 7.74421 57.8348C7.78864 57.8866 7.84788 57.8866 7.89971 57.8644C7.85528 57.9458 7.80345 58.0199 7.77383 58.1087C7.75902 58.0643 7.7294 58.0199 7.67017 57.9829ZM10.6542 89.0969C11.4983 84.3728 15.5783 80.1226 18.4734 76.4351C18.4734 82.3884 14.512 87.0532 10.5802 91.1924C10.6098 90.4964 10.632 89.8003 10.6542 89.1043V89.0969Z" fill="white"/>
<path d="M18.9473 75.7465C18.9325 75.4947 18.6438 75.4355 18.4957 75.628C15.9189 79.0193 12.2314 82.803 10.706 87.0606C10.9134 79.2562 10.8319 71.4222 10.1951 63.64C10.2618 63.6252 10.3358 63.6103 10.4025 63.5881C12.2684 62.8921 11.7057 60.108 11.1503 58.3309C13.5938 57.4201 15.8744 55.7615 17.4812 53.6956C18.666 52.1629 16.9999 50.134 15.8152 48.9789C16.2595 48.0755 16.4446 47.1722 15.7634 46.3133C15.208 45.6172 13.0681 43.1515 12.3943 44.7287C12.3647 44.6694 12.3128 44.625 12.2536 44.6028C12.1351 43.2478 11.1873 42.4999 9.93597 41.989C9.15108 41.6706 8.02559 41.3152 7.87009 42.4481C7.84788 42.5962 7.87009 42.7739 7.90712 42.959C7.5517 43.1367 7.19628 43.3144 6.83345 43.4921C6.71498 43.3959 6.49284 43.4033 6.4336 43.5958C6.1004 44.5954 5.73017 45.632 5.41918 46.6835C3.1904 46.4836 -0.437844 48.6161 0.0434531 51.1781C0.754293 54.9914 4.44918 56.7093 7.43322 58.4049C7.54429 58.4716 7.65536 58.4271 7.722 58.3531C7.70719 58.4123 7.69238 58.4568 7.68498 58.516C7.63315 58.553 7.59612 58.6123 7.59612 58.7011C7.67017 60.0784 7.37399 61.6778 8.30696 62.8329C8.66238 63.2697 9.1733 63.6029 9.72124 63.6548C10.0544 67.6977 10.2396 71.7554 10.3062 75.8131C9.40284 71.4814 5.64872 68.6307 2.05009 66.2538C1.79093 66.0835 1.54658 66.4981 1.80574 66.6684C1.93903 66.7573 2.07971 66.8536 2.21299 66.9424C3.0275 69.0749 3.86422 71.2371 5.20444 73.103C6.51505 74.9319 8.32177 76.2352 10.1433 77.5161C10.1951 77.5532 10.2618 77.5532 10.321 77.5384C10.3506 81.1962 10.3062 84.8541 10.1951 88.5045C10.1951 88.6971 10.1803 88.8896 10.1729 89.0821C10.0989 89.4893 10.047 89.904 10.0248 90.3187C10.0248 90.4149 10.0618 90.4742 10.1211 90.5112C9.83971 98.3822 9.29177 106.335 7.67757 114.043C7.61093 114.347 8.07742 114.472 8.14406 114.169C9.6694 106.868 10.247 99.3522 10.5505 91.8958C10.5654 91.8884 10.5802 91.881 10.595 91.8662C14.8674 87.4013 19.288 82.3291 18.9473 75.7465ZM9.99521 76.7239C9.58795 76.8794 8.02559 75.3762 7.78124 75.1689C6.89269 74.4136 6.11521 73.5695 5.44139 72.6143C4.3307 71.0297 3.59025 69.2156 2.90162 67.4163C4.30849 68.3715 5.68574 69.3785 6.87047 70.6077C7.2407 70.9927 11.0318 76.3314 9.9878 76.7239H9.99521ZM8.98818 62.048C8.98818 62.048 8.96597 62.048 8.95116 62.048C8.91414 62.048 8.88452 61.9295 8.8549 61.774C8.89192 61.8703 8.94376 61.9591 8.98818 62.0554V62.048ZM7.95895 57.7829C7.95895 57.7829 7.95895 57.7533 7.95154 57.7385C7.96635 57.7385 7.98116 57.7237 8.00338 57.7163C7.98857 57.7385 7.98116 57.7607 7.96635 57.7829H7.95895ZM15.793 54.7545C14.3861 56.1391 12.846 57.1758 11.0022 57.8644C10.9504 57.7089 10.8986 57.5682 10.8541 57.4423C10.906 57.3535 10.8986 57.2276 10.8245 57.1387C10.98 56.8944 11.1281 56.6575 11.2614 56.4057C11.2836 56.3983 11.2984 56.3909 11.3132 56.3687C12.1944 54.8952 13.4976 53.8807 14.8526 52.8737C15.6301 52.2962 16.3631 51.7186 16.7186 50.8152C16.8963 51.0966 17.0518 51.3928 17.1628 51.7038C17.6663 53.1255 16.7112 53.8585 15.793 54.7545ZM16.5631 50.5857C16.0966 51.9926 14.6083 52.733 13.5124 53.6142C12.8608 54.1399 12.2684 54.7026 11.7575 55.3468C11.9278 54.9396 12.0685 54.5249 12.187 54.1029C12.2906 54.1621 12.4387 54.1621 12.5276 54.0288C13.5272 52.5109 14.6823 51.0078 15.5709 49.4158C15.9263 49.7712 16.2669 50.1636 16.5557 50.5857H16.5631ZM14.8156 49.6897C14.0085 50.9337 13.1866 52.1629 12.3647 53.3994C12.6238 52.2443 12.7349 51.0522 12.7423 49.8526C13.5864 48.7049 14.2602 47.4684 14.7638 46.1281C15.5116 47.2907 15.5709 48.5124 14.8156 49.6897ZM12.6979 45.4099C12.9052 44.0178 14.2899 45.4988 14.6157 45.906C14.1566 47.187 13.5272 48.3717 12.7497 49.475C12.7497 48.1792 12.6386 46.8686 12.498 45.5728C12.5942 45.5728 12.6831 45.5284 12.6979 45.4025V45.4099ZM11.7871 44.8101C11.7871 44.9286 11.8686 45.0026 11.9574 45.0323C12.1425 46.7279 12.3054 48.4458 12.261 50.1414C12.2462 50.1636 12.2314 50.1859 12.2092 50.2081C12.1573 50.2747 12.1944 50.3562 12.2536 50.3858C12.1722 52.7182 11.6834 54.984 10.321 57.0277C10.2025 57.0277 10.0767 57.0203 9.95078 57.0203C9.9878 56.9833 10.0174 56.9314 10.0248 56.8648C10.0544 56.539 10.0618 56.2058 10.0767 55.88C10.0989 55.8652 10.1211 55.8504 10.1285 55.8207C11.328 51.5631 10.98 47.2018 10.4691 42.8627C11.1873 43.5736 11.7797 44.588 11.7871 44.8101ZM8.42544 42.8183C8.84009 41.8409 9.55834 42.0556 10.2322 42.6258C10.7209 46.6983 11.0689 50.793 10.1433 54.8137C10.2025 52.7775 10.0989 50.7412 9.80269 48.7197C9.61017 47.3869 9.3436 46.0615 8.99559 44.7583C8.91414 44.4547 8.29215 43.1293 8.41803 42.8183H8.42544ZM8.44765 44.5584C8.77345 45.7505 9.04002 46.9575 9.23994 48.1792C9.70643 51.0522 9.78047 53.9548 9.55093 56.8574C9.55093 56.9314 9.56574 56.9833 9.61017 57.0203C9.39544 57.0351 9.18811 57.0721 8.98818 57.1239C8.62536 52.659 8.38101 48.157 7.26292 43.8105C7.52208 43.6772 7.78864 43.5513 8.0478 43.4181C8.18849 43.8327 8.3736 44.2548 8.45505 44.5584H8.44765ZM6.82605 43.9068C6.89269 43.9438 6.96673 43.9512 7.04818 43.9068C8.15887 48.2459 8.40322 52.733 8.75864 57.1758C8.5217 57.2572 8.30696 57.3905 8.12925 57.5608C8.15147 57.5016 8.14406 57.4423 8.10704 57.3757C6.95192 55.3394 5.38215 53.2365 5.27109 50.8226C5.16002 48.4532 6.07078 46.1207 6.81864 43.9068H6.82605ZM5.27849 47.1574C4.90086 48.5791 4.66391 50.0229 4.84902 51.4742C5.11559 53.5327 6.37437 55.3765 7.41841 57.1536C6.5817 56.3539 5.51544 55.8133 4.74536 54.8952C3.21261 53.0662 1.94643 51.0078 1.72429 48.5865C2.65727 47.7349 4.08635 47.1055 5.27849 47.1574ZM7.67017 57.9829C5.52284 56.7611 3.17559 55.7763 1.77612 53.6586C0.769102 52.1333 -0.134257 50.6375 1.4133 48.89C1.45032 48.853 1.48735 48.816 1.52437 48.779C1.72429 50.5487 2.43513 52.0962 3.44956 53.5697C3.90864 54.2287 4.40475 54.8952 4.95269 55.4875C5.7746 56.3761 7.01857 56.8796 7.74421 57.8348C7.78864 57.8866 7.84788 57.8866 7.89971 57.8644C7.85528 57.9458 7.80345 58.0199 7.77383 58.1087C7.75902 58.0643 7.7294 58.0199 7.67017 57.9829ZM10.6542 89.0969C11.4983 84.3728 15.5783 80.1226 18.4734 76.4351C18.4734 82.3884 14.512 87.0532 10.5802 91.1924C10.6098 90.4964 10.632 89.8003 10.6542 89.1043V89.0969Z" fill="white"/>
<path d="M68.0241 63.9902C68.0433 63.664 68.4175 63.5873 68.6093 63.8367C71.9481 68.2308 76.726 73.1334 78.7024 78.65C78.4337 68.5378 78.5393 58.3872 79.3644 48.3038C79.278 48.2846 79.1821 48.2654 79.0957 48.2367C76.678 47.3348 77.4072 43.7274 78.1267 41.4248C74.9607 40.2447 72.0057 38.0957 69.9237 35.4189C68.3887 33.4329 70.5474 30.8041 72.0824 29.3074C71.5068 28.137 71.2669 26.9665 72.1496 25.8536C72.8691 24.9517 75.6418 21.7569 76.5149 23.8004C76.5533 23.7237 76.6204 23.6661 76.6972 23.6373C76.8507 21.8816 78.0787 20.9126 79.7002 20.2506C80.7171 19.838 82.1754 19.3775 82.3769 20.8454C82.4057 21.0373 82.3769 21.2676 82.3289 21.5074C82.7895 21.7377 83.25 21.9679 83.7201 22.1982C83.8736 22.0735 84.1614 22.0831 84.2382 22.3325C84.6699 23.6277 85.1496 24.9709 85.5526 26.3333C88.4404 26.0742 93.1415 28.8373 92.5179 32.1569C91.5969 37.0979 86.8094 39.3237 82.943 41.5208C82.7991 41.6071 82.6552 41.5495 82.5688 41.4536C82.588 41.5304 82.6072 41.5879 82.6168 41.6647C82.6839 41.7126 82.7319 41.7894 82.7319 41.9045C82.636 43.689 83.0197 45.7614 81.8109 47.2581C81.3503 47.8241 80.6884 48.2558 79.9784 48.323C79.5467 53.5614 79.3068 58.819 79.2205 64.0766C80.3909 58.464 85.2552 54.7703 89.9179 51.6905C90.2537 51.4699 90.5703 52.0071 90.2345 52.2278C90.0618 52.3429 89.8795 52.4677 89.7068 52.5828C88.6515 55.3459 87.5673 58.1474 85.8308 60.5651C84.1326 62.9349 81.7917 64.6234 79.4315 66.2832C79.3644 66.3312 79.278 66.3312 79.2013 66.312C79.1629 71.0515 79.2205 75.791 79.3644 80.5209C79.3644 80.7703 79.3836 81.0198 79.3931 81.2692C79.4891 81.7969 79.5562 82.3342 79.585 82.8715C79.585 82.9962 79.5371 83.0729 79.4603 83.1209C79.8249 93.3195 80.5348 103.624 82.6264 113.611C82.7127 114.004 82.1083 114.168 82.0219 113.774C80.0455 104.314 79.2972 94.5763 78.9038 84.915C78.8847 84.9054 78.8655 84.8958 78.8463 84.8766C73.3105 79.0914 67.5828 72.5194 68.0241 63.9902ZM79.6234 65.2566C80.1511 65.4581 82.1754 63.5105 82.4921 63.2419C83.6433 62.2633 84.6507 61.1695 85.5238 59.9319C86.9629 57.8788 87.9223 55.5282 88.8146 53.1968C86.9917 54.4345 85.2072 55.7393 83.6721 57.3319C83.1924 57.8308 78.2802 64.7481 79.633 65.2566H79.6234ZM80.9282 46.2411C80.9282 46.2411 80.957 46.2411 80.9762 46.2411C81.0241 46.2411 81.0625 46.0876 81.1009 45.8861C81.0529 46.0108 80.9858 46.1259 80.9282 46.2507V46.2411ZM82.2618 40.7149C82.2618 40.7149 82.2618 40.6765 82.2714 40.6573C82.2522 40.6573 82.233 40.6381 82.2042 40.6285C82.2234 40.6573 82.233 40.6861 82.2522 40.7149H82.2618ZM72.1112 36.7909C73.9341 38.585 75.9297 39.9281 78.3186 40.8204C78.3858 40.6189 78.4529 40.4366 78.5105 40.2735C78.4433 40.1584 78.4529 39.9953 78.5489 39.8802C78.3474 39.5636 78.1555 39.2565 77.9828 38.9303C77.954 38.9208 77.9348 38.9112 77.9157 38.8824C76.7739 36.9731 75.0854 35.6588 73.3297 34.354C72.3223 33.6056 71.3725 32.8573 70.9119 31.6868C70.6817 32.0514 70.4802 32.4351 70.3363 32.8381C69.6839 34.6802 70.9215 35.63 72.1112 36.7909ZM71.1134 31.3894C71.7178 33.2122 73.6463 34.1717 75.0662 35.3134C75.9105 35.9945 76.678 36.7237 77.34 37.5584C77.1193 37.0307 76.937 36.4934 76.7835 35.9466C76.6492 36.0233 76.4573 36.0233 76.3422 35.8506C75.047 33.8838 73.5503 31.9362 72.399 29.8735C71.9385 30.334 71.4972 30.8425 71.123 31.3894H71.1134ZM73.3776 30.2285C74.4234 31.8403 75.4883 33.4329 76.5533 35.0351C76.2175 33.5385 76.0736 31.9938 76.064 30.4395C74.9703 28.9525 74.0972 27.3502 73.4448 25.6137C72.4758 27.12 72.399 28.703 73.3776 30.2285ZM76.1215 24.6831C75.8529 22.8794 74.0588 24.7982 73.6367 25.3259C74.2315 26.9857 75.047 28.5207 76.0544 29.9502C76.0544 28.2713 76.1983 26.5731 76.3806 24.8941C76.2559 24.8941 76.1407 24.8366 76.1215 24.6735V24.6831ZM77.3016 23.9059C77.3016 24.0594 77.1961 24.1554 77.081 24.1938C76.8411 26.3908 76.63 28.6167 76.6876 30.8137C76.7068 30.8425 76.726 30.8713 76.7548 30.9001C76.8219 30.9864 76.7739 31.0919 76.6972 31.1303C76.8027 34.1525 77.4359 37.0883 79.2013 39.7363C79.3548 39.7363 79.5179 39.7267 79.681 39.7267C79.633 39.6787 79.5946 39.6115 79.585 39.5252C79.5467 39.103 79.5371 38.6713 79.5179 38.2492C79.4891 38.23 79.4603 38.2108 79.4507 38.1724C77.8965 32.6558 78.3474 27.0048 79.0094 21.3827C78.0787 22.3037 77.3112 23.6181 77.3016 23.9059ZM81.6574 21.3251C81.1201 20.0587 80.1895 20.3369 79.3164 21.0757C78.6832 26.3524 78.2323 31.658 79.4315 36.8676C79.3548 34.2292 79.4891 31.5908 79.8729 28.9716C80.1223 27.2447 80.4677 25.5274 80.9186 23.8388C81.0241 23.4454 81.8301 21.7281 81.667 21.3251H81.6574ZM81.6286 23.5797C81.2064 25.1244 80.861 26.6882 80.602 28.2713C79.9976 31.9938 79.9016 35.7547 80.1991 39.5156C80.1991 39.6115 80.1799 39.6787 80.1223 39.7267C80.4005 39.7458 80.6692 39.7938 80.9282 39.861C81.3983 34.0757 81.7149 28.2425 83.1636 22.6107C82.8278 22.438 82.4825 22.2749 82.1467 22.1022C81.9644 22.6395 81.7245 23.1864 81.619 23.5797H81.6286ZM83.7297 22.7355C83.6433 22.7834 83.5474 22.793 83.4419 22.7355C82.0027 28.3576 81.6861 34.1717 81.2256 39.9281C81.5326 40.0337 81.8109 40.2064 82.0411 40.427C82.0123 40.3503 82.0219 40.2735 82.0699 40.1872C83.5666 37.5488 85.6005 34.8241 85.7445 31.6964C85.8884 28.6263 84.7083 25.6041 83.7393 22.7355H83.7297ZM85.7349 26.9473C86.2242 28.7894 86.5312 30.6602 86.2913 32.5407C85.9459 35.2078 84.3149 37.5968 82.9622 39.8994C84.0463 38.8632 85.4279 38.1628 86.4256 36.9731C88.4116 34.6034 90.0522 31.9362 90.34 28.799C89.1312 27.6956 87.2795 26.8801 85.7349 26.9473ZM82.636 40.9739C85.4183 39.3909 88.4596 38.1148 90.2729 35.3709C91.5777 33.3945 92.7482 31.4565 90.743 29.1923C90.695 29.1443 90.6471 29.0964 90.5991 29.0484C90.34 31.3414 89.419 33.3466 88.1046 35.2558C87.5098 36.1097 86.867 36.9731 86.157 37.7407C85.0921 38.892 83.4802 39.5444 82.54 40.782C82.4825 40.8492 82.4057 40.8492 82.3385 40.8204C82.3961 40.9259 82.4633 41.0219 82.5016 41.137C82.5208 41.0794 82.5592 41.0219 82.636 40.9739ZM78.7695 81.2884C77.6758 75.1674 72.3894 69.6603 68.6381 64.8825C68.6381 72.5961 73.771 78.6404 78.8655 84.0036C78.8271 83.1017 78.7983 82.1999 78.7695 81.298V81.2884Z" fill="white"/>
<path d="M68.0241 63.9902C68.0433 63.664 68.4175 63.5873 68.6093 63.8367C71.9481 68.2308 76.726 73.1334 78.7024 78.65C78.4337 68.5378 78.5393 58.3872 79.3644 48.3038C79.278 48.2846 79.1821 48.2654 79.0957 48.2367C76.678 47.3348 77.4072 43.7274 78.1267 41.4248C74.9607 40.2447 72.0057 38.0957 69.9237 35.4189C68.3887 33.4329 70.5474 30.8041 72.0824 29.3074C71.5068 28.137 71.2669 26.9665 72.1496 25.8536C72.8691 24.9517 75.6418 21.7569 76.5149 23.8004C76.5533 23.7237 76.6204 23.6661 76.6972 23.6373C76.8507 21.8816 78.0787 20.9126 79.7002 20.2506C80.7171 19.838 82.1754 19.3775 82.3769 20.8454C82.4057 21.0373 82.3769 21.2676 82.3289 21.5074C82.7895 21.7377 83.25 21.9679 83.7201 22.1982C83.8736 22.0735 84.1614 22.0831 84.2382 22.3325C84.6699 23.6277 85.1496 24.9709 85.5526 26.3333C88.4404 26.0742 93.1415 28.8373 92.5179 32.1569C91.5969 37.0979 86.8094 39.3237 82.943 41.5208C82.7991 41.6071 82.6552 41.5495 82.5688 41.4536C82.588 41.5304 82.6072 41.5879 82.6168 41.6647C82.6839 41.7126 82.7319 41.7894 82.7319 41.9045C82.636 43.689 83.0197 45.7614 81.8109 47.2581C81.3503 47.8241 80.6884 48.2558 79.9784 48.323C79.5467 53.5614 79.3068 58.819 79.2205 64.0766C80.3909 58.464 85.2552 54.7703 89.9179 51.6905C90.2537 51.4699 90.5703 52.0071 90.2345 52.2278C90.0618 52.3429 89.8795 52.4677 89.7068 52.5828C88.6515 55.3459 87.5673 58.1474 85.8308 60.5651C84.1326 62.9349 81.7917 64.6234 79.4315 66.2832C79.3644 66.3312 79.278 66.3312 79.2013 66.312C79.1629 71.0515 79.2205 75.791 79.3644 80.5209C79.3644 80.7703 79.3836 81.0198 79.3931 81.2692C79.4891 81.7969 79.5562 82.3342 79.585 82.8715C79.585 82.9962 79.5371 83.0729 79.4603 83.1209C79.8249 93.3195 80.5348 103.624 82.6264 113.611C82.7127 114.004 82.1083 114.168 82.0219 113.774C80.0455 104.314 79.2972 94.5763 78.9038 84.915C78.8847 84.9054 78.8655 84.8958 78.8463 84.8766C73.3105 79.0914 67.5828 72.5194 68.0241 63.9902ZM79.6234 65.2566C80.1511 65.4581 82.1754 63.5105 82.4921 63.2419C83.6433 62.2633 84.6507 61.1695 85.5238 59.9319C86.9629 57.8788 87.9223 55.5282 88.8146 53.1968C86.9917 54.4345 85.2072 55.7393 83.6721 57.3319C83.1924 57.8308 78.2802 64.7481 79.633 65.2566H79.6234ZM80.9282 46.2411C80.9282 46.2411 80.957 46.2411 80.9762 46.2411C81.0241 46.2411 81.0625 46.0876 81.1009 45.8861C81.0529 46.0108 80.9858 46.1259 80.9282 46.2507V46.2411ZM82.2618 40.7149C82.2618 40.7149 82.2618 40.6765 82.2714 40.6573C82.2522 40.6573 82.233 40.6381 82.2042 40.6285C82.2234 40.6573 82.233 40.6861 82.2522 40.7149H82.2618ZM72.1112 36.7909C73.9341 38.585 75.9297 39.9281 78.3186 40.8204C78.3858 40.6189 78.4529 40.4366 78.5105 40.2735C78.4433 40.1584 78.4529 39.9953 78.5489 39.8802C78.3474 39.5636 78.1555 39.2565 77.9828 38.9303C77.954 38.9208 77.9348 38.9112 77.9157 38.8824C76.7739 36.9731 75.0854 35.6588 73.3297 34.354C72.3223 33.6056 71.3725 32.8573 70.9119 31.6868C70.6817 32.0514 70.4802 32.4351 70.3363 32.8381C69.6839 34.6802 70.9215 35.63 72.1112 36.7909ZM71.1134 31.3894C71.7178 33.2122 73.6463 34.1717 75.0662 35.3134C75.9105 35.9945 76.678 36.7237 77.34 37.5584C77.1193 37.0307 76.937 36.4934 76.7835 35.9466C76.6492 36.0233 76.4573 36.0233 76.3422 35.8506C75.047 33.8838 73.5503 31.9362 72.399 29.8735C71.9385 30.334 71.4972 30.8425 71.123 31.3894H71.1134ZM73.3776 30.2285C74.4234 31.8403 75.4883 33.4329 76.5533 35.0351C76.2175 33.5385 76.0736 31.9938 76.064 30.4395C74.9703 28.9525 74.0972 27.3502 73.4448 25.6137C72.4758 27.12 72.399 28.703 73.3776 30.2285ZM76.1215 24.6831C75.8529 22.8794 74.0588 24.7982 73.6367 25.3259C74.2315 26.9857 75.047 28.5207 76.0544 29.9502C76.0544 28.2713 76.1983 26.5731 76.3806 24.8941C76.2559 24.8941 76.1407 24.8366 76.1215 24.6735V24.6831ZM77.3016 23.9059C77.3016 24.0594 77.1961 24.1554 77.081 24.1938C76.8411 26.3908 76.63 28.6167 76.6876 30.8137C76.7068 30.8425 76.726 30.8713 76.7548 30.9001C76.8219 30.9864 76.7739 31.0919 76.6972 31.1303C76.8027 34.1525 77.4359 37.0883 79.2013 39.7363C79.3548 39.7363 79.5179 39.7267 79.681 39.7267C79.633 39.6787 79.5946 39.6115 79.585 39.5252C79.5467 39.103 79.5371 38.6713 79.5179 38.2492C79.4891 38.23 79.4603 38.2108 79.4507 38.1724C77.8965 32.6558 78.3474 27.0048 79.0094 21.3827C78.0787 22.3037 77.3112 23.6181 77.3016 23.9059ZM81.6574 21.3251C81.1201 20.0587 80.1895 20.3369 79.3164 21.0757C78.6832 26.3524 78.2323 31.658 79.4315 36.8676C79.3548 34.2292 79.4891 31.5908 79.8729 28.9716C80.1223 27.2447 80.4677 25.5274 80.9186 23.8388C81.0241 23.4454 81.8301 21.7281 81.667 21.3251H81.6574ZM81.6286 23.5797C81.2064 25.1244 80.861 26.6882 80.602 28.2713C79.9976 31.9938 79.9016 35.7547 80.1991 39.5156C80.1991 39.6115 80.1799 39.6787 80.1223 39.7267C80.4005 39.7458 80.6692 39.7938 80.9282 39.861C81.3983 34.0757 81.7149 28.2425 83.1636 22.6107C82.8278 22.438 82.4825 22.2749 82.1467 22.1022C81.9644 22.6395 81.7245 23.1864 81.619 23.5797H81.6286ZM83.7297 22.7355C83.6433 22.7834 83.5474 22.793 83.4419 22.7355C82.0027 28.3576 81.6861 34.1717 81.2256 39.9281C81.5326 40.0337 81.8109 40.2064 82.0411 40.427C82.0123 40.3503 82.0219 40.2735 82.0699 40.1872C83.5666 37.5488 85.6005 34.8241 85.7445 31.6964C85.8884 28.6263 84.7083 25.6041 83.7393 22.7355H83.7297ZM85.7349 26.9473C86.2242 28.7894 86.5312 30.6602 86.2913 32.5407C85.9459 35.2078 84.3149 37.5968 82.9622 39.8994C84.0463 38.8632 85.4279 38.1628 86.4256 36.9731C88.4116 34.6034 90.0522 31.9362 90.34 28.799C89.1312 27.6956 87.2795 26.8801 85.7349 26.9473ZM82.636 40.9739C85.4183 39.3909 88.4596 38.1148 90.2729 35.3709C91.5777 33.3945 92.7482 31.4565 90.743 29.1923C90.695 29.1443 90.6471 29.0964 90.5991 29.0484C90.34 31.3414 89.419 33.3466 88.1046 35.2558C87.5098 36.1097 86.867 36.9731 86.157 37.7407C85.0921 38.892 83.4802 39.5444 82.54 40.782C82.4825 40.8492 82.4057 40.8492 82.3385 40.8204C82.3961 40.9259 82.4633 41.0219 82.5016 41.137C82.5208 41.0794 82.5592 41.0219 82.636 40.9739ZM78.7695 81.2884C77.6758 75.1674 72.3894 69.6603 68.6381 64.8825C68.6381 72.5961 73.771 78.6404 78.8655 84.0036C78.8271 83.1017 78.7983 82.1999 78.7695 81.298V81.2884Z" fill="white"/>
<path d="M68.0241 63.9902C68.0433 63.664 68.4175 63.5873 68.6093 63.8367C71.9481 68.2308 76.726 73.1334 78.7024 78.65C78.4337 68.5378 78.5393 58.3872 79.3644 48.3038C79.278 48.2846 79.1821 48.2654 79.0957 48.2367C76.678 47.3348 77.4072 43.7274 78.1267 41.4248C74.9607 40.2447 72.0057 38.0957 69.9237 35.4189C68.3887 33.4329 70.5474 30.8041 72.0824 29.3074C71.5068 28.137 71.2669 26.9665 72.1496 25.8536C72.8691 24.9517 75.6418 21.7569 76.5149 23.8004C76.5533 23.7237 76.6204 23.6661 76.6972 23.6373C76.8507 21.8816 78.0787 20.9126 79.7002 20.2506C80.7171 19.838 82.1754 19.3775 82.3769 20.8454C82.4057 21.0373 82.3769 21.2676 82.3289 21.5074C82.7895 21.7377 83.25 21.9679 83.7201 22.1982C83.8736 22.0735 84.1614 22.0831 84.2382 22.3325C84.6699 23.6277 85.1496 24.9709 85.5526 26.3333C88.4404 26.0742 93.1415 28.8373 92.5179 32.1569C91.5969 37.0979 86.8094 39.3237 82.943 41.5208C82.7991 41.6071 82.6552 41.5495 82.5688 41.4536C82.588 41.5304 82.6072 41.5879 82.6168 41.6647C82.6839 41.7126 82.7319 41.7894 82.7319 41.9045C82.636 43.689 83.0197 45.7614 81.8109 47.2581C81.3503 47.8241 80.6884 48.2558 79.9784 48.323C79.5467 53.5614 79.3068 58.819 79.2205 64.0766C80.3909 58.464 85.2552 54.7703 89.9179 51.6905C90.2537 51.4699 90.5703 52.0071 90.2345 52.2278C90.0618 52.3429 89.8795 52.4677 89.7068 52.5828C88.6515 55.3459 87.5673 58.1474 85.8308 60.5651C84.1326 62.9349 81.7917 64.6234 79.4315 66.2832C79.3644 66.3312 79.278 66.3312 79.2013 66.312C79.1629 71.0515 79.2205 75.791 79.3644 80.5209C79.3644 80.7703 79.3836 81.0198 79.3931 81.2692C79.4891 81.7969 79.5562 82.3342 79.585 82.8715C79.585 82.9962 79.5371 83.0729 79.4603 83.1209C79.8249 93.3195 80.5348 103.624 82.6264 113.611C82.7127 114.004 82.1083 114.168 82.0219 113.774C80.0455 104.314 79.2972 94.5763 78.9038 84.915C78.8847 84.9054 78.8655 84.8958 78.8463 84.8766C73.3105 79.0914 67.5828 72.5194 68.0241 63.9902ZM79.6234 65.2566C80.1511 65.4581 82.1754 63.5105 82.4921 63.2419C83.6433 62.2633 84.6507 61.1695 85.5238 59.9319C86.9629 57.8788 87.9223 55.5282 88.8146 53.1968C86.9917 54.4345 85.2072 55.7393 83.6721 57.3319C83.1924 57.8308 78.2802 64.7481 79.633 65.2566H79.6234ZM80.9282 46.2411C80.9282 46.2411 80.957 46.2411 80.9762 46.2411C81.0241 46.2411 81.0625 46.0876 81.1009 45.8861C81.0529 46.0108 80.9858 46.1259 80.9282 46.2507V46.2411ZM82.2618 40.7149C82.2618 40.7149 82.2618 40.6765 82.2714 40.6573C82.2522 40.6573 82.233 40.6381 82.2042 40.6285C82.2234 40.6573 82.233 40.6861 82.2522 40.7149H82.2618ZM72.1112 36.7909C73.9341 38.585 75.9297 39.9281 78.3186 40.8204C78.3858 40.6189 78.4529 40.4366 78.5105 40.2735C78.4433 40.1584 78.4529 39.9953 78.5489 39.8802C78.3474 39.5636 78.1555 39.2565 77.9828 38.9303C77.954 38.9208 77.9348 38.9112 77.9157 38.8824C76.7739 36.9731 75.0854 35.6588 73.3297 34.354C72.3223 33.6056 71.3725 32.8573 70.9119 31.6868C70.6817 32.0514 70.4802 32.4351 70.3363 32.8381C69.6839 34.6802 70.9215 35.63 72.1112 36.7909ZM71.1134 31.3894C71.7178 33.2122 73.6463 34.1717 75.0662 35.3134C75.9105 35.9945 76.678 36.7237 77.34 37.5584C77.1193 37.0307 76.937 36.4934 76.7835 35.9466C76.6492 36.0233 76.4573 36.0233 76.3422 35.8506C75.047 33.8838 73.5503 31.9362 72.399 29.8735C71.9385 30.334 71.4972 30.8425 71.123 31.3894H71.1134ZM73.3776 30.2285C74.4234 31.8403 75.4883 33.4329 76.5533 35.0351C76.2175 33.5385 76.0736 31.9938 76.064 30.4395C74.9703 28.9525 74.0972 27.3502 73.4448 25.6137C72.4758 27.12 72.399 28.703 73.3776 30.2285ZM76.1215 24.6831C75.8529 22.8794 74.0588 24.7982 73.6367 25.3259C74.2315 26.9857 75.047 28.5207 76.0544 29.9502C76.0544 28.2713 76.1983 26.5731 76.3806 24.8941C76.2559 24.8941 76.1407 24.8366 76.1215 24.6735V24.6831ZM77.3016 23.9059C77.3016 24.0594 77.1961 24.1554 77.081 24.1938C76.8411 26.3908 76.63 28.6167 76.6876 30.8137C76.7068 30.8425 76.726 30.8713 76.7548 30.9001C76.8219 30.9864 76.7739 31.0919 76.6972 31.1303C76.8027 34.1525 77.4359 37.0883 79.2013 39.7363C79.3548 39.7363 79.5179 39.7267 79.681 39.7267C79.633 39.6787 79.5946 39.6115 79.585 39.5252C79.5467 39.103 79.5371 38.6713 79.5179 38.2492C79.4891 38.23 79.4603 38.2108 79.4507 38.1724C77.8965 32.6558 78.3474 27.0048 79.0094 21.3827C78.0787 22.3037 77.3112 23.6181 77.3016 23.9059ZM81.6574 21.3251C81.1201 20.0587 80.1895 20.3369 79.3164 21.0757C78.6832 26.3524 78.2323 31.658 79.4315 36.8676C79.3548 34.2292 79.4891 31.5908 79.8729 28.9716C80.1223 27.2447 80.4677 25.5274 80.9186 23.8388C81.0241 23.4454 81.8301 21.7281 81.667 21.3251H81.6574ZM81.6286 23.5797C81.2064 25.1244 80.861 26.6882 80.602 28.2713C79.9976 31.9938 79.9016 35.7547 80.1991 39.5156C80.1991 39.6115 80.1799 39.6787 80.1223 39.7267C80.4005 39.7458 80.6692 39.7938 80.9282 39.861C81.3983 34.0757 81.7149 28.2425 83.1636 22.6107C82.8278 22.438 82.4825 22.2749 82.1467 22.1022C81.9644 22.6395 81.7245 23.1864 81.619 23.5797H81.6286ZM83.7297 22.7355C83.6433 22.7834 83.5474 22.793 83.4419 22.7355C82.0027 28.3576 81.6861 34.1717 81.2256 39.9281C81.5326 40.0337 81.8109 40.2064 82.0411 40.427C82.0123 40.3503 82.0219 40.2735 82.0699 40.1872C83.5666 37.5488 85.6005 34.8241 85.7445 31.6964C85.8884 28.6263 84.7083 25.6041 83.7393 22.7355H83.7297ZM85.7349 26.9473C86.2242 28.7894 86.5312 30.6602 86.2913 32.5407C85.9459 35.2078 84.3149 37.5968 82.9622 39.8994C84.0463 38.8632 85.4279 38.1628 86.4256 36.9731C88.4116 34.6034 90.0522 31.9362 90.34 28.799C89.1312 27.6956 87.2795 26.8801 85.7349 26.9473ZM82.636 40.9739C85.4183 39.3909 88.4596 38.1148 90.2729 35.3709C91.5777 33.3945 92.7482 31.4565 90.743 29.1923C90.695 29.1443 90.6471 29.0964 90.5991 29.0484C90.34 31.3414 89.419 33.3466 88.1046 35.2558C87.5098 36.1097 86.867 36.9731 86.157 37.7407C85.0921 38.892 83.4802 39.5444 82.54 40.782C82.4825 40.8492 82.4057 40.8492 82.3385 40.8204C82.3961 40.9259 82.4633 41.0219 82.5016 41.137C82.5208 41.0794 82.5592 41.0219 82.636 40.9739ZM78.7695 81.2884C77.6758 75.1674 72.3894 69.6603 68.6381 64.8825C68.6381 72.5961 73.771 78.6404 78.8655 84.0036C78.8271 83.1017 78.7983 82.1999 78.7695 81.298V81.2884Z" fill="white"/>
<path d="M68.0241 63.9902C68.0433 63.664 68.4175 63.5873 68.6093 63.8367C71.9481 68.2308 76.726 73.1334 78.7024 78.65C78.4337 68.5378 78.5393 58.3872 79.3644 48.3038C79.278 48.2846 79.1821 48.2654 79.0957 48.2367C76.678 47.3348 77.4072 43.7274 78.1267 41.4248C74.9607 40.2447 72.0057 38.0957 69.9237 35.4189C68.3887 33.4329 70.5474 30.8041 72.0824 29.3074C71.5068 28.137 71.2669 26.9665 72.1496 25.8536C72.8691 24.9517 75.6418 21.7569 76.5149 23.8004C76.5533 23.7237 76.6204 23.6661 76.6972 23.6373C76.8507 21.8816 78.0787 20.9126 79.7002 20.2506C80.7171 19.838 82.1754 19.3775 82.3769 20.8454C82.4057 21.0373 82.3769 21.2676 82.3289 21.5074C82.7895 21.7377 83.25 21.9679 83.7201 22.1982C83.8736 22.0735 84.1614 22.0831 84.2382 22.3325C84.6699 23.6277 85.1496 24.9709 85.5526 26.3333C88.4404 26.0742 93.1415 28.8373 92.5179 32.1569C91.5969 37.0979 86.8094 39.3237 82.943 41.5208C82.7991 41.6071 82.6552 41.5495 82.5688 41.4536C82.588 41.5304 82.6072 41.5879 82.6168 41.6647C82.6839 41.7126 82.7319 41.7894 82.7319 41.9045C82.636 43.689 83.0197 45.7614 81.8109 47.2581C81.3503 47.8241 80.6884 48.2558 79.9784 48.323C79.5467 53.5614 79.3068 58.819 79.2205 64.0766C80.3909 58.464 85.2552 54.7703 89.9179 51.6905C90.2537 51.4699 90.5703 52.0071 90.2345 52.2278C90.0618 52.3429 89.8795 52.4677 89.7068 52.5828C88.6515 55.3459 87.5673 58.1474 85.8308 60.5651C84.1326 62.9349 81.7917 64.6234 79.4315 66.2832C79.3644 66.3312 79.278 66.3312 79.2013 66.312C79.1629 71.0515 79.2205 75.791 79.3644 80.5209C79.3644 80.7703 79.3836 81.0198 79.3931 81.2692C79.4891 81.7969 79.5562 82.3342 79.585 82.8715C79.585 82.9962 79.5371 83.0729 79.4603 83.1209C79.8249 93.3195 80.5348 103.624 82.6264 113.611C82.7127 114.004 82.1083 114.168 82.0219 113.774C80.0455 104.314 79.2972 94.5763 78.9038 84.915C78.8847 84.9054 78.8655 84.8958 78.8463 84.8766C73.3105 79.0914 67.5828 72.5194 68.0241 63.9902ZM79.6234 65.2566C80.1511 65.4581 82.1754 63.5105 82.4921 63.2419C83.6433 62.2633 84.6507 61.1695 85.5238 59.9319C86.9629 57.8788 87.9223 55.5282 88.8146 53.1968C86.9917 54.4345 85.2072 55.7393 83.6721 57.3319C83.1924 57.8308 78.2802 64.7481 79.633 65.2566H79.6234ZM80.9282 46.2411C80.9282 46.2411 80.957 46.2411 80.9762 46.2411C81.0241 46.2411 81.0625 46.0876 81.1009 45.8861C81.0529 46.0108 80.9858 46.1259 80.9282 46.2507V46.2411ZM82.2618 40.7149C82.2618 40.7149 82.2618 40.6765 82.2714 40.6573C82.2522 40.6573 82.233 40.6381 82.2042 40.6285C82.2234 40.6573 82.233 40.6861 82.2522 40.7149H82.2618ZM72.1112 36.7909C73.9341 38.585 75.9297 39.9281 78.3186 40.8204C78.3858 40.6189 78.4529 40.4366 78.5105 40.2735C78.4433 40.1584 78.4529 39.9953 78.5489 39.8802C78.3474 39.5636 78.1555 39.2565 77.9828 38.9303C77.954 38.9208 77.9348 38.9112 77.9157 38.8824C76.7739 36.9731 75.0854 35.6588 73.3297 34.354C72.3223 33.6056 71.3725 32.8573 70.9119 31.6868C70.6817 32.0514 70.4802 32.4351 70.3363 32.8381C69.6839 34.6802 70.9215 35.63 72.1112 36.7909ZM71.1134 31.3894C71.7178 33.2122 73.6463 34.1717 75.0662 35.3134C75.9105 35.9945 76.678 36.7237 77.34 37.5584C77.1193 37.0307 76.937 36.4934 76.7835 35.9466C76.6492 36.0233 76.4573 36.0233 76.3422 35.8506C75.047 33.8838 73.5503 31.9362 72.399 29.8735C71.9385 30.334 71.4972 30.8425 71.123 31.3894H71.1134ZM73.3776 30.2285C74.4234 31.8403 75.4883 33.4329 76.5533 35.0351C76.2175 33.5385 76.0736 31.9938 76.064 30.4395C74.9703 28.9525 74.0972 27.3502 73.4448 25.6137C72.4758 27.12 72.399 28.703 73.3776 30.2285ZM76.1215 24.6831C75.8529 22.8794 74.0588 24.7982 73.6367 25.3259C74.2315 26.9857 75.047 28.5207 76.0544 29.9502C76.0544 28.2713 76.1983 26.5731 76.3806 24.8941C76.2559 24.8941 76.1407 24.8366 76.1215 24.6735V24.6831ZM77.3016 23.9059C77.3016 24.0594 77.1961 24.1554 77.081 24.1938C76.8411 26.3908 76.63 28.6167 76.6876 30.8137C76.7068 30.8425 76.726 30.8713 76.7548 30.9001C76.8219 30.9864 76.7739 31.0919 76.6972 31.1303C76.8027 34.1525 77.4359 37.0883 79.2013 39.7363C79.3548 39.7363 79.5179 39.7267 79.681 39.7267C79.633 39.6787 79.5946 39.6115 79.585 39.5252C79.5467 39.103 79.5371 38.6713 79.5179 38.2492C79.4891 38.23 79.4603 38.2108 79.4507 38.1724C77.8965 32.6558 78.3474 27.0048 79.0094 21.3827C78.0787 22.3037 77.3112 23.6181 77.3016 23.9059ZM81.6574 21.3251C81.1201 20.0587 80.1895 20.3369 79.3164 21.0757C78.6832 26.3524 78.2323 31.658 79.4315 36.8676C79.3548 34.2292 79.4891 31.5908 79.8729 28.9716C80.1223 27.2447 80.4677 25.5274 80.9186 23.8388C81.0241 23.4454 81.8301 21.7281 81.667 21.3251H81.6574ZM81.6286 23.5797C81.2064 25.1244 80.861 26.6882 80.602 28.2713C79.9976 31.9938 79.9016 35.7547 80.1991 39.5156C80.1991 39.6115 80.1799 39.6787 80.1223 39.7267C80.4005 39.7458 80.6692 39.7938 80.9282 39.861C81.3983 34.0757 81.7149 28.2425 83.1636 22.6107C82.8278 22.438 82.4825 22.2749 82.1467 22.1022C81.9644 22.6395 81.7245 23.1864 81.619 23.5797H81.6286ZM83.7297 22.7355C83.6433 22.7834 83.5474 22.793 83.4419 22.7355C82.0027 28.3576 81.6861 34.1717 81.2256 39.9281C81.5326 40.0337 81.8109 40.2064 82.0411 40.427C82.0123 40.3503 82.0219 40.2735 82.0699 40.1872C83.5666 37.5488 85.6005 34.8241 85.7445 31.6964C85.8884 28.6263 84.7083 25.6041 83.7393 22.7355H83.7297ZM85.7349 26.9473C86.2242 28.7894 86.5312 30.6602 86.2913 32.5407C85.9459 35.2078 84.3149 37.5968 82.9622 39.8994C84.0463 38.8632 85.4279 38.1628 86.4256 36.9731C88.4116 34.6034 90.0522 31.9362 90.34 28.799C89.1312 27.6956 87.2795 26.8801 85.7349 26.9473ZM82.636 40.9739C85.4183 39.3909 88.4596 38.1148 90.2729 35.3709C91.5777 33.3945 92.7482 31.4565 90.743 29.1923C90.695 29.1443 90.6471 29.0964 90.5991 29.0484C90.34 31.3414 89.419 33.3466 88.1046 35.2558C87.5098 36.1097 86.867 36.9731 86.157 37.7407C85.0921 38.892 83.4802 39.5444 82.54 40.782C82.4825 40.8492 82.4057 40.8492 82.3385 40.8204C82.3961 40.9259 82.4633 41.0219 82.5016 41.137C82.5208 41.0794 82.5592 41.0219 82.636 40.9739ZM78.7695 81.2884C77.6758 75.1674 72.3894 69.6603 68.6381 64.8825C68.6381 72.5961 73.771 78.6404 78.8655 84.0036C78.8271 83.1017 78.7983 82.1999 78.7695 81.298V81.2884Z" fill="white"/>
</svg>
