<svg width="93" height="319" viewBox="0 0 93 319" fill="none" xmlns="http://www.w3.org/2000/svg">
<path d="M45.2448 317.757C51.894 314.62 55.6863 309.243 58.3662 303.46C53.4109 295.095 48.8096 286.474 43.4245 278.301C40.9216 274.524 37.3569 272.539 34.323 269.296C32.0982 266.906 30.733 264.025 29.8228 261.123C27.5222 253.868 27.5222 245.972 26.789 238.525C26.0053 230.629 24.5642 222.606 27.7244 214.966C27.8761 214.625 28.2301 214.475 28.584 214.497C28.8621 214.091 29.6459 213.921 29.9998 214.454C30.9605 216.161 32.4522 217.463 34.3989 218.359C36.1939 219.021 38.0648 219.383 39.9862 219.426C40.3401 219.661 40.9722 219.533 41.3009 219.981C42.9947 222.307 39.1519 226.297 45.169 225.593C45.6746 225.529 46.2308 225.764 46.2056 226.255C46.0033 229.626 48.936 231.141 50.5793 233.766C51.4895 235.26 51.5401 236.327 51.7676 237.927C51.9951 239.634 51.9193 241.896 53.4362 243.347C52.88 242.835 55.6105 244.521 55.6357 244.542C56.7987 245.439 57.3802 246.441 57.7594 247.722C58.2145 249.301 57.6836 250.688 57.6836 252.203C57.6836 256.364 59.5544 259.074 62.0068 262.467C64.9901 266.586 65.9255 271.28 65.4451 276.018C65.4451 276.167 65.344 276.295 65.2682 276.402C65.0154 278.578 64.7878 280.755 64.535 282.931C64.5856 282.931 64.6361 282.974 64.6867 282.995C65.6221 278.109 66.2542 273.179 66.5323 268.25C67.5941 250.133 64.6867 232.016 60.3129 214.326C58.4926 206.985 56.4195 199.687 54.2705 192.389C54.0683 192.688 53.6637 192.837 53.2339 192.581C46.9135 188.591 40.5424 184.537 35.309 179.522C32.5786 176.897 30.7836 174.251 29.2919 171.477C29.2414 171.477 29.2161 171.456 29.1655 171.434C28.8621 171.37 28.8621 171.093 29.0138 170.922C27.5475 168.127 26.3339 165.225 24.7664 162.088C21.9854 156.604 13.4148 155.067 12.4288 148.793C11.6451 143.821 13.6929 140.556 8.6871 136.587C5.8808 134.347 2.66999 132.725 0.217639 130.143C-0.136308 129.78 -0.0857445 129.097 0.571587 128.991C8.38372 127.625 16.3981 128.308 23.5276 131.423C31.6684 134.987 36.0928 141.047 41.579 146.766C40.1884 140.578 39.0002 134.347 38.1153 128.073C37.9131 128.073 37.6855 128.03 37.5086 127.838C30.0251 119.9 25.2974 111.002 23.0978 101.036C21.7579 94.9973 20.3421 89.6412 17.5105 83.9436C16.6762 82.2365 15.8925 80.6361 15.5132 78.8009C14.9317 75.7921 15.9683 71.9724 12.4288 69.9665C12.1507 69.8171 11.8979 69.4757 12.0496 69.1769C14.1227 64.9304 16.7268 60.6412 18.3448 56.2454C20.064 51.5507 16.8785 49.4382 15.0329 45.3624C12.2519 39.1954 13.2126 32.5589 16.9037 26.84C17.2324 26.3278 18.269 26.4132 18.3954 27.0107C20.696 36.464 31.8454 41.2653 36.7754 49.5449C41.7306 57.8671 41.048 67.5978 40.3149 76.603C40.239 77.4992 38.5957 77.4992 38.6715 76.603C39.5311 65.912 40.1126 54.5169 31.7948 45.6185C26.966 40.433 20.5443 36.2932 17.7633 30.1476C18.5218 43.6553 25.1204 55.968 29.3678 68.8568C33.1095 80.1879 34.6264 92.1165 36.5731 103.789C36.9018 89.065 39.7839 74.5117 46.1044 60.7693C42.6408 48.6273 50.3265 36.8267 55.029 25.6236C59.0994 16.021 63.4984 6.39704 73.409 0.101984C73.8893 -0.196765 74.7236 0.208679 74.6478 0.699481C73.1309 11.0063 83.0667 24.6207 73.1814 33.6045C70.0465 36.4639 67.8722 37.0188 66.5828 40.0489C66.8356 40.1343 66.9621 40.4757 66.6587 40.6251C66.5323 40.6891 66.4058 40.7745 66.2794 40.8385C66.0519 41.5 65.8749 42.2255 65.7232 43.1218C65.344 45.2984 65.2176 46.9201 63.7512 48.8193C60.5657 53.0231 54.2958 56.1173 48.9613 58.4006C48.5568 59.1902 48.1775 59.9797 47.7983 60.7479C47.7983 60.9827 47.7225 61.1534 47.5455 61.2814C40.416 76.5176 37.7108 91.8605 37.7867 107.246C40.062 97.558 39.9609 87.3152 46.3572 78.6728C51.5906 71.6096 59.605 66.5949 68.9593 64.0342C69.3891 63.9061 69.7178 64.1195 69.8695 64.4183C69.92 64.4609 69.92 64.5036 69.92 64.5676C69.9706 64.7384 69.9706 64.9091 69.8695 65.0584C64.712 73.7648 75.6843 82.0444 71.7909 90.9642C70.451 94.0371 67.8722 96.5551 65.698 99.2011C61.577 104.195 61.2483 107.609 62.2849 113.669C62.9169 117.403 62.3607 119.793 60.8691 123.336C59.0235 127.753 58.6696 132.256 57.7089 136.822C56.1414 144.355 51.7929 150.927 45.2954 156.219C45.2954 156.219 45.2701 156.219 45.2448 156.241C52.6525 184.729 63.372 213.344 67.0632 241.939C67.6952 238.354 68.2767 234.769 68.7824 231.163C68.4031 231.355 68.0492 230.843 68.4284 230.608C68.5801 230.522 68.7318 230.416 68.8835 230.309C70.2487 220.514 71.2853 210.677 72.5747 200.861C72.3218 200.818 72.1196 200.541 72.3471 200.328C72.4735 200.221 72.5494 200.114 72.6758 200.007C73.0045 197.511 73.3584 195.014 73.7376 192.539C74.9259 184.878 76.3922 177.26 78.4654 169.727C79.8812 164.606 81.2969 158.759 83.7999 153.616C70.3499 171.029 66.6334 192.411 63.4732 212.79C63.3467 213.665 61.7034 213.665 61.8298 212.79C65.4704 189.551 69.7431 165.203 87.9461 146.51C88.477 145.955 89.5136 146.553 89.3113 147.193C86.7073 155.152 88.9574 161.255 91.5109 168.831C92.1176 170.581 92.6991 172.48 92.4463 174.336C92.1176 176.662 90.2973 177.857 89.3113 179.863C87.6427 183.299 91.0558 186.286 89.4883 190.021C89.0585 191.024 87.9208 192.325 87.7944 193.371C87.5669 195.291 89.286 197.041 89.64 198.599C89.8675 199.645 90.0698 200.029 89.817 201.01C89.3872 202.803 87.7691 204.467 86.682 206.025C85.8477 207.241 84.6847 208.564 84.0274 209.866C82.6116 211.637 82.3841 213.686 83.3954 216.033L84.2297 216.823C84.8111 220.6 83.5723 224.078 82.6116 227.898C80.6143 235.836 79.6283 248.255 67.8975 249.706C68.5801 258.114 68.5801 266.522 67.5941 274.908C66.507 284.383 64.2822 293.878 60.3635 302.82C57.5066 309.349 53.4362 315.41 46.0286 318.909C45.0932 319.336 44.2841 318.141 45.1943 317.714L45.2448 317.757ZM53.9671 191.28C52.4755 186.244 50.9839 181.229 49.4922 176.193C47.2168 173.739 42.5397 174.486 39.2024 173.846C36.4467 173.312 33.7163 172.587 31.0111 171.882C36.3203 179.885 45.2954 185.796 53.9924 191.28L53.9671 191.28ZM30.4802 171.072C35.0562 172.224 39.5311 173.419 44.3094 173.718C46.2308 173.846 47.7983 174.08 49.1383 174.998C48.3545 172.331 47.5961 169.663 46.8376 166.996C43.1212 165.481 39.6575 164.371 35.4102 164.52C32.6291 164.606 30.0504 164.52 27.3199 164.286C27.4716 164.712 27.6233 165.161 27.8003 165.609C28.4829 167.551 29.4183 169.364 30.4802 171.093L30.4802 171.072ZM27.0671 163.603C30.91 163.923 34.7023 163.56 38.4946 163.902C41.3767 164.158 44.006 165.161 46.6101 166.206C46.6101 166.185 46.6101 166.142 46.6101 166.121C46.4837 166.121 46.3825 166.057 46.332 165.929C45.5229 163.645 44.5117 161.49 43.3487 159.42C39.2024 156.966 35.8652 155.729 30.7583 156.54C28.2048 156.945 25.7524 157.265 23.199 157.372C25.2215 159.186 26.2328 161.298 27.0924 163.624L27.0671 163.603ZM15.0076 151.269C16.2464 153.531 19.8112 154.832 22.0107 156.39C22.1624 156.497 22.2635 156.604 22.4152 156.71C26.5362 156.561 30.6571 155.259 34.7275 155.43C37.6602 155.537 40.2137 156.796 42.565 158.161C41.0986 155.729 39.4047 153.445 37.4833 151.311C29.747 148.217 22.6175 147.812 14.2239 148.388C14.2744 149.37 14.4767 150.33 14.9823 151.269L15.0076 151.269ZM8.61126 134.688C11.19 136.523 13.5665 138.529 14.2491 141.41C14.7295 143.501 14.1986 145.635 14.1986 147.748C22.3394 147.193 29.1402 147.598 36.4973 150.266C28.0025 141.282 15.943 134.88 2.94809 130.612C2.94809 130.612 2.94809 130.634 2.94809 130.655C3.22619 131.914 7.54941 133.92 8.61126 134.688ZM30.8341 137.633C25.1204 133.088 18.2184 130.1 10.3051 129.652C9.04105 129.588 7.75167 129.567 6.48757 129.631C4.99593 129.695 3.60542 129.545 3.12507 129.994C16.7521 134.453 29.3678 141.239 37.9889 150.821C38.0395 150.821 38.09 150.842 38.1153 150.863C38.2923 150.927 38.3176 151.055 38.267 151.162C41.1239 154.406 43.5257 157.948 45.3713 161.832C44.2588 157.735 43.197 153.616 42.211 149.498C38.2417 145.614 35.309 141.175 30.8341 137.633ZM37.8625 125.854C37.3063 121.415 36.9271 116.955 36.7248 112.495C36.6742 112.495 36.6237 112.517 36.5731 112.495C32.7303 111.493 29.393 109.7 26.7384 107.267C29.1402 113.947 32.705 120.135 37.8625 125.854ZM26.2075 105.752C28.8874 108.633 32.4774 110.746 36.6995 111.855C36.6743 111.13 36.6237 110.426 36.5984 109.721C36.5984 109.017 36.5984 108.313 36.5984 107.609C36.5478 107.566 36.4973 107.523 36.472 107.459C36.3203 106.627 36.1939 105.795 36.0422 104.941C32.9072 102.893 30.0251 100.588 27.5475 97.9635C25.6007 95.8936 24.1597 93.5676 22.4911 91.3697C23.2242 93.8237 23.7804 96.3204 24.3114 98.8384C24.817 101.207 25.449 103.512 26.1822 105.752L26.2075 105.752ZM16.6004 73.21C16.929 74.5971 16.8279 76.0268 17.0049 77.4352C17.4599 80.7001 19.1791 83.3248 20.5949 86.3123C21.1005 87.3792 21.5303 88.4675 21.9096 89.5558C24.1091 92.1165 25.7019 94.9973 28.0531 97.5153C30.3538 99.948 32.9831 102.103 35.8652 104.024C35.0815 99.4145 34.3736 94.7626 33.5646 90.1107C33.514 90.1107 33.4887 90.1107 33.4382 90.1107C29.5953 88.5316 27.4716 84.6051 25.1204 81.7457L14.7295 69.0702C15.1593 70.4573 16.1453 71.4602 16.5751 73.21L16.6004 73.21ZM17.3588 46.344C18.6735 48.6486 20.9236 50.5905 20.9489 53.2792C20.9741 55.6479 19.1791 58.1446 18.1426 60.2785C18.0161 60.5345 17.8645 60.8333 17.6875 61.132C20.873 62.7538 24.1597 64.7597 27.6233 65.9547C23.3506 54.0048 17.6622 42.4176 17.0301 29.8275C14.4514 35.1196 14.325 41.0305 17.3588 46.344ZM28.0531 67.1283C28.0025 67.0003 27.952 66.8723 27.9014 66.7442C27.9014 66.7442 27.8761 66.7442 27.8508 66.7442C24.1597 65.5493 20.7466 63.4367 17.3335 61.7082C16.1958 63.6287 14.5778 66.0187 14.5525 67.6618C14.5525 67.8752 14.5525 68.0886 14.6031 68.2807C14.7548 68.2167 14.9823 68.2167 15.134 68.366C17.9909 71.8443 20.8224 75.3226 23.6793 78.7795C26.3339 82.0231 29.2666 87.3366 33.4634 89.3211C32.1488 81.8097 30.5813 74.341 28.0531 67.107L28.0531 67.1283ZM69.5914 4.75393C67.3413 6.78115 65.4957 9.06444 63.8777 11.4544C60.8185 16.021 58.7201 21.0144 56.647 25.9437C52.6272 35.4823 46.1803 45.7252 46.9387 56.0747C55.1807 38.3631 63.4226 20.673 71.6645 2.96143C70.9313 3.3242 69.9453 4.4125 69.5914 4.73259L69.5914 4.75393ZM72.7263 5.30874C72.6505 4.17777 73.0297 3.23884 72.4735 2.94009C67.6447 13.3323 62.7905 23.7458 57.9617 34.138C59.9842 32.0041 62.5883 30.4036 65.2176 28.7392C68.7824 26.4772 71.6392 23.2123 75.7855 21.6972C75.7855 21.4838 75.7855 21.3131 75.7855 21.0997C75.3304 15.7649 73.0297 10.6649 72.7263 5.30874ZM67.3918 35.9731C72.5494 31.7907 75.8866 28.5684 75.8107 22.4014C72.1954 23.7885 69.6419 26.7119 66.507 28.7178C62.9675 31.0011 59.3269 32.943 57.0768 36.3146C57.0262 36.3999 56.9504 36.4213 56.8745 36.4426C53.6385 43.4205 50.3771 50.3771 47.141 57.355C47.141 57.3763 47.0904 57.3977 47.0651 57.419C47.0651 57.5044 47.0651 57.5897 47.0904 57.6751C47.141 57.6538 47.1915 57.6324 47.2421 57.6111C51.2619 50.8679 57.1527 45.277 64.535 41.0732C64.8384 39.2594 65.2176 37.723 67.3666 35.9945L67.3918 35.9731ZM64.0293 43.9327C64.2316 43.2071 64.3327 42.5243 64.4339 41.9054C58.1639 45.5758 53.0317 50.2704 49.2394 55.8399C49.5428 55.9466 49.7956 56.1813 49.8209 56.4801C56.0655 53.6633 62.4871 49.9076 64.0293 43.9113L64.0293 43.9327ZM45.978 82.1298C40.9975 90.5588 41.3514 100.332 38.9496 109.359C38.8232 109.849 38.2417 109.935 37.8372 109.764C38.0395 118.321 39.0508 126.899 40.6182 135.499C40.6182 135.499 40.6182 135.499 40.6688 135.478C42.3627 125.598 42.2363 115.483 43.4751 105.539C43.3993 105.454 43.3487 105.347 43.3993 105.219C43.4498 105.133 43.5004 105.069 43.5509 104.984C44.1324 100.567 44.9667 96.1923 46.3825 91.9031C49.113 83.6235 55.0795 73.3594 63.7007 67.4484C56.1414 70.628 49.8209 75.6427 45.978 82.1511L45.978 82.1298ZM71.1589 86.547C71.2853 79.2277 64.7878 73.1247 67.6952 65.976C67.4677 66.0401 67.2402 66.1254 67.0126 66.1894C55.0542 72.4631 48.0259 86.7177 45.5988 97.5794C45.169 99.4572 44.8656 101.356 44.5875 103.234C49.9978 94.2931 59.1499 87.5713 70.5521 84.3704C71.0072 84.2424 71.2094 84.8612 70.7544 84.9893C58.9224 88.3395 49.5428 95.5095 44.36 105.069C43.829 109.167 43.5004 113.285 43.2476 117.403C47.4191 110.084 54.1441 104.259 62.74 100.567C66.1025 96.0643 71.1336 92.2232 71.2094 86.547L71.1589 86.547ZM60.1865 105.197C60.5657 103.938 61.1978 102.765 61.9309 101.655C53.8154 105.39 47.4697 111.087 43.5762 118.193C43.4751 118.364 43.2981 118.364 43.1464 118.321C42.9947 120.604 42.8431 122.909 42.6408 125.192C44.0819 124.445 45.6494 122.034 46.7112 121.052C48.0764 119.793 49.5933 118.641 51.1861 117.574C54.0177 115.718 57.1274 114.267 60.4646 113.136C60.5404 113.114 60.591 113.136 60.6416 113.136C60.0854 110.511 59.3269 107.95 60.1865 105.176L60.1865 105.197ZM60.768 113.669C60.768 113.669 60.7174 113.733 60.6668 113.754C56.4195 115.206 52.5513 117.211 49.2141 119.857C47.7478 121.01 46.4078 122.269 45.1943 123.635C44.4358 124.467 43.9049 125.491 42.7672 125.896C42.7166 125.896 42.6661 125.896 42.6155 125.896C42.3374 129.033 41.9835 132.149 41.4525 135.243C45.801 134.091 48.4051 129.887 51.6412 127.369C54.0683 125.491 56.647 123.272 59.8325 122.418C60.5657 120.519 61.1472 118.62 61.1219 116.699C61.1219 115.675 60.9702 114.672 60.768 113.69L60.768 113.669ZM57.1779 129.972C57.6077 127.71 58.619 125.47 59.5292 123.208C55.4335 124.509 51.3378 128.201 48.6073 130.933C46.4078 133.109 44.6886 135.243 41.3261 135.969C41.3009 136.161 41.2756 136.331 41.2503 136.523C41.225 136.715 41.0227 136.779 40.8458 136.737C41.579 140.642 42.4133 144.568 43.3487 148.495C43.4245 148.559 43.4751 148.644 43.5509 148.708C43.8543 148.985 43.8038 149.327 43.6015 149.583C44.006 151.29 44.4358 152.976 44.8656 154.683C53.2339 147.534 55.3829 139.703 57.1779 129.972ZM89.64 168.34C88.7551 165.993 87.6427 163.709 87.0107 161.298C86.0499 157.5 86.1005 153.701 86.9348 149.946C86.8337 150.052 86.7326 150.159 86.6314 150.266C82.2577 156.86 80.3868 165.502 78.5159 172.736C77.5046 176.705 76.6451 180.674 75.9119 184.686C78.9204 179.586 83.9768 175.702 90.2973 173.59C90.5249 171.925 90.3226 170.197 89.6147 168.34L89.64 168.34ZM87.6174 198.642C87.2382 197.703 86.0752 197.212 85.7971 196.06C85.1145 193.243 88.0725 191.045 88.477 188.42C89.1596 183.939 85.0134 183.278 87.9461 179.159C89.0838 177.559 89.8423 175.98 90.1962 174.315C83.547 176.62 78.339 180.994 75.6591 186.67C75.6591 186.713 75.5832 186.734 75.5327 186.777C74.85 190.618 74.2686 194.459 73.7376 198.322C73.6871 198.599 73.6618 198.898 73.6365 199.175C78.0608 194.651 80.2098 189.103 86.7579 186.158C87.1876 185.966 87.5669 186.521 87.1371 186.713C80.4121 189.743 78.3137 195.761 73.4848 200.306C72.9033 204.766 72.3471 209.226 71.8162 213.686C74.4202 212.149 76.2153 209.973 78.4401 208.095C80.5385 206.302 83.0414 205.3 85.7971 204.382C85.9488 204.339 86.05 204.382 86.1258 204.446C87.4152 202.589 88.4012 200.562 87.6427 198.663L87.6174 198.642ZM81.1705 216.076C79.7295 212.768 81.6762 210.592 83.6987 207.668C84.2297 206.9 84.9123 206.046 85.5696 205.15C82.2071 206.302 79.6789 207.754 77.2518 210.101C75.5327 211.765 73.8893 213.387 71.6645 214.561C71.0577 219.661 70.4257 224.761 69.7178 229.84C71.0577 229.007 72.3977 228.132 73.5101 227.066C75.0017 225.614 75.7349 223.843 76.8979 222.222C78.1873 220.429 79.9823 219.191 82.1565 218.316C81.8784 217.655 81.5245 216.993 81.12 216.076L81.1705 216.076ZM80.5638 229.498C81.1958 226.959 82.106 224.377 82.5105 221.795C82.7127 220.514 82.6369 219.661 82.4093 218.914C80.589 219.639 79.0216 220.685 77.8586 222.136C76.7715 223.523 76.1394 225.102 75.0017 226.468C73.5859 228.175 71.6139 229.477 69.6167 230.693C68.9593 235.302 68.2514 239.912 67.3919 244.521C67.5436 245.801 67.67 247.082 67.7711 248.383C77.8333 247.146 78.8446 236.177 80.5385 229.498L80.5638 229.498ZM45.9275 279.432C50.2507 286.666 54.5486 293.921 58.8466 301.176C59.6809 298.594 60.414 296.012 61.1219 293.409C61.0967 293.366 61.0461 293.345 61.0461 293.281C60.3888 287.989 59.1499 282.867 57.456 277.853C57.4055 277.831 57.3549 277.831 57.3296 277.789C55.5852 275.399 53.1075 274.012 49.8462 273.606C48.0259 273.393 46.2056 273.606 44.3853 273.329C42.6661 273.073 41.1239 272.518 39.7081 271.771C42.6155 274.012 44.1577 276.487 45.9275 279.453L45.9275 279.432ZM31.896 262.211C33.0589 265.199 34.8287 267.482 37.1293 269.616C37.2557 269.53 37.458 269.488 37.635 269.616C39.8851 271.408 42.5397 272.539 45.6494 272.795C47.5455 272.945 49.4417 272.71 51.3125 273.094C53.5879 273.564 55.4082 274.673 56.8493 276.124C55.8127 273.179 54.6497 270.277 53.3856 267.418C49.0624 263.918 43.8543 264.409 38.5957 262.659C35.6124 261.656 33.0589 260.205 30.733 258.434C31.0617 259.714 31.4409 260.995 31.9212 262.232L31.896 262.211ZM29.4942 249.706C35.0056 252.673 40.9975 254.508 47.4697 255.212C46.0792 252.523 44.6634 249.834 43.2223 247.146C43.197 247.146 43.1717 247.146 43.1212 247.146C38.444 245.588 33.691 244.286 28.8116 243.219C28.9633 245.353 29.1149 247.508 29.2919 249.664C29.3425 249.664 29.4183 249.664 29.4689 249.685L29.4942 249.706ZM47.8236 255.916C41.1997 255.233 35.0309 253.377 29.3678 250.389C29.5953 252.737 29.924 255.063 30.4296 257.346C34.7023 260.867 39.9609 263.022 45.978 263.449C49.29 263.684 50.731 264.345 52.6777 265.903C51.1608 262.553 49.5175 259.224 47.8236 255.916ZM28.5335 239.528C28.6346 240.531 28.7104 241.533 28.7863 242.558C33.5646 243.603 38.2417 244.884 42.8178 246.399C41.5284 244.009 40.2643 241.597 39.0255 239.186C39.0255 239.186 39.0002 239.186 38.9749 239.186C35.1826 238.333 31.5673 237.095 28.1037 235.537C28.2554 236.882 28.407 238.205 28.5335 239.528ZM35.8147 232.806C33.0589 231.696 30.3032 230.565 27.5475 229.456C27.6486 231.248 27.8256 233.019 28.0278 234.79C31.4156 236.369 34.9551 237.586 38.6463 238.461C37.6855 236.583 36.7248 234.705 35.8147 232.806ZM27.4969 228.73C30.1262 229.797 32.7555 230.864 35.3849 231.931C32.9325 226.873 30.7077 221.752 28.938 216.503C27.5222 220.472 27.2946 224.59 27.4969 228.73ZM61.6023 264.708C60.1359 262.19 57.2032 260.376 55.838 257.879C55.1048 256.492 55.1807 255.916 55.3324 254.529C55.484 253.163 56.3184 251.968 56.2678 250.539C56.1414 247.38 52.9558 246.185 51.3125 243.817C49.113 240.659 50.7563 237.287 48.7843 233.937C47.8236 232.294 46.1803 230.458 44.9415 228.922C43.374 226.937 44.5875 227.3 40.7699 227.151C40.3401 227.151 39.9356 226.852 39.9356 226.468C40.0115 225.401 40.062 224.313 40.1379 223.246C40.1884 221.24 39.2277 220.386 37.2557 220.664C36.6995 220.386 35.8399 220.408 35.1826 220.194C32.9325 219.49 31.2133 218.295 29.8228 216.759C35.7894 234.107 46.4584 250.133 53.9671 266.991C54.0683 267.076 54.1694 267.162 54.2958 267.269C54.4475 267.418 54.4222 267.589 54.2958 267.695C57.7089 275.484 60.3888 283.465 61.577 291.83C62.1585 289.589 62.6894 287.349 63.1951 285.087C62.9422 285.001 62.74 284.809 62.7905 284.489C63.1192 281.566 63.4226 278.664 63.7513 275.74C63.7513 275.591 63.8271 275.484 63.9029 275.399C64.181 271.728 63.5996 268.101 61.6276 264.751L61.6023 264.708Z" fill="#333333"/>
</svg>
